<?xml version="1.0" encoding="UTF-8" standalone="no"?>
<svg
   xmlns:dc="http://purl.org/dc/elements/1.1/"
   xmlns:cc="http://creativecommons.org/ns#"
   xmlns:rdf="http://www.w3.org/1999/02/22-rdf-syntax-ns#"
   xmlns:svg="http://www.w3.org/2000/svg"
   xmlns="http://www.w3.org/2000/svg"
   xmlns:sodipodi="http://sodipodi.sourceforge.net/DTD/sodipodi-0.dtd"
   xmlns:inkscape="http://www.inkscape.org/namespaces/inkscape"
   version="1.1"
   id="svg833"
   xml:space="preserve"
   width="4266.6665"
   height="2666.6667"
   viewBox="0 0 4266.6665 2666.6667"
   sodipodi:docname="1.svg"
   inkscape:version="1.0.1 (3bc2e813f5, 2020-09-07)"><metadata
     id="metadata839"><rdf:RDF><cc:Work
         rdf:about=""><dc:format>image/svg+xml</dc:format><dc:type
           rdf:resource="http://purl.org/dc/dcmitype/StillImage" /><dc:title></dc:title></cc:Work></rdf:RDF></metadata><defs
     id="defs837" /><sodipodi:namedview
     pagecolor="#ffffff"
     bordercolor="#666666"
     borderopacity="1"
     objecttolerance="10"
     gridtolerance="10"
     guidetolerance="10"
     inkscape:pageopacity="0"
     inkscape:pageshadow="2"
     inkscape:window-width="1920"
     inkscape:window-height="1017"
     id="namedview835"
     showgrid="false"
     inkscape:zoom="0.25640626"
     inkscape:cx="2133.3333"
     inkscape:cy="1333.3334"
     inkscape:window-x="-8"
     inkscape:window-y="-8"
     inkscape:window-maximized="1"
     inkscape:current-layer="g843" /><g
     id="g841"
     inkscape:groupmode="layer"
     inkscape:label="ink_ext_XXXXXX"
     transform="matrix(1.3333333,0,0,-1.3333333,0,2666.6667)"><g
       id="g843"
       transform="scale(0.1)"><path
         d="M 32000,0 H 0 V 20000 H 32000 V 0"
         style="fill:#ffffff;fill-opacity:0;fill-rule:nonzero;stroke:none"
         id="path845" /><path
         d="m 4343.63,2249.5 c 0,0 -3248.43,3954.2 -1660.86,8025 1034.82,2653.4 4916.59,4107.4 7107.28,2653.4 933.05,-619.2 3926.45,-20.8 5524.75,2542.9 3106,4982.1 13945.7,1956.4 11972.3,-5692.8 -955,-3701.6 2906.4,-3836.2 938.9,-7536.4 l -23882.37,7.9"
         style="fill:#ebf3fa;fill-opacity:1;fill-rule:nonzero;stroke:none"
         id="path847" /><path
         d="m 17153.7,2287.4 -8.4,0.2 c -68.7,1.2 -121.7,57.3 -115.3,121.9 l 458.1,4574.8 399.7,-35.6 -657.7,-4599.5 c -5.2,-35.9 -38,-62.5 -76.4,-61.8"
         style="fill:#acc7eb;fill-opacity:1;fill-rule:nonzero;stroke:none"
         id="path849" /><path
         d="m 21564.5,2287.4 8.4,0.2 c 68.7,1.2 121.7,57.3 115.2,121.9 l -458,4574.8 -399.7,-35.6 657.7,-4599.5 c 5.2,-35.9 38,-62.5 76.4,-61.8"
         style="fill:#c8dbf4;fill-opacity:1;fill-rule:nonzero;stroke:none"
         id="path851" /><path
         d="m 13922,2287.4 -8.4,0.2 c -68.7,1.2 -121.7,57.3 -115.2,121.9 l 458,4574.8 399.8,-35.6 -657.8,-4599.5 c -5.1,-35.9 -38,-62.5 -76.4,-61.8"
         style="fill:#bad4f4;fill-opacity:1;fill-rule:nonzero;stroke:none"
         id="path853" /><path
         d="m 21428.1,7649.8 813.1,4015.4 c 104.4,543.7 -346.1,1040.8 -931.1,1027.4 l -1568.1,-35.8 c -541,-12.4 -1011.3,-374.4 -1161.7,-894.2 L 17390.7,7649.8 h 4037.4"
         style="fill:#bad4f4;fill-opacity:1;fill-rule:nonzero;stroke:none"
         id="path855" /><path
         d="m 20936.2,7649.8 813.1,4015.4 c 104.4,543.7 -346.1,1040.8 -931.1,1027.4 l -1568.1,-35.8 c -541,-12.4 -1011.4,-374.4 -1161.7,-894.2 L 16898.8,7649.8 h 4037.4"
         style="fill:#acc7eb;fill-opacity:1;fill-rule:nonzero;stroke:none"
         id="path857" /><path
         d="m 21201.5,6917.4 h -6204.3 c -124.6,0 -226.6,102 -226.6,226.7 v 279.1 c 0,124.6 102,226.6 226.6,226.6 h 6430.9 v -505.7 c 0,-124.7 -102,-226.7 -226.6,-226.7"
         style="fill:#c8dbf4;fill-opacity:1;fill-rule:nonzero;stroke:none"
         id="path859" /><path
         d="m 18290,6917.4 h -3955.1 c -100.4,0 -182.6,82.2 -182.6,182.6 v 367.2 c 0,100.4 82.2,182.6 182.6,182.6 H 18290 c 100.4,0 182.5,-82.2 182.5,-182.6 V 7100 c 0,-100.4 -82.1,-182.6 -182.5,-182.6"
         style="fill:#acc7eb;fill-opacity:1;fill-rule:nonzero;stroke:none"
         id="path861" /><path
         d="M 29936.8,2219.8 H 2433.41 c -21.56,0 -39.21,17.7 -39.21,39.2 v 36.8 c 0,21.6 17.65,39.2 39.21,39.2 H 29936.8 c 21.6,0 39.2,-17.6 39.2,-39.2 V 2259 c 0,-21.5 -17.6,-39.2 -39.2,-39.2"
         style="fill:#2e3552;fill-opacity:1;fill-rule:nonzero;stroke:none"
         id="path863" /><path
         d="m 15876.9,11449.8 c -87.4,71.6 1817.9,1680 2226.4,778.2 0,0 978.4,753.8 77.5,1195 -507.2,248.4 -580,770.9 -700.3,1078.5 -120.3,307.7 -728.2,1146.4 -1430,556.8 0,0 -356.3,-63.1 -548.1,-297.6 -436.3,-533.1 -1406.2,-4098.4 374.5,-3310.9"
         style="fill:#163560;fill-opacity:1;fill-rule:nonzero;stroke:none"
         id="path865" /><path
         d="m 17108.6,12057.8 c 0,0 -331.3,-595.7 -795.7,-1090 -245.4,-261.1 -528,-493.9 -818.4,-595.4 -141.8,-49.5 -285.3,-67.9 -427.4,-43 -90.7,15.8 -51.3,551.1 74.7,958 165.9,535.9 683.2,1867.5 683.2,1867.5 l 296,-126.2 c 0,0 -410.6,-1677.1 -361.6,-1684.2 l 434.1,1098.6 915.1,-385.3"
         style="fill:#e5925a;fill-opacity:1;fill-rule:nonzero;stroke:none"
         id="path867" /><path
         d="m 17741.1,9340.4 c 0,0 -3298.7,52.5 -3738.8,-227.4 -440.1,-280 439.9,-4749.8 439.9,-4749.8 0,0 853.2,-27.2 921,198.6 0,0 -153.5,2094.4 -19.2,2456.2 134.3,361.8 51.5,863.3 51.5,863.3 0,0 1668.7,-254.6 2198.6,-129.3 529.9,125.3 147,1588.4 147,1588.4"
         style="fill:#ed7d2b;fill-opacity:1;fill-rule:nonzero;stroke:none"
         id="path869" /><path
         d="m 14622.8,4590.4 c 0,0 187.8,-502.7 147.9,-689.2 -39.8,-186.4 24.5,-547.9 -51.8,-709.6 -76.4,-161.6 -212.7,-396.6 -81.8,-456.1 49.6,-22.6 627.2,425.5 660.3,557.7 33.1,132.1 58.9,522.2 169.5,734 110.5,211.7 17.8,382.5 -142,460.4 -159.8,77.8 -382.5,504.3 -382.5,504.3 l -319.6,-401.5"
         style="fill:#163560;fill-opacity:1;fill-rule:nonzero;stroke:none"
         id="path871" /><path
         d="m 14062.6,3810.4 c 0,0 -180.9,-505.2 -331.7,-622 -150.7,-116.7 -334.8,-434.4 -497.5,-508.7 -162.6,-74.2 -418.3,-165.8 -356.7,-295.7 23.3,-49.3 753.7,-79.6 864.3,0 110.5,79.6 381.9,361 603,451.5 221.1,90.5 260.5,280.7 188.6,443.3 -71.8,162.6 33.2,632.1 33.2,632.1 l -503.2,-100.5"
         style="fill:#2a4e96;fill-opacity:1;fill-rule:nonzero;stroke:none"
         id="path873" /><path
         d="m 19611.6,9457.9 c 0,0 -3914.5,-612.6 -4216.1,-960.9 -301.6,-348.3 -1496.1,-4885.5 -1496.1,-4885.5 0,0 348.6,-195.5 666.4,-14.6 0,0 909.4,1537.7 1311.1,2020.2 401.8,482.4 555.9,1974.9 622.1,1990 66.2,15 2172.7,-254.5 2948.7,259.1 457.4,302.7 163.9,1591.7 163.9,1591.7"
         style="fill:#f99746;fill-opacity:1;fill-rule:nonzero;stroke:none"
         id="path875" /><path
         d="m 18259.8,12719.2 c -231,173.9 -926.2,365.9 -1361,170.2 -205.9,-92.6 -518.3,-214.1 -705.3,-446.3 -201.8,-250.7 -434.1,-1098.7 -434.1,-1098.7 75.9,-446.5 431,-501.2 431,-501.2 v 0 c -207.9,-786.2 771.7,-580.8 708.4,-1016.8 -110.5,-760.7 601.2,-1160.2 989,-1337.5 507.6,-232.1 1934.2,-524.5 1935.7,0 7,2389.4 -899.5,3730.2 -1563.7,4230.3"
         style="fill:#ffffff;fill-opacity:1;fill-rule:nonzero;stroke:none"
         id="path877" /><path
         d="m 18180.8,11871.5 c 0,0 -257.2,-1388.5 -954.1,-1796.2 h -655.8 l 692.3,865.3 917.6,930.9"
         style="fill:#ebf3fa;fill-opacity:1;fill-rule:nonzero;stroke:none"
         id="path879" /><path
         d="m 15848.3,13014.4 c 0,0 -213,253.7 -250.4,330.6 -37.3,76.8 32.6,407.8 119.4,405.6 54.8,-1.3 122.2,-201.8 182.1,-274.7 59.8,-72.9 320.4,-176.6 210.2,-482.9 -12.4,-34.5 -261.3,21.4 -261.3,21.4"
         style="fill:#e5925a;fill-opacity:1;fill-rule:nonzero;stroke:none"
         id="path881" /><path
         d="m 16389.8,12507.1 c -60.1,-90.1 13.2,-342.8 353.8,-264.1 223.6,51.6 659.3,414.3 580.6,599.4 -37.3,87.9 -251.7,294.5 -386.4,831.4 l -39,-18.5 -655.8,-312.7 c 0,0 71.1,-213.3 123.7,-417.9 44.3,-171.8 47.9,-380.3 23.1,-417.6"
         style="fill:#ffb27d;fill-opacity:1;fill-rule:nonzero;stroke:none"
         id="path883" /><path
         d="m 16243,13342.6 c 0,0 71.1,-213.3 123.7,-417.9 383.7,109.3 498.1,513.8 532.1,730.6 l -655.8,-312.7"
         style="fill:#f4a269;fill-opacity:1;fill-rule:nonzero;stroke:none"
         id="path885" /><path
         d="m 15869.7,13225.2 c 0,0 919.2,-213.3 1043.2,361.2 124,574.4 326.1,933.8 -255.5,1094.2 -581.6,160.5 -743.3,-34 -831.4,-215.7 -88,-181.7 -192.2,-1169.5 43.7,-1239.7"
         style="fill:#ffb27d;fill-opacity:1;fill-rule:nonzero;stroke:none"
         id="path887" /><path
         d="m 16240.3,14784.9 c 0,0 5.8,-661.1 492.6,-982 284.9,-187.8 298.3,-379.9 298.3,-379.9 0,0 168.7,565.7 195.5,991.2 0,0 -727,650.7 -986.4,370.7"
         style="fill:#163560;fill-opacity:1;fill-rule:nonzero;stroke:none"
         id="path889" /><path
         d="m 16298.1,14668.1 c 0,0 -271.6,-90.3 -392.5,-190.4 -179,-148.1 -225.6,-629.8 -204.3,-749.7 0,0 -48.7,837.2 220.8,1050.5 285.7,226.2 376,-110.4 376,-110.4"
         style="fill:#163560;fill-opacity:1;fill-rule:nonzero;stroke:none"
         id="path891" /><path
         d="m 18180.9,11871.5 c -93.6,-223.1 -201.8,-432.8 -316.6,-622.9 -438.7,-725.2 -975.1,-1163.4 -1168.8,-959.1 -53.6,56.5 -188.8,138.5 -47.4,442.2 109.2,234.6 244.4,527.9 377.1,816.7 273.6,595.3 536,1170.8 536,1170.8 83.6,0 962.4,-30.6 619.7,-847.7"
         style="fill:#ffb27d;fill-opacity:1;fill-rule:nonzero;stroke:none"
         id="path893" /><path
         d="m 17263.2,10940.6 c -30.1,18 -1683.9,-383.7 -2196.1,-508.7 -94,-22.9 -149.6,-36.5 -149.6,-36.5 v -193 c 0,0 1711.3,-80.3 1978.6,42.4 267.2,122.8 522.4,408.4 522.4,408.4 l -155.3,287.4"
         style="fill:#ffb27d;fill-opacity:1;fill-rule:nonzero;stroke:none"
         id="path895" /><path
         d="m 18180.9,11871.5 c -93.6,-223.1 -201.8,-432.8 -316.6,-622.9 -357.4,46.4 -687.3,213.3 -839.1,299.8 273.6,595.3 536,1170.8 536,1170.8 83.6,0 962.4,-30.6 619.7,-847.7"
         style="fill:#ffffff;fill-opacity:1;fill-rule:nonzero;stroke:none"
         id="path897" /><path
         d="m 11908.8,10202.1 h 1837.1 v 0 c 0,80.9 -65.5,146.5 -146.4,146.5 h -1690.7 v -146.5"
         style="fill:#ed7d2b;fill-opacity:1;fill-rule:nonzero;stroke:none"
         id="path899" /><path
         d="M 11914.1,12202.9 H 9073.77 l 681.28,-2000.8 h 2858.75 l -699.7,2000.8"
         style="fill:#ed7d2b;fill-opacity:1;fill-rule:nonzero;stroke:none"
         id="path901" /><path
         d="m 9031.95,12202.9 681.28,-2000.8 H 12572 l -699.7,2000.8 H 9031.95"
         style="fill:#f99746;fill-opacity:1;fill-rule:nonzero;stroke:none"
         id="path903" /><path
         d="m 10563.3,11221 c 17.6,-76.4 93.9,-138.4 170.3,-138.4 76.5,0 124.2,62 106.5,138.4 -17.6,76.4 -93.9,138.4 -170.4,138.4 -76.4,0 -124.1,-62 -106.4,-138.4"
         style="fill:#ffffff;fill-opacity:1;fill-rule:nonzero;stroke:none"
         id="path905" /><path
         d="m 22514.1,6922.7 v -116.4 c 0,-40.8 13.2,-74.1 29.3,-74.1 h 4249.4 c 16.1,0 29.3,33.3 29.3,74.1 v 116.4 c 0,40.7 -13.2,74.1 -29.3,74.1 h -4249.4 c -16.1,0 -29.3,-33.4 -29.3,-74.1"
         style="fill:#9abfe2;fill-opacity:1;fill-rule:nonzero;stroke:none"
         id="path907" /><path
         d="m 22514.1,6922.7 v -116.4 c 0,-40.8 12.1,-74.1 26.9,-74.1 h 3373.5 c 14.8,0 26.9,33.3 26.9,74.1 v 116.4 c 0,40.7 -12.1,74.1 -26.9,74.1 H 22541 c -14.8,0 -26.9,-33.4 -26.9,-74.1"
         style="fill:#bad4f4;fill-opacity:1;fill-rule:nonzero;stroke:none"
         id="path909" /><path
         d="m 23589.6,2335 h 3016.8 V 6732.2 H 23589.6 V 2335"
         style="fill:#c8dbf4;fill-opacity:1;fill-rule:nonzero;stroke:none"
         id="path911" /><path
         d="M 22744.2,2335 H 25761 V 6732.2 H 22744.2 V 2335"
         style="fill:#dfebfd;fill-opacity:1;fill-rule:nonzero;stroke:none"
         id="path913" /><path
         d="m 25569.7,6578.9 h -2634.4 v -3972 h 2634.4 z m -2663.5,29 h 2692.6 V 2577.8 h -2692.6 v 4030.1"
         style="fill:#b7d3f3;fill-opacity:1;fill-rule:nonzero;stroke:none"
         id="path915" /><path
         d="m 22920.8,5245.7 h 2663.5 v 29 h -2663.5 v -29"
         style="fill:#b7d3f3;fill-opacity:1;fill-rule:nonzero;stroke:none"
         id="path917" /><path
         d="m 22920.8,3886.5 h 2663.5 v 29 h -2663.5 v -29"
         style="fill:#b7d3f3;fill-opacity:1;fill-rule:nonzero;stroke:none"
         id="path919" /><path
         d="m 23979.6,6348 h 494.2 c 24,0 43.7,19.7 43.7,43.6 v 0 c 0,24 -19.7,43.7 -43.7,43.7 h -494.2 c -24,0 -43.6,-19.7 -43.6,-43.7 v 0 c 0,-23.9 19.6,-43.6 43.6,-43.6"
         style="fill:#b7d3f3;fill-opacity:1;fill-rule:nonzero;stroke:none"
         id="path921" /><path
         d="m 23979.6,5018.9 h 494.2 c 24,0 43.7,19.6 43.7,43.6 v 0 c 0,24 -19.7,43.6 -43.7,43.6 h -494.2 c -24,0 -43.6,-19.6 -43.6,-43.6 v 0 c 0,-24 19.6,-43.6 43.6,-43.6"
         style="fill:#b7d3f3;fill-opacity:1;fill-rule:nonzero;stroke:none"
         id="path923" /><path
         d="m 23979.6,3633.3 h 494.2 c 24,0 43.7,19.7 43.7,43.7 v 0 c 0,23.9 -19.7,43.6 -43.7,43.6 h -494.2 c -24,0 -43.6,-19.7 -43.6,-43.6 v 0 c 0,-24 19.6,-43.7 43.6,-43.7"
         style="fill:#b7d3f3;fill-opacity:1;fill-rule:nonzero;stroke:none"
         id="path925" /><path
         d="M 21876.9,14458.7 H 20151 c -79.2,0 -144.1,64.8 -144.1,144.1 v 1665.8 c 0,79.2 64.9,144 144.1,144 h 1725.9 c 79.2,0 144.1,-64.8 144.1,-144 v -1665.8 c 0,-79.3 -64.9,-144.1 -144.1,-144.1"
         style="fill:#c0d8fb;fill-opacity:1;fill-rule:nonzero;stroke:none"
         id="path927" /><path
         d="m 21802.1,14543.4 h -1576.3 c -72.4,0 -131.6,59.2 -131.6,131.5 v 1521.5 c 0,72.4 59.2,131.6 131.6,131.6 h 1576.3 c 72.4,0 131.6,-59.2 131.6,-131.6 v -1521.5 c 0,-72.3 -59.2,-131.5 -131.6,-131.5"
         style="fill:#dfebfd;fill-opacity:1;fill-rule:nonzero;stroke:none"
         id="path929" /><path
         d="m 20972.2,16149.7 c 0,23 18.7,41.7 41.7,41.7 23.1,0 41.8,-18.7 41.8,-41.7 0,-23.1 -18.7,-41.8 -41.8,-41.8 -23,0 -41.7,18.7 -41.7,41.8"
         style="fill:#b7d3f3;fill-opacity:1;fill-rule:nonzero;stroke:none"
         id="path931" /><path
         d="m 21308.9,16090.7 c 11.2,20.1 36.6,27.4 56.7,16.2 20.1,-11.2 27.4,-36.6 16.2,-56.7 -11.2,-20.2 -36.6,-27.4 -56.7,-16.2 -20.2,11.2 -27.4,36.6 -16.2,56.7"
         style="fill:#b7d3f3;fill-opacity:1;fill-rule:nonzero;stroke:none"
         id="path933" /><path
         d="m 21597.3,15861.6 c 19.3,12.5 45.2,6.9 57.7,-12.5 12.4,-19.3 6.9,-45.2 -12.5,-57.7 -19.4,-12.4 -45.2,-6.9 -57.7,12.5 -12.5,19.4 -6.9,45.2 12.5,57.7"
         style="fill:#b7d3f3;fill-opacity:1;fill-rule:nonzero;stroke:none"
         id="path935" /><path
         d="m 21740.1,15506.9 c 23.1,0 41.8,-18.7 41.8,-41.7 0,-23 -18.7,-41.7 -41.8,-41.7 -23,0 -41.7,18.7 -41.7,41.7 0,23 18.7,41.7 41.7,41.7"
         style="fill:#b7d3f3;fill-opacity:1;fill-rule:nonzero;stroke:none"
         id="path937" /><path
         d="m 21667.2,15095.3 c 16.3,-16.2 16.3,-42.7 0,-59 -16.3,-16.2 -42.7,-16.2 -59,0 -16.3,16.3 -16.3,42.8 0,59 16.3,16.3 42.7,16.3 59,0"
         style="fill:#b7d3f3;fill-opacity:1;fill-rule:nonzero;stroke:none"
         id="path939" /><path
         d="m 21405.2,14832.7 c 16.3,-16.3 16.3,-42.7 0,-59 -16.3,-16.3 -42.7,-16.3 -59,0 -16.3,16.3 -16.3,42.7 0,59 16.3,16.3 42.7,16.3 59,0"
         style="fill:#b7d3f3;fill-opacity:1;fill-rule:nonzero;stroke:none"
         id="path941" /><path
         d="m 20972.2,14697.3 c 0,23 18.7,41.7 41.7,41.7 23.1,0 41.8,-18.7 41.8,-41.7 0,-23 -18.7,-41.7 -41.8,-41.7 -23,0 -41.7,18.7 -41.7,41.7"
         style="fill:#b7d3f3;fill-opacity:1;fill-rule:nonzero;stroke:none"
         id="path943" /><path
         d="m 20717.7,16090.7 c -11.2,20.1 -36.6,27.4 -56.7,16.2 -20.2,-11.2 -27.4,-36.6 -16.2,-56.7 11.1,-20.2 36.5,-27.4 56.7,-16.2 20.1,11.2 27.4,36.6 16.2,56.7"
         style="fill:#b7d3f3;fill-opacity:1;fill-rule:nonzero;stroke:none"
         id="path945" /><path
         d="m 20429.3,15861.6 c -19.4,12.5 -45.2,6.9 -57.7,-12.5 -12.5,-19.3 -6.9,-45.2 12.5,-57.7 19.3,-12.4 45.1,-6.9 57.6,12.5 12.5,19.4 7,45.2 -12.4,57.7"
         style="fill:#b7d3f3;fill-opacity:1;fill-rule:nonzero;stroke:none"
         id="path947" /><path
         d="m 20286.4,15506.9 c -23,0 -41.7,-18.7 -41.7,-41.7 0,-23 18.7,-41.7 41.7,-41.7 23.1,0 41.7,18.7 41.7,41.7 0,23 -18.6,41.7 -41.7,41.7"
         style="fill:#b7d3f3;fill-opacity:1;fill-rule:nonzero;stroke:none"
         id="path949" /><path
         d="m 20359.4,15095.3 c -16.3,-16.2 -16.3,-42.7 0,-59 16.3,-16.2 42.7,-16.2 59,0 16.3,16.3 16.3,42.8 0,59 -16.3,16.3 -42.7,16.3 -59,0"
         style="fill:#b7d3f3;fill-opacity:1;fill-rule:nonzero;stroke:none"
         id="path951" /><path
         d="m 20621.3,14832.7 c -16.2,-16.3 -16.2,-42.7 0,-59 16.3,-16.3 42.8,-16.3 59.1,0 16.2,16.3 16.2,42.7 0,59 -16.3,16.3 -42.8,16.3 -59.1,0"
         style="fill:#b7d3f3;fill-opacity:1;fill-rule:nonzero;stroke:none"
         id="path953" /><path
         d="m 21002.7,15465.2 c 0,23 18.7,41.7 41.7,41.7 23.1,0 41.7,-18.7 41.7,-41.7 0,-23 -18.6,-41.7 -41.7,-41.7 -23,0 -41.7,18.7 -41.7,41.7"
         style="fill:#b7d3f3;fill-opacity:1;fill-rule:nonzero;stroke:none"
         id="path955" /><path
         d="m 21050.1,15465.2 h -11.4 v 521.2 h 11.4 v -521.2"
         style="fill:#b7d3f3;fill-opacity:1;fill-rule:nonzero;stroke:none"
         id="path957" /><path
         d="m 21049.7,15452.5 -21.1,26.9 276.3,216.9 21.1,-26.9 -276.3,-216.9"
         style="fill:#b7d3f3;fill-opacity:1;fill-rule:nonzero;stroke:none"
         id="path959" /><path
         d="m 7693.71,5414.5 c 0,0 494.47,576.9 30.48,943.4 0,0 -338.91,205.1 -615.26,188.5 0,0 391.58,-656.7 264.9,-722 -126.68,-65.3 -383.58,763.2 -383.58,763.2 0,0 -771.26,74.8 -1019.37,-44.5 0,0 659.33,-539.6 520.47,-571.7 -138.86,-32.1 -851.02,497.5 -851.02,497.5 0,0 -717.82,-122.2 -679.54,-560.1 38.27,-437.9 285.61,-573.1 394.32,-561.5 108.71,11.7 744.62,254.4 758.47,165.4 13.86,-89.1 -368.93,-380.2 -636.98,-393.8 0,0 506.08,-558.1 842.42,-397.1 336.35,161.1 365.06,416.4 574.72,512.2 209.66,95.8 388.64,95.5 302.08,-2.1 -86.57,-97.7 -466.02,-192.6 -585.92,-404.7 -119.9,-212.1 -227.47,-355.1 120.52,-302.8 347.98,52.4 913.63,307 938.46,598.6 24.83,291.5 24.83,291.5 24.83,291.5"
         style="fill:#c8dbf4;fill-opacity:1;fill-rule:nonzero;stroke:none"
         id="path961" /><path
         d="m 5313.49,5897 c 0,0 1949.65,75.1 2380.22,-482.5 0,0 95.22,-285.1 388.23,-544.8 l 45.67,-124.5 c 0,0 -337.84,356.2 -458.73,377.8 0,0 189.05,690.8 -2355.39,774"
         style="fill:#c8dbf4;fill-opacity:1;fill-rule:nonzero;stroke:none"
         id="path963" /><path
         d="m 8081.94,4869.7 c 0,0 418.48,-309.5 447.55,-862.5 l -75.95,-6.8 c 0,0 -133.66,571.8 -375.23,795.4 -241.58,223.6 3.63,73.9 3.63,73.9"
         style="fill:#c8dbf4;fill-opacity:1;fill-rule:nonzero;stroke:none"
         id="path965" /><path
         d="m 9422.57,6140 c 0,0 -786.58,440.5 -419.51,1038.3 0,0 293.66,367.1 608.3,461.5 0,0 -167.81,-891.5 0,-912.4 167.8,-21 115.36,1006.8 115.36,1006.8 0,0 828.58,398.5 1153.68,367.1 0,0 -513.9,-870.5 -346.1,-849.6 167.8,21 744.6,902 744.6,902 0,0 849.5,157.3 985.9,-346.1 136.3,-503.4 -83.9,-755.1 -209.8,-786.6 -125.8,-31.4 -933.4,-21 -912.4,-125.8 21,-104.9 566.3,-272.7 870.5,-178.3 0,0 -335.6,-828.6 -776.1,-786.6 -440.5,41.9 -576.9,314.6 -849.5,335.6 -272.7,21 -472,-52.5 -335.7,-125.9 136.4,-73.4 597.9,-24 818.1,-211.3 220.2,-187.2 398.5,-302.6 -10.5,-386.5 -409,-83.9 -1143.16,-31.4 -1290,283.2 C 9422.57,6140 9422.57,6140 9422.57,6140"
         style="fill:#c8dbf4;fill-opacity:1;fill-rule:nonzero;stroke:none"
         id="path967" /><path
         d="m 11876.7,7650.3 c 0,0 -2202.42,-713.2 -2454.13,-1510.3 0,0 10.49,-356.6 -209.75,-765.6 v -157.3 c 0,0 230.73,534.9 356.58,608.3 0,0 -492.93,692.2 2307.3,1824.9"
         style="fill:#c8dbf4;fill-opacity:1;fill-rule:nonzero;stroke:none"
         id="path969" /><path
         d="m 9212.82,5374.4 c 0,0 -339.66,-515.8 -146.02,-1143.6 l 87.38,23.5 c 0,0 -84.82,691.5 92.88,1039.3 177.71,347.8 -34.24,80.8 -34.24,80.8"
         style="fill:#c8dbf4;fill-opacity:1;fill-rule:nonzero;stroke:none"
         id="path971" /><path
         d="m 8171.17,6747.5 c 0,0 1036.87,580.7 553,1368.7 0,0 -387.1,483.9 -801.85,608.3 0,0 221.21,-1175.1 0,-1202.8 -221.19,-27.6 -152.07,1327.2 -152.07,1327.2 0,0 -1092.17,525.4 -1520.74,483.9 0,0 677.42,-1147.5 456.22,-1119.8 -221.2,27.6 -981.57,1188.9 -981.57,1188.9 0,0 -1119.82,207.4 -1299.55,-456.2 -179.72,-663.6 110.6,-995.4 276.5,-1036.9 165.9,-41.5 1230.42,-27.6 1202.77,-165.9 -27.64,-138.2 -746.54,-359.4 -1147.46,-235 0,0 442.39,-1092.2 1023.04,-1036.9 580.65,55.3 760.37,414.8 1119.82,442.4 359.45,27.7 622.12,-69.1 442.4,-165.9 -179.73,-96.7 -788.02,-31.7 -1078.35,-278.5 -290.32,-246.8 -525.35,-398.9 13.83,-509.5 539.17,-110.6 1506.92,-41.5 1700.47,373.3 193.54,414.7 193.54,414.7 193.54,414.7"
         style="fill:#d4e4f8;fill-opacity:1;fill-rule:nonzero;stroke:none"
         id="path973" /><path
         d="m 4936.14,8738.3 c 0,0 2903.24,-940.1 3235.03,-1990.8 0,0 -13.82,-470 276.5,-1009.2 v -207.4 c 0,0 -304.14,705.1 -470.04,801.9 0,0 649.77,912.4 -3041.49,2405.5"
         style="fill:#d4e4f8;fill-opacity:1;fill-rule:nonzero;stroke:none"
         id="path975" /><path
         d="m 8447.67,5738.3 c 0,0 447.73,-679.9 192.48,-1507.5 l -115.18,30.9 c 0,0 111.81,911.6 -122.44,1370.1 -234.24,458.5 45.14,106.5 45.14,106.5"
         style="fill:#d4e4f8;fill-opacity:1;fill-rule:nonzero;stroke:none"
         id="path977" /><path
         d="m 8206.11,2436.1 c -1121.73,0 -2031.06,909.3 -2031.06,2031 h 4062.15 c 0,-1121.7 -909.36,-2031 -2031.09,-2031"
         style="fill:#d4e4f8;fill-opacity:1;fill-rule:nonzero;stroke:none"
         id="path979" /><path
         d="m 6147,2332.7 h 4118.2 v 0 c 0,138.4 -112.2,250.6 -250.6,250.6 H 6397.58 C 6259.19,2583.3 6147,2471.1 6147,2332.7 v 0"
         style="fill:#d4e4f8;fill-opacity:1;fill-rule:nonzero;stroke:none"
         id="path981" /><path
         d="M 6128.86,4404.8 H 10304 v 62.3 H 6128.86 v -62.3"
         style="fill:#9fc1f4;fill-opacity:1;fill-rule:nonzero;stroke:none"
         id="path983" /><path
         d="m 9018.31,9752 h 9558.99 c 94.7,0 171.4,76.7 171.4,171.4 v 107.3 c 0,94.7 -76.7,171.4 -171.4,171.4 H 9018.31 c -94.66,0 -171.4,-76.7 -171.4,-171.4 v -107.3 c 0,-94.7 76.74,-171.4 171.4,-171.4"
         style="fill:#2a4e96;fill-opacity:1;fill-rule:nonzero;stroke:none"
         id="path985" /><path
         d="m 9139.07,2337.1 -5.33,0.7 c -63.76,7.8 -108.92,64.7 -100.86,127.1 L 10004,9977 10548.1,9961.4 9243.09,2412.6 c -8.36,-48.3 -54.24,-81.6 -104.02,-75.5"
         style="fill:#2a4e96;fill-opacity:1;fill-rule:nonzero;stroke:none"
         id="path987" /><path
         d="m 18612.8,2337.1 5.3,0.7 c 63.8,7.8 108.9,64.7 100.9,127.1 l -971.1,7512.1 -544.2,-15.6 1305.1,-7548.8 c 8.3,-48.3 54.2,-81.6 104,-75.5"
         style="fill:#2a4e96;fill-opacity:1;fill-rule:nonzero;stroke:none"
         id="path989" /><path
         d="m 24781.6,7523.4 -112.4,-18.1 -212.6,1324.3 112.3,18 212.7,-1324.2"
         style="fill:#b5453c;fill-opacity:1;fill-rule:nonzero;stroke:none"
         id="path991" /><path
         d="m 24475.3,9071.7 -18.7,-242.1 112.3,18 z"
         style="fill:#efcbab;fill-opacity:1;fill-rule:nonzero;stroke:none"
         id="path993" /><path
         d="m 25541.2,7396.4 -111.9,20.7 245,1318.7 111.9,-20.8 -245,-1318.6"
         style="fill:#b5453c;fill-opacity:1;fill-rule:nonzero;stroke:none"
         id="path995" /><path
         d="m 25773.4,8957.6 -99.1,-221.8 111.9,-20.8 z"
         style="fill:#efcbab;fill-opacity:1;fill-rule:nonzero;stroke:none"
         id="path997" /><path
         d="m 25399.3,7783.1 -111.8,20.8 245,1318.7 111.8,-20.8 -245,-1318.7"
         style="fill:#b5453c;fill-opacity:1;fill-rule:nonzero;stroke:none"
         id="path999" /><path
         d="m 25631.5,9344.3 -99,-221.7 111.8,-20.8 z"
         style="fill:#efcbab;fill-opacity:1;fill-rule:nonzero;stroke:none"
         id="path1001" /><path
         d="m 25774.1,6996.8 h -896.3 v 1291.7 h 896.3 V 6996.8"
         style="fill:#ed7d2b;fill-opacity:1;fill-rule:nonzero;stroke:none"
         id="path1003" /><path
         d="m 25326,6996.8 h -896.3 V 8288.5 H 25326 V 6996.8"
         style="fill:#f99746;fill-opacity:1;fill-rule:nonzero;stroke:none"
         id="path1005" /><path
         d="m 24104.2,2672.4 c -9.4,-19.4 -30.4,-123.9 -67.7,-210.2 v -0.1 c -22.5,-51.9 -50.7,-97.1 -85.9,-113.4 -93.6,-43.6 -250.9,31.1 -250.9,31.1 0,0 -269.6,-31.1 -295.8,-18.7 -26.2,12.5 -52.4,417.2 -52.4,417.2 0,0 209.7,217.9 228.4,224.1 18.7,6.2 172.3,-74.7 198.5,-74.7 26.2,0 179.7,100.2 220.9,75.1 41.2,-25.3 119.9,-299.3 104.9,-330.4"
         style="fill:#ffffff;fill-opacity:1;fill-rule:nonzero;stroke:none"
         id="path1007" /><path
         d="m 23778.4,2927.7 c 0,0 -46.8,-105.9 -59.9,-115.2 -13.1,-9.3 -138.6,189.9 -138.6,189.9 18.7,6.2 172.3,-74.7 198.5,-74.7"
         style="fill:#f2f7fe;fill-opacity:1;fill-rule:nonzero;stroke:none"
         id="path1009" /><path
         d="m 23996.2,2897.6 c 0,0 -191.6,-177.5 -189.1,-194.1 2.5,-16.6 207.2,-134.8 214.7,-130.7 7.5,4.2 -43.7,139 -41.2,161.9 2.5,22.8 15.6,162.9 15.6,162.9"
         style="fill:#f2f7fe;fill-opacity:1;fill-rule:nonzero;stroke:none"
         id="path1011" /><path
         d="m 24104.2,2672.4 c -9.4,-19.4 -30.4,-123.9 -67.7,-210.2 v -0.1 h -0.1 l 22.8,197.9 -59.9,342.8 c 41.2,-25.3 119.9,-299.3 104.9,-330.4"
         style="fill:#f2f7fe;fill-opacity:1;fill-rule:nonzero;stroke:none"
         id="path1013" /><path
         d="m 23699.7,2379.8 c 0,0 -269.6,-31.1 -295.8,-18.7 -26.2,12.5 -52.4,417.2 -52.4,417.2 0,0 58.6,-207.6 59.9,-217.9 1.2,-10.4 84.2,12.3 84.2,12.3 l 204.1,-192.9"
         style="fill:#f2f7fe;fill-opacity:1;fill-rule:nonzero;stroke:none"
         id="path1015" /><path
         d="m 23421.7,2778.3 29.9,-107.4 h 61.8 l -45.9,45.1 -45.8,62.3"
         style="fill:#f2f7fe;fill-opacity:1;fill-rule:nonzero;stroke:none"
         id="path1017" /><path
         d="m 12415.7,2672.4 c -9.4,-19.4 -30.4,-123.9 -67.7,-210.2 v -0.1 c -22.5,-51.9 -50.7,-97.1 -85.9,-113.4 -93.6,-43.6 -250.9,31.1 -250.9,31.1 0,0 -269.6,-31.1 -295.8,-18.7 -26.2,12.5 -52.4,417.2 -52.4,417.2 0,0 209.7,217.9 228.4,224.1 18.7,6.2 172.3,-74.7 198.5,-74.7 26.2,0 179.7,100.2 220.9,75.1 41.2,-25.3 119.9,-299.3 104.9,-330.4"
         style="fill:#ffffff;fill-opacity:1;fill-rule:nonzero;stroke:none"
         id="path1019" /><path
         d="m 12089.9,2927.7 c 0,0 -46.8,-105.9 -59.9,-115.2 -13.2,-9.3 -138.6,189.9 -138.6,189.9 18.7,6.2 172.3,-74.7 198.5,-74.7"
         style="fill:#f2f7fe;fill-opacity:1;fill-rule:nonzero;stroke:none"
         id="path1021" /><path
         d="m 12307.7,2897.6 c 0,0 -191.6,-177.5 -189.1,-194.1 2.5,-16.6 207.2,-134.8 214.7,-130.7 7.5,4.2 -43.7,139 -41.2,161.9 2.5,22.8 15.6,162.9 15.6,162.9"
         style="fill:#f2f7fe;fill-opacity:1;fill-rule:nonzero;stroke:none"
         id="path1023" /><path
         d="m 12415.7,2672.4 c -9.4,-19.4 -30.4,-123.9 -67.7,-210.2 v -0.1 h -0.1 l 22.8,197.9 -59.9,342.8 c 41.2,-25.3 119.9,-299.3 104.9,-330.4"
         style="fill:#f2f7fe;fill-opacity:1;fill-rule:nonzero;stroke:none"
         id="path1025" /><path
         d="m 12011.2,2379.8 c 0,0 -269.6,-31.1 -295.8,-18.7 -26.2,12.5 -52.4,417.2 -52.4,417.2 0,0 58.6,-207.6 59.9,-217.9 1.2,-10.4 84.2,12.3 84.2,12.3 l 204.1,-192.9"
         style="fill:#f2f7fe;fill-opacity:1;fill-rule:nonzero;stroke:none"
         id="path1027" /><path
         d="m 11733.2,2778.3 29.9,-107.4 h 61.8 l -45.9,45.1 -45.8,62.3"
         style="fill:#f2f7fe;fill-opacity:1;fill-rule:nonzero;stroke:none"
         id="path1029" /><path
         d="m 24947.5,7345.3 c -8.4,-20.3 -23.9,-127.5 -56.9,-217.3 v -0.1 c -19.9,-54 -46,-101.5 -80.8,-120 -92.6,-49.5 -256.5,17.5 -256.5,17.5 0,0 -272.1,-46.7 -299.4,-35.6 -27.3,11.2 -76.7,420.7 -76.7,420.7 0,0 200.7,233 219.4,240.4 18.7,7.4 179.1,-66.2 205.7,-64.7 26.7,1.5 177,111.9 220.2,88.7 43.3,-23.4 138.5,-297.1 125,-329.6"
         style="fill:#ffffff;fill-opacity:1;fill-rule:nonzero;stroke:none"
         id="path1031" /><path
         d="m 24602.3,7586.2 c 0,0 -41.5,-110.1 -54.3,-120.3 -12.8,-10.2 -151.4,185 -151.4,185 18.7,7.4 179.1,-66.2 205.7,-64.7"
         style="fill:#f2f7fe;fill-opacity:1;fill-rule:nonzero;stroke:none"
         id="path1033" /><path
         d="m 24825.2,7567.9 c 0,0 -184.6,-191 -181.1,-207.7 3.5,-16.7 218,-125.3 225.4,-120.7 7.4,4.7 -52.2,138.8 -50.9,162.1 1.2,23.3 6.6,166.3 6.6,166.3"
         style="fill:#f2f7fe;fill-opacity:1;fill-rule:nonzero;stroke:none"
         id="path1035" /><path
         d="m 24947.5,7345.3 c -8.4,-20.3 -23.9,-127.5 -56.9,-217.3 v -0.1 h -0.1 l 12.1,202.2 -80.1,344.8 c 43.3,-23.4 138.5,-297.1 125,-329.6"
         style="fill:#f2f7fe;fill-opacity:1;fill-rule:nonzero;stroke:none"
         id="path1037" /><path
         d="m 24553.3,7025.4 c 0,0 -272.1,-46.7 -299.4,-35.6 -27.3,11.2 -76.7,420.7 -76.7,420.7 0,0 71.2,-207.5 73.1,-217.9 1.9,-10.5 84.9,17.2 84.9,17.2 l 218.1,-184.4"
         style="fill:#f2f7fe;fill-opacity:1;fill-rule:nonzero;stroke:none"
         id="path1039" /><path
         d="m 24248.5,7414.4 36.5,-107.3 62.7,3.5 -49.1,43.2 -50.1,60.6"
         style="fill:#f2f7fe;fill-opacity:1;fill-rule:nonzero;stroke:none"
         id="path1041" /><path
         d="m 23409.2,7252 c -6.5,-13.8 -18.6,-86.5 -44.2,-147.5 v -0.1 c -15.5,-36.7 -35.8,-69.1 -62.7,-82.1 -71.9,-34.5 -199,8.9 -199,8.9 0,0 -211.1,-34.7 -232.3,-27.5 -21.2,7.2 -59.3,283.5 -59.3,283.5 0,0 155.8,159.8 170.3,165 14.4,5.2 138.9,-42.7 159.5,-41.4 20.7,1.3 137.3,77.7 170.8,62.5 33.6,-15.3 107.4,-199.2 96.9,-221.3"
         style="fill:#ffffff;fill-opacity:1;fill-rule:nonzero;stroke:none"
         id="path1043" /><path
         d="m 23141.5,7410.8 c 0,0 -32.3,-74.9 -42.2,-81.9 -9.9,-7.1 -117.3,123.3 -117.3,123.3 14.4,5.2 138.9,-42.7 159.5,-41.4"
         style="fill:#c4d9e8;fill-opacity:1;fill-rule:nonzero;stroke:none"
         id="path1045" /><path
         d="m 23314.4,7401 c 0,0 -143.2,-131.2 -140.6,-142.4 2.7,-11.3 169.1,-82.3 174.8,-79 5.8,3.2 -40.4,93.2 -39.4,108.9 1,15.8 5.2,112.5 5.2,112.5"
         style="fill:#dfebf5;fill-opacity:1;fill-rule:nonzero;stroke:none"
         id="path1047" /><path
         d="m 23409.2,7252 c -6.5,-13.8 -18.6,-86.5 -44.2,-147.5 v -0.1 h -0.1 l 9.5,136.8 -62.1,232.1 c 33.6,-15.3 107.4,-199.2 96.9,-221.3"
         style="fill:#c4d9e8;fill-opacity:1;fill-rule:nonzero;stroke:none"
         id="path1049" /><path
         d="m 23103.3,7031.2 c 0,0 -211.1,-34.7 -232.3,-27.5 -21.2,7.2 -59.3,283.5 -59.3,283.5 0,0 55.2,-139.5 56.6,-146.5 1.5,-7 65.9,12.6 65.9,12.6 l 169.1,-122.1"
         style="fill:#dfebf5;fill-opacity:1;fill-rule:nonzero;stroke:none"
         id="path1051" /><path
         d="m 22867,7290.7 28.2,-72.2 48.7,3.1 -38.1,28.6 -38.8,40.5"
         style="fill:#dfebf5;fill-opacity:1;fill-rule:nonzero;stroke:none"
         id="path1053" /><path
         d="m 15067.1,10431.9 c 0,0 -544.8,156.5 -696.4,113.3 -107,-30.5 -243.6,-188.7 -314.8,-279.3 -20.7,-26.4 -1.6,-65.1 32,-64.7 91.2,0.9 238.6,6.9 315.8,47.4 72.8,38.3 181.2,-46 301.9,-46.5 92.7,-0.4 211.9,0.3 211.9,0.3 l 149.6,229.5"
         style="fill:#ffb27d;fill-opacity:1;fill-rule:nonzero;stroke:none"
         id="path1055" /></g></g></svg>
