<?xml version="1.0" encoding="UTF-8" standalone="no"?>
<svg
   xmlns:dc="http://purl.org/dc/elements/1.1/"
   xmlns:cc="http://creativecommons.org/ns#"
   xmlns:rdf="http://www.w3.org/1999/02/22-rdf-syntax-ns#"
   xmlns:svg="http://www.w3.org/2000/svg"
   xmlns="http://www.w3.org/2000/svg"
   xmlns:sodipodi="http://sodipodi.sourceforge.net/DTD/sodipodi-0.dtd"
   xmlns:inkscape="http://www.inkscape.org/namespaces/inkscape"
   version="1.1"
   id="svg1227"
   xml:space="preserve"
   width="4266.6665"
   height="2666.6667"
   viewBox="0 0 4266.6665 2666.6667"
   sodipodi:docname="6963.svg"
   inkscape:version="1.0.1 (3bc2e813f5, 2020-09-07)"><metadata
     id="metadata1233"><rdf:RDF><cc:Work
         rdf:about=""><dc:format>image/svg+xml</dc:format><dc:type
           rdf:resource="http://purl.org/dc/dcmitype/StillImage" /><dc:title></dc:title></cc:Work></rdf:RDF></metadata><defs
     id="defs1231" /><sodipodi:namedview
     pagecolor="#ffffff"
     bordercolor="#666666"
     borderopacity="1"
     objecttolerance="10"
     gridtolerance="10"
     guidetolerance="10"
     inkscape:pageopacity="0"
     inkscape:pageshadow="2"
     inkscape:window-width="1920"
     inkscape:window-height="1017"
     id="namedview1229"
     showgrid="false"
     inkscape:zoom="0.25640626"
     inkscape:cx="2133.3333"
     inkscape:cy="1333.3334"
     inkscape:window-x="-8"
     inkscape:window-y="-8"
     inkscape:window-maximized="1"
     inkscape:current-layer="g1237" /><g
     id="g1235"
     inkscape:groupmode="layer"
     inkscape:label="ink_ext_XXXXXX"
     transform="matrix(1.3333333,0,0,-1.3333333,0,2666.6667)"><g
       id="g1237"
       transform="scale(0.1)"><path
         d="M 0,0 H 32000 V 20000 H 0 Z"
         style="fill:#ffffff;fill-opacity:0;fill-rule:nonzero;stroke:none"
         id="path1239" /><path
         d="m 3856.62,2511.5 c 0,0 -2620.16,3800.2 -1030.82,7712.6 1035.97,2550.1 4922.04,3947.5 7115.15,2550.1 934.05,-595.1 3930.85,-20 5530.95,2443.9 3109.3,4788.2 13961.1,1880.3 11985.5,-5471.2 -956.1,-3557.5 2909.6,-3686.8 939.9,-7243 l -24540.68,7.6"
         style="fill:#dfebfa;fill-opacity:1;fill-rule:nonzero;stroke:none"
         id="path1241" /><path
         d="M 30565.7,2438.6 H 1952.73 c -21.78,0 -39.6,17.8 -39.6,39.6 v 33.7 c 0,21.8 17.82,39.6 39.6,39.6 H 30565.7 c 21.8,0 39.6,-17.8 39.6,-39.6 v -33.7 c 0,-21.8 -17.8,-39.6 -39.6,-39.6"
         style="fill:#2e3552;fill-opacity:1;fill-rule:nonzero;stroke:none"
         id="path1243" /><path
         d="m 20910.9,14050.8 h -1975.6 c -90.7,0 -164.9,74.2 -164.9,164.9 v 1906.9 c 0,90.7 74.2,164.9 164.9,164.9 h 1975.6 c 90.7,0 164.9,-74.2 164.9,-164.9 v -1906.9 c 0,-90.7 -74.2,-164.9 -164.9,-164.9"
         style="fill:#c0d8fb;fill-opacity:1;fill-rule:nonzero;stroke:none"
         id="path1245" /><path
         d="m 20825.3,14147.7 h -1804.5 c -82.8,0 -150.6,67.8 -150.6,150.6 V 16040 c 0,82.8 67.8,150.6 150.6,150.6 h 1804.5 c 82.9,0 150.6,-67.8 150.6,-150.6 v -1741.7 c 0,-82.8 -67.7,-150.6 -150.6,-150.6"
         style="fill:#dfebfd;fill-opacity:1;fill-rule:nonzero;stroke:none"
         id="path1247" /><path
         d="m 19875.3,15986.4 c 0,26.4 21.4,47.8 47.8,47.8 26.4,0 47.7,-21.4 47.7,-47.8 0,-26.3 -21.3,-47.7 -47.7,-47.7 -26.4,0 -47.8,21.4 -47.8,47.7"
         style="fill:#b7d3f3;fill-opacity:1;fill-rule:nonzero;stroke:none"
         id="path1249" /><path
         d="m 20260.7,15918.9 c 12.8,23.1 41.9,31.4 64.9,18.6 23.1,-12.8 31.4,-41.9 18.6,-65 -12.8,-23 -41.9,-31.3 -65,-18.5 -23,12.8 -31.3,41.9 -18.5,64.9"
         style="fill:#b7d3f3;fill-opacity:1;fill-rule:nonzero;stroke:none"
         id="path1251" /><path
         d="m 20590.8,15656.7 c 22.2,14.2 51.7,7.9 66,-14.3 14.3,-22.2 8,-51.7 -14.2,-66 -22.2,-14.3 -51.7,-7.9 -66,14.2 -14.3,22.2 -7.9,51.7 14.2,66.1"
         style="fill:#b7d3f3;fill-opacity:1;fill-rule:nonzero;stroke:none"
         id="path1253" /><path
         d="m 20754.4,15250.7 c 26.3,0 47.7,-21.4 47.7,-47.8 0,-26.3 -21.4,-47.7 -47.7,-47.7 -26.4,0 -47.8,21.4 -47.8,47.7 0,26.4 21.4,47.8 47.8,47.8"
         style="fill:#b7d3f3;fill-opacity:1;fill-rule:nonzero;stroke:none"
         id="path1255" /><path
         d="m 20670.9,14779.6 c 18.6,-18.7 18.6,-48.9 0,-67.6 -18.7,-18.6 -48.9,-18.6 -67.6,0 -18.6,18.7 -18.6,48.9 0,67.6 18.7,18.6 48.9,18.6 67.6,0"
         style="fill:#b7d3f3;fill-opacity:1;fill-rule:nonzero;stroke:none"
         id="path1257" /><path
         d="m 20371,14478.9 c 18.6,-18.7 18.6,-48.9 0,-67.6 -18.7,-18.6 -48.9,-18.6 -67.6,0 -18.6,18.7 -18.6,48.9 0,67.6 18.7,18.6 48.9,18.6 67.6,0"
         style="fill:#b7d3f3;fill-opacity:1;fill-rule:nonzero;stroke:none"
         id="path1259" /><path
         d="m 19875.3,14323.9 c 0,26.4 21.4,47.8 47.8,47.8 26.4,0 47.7,-21.4 47.7,-47.8 0,-26.4 -21.3,-47.8 -47.7,-47.8 -26.4,0 -47.8,21.4 -47.8,47.8"
         style="fill:#b7d3f3;fill-opacity:1;fill-rule:nonzero;stroke:none"
         id="path1261" /><path
         d="m 19584,15918.9 c -12.8,23.1 -41.9,31.4 -65,18.6 -23,-12.8 -31.3,-41.9 -18.5,-65 12.8,-23 41.9,-31.3 64.9,-18.5 23.1,12.8 31.4,41.9 18.6,64.9"
         style="fill:#b7d3f3;fill-opacity:1;fill-rule:nonzero;stroke:none"
         id="path1263" /><path
         d="m 19253.8,15656.7 c -22.1,14.2 -51.7,7.9 -66,-14.3 -14.3,-22.2 -7.9,-51.7 14.3,-66 22.1,-14.3 51.7,-7.9 66,14.2 14.3,22.2 7.9,51.7 -14.3,66.1"
         style="fill:#b7d3f3;fill-opacity:1;fill-rule:nonzero;stroke:none"
         id="path1265" /><path
         d="m 19090.3,15250.7 c -26.4,0 -47.8,-21.4 -47.8,-47.8 0,-26.3 21.4,-47.7 47.8,-47.7 26.4,0 47.8,21.4 47.8,47.7 0,26.4 -21.4,47.8 -47.8,47.8"
         style="fill:#b7d3f3;fill-opacity:1;fill-rule:nonzero;stroke:none"
         id="path1267" /><path
         d="m 19173.8,14779.6 c -18.7,-18.7 -18.7,-48.9 0,-67.6 18.6,-18.6 48.9,-18.6 67.5,0 18.7,18.7 18.7,48.9 0,67.6 -18.6,18.6 -48.9,18.6 -67.5,0"
         style="fill:#b7d3f3;fill-opacity:1;fill-rule:nonzero;stroke:none"
         id="path1269" /><path
         d="m 19473.7,14478.9 c -18.7,-18.7 -18.7,-48.9 0,-67.6 18.6,-18.6 48.9,-18.6 67.5,0 18.7,18.7 18.7,48.9 0,67.6 -18.6,18.6 -48.9,18.6 -67.5,0"
         style="fill:#b7d3f3;fill-opacity:1;fill-rule:nonzero;stroke:none"
         id="path1271" /><path
         d="m 19910.2,15202.9 c 0,26.4 21.4,47.8 47.8,47.8 26.3,0 47.7,-21.4 47.7,-47.8 0,-26.3 -21.4,-47.7 -47.7,-47.7 -26.4,0 -47.8,21.4 -47.8,47.7"
         style="fill:#b7d3f3;fill-opacity:1;fill-rule:nonzero;stroke:none"
         id="path1273" /><path
         d="m 19964.5,15202.9 h -13.1 v 596.6 h 13.1 v -596.6"
         style="fill:#b7d3f3;fill-opacity:1;fill-rule:nonzero;stroke:none"
         id="path1275" /><path
         d="m 19964,15188.4 -24.1,30.8 316.3,248.2 24.1,-30.7 -316.3,-248.3"
         style="fill:#b7d3f3;fill-opacity:1;fill-rule:nonzero;stroke:none"
         id="path1277" /><path
         d="m 22443.8,8028.2 c 0,0 -363,998.8 425,1249.8 0,0 544.7,101.6 898.2,-56.4 0,0 -836.1,-666.5 -702.5,-814.5 133.7,-147.9 878.2,809.9 878.2,809.9 0,0 1046.4,-282.2 1312.4,-560.6 0,0 -1129,-381.3 -963,-491.8 165.9,-110.5 1359.1,231.8 1359.1,231.8 0,0 879.4,-513.7 613.5,-1068 -265.9,-554.3 -656.3,-609.4 -792.9,-540.6 -136.5,68.8 -849.3,699.9 -911.3,590.2 -62,-109.8 295.6,-679.5 639.7,-829.4 0,0 -937.5,-481.1 -1298.4,-104.6 -360.8,376.6 -272.6,725 -499.8,953.7 -227.3,228.6 -461.7,316.5 -396.5,146 65.2,-170.5 515.1,-481.7 567.5,-818.4 52.4,-336.7 122.8,-577 -306.9,-336.9 -429.7,240 -1044.7,852 -933.5,1245.9 111.2,393.9 111.2,393.9 111.2,393.9"
         style="fill:#c8dbf4;fill-opacity:1;fill-rule:nonzero;stroke:none"
         id="path1279" /><path
         d="m 25797.2,7486.7 c 0,0 -2515,1059.2 -3353.4,541.5 0,0 -265.2,-326.3 -776.7,-521.9 L 21546,7365.9 c 0,0 617.8,299.8 786.6,268.4 0,0 93,997.4 3464.6,-147.6"
         style="fill:#c8dbf4;fill-opacity:1;fill-rule:nonzero;stroke:none"
         id="path1281" /><path
         d="m 21667.1,7506.3 c 0,0 -700.3,-198.8 -1010.8,-908.3 l 96,-46.4 c 0,0 456.8,682.6 883.2,856.3 426.4,173.6 31.6,98.4 31.6,98.4"
         style="fill:#c8dbf4;fill-opacity:1;fill-rule:nonzero;stroke:none"
         id="path1283" /><path
         d="m 20561.5,8539.6 c 0,0 917.7,513.9 489.5,1211.3 0,0 -342.6,428.3 -709.7,538.4 0,0 195.8,-1040 0,-1064.5 -195.8,-24.5 -134.6,1174.6 -134.6,1174.6 0,0 -966.6,465 -1345.9,428.3 0,0 599.5,-1015.6 403.8,-991.1 -195.8,24.5 -868.8,1052.2 -868.8,1052.2 0,0 -991,183.6 -1150.1,-403.7 -159,-587.3 97.9,-881 244.7,-917.7 146.8,-36.7 1089,-24.5 1064.5,-146.8 -24.5,-122.4 -660.7,-318.1 -1015.5,-208 0,0 391.5,-966.6 905.4,-917.7 513.9,49 672.9,367.1 991.1,391.5 318.1,24.5 550.6,-61.1 391.5,-146.8 -159.1,-85.6 -697.4,-28 -954.4,-246.5 -256.9,-218.4 -464.9,-353 12.3,-450.9 477.2,-97.9 1333.6,-36.7 1504.9,330.4 171.3,367 171.3,367 171.3,367"
         style="fill:#c8dbf4;fill-opacity:1;fill-rule:nonzero;stroke:none"
         id="path1285" /><path
         d="m 17698.4,10301.5 c 0,0 2569.5,-832 2863.1,-1761.9 0,0 -12.2,-416 244.7,-893.2 v -183.5 c 0,0 -269.1,624 -416,709.7 0,0 575.1,807.5 -2691.8,2128.9"
         style="fill:#c8dbf4;fill-opacity:1;fill-rule:nonzero;stroke:none"
         id="path1287" /><path
         d="m 20806.2,7646.4 c 0,0 396.3,-601.7 170.4,-1334.2 l -102,27.4 c 0,0 99,806.8 -108.3,1212.5 -207.3,405.8 39.9,94.3 39.9,94.3"
         style="fill:#c8dbf4;fill-opacity:1;fill-rule:nonzero;stroke:none"
         id="path1289" /><path
         d="m 21623.8,9852.5 c 0,0 -1337.9,749.2 -713.6,1765.9 0,0 499.5,624.4 1034.6,784.9 0,0 -285.4,-1516.2 0,-1551.9 285.4,-35.7 196.2,1712.4 196.2,1712.4 0,0 1409.2,677.9 1962.2,624.4 0,0 -874,-1480.6 -588.6,-1444.9 285.4,35.7 1266.4,1534.1 1266.4,1534.1 0,0 1444.9,267.5 1676.8,-588.7 231.9,-856.2 -142.7,-1284.3 -356.8,-1337.8 -214,-53.5 -1587.5,-35.7 -1551.8,-214.1 35.6,-178.4 963.2,-463.8 1480.5,-303.2 0,0 -570.8,-1409.2 -1320,-1337.9 -749.2,71.4 -981.1,535.2 -1444.9,570.9 -463.8,35.6 -802.7,-89.2 -570.8,-214.1 231.9,-124.9 1016.8,-40.9 1391.4,-359.4 374.6,-318.4 677.8,-514.7 -17.9,-657.4 -695.6,-142.7 -1944.3,-53.5 -2194,481.7 -249.7,535.1 -249.7,535.1 -249.7,535.1"
         style="fill:#d4e4f8;fill-opacity:1;fill-rule:nonzero;stroke:none"
         id="path1291" /><path
         d="m 25797.8,12421.1 c 0,0 -3745.9,-1212.9 -4174,-2568.6 0,0 17.8,-606.5 -356.8,-1302.2 v -267.5 c 0,0 392.4,909.7 606.5,1034.6 0,0 -838.4,1177.3 3924.3,3103.7"
         style="fill:#d4e4f8;fill-opacity:1;fill-rule:nonzero;stroke:none"
         id="path1293" /><path
         d="m 21267,8550.3 c 0,0 -577.7,-877.2 -248.4,-1945.1 l 148.7,40 c 0,0 -144.3,1176.1 157.9,1767.7 302.3,591.5 -58.2,137.4 -58.2,137.4"
         style="fill:#d4e4f8;fill-opacity:1;fill-rule:nonzero;stroke:none"
         id="path1295" /><path
         d="m 20681.8,6857.3 c -49.6,-117.7 -525.7,-226.8 -1232.2,-323.4 -124.5,-17 -256,-33.6 -393.8,-49.9 -2404.6,-283.2 -8990.4,-441.3 -9396.34,-357.8 -560.93,115.4 -1677.17,5756.3 -1677.17,5756.3 0,0 3286.61,56.9 5896.61,84.7 892.9,9.4 3998.8,33 4574.8,33 892,0 2308.1,-4952.4 2228.1,-5142.9"
         style="fill:#f2f7fc;fill-opacity:1;fill-rule:nonzero;stroke:none"
         id="path1297" /><path
         d="m 19772.1,7581.3 c 0,0 -1009,3865.1 -1081.8,4190 -32.4,144.7 -132.5,197.1 -233.2,210.5 177.3,17.1 306.4,18.4 306.4,18.4 349.1,0 659.3,-235 771.4,-584.2 244.3,-761.6 729.9,-2224.8 1185.7,-3655.3 -23.1,0.5 -948.5,-179.4 -948.5,-179.4"
         style="fill:#ffffff;fill-opacity:1;fill-rule:nonzero;stroke:none"
         id="path1299" /><path
         d="m 25887.8,4138.5 c -160.9,-969.6 -1213.1,-1587 -2292.4,-1587 h -2137.7 l 165.7,5601.5 c 0,0 2041.1,665.2 2553.4,79.6 448.8,-513 1665.9,-2543.6 1729.9,-3745.5 6.4,-120.6 -0.2,-237 -18.9,-348.6"
         style="fill:#ffffff;fill-opacity:1;fill-rule:nonzero;stroke:none"
         id="path1301" /><path
         d="m 25887.8,4138.5 c -160.9,-969.6 -1213.1,-1587 -2292.4,-1587 h -1048.6 c 699.2,445.6 1331.5,1819 3341,1587"
         style="fill:#d4e4f8;fill-opacity:1;fill-rule:nonzero;stroke:none"
         id="path1303" /><path
         d="m 20213.1,7604.2 c 0,0 2883.8,1384 3430,479.9 290,-480 1088.2,-2395.1 1147.1,-3596.9 57.2,-1167.8 -1018.8,-1935.7 -2125.6,-1935.7 h -1965.9 l -485.6,5052.7"
         style="fill:#aac8e8;fill-opacity:1;fill-rule:nonzero;stroke:none"
         id="path1305" /><path
         d="m 24012.8,3515.8 c -32,-25.5 -64.7,-50.6 -98.2,-75.4 -416.6,-307 -959.9,-551.2 -1581.3,-702.7 -469.6,-114.4 -983.7,-175.7 -1521.6,-171.1 l -934.7,-0.3 h -12.7 l -4424.8,-1.1 -2536.3,-0.8 h -37.5 l -0.2,1.1 -88,460.3 -803.1,4642.5 c 0,0 11114.3,250.3 12018,-265.6 419.6,-239.5 657.8,-1231.7 789.8,-2325 70.3,-582.1 -227.5,-1128.6 -769.4,-1561.9"
         style="fill:#e1efff;fill-opacity:1;fill-rule:nonzero;stroke:none"
         id="path1307" /><path
         d="m 12903.2,2564.4 v 0 l -37.7,1.1 -88,460.3 c 1497.5,289.4 3549,583.2 5703.5,583.2 82,0 163.9,-0.4 246.2,-1.3 2143.1,-22.6 3937.5,-19.7 5285.6,-91.9 -32,-25.5 -64.7,-50.6 -98.2,-75.4 -416.6,-307 -959.9,-551.2 -1581.3,-702.7 -453,-110.3 -947.6,-171.3 -1464.8,-171.3 -18.9,0 -37.8,0 -56.8,0.2 h -114.5 l -820.2,-0.3 h -12.7 l -4424.8,-1.1 -2536.3,-0.8"
         style="fill:#cee1fa;fill-opacity:1;fill-rule:nonzero;stroke:none"
         id="path1309" /><path
         d="m 17873.9,11918.4 c -21.7,6.8 -53.1,24.7 -79.9,41.4 h 585.3 c 0,0 -224.6,127.1 -370.6,191.9 -146,64.8 -503.6,0 -503.6,0 0,0 -1324.3,197.1 -2066.7,178.6 -199.2,-5 -1615.6,225.9 -2023.7,144.1 -215.1,-43.1 -410,-77.1 -535.4,-97.6 -76.5,-12.5 -147.5,42.7 -154.3,120 l -0.2,1.3 c -23.2,267.6 -56.5,417.5 -56.5,417.5 l -498.2,241.1 c -103,-54.6 -199.2,-105.9 -250.2,-133 2.4,-27.6 4.1,-54.7 5,-81.3 4.6,-136.7 -9.9,-259.4 -34.1,-366.2 -44.6,-197.4 -198,-351.8 -393.6,-403.7 l -2.4,-0.7 c 373.4,-321.5 2273.6,-881.8 2305.8,-717.5 43.4,221 3704.5,506 3704.5,506 v -0.5 c 0,0 102,-38.5 127.3,-75 25.3,-36.6 229.7,-30.9 267.9,-36.6 38.2,-5.6 18.5,56.2 -26.4,70.2"
         style="fill:#ffb27d;fill-opacity:1;fill-rule:nonzero;stroke:none"
         id="path1311" /><path
         d="m 19173.4,3791.8 c 0,0 386.1,-696.5 557.2,-775 135.8,-62.4 503.5,-124.2 708.3,-281.8 237.6,-182.9 -173.8,-173.3 -264.2,-173.3 0,0 -460.3,54.9 -678.5,50.2 -125.6,-2.6 -500,-50.2 -500,-50.2 -295,0 -519.5,267.8 -464.4,557.6 0.5,2.7 1,5.4 1.5,8.1 53.4,269.1 94.9,616.3 94.9,616.3 l 545.2,48.1"
         style="fill:#ed7d2b;fill-opacity:1;fill-rule:nonzero;stroke:none"
         id="path1313" /><path
         d="m 14361.6,12063.8 c -8.1,-181.1 -58.6,-379.5 -219.8,-484.2 -254.8,-165.3 -190.3,-596.5 -188.7,-765.8 l -1090.3,1561.3 c 0,0 302.3,77.2 663.9,116.9 220.2,24.1 799.3,-42.2 799.3,-42.2 0,0 44.7,-181.9 35.6,-386"
         style="fill:#699dee;fill-opacity:1;fill-rule:nonzero;stroke:none"
         id="path1315" /><path
         d="m 17486.8,3519.2 c 0,0 384.9,-423.9 555.9,-502.4 122.2,-56.1 451.1,-88.8 646.9,-231 206.9,-150.2 48.4,-224.1 -71.8,-224.1 0,0 -549.8,-43.7 -900.2,55 -95.4,26.9 -356.8,-26.6 -449.9,-47.3 -28.2,-6.2 -207.8,-21 -236.5,-17.3 -213.5,27.3 -223.4,232 -203.2,452.3 3.7,40.9 9.4,82.2 17.5,123 53.4,269.1 85.5,519.4 85.5,519.4 l 555.8,-127.6"
         style="fill:#f99746;fill-opacity:1;fill-rule:nonzero;stroke:none"
         id="path1317" /><path
         d="m 19383.2,3752.3 c 0,0 -139,-97.2 -261.3,-137.8 -192.4,-64.2 -551.1,-34.4 -551.1,-34.4 0,0 -915.9,1776.7 -1109.2,2226.1 -183.2,426.1 -336.6,1360.2 -336.6,1360.2 -139.8,7.5 -1186.1,-140.6 -2105.3,-41.2 -489.1,52.8 -902.7,173.5 -1042.8,420.5 -403.9,711.5 886.3,1504.8 886.3,1504.8 0,0 2522.6,-454.7 3077,-857.3 525.4,-381.7 1443,-4440.9 1443,-4440.9"
         style="fill:#233862;fill-opacity:1;fill-rule:nonzero;stroke:none"
         id="path1319" /><path
         d="m 17624.2,3540.1 c 0,0 -196.2,-102.7 -323.2,-124.2 -230.7,-39.1 -479.3,38.1 -479.3,38.1 0,0 -140.8,851.1 -718.4,2213 -144.9,341.7 -122.6,1042.2 -142,1050.9 0,0 -3155.7,-26.9 -3522.2,681.8 -59.5,114.9 -125.7,439 -118.4,544.4 38.3,560.5 766.1,776.7 766.1,776.7 0,0 3289.5,-581.7 3854.2,-969.6 564.7,-388 683.2,-4211.1 683.2,-4211.1"
         style="fill:#2a4e96;fill-opacity:1;fill-rule:nonzero;stroke:none"
         id="path1321" /><path
         d="m 15128.7,9027.2 c -191.7,-342.2 -391.2,-612.8 -1125.1,-739.9 -924.7,-160 -1431.3,-355.8 -1687.6,-433.1 -195.9,-59.2 -759,658.4 -1027.4,1298.7 -259.8,620.1 -481,1586.2 -482.5,1660.9 -23.2,1151 852,1427.4 852.4,1430.5 0,0 649.8,-442 1003.6,-288.5 348.7,151.3 205.2,411.8 200.7,419.3 l 937.8,-920.8 c 0,0 211.3,-808.2 465.8,-1394.8 385.9,-889.2 915.1,-938.2 862.3,-1032.3"
         style="fill:#699dee;fill-opacity:1;fill-rule:nonzero;stroke:none"
         id="path1323" /><path
         d="m 12668.3,12915.6 c 0,0 33.3,-149.9 56.5,-417.5 -422.8,13.8 -757.6,452.3 -760,479.9 51,27.1 102.3,124.1 205.3,178.7 l 498.2,-241.1"
         style="fill:#ed985f;fill-opacity:1;fill-rule:nonzero;stroke:none"
         id="path1325" /><path
         d="m 12766.9,12646.4 c 0,0 -889.7,25.3 -865.4,579.2 24.4,553.8 -74.1,930 495,937.2 569.1,7.2 670.1,-208.9 706.9,-395.7 36.8,-186.9 -104.5,-1113.1 -336.5,-1120.7"
         style="fill:#ffb27d;fill-opacity:1;fill-rule:nonzero;stroke:none"
         id="path1327" /><path
         d="m 11949.5,13001.7 c 0,0 -35.5,183.9 64.3,305.9 0,0 -65.4,180.3 3.9,221.1 69.3,40.7 106.1,-113.4 136.4,-84.3 30.3,29.2 164.4,166.3 205.1,346.7 40.7,180.3 658,53.7 730.9,32.2 12.1,-3.5 28,-2.5 46,2.1 154.6,39.5 200.6,240.3 81,346 -7.2,6.4 -14.1,12.8 -20.2,19 -65.3,66 -519.6,509 -1039.3,293.9 -519.7,-215.1 -557.8,-482.6 -496.8,-698.9 61,-216.3 57.7,-740.2 288.7,-783.7"
         style="fill:#2b478b;fill-opacity:1;fill-rule:nonzero;stroke:none"
         id="path1329" /><path
         d="m 12579.9,12986.7 c 0,0 57.8,-80.3 178.1,-101.5 120.3,-21.1 146.6,72.7 146.6,72.7 0,0 -110.3,36.5 -324.7,28.8"
         style="fill:#ffffff;fill-opacity:1;fill-rule:nonzero;stroke:none"
         id="path1331" /><path
         d="m 11026.6,11605.5 c 0,0 -153,-303.8 -10,-859.5 282,-1096.5 1414.2,-1986.7 1577.6,-1904.2 163.4,82.5 592.8,70.4 360.7,568.5 -232.2,498.1 -1171.6,2336.4 -1171.6,2336.4 l -756.7,-141.2"
         style="fill:#ffb27d;fill-opacity:1;fill-rule:nonzero;stroke:none"
         id="path1333" /><path
         d="m 12402.3,10535.6 c -296.5,-165.4 -514.3,-297.6 -968.1,-296.5 -341.6,0.8 -623.2,67.4 -623.2,67.4 0,0 -350.9,1427.1 304.9,1720.8 225.8,101.2 542.6,217 542.6,217 0,0 1274.8,-1412.5 743.8,-1708.7"
         style="fill:#699dee;fill-opacity:1;fill-rule:nonzero;stroke:none"
         id="path1335" /><path
         d="m 14731.5,9287.6 c 0,0 -1582.2,168.7 -1794.6,160.9 -212.4,-7.8 -428.1,-578.5 -398.1,-608.5 30,-30 666.6,-60.8 1060.4,-33.5 432.1,30 982.6,169.6 982.6,169.6 l 149.7,311.5"
         style="fill:#ffb27d;fill-opacity:1;fill-rule:nonzero;stroke:none"
         id="path1337" /><path
         d="M 15059.5,4108.4 C 14886.1,3168.1 13934.9,2572.2 12959.9,2572.2 H 10994 l 153.7,5651.1 c 0,0 1875.7,615.5 2346.8,30 412.8,-513 1532,-2543.6 1591,-3745.5 6.7,-139.1 -2.4,-272.4 -26,-399.4"
         style="fill:#ffffff;fill-opacity:1;fill-rule:nonzero;stroke:none"
         id="path1339" /><path
         d="M 15059.5,4108.4 C 14886.1,3168.1 13934.9,2572.2 12959.9,2572.2 h -1573.2 c 736.3,469.2 1727.8,1765.9 3672.8,1536.2"
         style="fill:#d4e4f8;fill-opacity:1;fill-rule:nonzero;stroke:none"
         id="path1341" /><path
         d="m 8544.17,2551.5 c -493.16,3 -1022.99,108.9 -1423.81,410.2 -389.76,292.7 -620.97,738.3 -761.54,1195.7 -300.48,977.7 -291.53,2049.9 -259.11,3062.8 34.87,1096.3 133.87,2192.9 260.73,3282.1 41.93,360 53.52,825.3 239.66,1148.6 145.81,253.3 692.21,337.5 955.42,330.6 219.27,-5.8 430.91,-194.8 616,-303.4 124.16,-72.8 248.32,-145.7 372.49,-218.5 120.72,-70.8 125.1,-195.1 167.33,-327.2 354.34,-1108 702.1,-2218.3 1060.05,-3325.2 420.71,176.8 849.31,336.3 1289.81,456.6 414.4,113.2 888.1,223.6 1317.7,134.3 447.1,-92.9 583,-523.7 746.4,-899.9 216.2,-497.7 403.4,-1009.5 557.3,-1529.8 149.8,-506.4 300.3,-1054.9 287.9,-1587.7 -11.2,-480.3 -231.3,-924.8 -587.4,-1243.4 -454.2,-406.8 -1051,-585.8 -1649.4,-585.8 -1063.2,0 -2126.36,0 -3189.53,0"
         style="fill:#bcd4f6;fill-opacity:1;fill-rule:nonzero;stroke:none"
         id="path1343" /><path
         d="m 8858.44,7581.3 c 0,0 -1009.01,3865.1 -1081.84,4190 -32.42,144.7 -132.44,197.1 -233.19,210.5 177.35,17.1 306.38,18.4 306.38,18.4 349.12,0 659.38,-235 771.43,-584.2 244.35,-761.6 694.34,-2166.1 1150.15,-3596.6 -23.06,0.6 -912.93,-238.1 -912.93,-238.1"
         style="fill:#ffffff;fill-opacity:1;fill-rule:nonzero;stroke:none"
         id="path1345" /><path
         d="m 14858.5,8532.3 h -2051.6 c 0,90.4 73.2,163.6 163.6,163.6 h 1888 v -163.6"
         style="fill:#ed7d2b;fill-opacity:1;fill-rule:nonzero;stroke:none"
         id="path1347" /><path
         d="m 14852.6,10766.7 h 3171.8 l -760.8,-2234.4 h -3192.4 l 781.4,2234.4"
         style="fill:#ed7d2b;fill-opacity:1;fill-rule:nonzero;stroke:none"
         id="path1349" /><path
         d="m 18071.1,10766.7 -760.8,-2234.3 h -3192.4 l 781.4,2234.3 h 3171.8"
         style="fill:#f99746;fill-opacity:1;fill-rule:nonzero;stroke:none"
         id="path1351" /><path
         d="m 16361,9670.2 c -19.7,-85.4 -104.8,-154.6 -190.2,-154.6 -85.4,0 -138.6,69.2 -118.9,154.6 19.7,85.3 104.9,154.5 190.3,154.5 85.3,0 138.6,-69.2 118.8,-154.5"
         style="fill:#ffffff;fill-opacity:1;fill-rule:nonzero;stroke:none"
         id="path1353" /><path
         d="M 9675.67,7786.9 V 7654 c 0,-46.5 -15.06,-84.5 -33.44,-84.5 H 4792.88 c -18.38,0 -33.45,38 -33.45,84.5 v 132.9 c 0,46.4 15.07,84.5 33.45,84.5 h 4849.35 c 18.38,0 33.44,-38.1 33.44,-84.5"
         style="fill:#bcd4f6;fill-opacity:1;fill-rule:nonzero;stroke:none"
         id="path1355" /><path
         d="M 9675.67,7786.9 V 7654 c 0,-46.5 -13.82,-84.5 -30.69,-84.5 H 5795.12 c -16.87,0 -30.7,38 -30.7,84.5 v 132.9 c 0,46.4 13.83,84.5 30.7,84.5 h 3849.86 c 16.87,0 30.69,-38.1 30.69,-84.5"
         style="fill:#d4e4f8;fill-opacity:1;fill-rule:nonzero;stroke:none"
         id="path1357" /><path
         d="M 8448.31,2551.5 H 5005.57 v 5018 h 3442.74 v -5018"
         style="fill:#a4c4f4;fill-opacity:1;fill-rule:nonzero;stroke:none"
         id="path1359" /><path
         d="M 9413.1,2551.5 H 5970.35 v 5018 H 9413.1 v -5018"
         style="fill:#f3f8ff;fill-opacity:1;fill-rule:nonzero;stroke:none"
         id="path1361" /><path
         d="M 6188.57,2861.7 H 9194.96 V 7394.5 H 6188.57 Z m 3039.56,-33.2 H 6155.39 V 7427.7 H 9228.13 V 2828.5"
         style="fill:#b7d3f3;fill-opacity:1;fill-rule:nonzero;stroke:none"
         id="path1363" /><path
         d="M 9211.55,5873.1 H 6171.98 v 33.2 h 3039.57 v -33.2"
         style="fill:#b7d3f3;fill-opacity:1;fill-rule:nonzero;stroke:none"
         id="path1365" /><path
         d="M 9211.55,4322 H 6171.98 v 33.2 H 9211.55 V 4322"
         style="fill:#b7d3f3;fill-opacity:1;fill-rule:nonzero;stroke:none"
         id="path1367" /><path
         d="m 8003.22,7131.1 h -564.03 c -27.37,0 -49.77,22.4 -49.77,49.8 0,27.3 22.4,49.7 49.77,49.7 h 564.03 c 27.38,0 49.77,-22.4 49.77,-49.7 0,-27.4 -22.39,-49.8 -49.77,-49.8"
         style="fill:#b7d3f3;fill-opacity:1;fill-rule:nonzero;stroke:none"
         id="path1369" /><path
         d="m 8003.22,5614.3 h -564.03 c -27.37,0 -49.77,22.4 -49.77,49.8 0,27.3 22.4,49.7 49.77,49.7 h 564.03 c 27.38,0 49.77,-22.4 49.77,-49.7 0,-27.4 -22.39,-49.8 -49.77,-49.8"
         style="fill:#b7d3f3;fill-opacity:1;fill-rule:nonzero;stroke:none"
         id="path1371" /><path
         d="m 8003.22,4033.1 h -564.03 c -27.37,0 -49.77,22.4 -49.77,49.8 0,27.4 22.4,49.8 49.77,49.8 h 564.03 c 27.38,0 49.77,-22.4 49.77,-49.8 0,-27.4 -22.39,-49.8 -49.77,-49.8"
         style="fill:#b7d3f3;fill-opacity:1;fill-rule:nonzero;stroke:none"
         id="path1373" /><path
         d="m 17578.1,14666.7 224.8,-785.5 c 3.3,-11.6 4.4,-23.3 3.6,-34.7 -2.7,-41.3 -30.9,-78.3 -73,-90.3 l -1364.2,-390.4 c -42.3,-12.1 -86,4.7 -110.1,38.6 -6.5,9.1 -11.6,19.5 -14.8,30.8 l -224.7,785.2 c -15.4,53.8 15.6,109.7 69.2,125 l 1364.3,390.4 c 53.5,15.3 109.3,-15.5 124.9,-69.1"
         style="fill:#cde0fb;fill-opacity:1;fill-rule:nonzero;stroke:none"
         id="path1375" /><path
         d="m 17806.5,13846.5 c -2.7,-41.3 -30.9,-78.3 -73,-90.3 l -1364.2,-390.4 c -42.3,-12.1 -86,4.7 -110.1,38.6 l 694.9,633 852.4,-190.9"
         style="fill:#bed7fb;fill-opacity:1;fill-rule:nonzero;stroke:none"
         id="path1377" /><path
         d="m 17578.1,14666.7 -610.7,-758.4 -936.2,271.9 -11.5,40.2 c -15.4,53.8 15.6,109.7 69.2,125 l 1364.3,390.4 c 53.5,15.3 109.3,-15.5 124.9,-69.1"
         style="fill:#f3f8ff;fill-opacity:1;fill-rule:nonzero;stroke:none"
         id="path1379" /><path
         d="M 6256.21,7871.4 H 5251.63 v 354.8 h 1007.8 c 78.35,0 141.87,-63.5 141.87,-141.8 v -67.9 c 0,-80.1 -64.96,-145.1 -145.09,-145.1"
         style="fill:#fcecdb;fill-opacity:1;fill-rule:nonzero;stroke:none"
         id="path1381" /><path
         d="m 7258.75,8080.2 v -53.3 c 0,-28.6 -7.66,-55.3 -21.07,-78.2 -26.94,-46.2 -77.04,-77.3 -134.38,-77.3 H 5220.83 c -12.45,0 -22.54,10.1 -22.54,22.6 v 7.9 c 0,12.5 10.09,22.6 22.54,22.6 h 1147.54 c 6.13,7.5 11.54,15.5 16.1,24.2 10.75,20.2 16.82,43.3 16.82,67.8 v 67.9 c 0,12.4 -1.61,24.6 -4.64,36.1 -5.14,19.5 -14.34,37.4 -26.61,52.7 H 5220.83 c -12.45,0 -22.54,10.1 -22.54,22.5 v 8 c 0,12.4 10.09,22.5 22.54,22.5 h 1891.94 c 66.67,0 122.91,-44.7 140.36,-105.7 3.67,-12.8 5.62,-26.3 5.62,-40.3"
         style="fill:#699dee;fill-opacity:1;fill-rule:nonzero;stroke:none"
         id="path1383" /><path
         d="m 7253.13,8120.5 h -856.48 c -5.14,19.5 -14.34,37.4 -26.61,52.7 H 5220.83 c -12.45,0 -22.54,10.1 -22.54,22.5 v 8 c 0,12.4 10.09,22.5 22.54,22.5 h 1891.94 c 66.67,0 122.91,-44.7 140.36,-105.7"
         style="fill:#548ee2;fill-opacity:1;fill-rule:nonzero;stroke:none"
         id="path1385" /><path
         d="m 5251.63,8048.8 139.38,-5.9 -139.38,-3.6 z"
         style="fill:#f4d2b8;fill-opacity:1;fill-rule:nonzero;stroke:none"
         id="path1387" /><path
         d="m 5251.63,7993.2 331.6,-6 -331.6,-3.6 z"
         style="fill:#f4d2b8;fill-opacity:1;fill-rule:nonzero;stroke:none"
         id="path1389" /><path
         d="M 6374.77,8225.5 H 7467.4 v 405.4 H 6371.18 c -87.5,0 -158.44,-70.9 -158.44,-158.4 v -85 c 0,-89.5 72.55,-162 162.03,-162"
         style="fill:#fcecdb;fill-opacity:1;fill-rule:nonzero;stroke:none"
         id="path1391" /><path
         d="m 6238.45,8473.6 v -87.2 c 0.26,-37.3 20.9,-69.6 51.21,-86.9 14.93,-8.5 32.18,-13.4 50.51,-13.4 h 1186.57 c 13.9,0 25.18,-11.2 25.18,-25.1 v -10.3 c 0,-13.9 -11.28,-25.2 -25.18,-25.2 H 5476.91 c -58.82,0 -110.79,29.2 -142.19,74 -19.79,28.2 -31.41,62.5 -31.41,99.6 v 68.8 c 0,25.4 5.81,49.5 16.18,70.9 26.36,54.5 82.19,92.1 146.82,92.1 h 2060.43 c 13.9,0 25.18,-11.2 25.18,-25.1 v -10.3 c 0,-13.9 -11.28,-25.2 -25.18,-25.2 h -1190.2 c -28.44,0 -54.2,-12.1 -72.18,-31.5 -15.92,-17.1 -25.75,-40 -25.91,-65.2"
         style="fill:#f99746;fill-opacity:1;fill-rule:nonzero;stroke:none"
         id="path1393" /><path
         d="m 7467.4,8428.2 -152.11,-6.8 152.11,-4.1 z"
         style="fill:#f4d2b8;fill-opacity:1;fill-rule:nonzero;stroke:none"
         id="path1395" /><path
         d="m 7467.4,8521.5 -361.88,-6.8 361.88,-4.1 z"
         style="fill:#f4d2b8;fill-opacity:1;fill-rule:nonzero;stroke:none"
         id="path1397" /><path
         d="m 7109.24,8516.1 c 0,0 23.89,-12.9 31.8,-34 1.39,-3.7 2.29,-7.7 2.47,-11.8 1.32,-28.1 0,-91.7 0,-91.7 l 70.51,31.8 70.34,-31.8 v 86.2 c 0,16.2 -6.04,32.1 -17.25,42.5 -5.43,5 -12.02,8.8 -19.48,8.8 h -138.39"
         style="fill:#f99746;fill-opacity:1;fill-rule:nonzero;stroke:none"
         id="path1399" /><path
         d="m 7109.24,8516.1 c 0,0 23.89,-12.9 31.8,-34 l 141.3,-1.3 c 0,0 -5.55,30.3 -34.71,35.3 h -138.39"
         style="fill:#ed7d2b;fill-opacity:1;fill-rule:nonzero;stroke:none"
         id="path1401" /><path
         d="m 8072.71,8357.5 c -35.64,92 -11.65,126 28.18,133.2 44.49,7.9 105.29,-22.8 143.72,-75.5 4.42,-65.2 20.03,-127.4 44.96,-184.7 -62.43,15.1 -188.68,54.3 -216.86,127 z m 1289.24,384 H 8247.87 c -2.8,-23 -4.66,-46.3 -4.66,-70.1 v -107.6 c -74.07,15.6 -176.79,28.2 -229.43,-4.2 -88.28,-54.7 -61.26,-214.5 21.89,-313.3 83.16,-98.9 348.23,-164.2 348.23,-164.2 84.32,-95.5 200.08,-162.3 330.75,-183.5 29.35,-4.9 59.4,-7.5 90.14,-7.5 309.09,0 561.59,252.8 561.59,561.6 v 218.7 c 0,23.8 -1.63,47.1 -4.43,70.1"
         style="fill:#f99746;fill-opacity:1;fill-rule:nonzero;stroke:none"
         id="path1403" /><path
         d="m 8535.15,7871.4 h 510.06 l -29.56,68.7 -458.24,17.1 -22.26,-85.8"
         style="fill:#f99746;fill-opacity:1;fill-rule:nonzero;stroke:none"
         id="path1405" /><path
         d="m 8072.71,8357.5 c -35.64,92 -11.65,126 28.18,133.2 44.49,7.9 105.29,-22.8 143.72,-75.5 4.42,-65.2 20.03,-127.4 44.96,-184.7 -62.43,15.1 -188.68,54.3 -216.86,127 z M 8721.64,7951 c -336.93,390 -264.14,579.3 -203.81,790.5 h -269.96 c -2.8,-23 -4.66,-46.3 -4.66,-70.1 v -107.6 c -74.07,15.6 -176.79,28.2 -229.43,-4.2 -88.28,-54.7 -61.26,-214.5 21.89,-313.3 83.16,-98.9 348.23,-164.2 348.23,-164.2 48,-54.3 106.44,-99 171.77,-131.6 l -20.52,-79.1 h 172.75 l 4.76,27.6 1.99,-0.4 6.99,52.4"
         style="fill:#ed7d2b;fill-opacity:1;fill-rule:nonzero;stroke:none"
         id="path1407" /><path
         d="m 6696.7,15888.3 h 2496.26 c 198.99,0 361.8,-162.8 361.8,-361.8 v -1095.1 c 0,-182.8 -149.55,-332.3 -332.32,-332.3 h -64.13 l 120.27,-508 -755.06,508 H 6675.16 c -198.82,0 -361.49,162.6 -361.49,361.5 v 1044.7 c 0,210.7 172.36,383 383.03,383"
         style="fill:#699dee;fill-opacity:1;fill-rule:nonzero;stroke:none"
         id="path1409" /><path
         d="m 6727.53,14919.7 h 2275.08 c 31.49,0 57.25,25.7 57.25,57.2 v 1.8 c 0,31.5 -25.76,57.2 -57.25,57.2 H 6727.53 c -31.49,0 -57.25,-25.7 -57.25,-57.2 v -1.8 c 0,-31.5 25.76,-57.2 57.25,-57.2"
         style="fill:#aac8e8;fill-opacity:1;fill-rule:nonzero;stroke:none"
         id="path1411" /><path
         d="m 6709.03,14659.4 h 1017.05 c 21.31,0 38.75,17.5 38.75,38.8 v 38.7 c 0,21.4 -17.44,38.8 -38.75,38.8 H 6709.03 c -21.31,0 -38.75,-17.4 -38.75,-38.8 v -38.7 c 0,-21.3 17.44,-38.8 38.75,-38.8"
         style="fill:#aac8e8;fill-opacity:1;fill-rule:nonzero;stroke:none"
         id="path1413" /><path
         d="m 7909.57,14659.4 h 886.27 c 19.95,0 36.27,16.3 36.27,36.3 v 43.7 c 0,20 -16.32,36.3 -36.27,36.3 h -886.27 c -19.95,0 -36.27,-16.3 -36.27,-36.3 v -43.7 c 0,-20 16.32,-36.3 36.27,-36.3"
         style="fill:#aac8e8;fill-opacity:1;fill-rule:nonzero;stroke:none"
         id="path1415" /><path
         d="m 7416.74,15388.5 h 816.45 c 31.19,0 56.7,25.5 56.7,56.7 0,31.2 -25.51,56.7 -56.7,56.7 h -816.45 c -31.18,0 -56.69,-25.5 -56.69,-56.7 0,-31.2 25.51,-56.7 56.69,-56.7"
         style="fill:#aac8e8;fill-opacity:1;fill-rule:nonzero;stroke:none"
         id="path1417" /><path
         d="m 6715.09,15388.5 h 491.28 c 24.65,0 44.82,20.2 44.82,44.8 v 23.8 c 0,24.6 -20.17,44.8 -44.82,44.8 h -491.28 c -24.64,0 -44.81,-20.2 -44.81,-44.8 v -23.8 c 0,-24.6 20.17,-44.8 44.81,-44.8"
         style="fill:#aac8e8;fill-opacity:1;fill-rule:nonzero;stroke:none"
         id="path1419" /></g></g></svg>
