<?xml version="1.0" encoding="UTF-8" standalone="no"?>
<svg
   xmlns:dc="http://purl.org/dc/elements/1.1/"
   xmlns:cc="http://creativecommons.org/ns#"
   xmlns:rdf="http://www.w3.org/1999/02/22-rdf-syntax-ns#"
   xmlns:svg="http://www.w3.org/2000/svg"
   xmlns="http://www.w3.org/2000/svg"
   xmlns:sodipodi="http://sodipodi.sourceforge.net/DTD/sodipodi-0.dtd"
   xmlns:inkscape="http://www.inkscape.org/namespaces/inkscape"
   version="1.1"
   id="svg833"
   xml:space="preserve"
   width="4000"
   height="2666.6667"
   viewBox="0 0 4000 2666.6667"
   sodipodi:docname="3.svg"
   inkscape:version="1.0.1 (3bc2e813f5, 2020-09-07)"><metadata
     id="metadata839"><rdf:RDF><cc:Work
         rdf:about=""><dc:format>image/svg+xml</dc:format><dc:type
           rdf:resource="http://purl.org/dc/dcmitype/StillImage" /><dc:title /></cc:Work></rdf:RDF></metadata><defs
     id="defs837"><clipPath
       clipPathUnits="userSpaceOnUse"
       id="clipPath1057"><path
         d="m 24508.5,3438.4 c -4.2,0 -8.5,0.7 -12.6,2.2 l -151.2,55 c -18.3,6.8 -28.9,26.3 -24.2,45.3 l 34.8,142 c 3.9,15.8 -2.7,32.3 -16.4,40.8 -57.2,36.7 -108.5,81.9 -151.9,134.3 -7.3,8.7 -17.9,13.4 -28.7,13.4 -5.7,0 -11.4,-1.2 -16.7,-3.9 l -116.7,-57.2 c -5.4,-2.7 -11.2,-3.9 -16.9,-3.9 -12.8,0 -25.2,6.4 -32.4,17.9 l -86.5,136.1 c -10.2,16.2 -6.3,37.4 8.8,48.7 l 136.3,104 c 11.6,8.7 17.2,23.4 14.5,37.7 -3.4,17.6 -6.1,35.5 -8.1,53.7 -3.7,34.2 -4.7,68 -3.3,101.1 0.8,15.1 -7.4,29.2 -21.2,35.4 l -161.6,74.8 c -17.7,8.4 -26.1,28.7 -19.5,47 l 55.1,151.7 c 5.6,14.9 19.9,24.6 35.3,24.6 1.2,0 2.3,-0.1 3.5,-0.2 1.7,-0.2 3.6,-0.3 5.3,-0.9 l 157.6,-38.5 c 3.1,-0.8 6.3,-1.2 9.3,-1.2 11.6,0 22.6,5.3 29.7,14.8 0.9,1 1.7,2 2.3,3.2 2.1,3.4 4,6.6 6.4,9.9 25,39.4 54.3,76.1 87.3,109.5 11.1,10.9 13.8,28.1 6.6,42.3 l -60.4,123.3 c -8.6,17.4 -2.5,38.6 14,49.1 l 30.1,19.1 105.4,66.7 c 6.2,4 13.2,5.9 20.1,5.9 11.4,0 22.7,-5.2 30.1,-14.8 l 87,-114.4 c 6.9,-9.4 17.7,-14.4 28.9,-14.4 3.6,0 7.3,0.5 10.9,1.6 38.4,11.7 78.9,20 120.6,24.5 23.5,2.6 47.1,3.8 70.4,3.8 7.3,0 14.5,-0.1 21.8,-0.3 l 13,28.2 53.8,115.6 c 6,13.2 19.2,21.4 33.1,21.4 1.2,0 2.4,-0.1 3.6,-0.2 3.2,-0.2 6.2,-1 9.4,-2.2 l 152.2,-55 c 18,-6.7 27.9,-25.9 23.6,-44.3 l -24,-97 c -4,-16.4 3.7,-33.9 18.6,-41.8 61.8,-32.9 117.9,-75.1 166.1,-125.2 7.3,-7.6 17,-11.6 26.8,-11.6 5.5,0 11,1.3 16.1,3.9 l 147.5,72.4 c 5.1,2.5 10.5,3.6 15.8,3.6 12,0 23.7,-5.9 30.6,-16.7 l 87.2,-137.8 c 10.4,-16.3 6.5,-37.7 -8.7,-49.1 l -141.9,-108.1 c -12.3,-9.2 -17.5,-25 -13.5,-39.9 8.7,-31.8 14.8,-64.9 18.4,-99 2,-18.3 3.3,-36.5 3.7,-54.6 0.4,-14.2 8.8,-27 21.6,-33.1 l 154.8,-71.8 c 18,-8.4 26.6,-28.8 20,-47.5 l -53.9,-147.8 -1.3,-3.6 c -5.6,-15 -19.8,-24.6 -35.1,-24.6 -3,0 -6,0.4 -9,1.1 l -127.6,31.3 c -2.1,0.6 -4.2,0.9 -6.2,1 -0.8,0.1 -1.6,0.1 -2.3,0.1 -13.7,0 -26.8,-7.4 -33.1,-20 -40.1,-77.6 -95,-146.3 -162,-202.3 -2.7,-2.3 -5.1,-5 -7,-7.8 -7.3,-11 -8.3,-25.3 -2.5,-37.4 l 48.5,-98.4 c 6.3,-12.9 4.4,-28.3 -4,-39.3 -2.6,-3.3 -5.8,-6.5 -9.7,-9 l -135.6,-86 c -6.3,-4 -13.4,-6 -20.4,-6 -11.7,0 -23.2,5.3 -30.7,15.2 L 24860,3621 c -7.2,9.3 -18.1,14.5 -29.5,14.5 -2.6,0 -5.2,-0.2 -7.8,-0.8 -20.4,-4.1 -40.8,-7.4 -61.7,-9.7 -23.8,-2.6 -47.4,-3.8 -70.7,-3.8 -15.2,0 -30.3,0.5 -45.2,1.6 l -0.2,-0.1 c -0.9,0.1 -1.8,0.1 -2.7,0.1 -14.8,0 -28.2,-8.3 -34.5,-21.9 l -62.4,-134.3 -3.2,-6.7 c -6.1,-13.4 -19.4,-21.5 -33.6,-21.5 m 182.3,1189.1 c -63.3,0 -129.8,-17 -194.6,-55 -4.9,-3 -9.8,-5.9 -14.7,-9.1 -46,-29.1 -98.9,-95.4 -117.7,-146.3 -9.9,-26.7 -16.8,-53.2 -21.1,-78.9 -37.3,-229.7 137.7,-415.9 347.3,-415.9 25.8,0 52,2.8 78.5,8.7 42.4,9.5 85.1,26.8 127,53.1 9,5.5 18.3,12.7 27.8,20.6 40.2,34.9 79.5,88.5 95.2,132.1 93.8,262.6 -95.7,490.7 -327.7,490.7"
         id="path1055" /></clipPath></defs><sodipodi:namedview
     pagecolor="#ffffff"
     bordercolor="#666666"
     borderopacity="1"
     objecttolerance="10"
     gridtolerance="10"
     guidetolerance="10"
     inkscape:pageopacity="0"
     inkscape:pageshadow="2"
     inkscape:window-width="1920"
     inkscape:window-height="1017"
     id="namedview835"
     showgrid="false"
     inkscape:zoom="0.38678741"
     inkscape:cx="1771.2805"
     inkscape:cy="1670.8571"
     inkscape:window-x="-8"
     inkscape:window-y="-8"
     inkscape:window-maximized="1"
     inkscape:current-layer="g843"
     inkscape:document-rotation="0" /><g
     id="g841"
     inkscape:groupmode="layer"
     inkscape:label="ink_ext_XXXXXX"
     transform="matrix(1.3333333,0,0,-1.3333333,0,2666.6667)"><g
       id="g843"
       transform="scale(0.1)"><path
         d="M 0,0 H 30000 V 20000 H 0 Z"
         style="fill:#ffffff;fill-opacity:0;fill-rule:nonzero;stroke:none"
         id="path845" /><path
         d="m 4113.07,2793.9 c 0,0 -1364.84,4762.8 631.83,7606.6 1753.63,2497.8 3856.26,1873.1 5413.8,1248.4 729.8,-292.8 1339.9,-585.5 1738.4,-557 1248.7,89.5 1607.6,4345.4 5338.7,4765.8 2885,325 7757.7,20.8 6746.9,-5729.4 -768.5,-4371.8 3083.9,-2513.9 2251.4,-7343.6 l -22121.03,9.2"
         style="fill:#ebf2f9;fill-opacity:1;fill-rule:nonzero;stroke:none"
         id="path847" /><path
         d="m 11068.7,7407.4 h 273.2 v 1523.4 h -273.2 V 7407.4"
         style="fill:#82b378;fill-opacity:1;fill-rule:nonzero;stroke:none"
         id="path851" /><path
         d="m 11341.9,7407.7 h 273.2 v 1616.9 h -273.2 V 7407.7"
         style="fill:#a53d38;fill-opacity:1;fill-rule:nonzero;stroke:none"
         id="path853" /><path
         d="m 11615,7408 h 273.2 V 8832.8 H 11615 V 7408"
         style="fill:#82b378;fill-opacity:1;fill-rule:nonzero;stroke:none"
         id="path855" /><path
         d="m 11752.2,8516.8 v 0 c 55.8,0 100.9,45.2 100.9,100.9 v 154.9 h -201.8 v -154.9 c 0,-55.7 45.2,-100.9 100.9,-100.9"
         style="fill:#a53d38;fill-opacity:1;fill-rule:nonzero;stroke:none"
         id="path857" /><path
         d="m 11364.8,7499.7 h 229.9 v 49.3 h -229.9 v -49.3"
         style="fill:#35488b;fill-opacity:1;fill-rule:nonzero;stroke:none"
         id="path859" /><path
         d="m 11479.8,7593.2 v 0 c 54.9,0 99.5,44.5 99.5,99.5 0,54.9 -44.6,99.5 -99.5,99.5 -55,0 -99.5,-44.6 -99.5,-99.5 0,-55 44.5,-99.5 99.5,-99.5"
         style="fill:#35488b;fill-opacity:1;fill-rule:nonzero;stroke:none"
         id="path861" /><path
         d="m 18142.9,7676.4 v 273.2 h -1616.8 v -273.2 h 1616.8"
         style="fill:#a53d38;fill-opacity:1;fill-rule:nonzero;stroke:none"
         id="path863" /><path
         d="m 18050.9,7699.2 v 230 h -49.2 v -230 h 49.2"
         style="fill:#35488b;fill-opacity:1;fill-rule:nonzero;stroke:none"
         id="path865" /><path
         d="m 17957.4,7814.2 v 0 c 0,54.9 -44.5,99.5 -99.5,99.5 -54.9,0 -99.5,-44.6 -99.5,-99.5 0,-55 44.6,-99.5 99.5,-99.5 55,0 99.5,44.5 99.5,99.5"
         style="fill:#35488b;fill-opacity:1;fill-rule:nonzero;stroke:none"
         id="path867" /><path
         d="m 17843.2,7403.2 v 273.2 h -1523.3 v -273.2 h 1523.3"
         style="fill:#35488b;fill-opacity:1;fill-rule:nonzero;stroke:none"
         id="path869" /><path
         d="m 14394.1,13056.2 c 0,0 -337.5,-462.1 -304.2,-802.1 0,0 42.9,220.9 126.7,353.4 0,0 -143.3,-340 -76.7,-523.4 66.7,-183.3 -582.3,-840.4 -142.3,-1253.7 440,-413.3 1578.4,500.1 1578.4,500.1 0,0 -352.6,587.2 -246,1037.1 106.6,449.9 -935.9,688.6 -935.9,688.6"
         style="fill:#192947;fill-opacity:1;fill-rule:nonzero;stroke:none"
         id="path871" /><path
         d="m 14438.3,13297.7 c 42.5,128.9 136.3,203 230.1,245.7 125,56.8 267.4,62.6 398.6,22 382.9,-118.7 396.8,-345 396.8,-345 l -704.9,-934.5 c 0,0 -64.3,148.7 -149.3,102.3 -91.5,-50 -242,74.4 -299.3,283 -69.4,379.6 27.7,323.3 128,626.5"
         style="fill:#192846;fill-opacity:1;fill-rule:nonzero;stroke:none"
         id="path873" /><path
         d="m 16545.8,9837.5 c 388.3,275 604.7,1124.6 604.7,1124.6 l -161.5,58.5 c -68.6,-196.1 -492.4,-651.5 -492.4,-651.5 -49.3,136.5 -100.3,258.6 -152,367.7 -351.5,741.6 -606.3,899.5 -706.4,925.1 -16.2,4.2 -155.8,-8.9 -155.8,-8.9 0,0 1.8,-5.7 5.4,-16.3 7.6,-23.2 -38.6,-102.4 -16.7,-166 163.8,-473.7 750.2,-1863.1 1074.7,-1633.2"
         style="fill:#8e5121;fill-opacity:1;fill-rule:nonzero;stroke:none"
         id="path875" /><path
         d="m 14002.4,8804.7 c 220.6,494.7 326.1,634.6 329.8,790.2 2.9,123.1 -57.8,255.9 -175.6,581.5 -27.8,76.7 -47,155.6 -58.8,235.4 -93.2,627.8 269.8,1306.4 495.5,1352.6 62.7,16.6 169.2,243.4 167.8,608.7 l 28.3,-5.5 475.1,-94.1 c 0,0 -10.8,-149.5 -11.1,-290.4 -0.4,-117.4 6.7,-228.6 33.3,-242.6 34.2,-3.1 54.4,-5.2 54.4,-5.2 0,0 396.1,-550.1 429.5,-1061.8 33.3,-511.6 -317.3,-733.9 2.6,-1756.4 326.6,-1044.3 -1892.6,-385.8 -1770.8,-112.4"
         style="fill:#8e5121;fill-opacity:1;fill-rule:nonzero;stroke:none"
         id="path877" /><path
         d="m 15264.5,12273.5 c 0,0 -10.8,-149.5 -11.1,-290.4 -265.9,7.5 -406.4,250 -464,384.5 l 475.1,-94.1"
         style="fill:#75421b;fill-opacity:1;fill-rule:nonzero;stroke:none"
         id="path879" /><path
         d="m 14740.3,12419.3 c 0,0 -139.3,220.1 -172.7,408.4 -23.9,134.3 44.5,632.5 545.1,560.7 0,0 145.4,-14.3 282.1,-106.6 108.6,-73.4 265.5,-231.9 90.1,-666.5 l -45.5,-146.9 -699.1,-49.1"
         style="fill:#192947;fill-opacity:1;fill-rule:nonzero;stroke:none"
         id="path881" /><path
         d="m 15353.3,12140.1 c 0,0 -629,-10.4 -629.5,381.5 -0.4,391.8 -81.9,654.3 319.7,677.5 401.6,23.2 479.8,-126.2 511.7,-257 32,-130.7 -38.3,-789.2 -201.9,-802"
         style="fill:#8e5121;fill-opacity:1;fill-rule:nonzero;stroke:none"
         id="path883" /><path
         d="m 15330,13208.7 c 0,0 -172.2,-459.7 -436.5,-527.6 -264.3,-68 -379,2.8 -379,2.8 0,0 104.4,209.1 146.4,490.2 0,0 539.2,253.4 669.1,34.6"
         style="fill:#192846;fill-opacity:1;fill-rule:nonzero;stroke:none"
         id="path885" /><path
         d="m 15287.3,13171.4 c 0,0 128.6,-102.6 160,-202.4 31.4,-99.8 45.5,-305.2 105.3,-298.2 0,0 129.8,312.4 -16,489.2 -154.7,187.4 -249.3,11.4 -249.3,11.4"
         style="fill:#192846;fill-opacity:1;fill-rule:nonzero;stroke:none"
         id="path887" /><path
         d="m 14559.4,4057.9 c 158.2,-629.5 396.5,-1112.1 396.5,-1112.1 l 207.4,14.3 c 0,0 -101.7,483.9 -95.9,1137.8 4.1,457.1 60.6,997.3 241.3,1513.2 620.6,1772.5 520.3,3062.6 520.3,3062.6 l -1167.1,-136.5 -54.4,-6.4 c -4.9,-536 -18.7,-1263.8 -30.8,-1832.9 -10.7,-511.8 -20.1,-895.2 -20.1,-895.2 -224.4,-483.3 -142.9,-1165.4 2.8,-1744.8"
         style="fill:#4a75cb;fill-opacity:1;fill-rule:nonzero;stroke:none"
         id="path889" /><path
         d="m 15105.7,3348.1 c 26.7,-241.1 57.6,-388 57.6,-388 l -207.4,-14.3 c 0,0 -66.3,134.2 -152.2,353.4 108.1,-7.2 239,28.8 302,48.9"
         style="fill:#8e5121;fill-opacity:1;fill-rule:nonzero;stroke:none"
         id="path891" /><path
         d="m 13184.4,8279.3 188.8,-56.7 c 0,0 622.9,1033.6 679.6,1302.5 18.4,87.6 63.7,262.8 116.6,459.1 109.4,406.5 250.5,903.9 250.5,903.9 l 46.5,201.4 158.6,686.7 c 0,0 -303.6,-31 -481.2,-105.3 -58.8,-24.5 -103.7,-53.8 -119.4,-88.2 -130.4,-286.8 -260.7,-1010.8 -352.2,-1527.3 -51,-287.8 -90,-511.3 -110.3,-558.6 -56.6,-132.1 -229.7,-858.9 -377.5,-1217.5"
         style="fill:#8e5121;fill-opacity:1;fill-rule:nonzero;stroke:none"
         id="path893" /><path
         d="m 13969.8,4158.4 c 67.1,-716.2 231,-1202.6 231,-1202.6 l 150.6,-48.8 c 0,0 93.8,504.6 160.2,1105 63.2,570.6 149.9,1174.4 248,1358.7 389.2,730.9 506.4,3490.1 506.4,3490.1 l -1183.4,58.7 c -119,-200.1 -170.9,-528.3 -183.2,-901.4 -31.1,-941.7 190.2,-2169.6 223.3,-2347.2 l 0.1,-0.4 c 2.6,-13.7 -1.4,-27.2 -7.8,-39.7 -235.4,-466.1 -189.5,-999.3 -145.2,-1472.4"
         style="fill:#699dee;fill-opacity:1;fill-rule:nonzero;stroke:none"
         id="path895" /><path
         d="m 15311.2,13155.8 c 0,0 -122.7,-481.3 -456.2,-635.5 0,0 333.5,295.8 361.8,613.5 28.3,317.8 94.4,22 94.4,22"
         style="fill:#192947;fill-opacity:1;fill-rule:nonzero;stroke:none"
         id="path897" /><path
         d="m 14428.5,3365.6 c -41.4,-285.6 -75.3,-478.4 -75.3,-478.4 l -152.4,68.6 c 0,0 -52.5,155.6 -110.2,420.4 162.6,-37.5 275.1,-25.5 337.9,-10.6"
         style="fill:#8e5121;fill-opacity:1;fill-rule:nonzero;stroke:none"
         id="path899" /><path
         d="m 13197.8,8310.7 c 0,0 -57.5,-135.3 -117.3,-173 -59.7,-37.8 -116.5,-128.4 -128.9,-201.4 -22.8,-134 79.9,-217.1 155.4,-217.1 75.5,0 147.7,103 192.1,348.9 2.4,13.5 74,154.5 74,154.5 l -175.3,88.1"
         style="fill:#d9935c;fill-opacity:1;fill-rule:nonzero;stroke:none"
         id="path901" /><path
         d="m 13854.1,8447.6 c -2.1,-39.9 0.1,-71.8 7.3,-94.6 25.2,-79.3 111.7,-115.4 320.7,-93.7 127.8,13.3 184.8,227.4 210.2,410.1 76.7,-261.4 184.2,-408.1 323.1,-438.9 202.6,-45.1 1225,-169.4 1291.9,316.6 73.6,534.5 -146.8,1481 -158.9,1991.3 30,180.9 40.3,338 37,472.9 -8.5,363.5 -115.2,567.2 -197.2,649.2 -23.3,17.9 -46.5,29 -139.8,45 -47.7,8.1 -113.7,17.5 -207.3,29.8 0,0 -38.2,4.4 -37.3,3 17.3,-31 248.8,-381.6 230.8,-471.7 -18.9,-94.4 -840.1,-9.4 -896.8,42.4 -56.6,51.9 -146.2,449.5 -146.2,449.5 0,0 -290.8,-31.8 -433,-135.2 0,0 0.6,-0.7 1.5,-1.9 -17.2,-12.3 -30,-25.4 -37.4,-39.3 -151.7,-288.9 -303.3,-1018.1 -409.9,-1538.3 258.4,-142.3 484.1,-99.9 554.1,-81.1 -91.5,-599.1 -299.2,-1242.2 -312.8,-1515.1"
         style="fill:#b64c41;fill-opacity:1;fill-rule:nonzero;stroke:none"
         id="path903" /><path
         d="m 16989,11020.6 c -5.2,18.8 -93.9,285.8 -61,355.8 33,70 109.7,177.7 141.4,183.5 31.7,5.9 196.4,-122.6 193.2,-255.9 -3.2,-133.4 -112.1,-341.9 -112.1,-341.9 l -161.5,58.5"
         style="fill:#8e5121;fill-opacity:1;fill-rule:nonzero;stroke:none"
         id="path905" /><path
         d="m 14836.4,2771.8 h 132.4 c 44.4,7 77.1,19.8 122.6,25.8 69.1,9.1 100.9,-19.3 107.3,-25.8 l 1.2,-1.3 h 562.5 c 14.2,20.2 0.6,67 -12.7,101.5 -9,23.4 -28.5,41.1 -52.7,48.1 -59.6,17.3 -177.2,32.7 -284.9,130.2 -60.6,54.7 -292.6,201.3 -292.6,201.3 l -1.3,0.3 c -5.1,-0.1 -29.3,-7.6 -134.8,-96.7 -54.6,-45.9 -147.6,65 -147.6,65 0,0 -17.4,-14.5 -30.5,-41.4 -10.4,-21.2 -18.1,-50.4 -12,-86.4 8.4,-50.6 -18.7,-144.8 -40.3,-208.5 -13.1,-38.6 -24.2,-66 -24.2,-66 0,0 -6.3,-31.8 107.6,-46.1"
         style="fill:#233862;fill-opacity:1;fill-rule:nonzero;stroke:none"
         id="path907" /><path
         d="m 14129.7,2771.8 h 132.5 c 44.3,7 77.1,19.8 122.6,25.8 69.1,9.1 100.9,-19.3 107.2,-25.8 l 1.2,-1.3 h 562.6 c 14.1,20.2 0.5,67 -12.8,101.5 -9,23.4 -28.5,41.1 -52.6,48.1 -59.7,17.3 -177.3,32.7 -285,130.2 -60.6,54.7 -292.6,201.3 -292.6,201.3 l -1.2,0.3 c -5.1,-0.1 -29.4,-7.6 -134.9,-96.7 -54.6,-45.9 -147.5,65 -147.5,65 0,0 -17.5,-14.5 -30.5,-41.4 -10.5,-21.2 -18.1,-50.4 -12.1,-86.4 8.4,-50.6 -18.7,-144.8 -40.3,-208.5 -13.1,-38.6 -24.2,-66 -24.2,-66 0,0 -6.3,-31.8 107.6,-46.1"
         style="fill:#233862;fill-opacity:1;fill-rule:nonzero;stroke:none"
         id="path909" /><path
         d="m 13854.1,8447.6 c 140.4,46.9 320.6,171.6 537,451.2 572.9,740.5 48.6,1610.6 -21.6,1626.8 -70.3,16.2 -202.6,-562.9 -202.6,-562.9 -91.5,-599.1 -299.2,-1242.2 -312.8,-1515.1"
         style="fill:#a53934;fill-opacity:1;fill-rule:nonzero;stroke:none"
         id="path911" /><path
         d="m 16413.1,10697.8 -410.6,-467 -310,523.3 -144.1,951.4 c 0,0 434,-1.3 864.7,-1007.7"
         style="fill:#b64c41;fill-opacity:1;fill-rule:nonzero;stroke:none"
         id="path913" /><path
         d="m 16002.5,10230.8 -152.3,257.2 c 0,0 -28.8,611.2 -95.3,801.4 0,0 356.3,-583.6 247.6,-1058.6"
         style="fill:#a53934;fill-opacity:1;fill-rule:nonzero;stroke:none"
         id="path915" /><path
         d="M 9486.2,7417.4 H 15160 c 69.4,0 126.2,-56.8 126.2,-126.2 V 7068 c 0,-69.5 -56.8,-126.2 -126.2,-126.2 H 12447.9 V 3305.3 c 629.9,-24.9 1158.5,-238.9 1377.6,-533.3 l -3004.8,-2.9 c 217.5,295.6 746.6,510.7 1377.6,536.2 V 6941.8 H 9486.2 c -69.41,0 -126.19,56.7 -126.19,126.2 v 223.2 c 0,69.4 56.78,126.2 126.19,126.2"
         style="fill:#2d427c;fill-opacity:1;fill-rule:nonzero;stroke:none"
         id="path917" /><path
         d="m 22814.4,5445.3 h 0.7 c 27.7,0.4 49.8,20.5 49.4,45 -28.2,1745.3 646.8,3087.3 653.6,3100.7 11.4,22.3 9.3,72.2 -63.5,78.5 -63.6,5.5 -103,-8.3 -114.4,-30.7 -1.8,-3.3 -152.3,-322.7 -319.5,-877.8 -154.2,-511.8 -271.2,-1349.7 -256.4,-2272 0.4,-24.2 22.8,-43.7 50.1,-43.7"
         style="fill:#ee9849;fill-opacity:1;fill-rule:nonzero;stroke:none"
         id="path919" /><path
         d="m 21309.3,5445.3 h 0.7 c 27.7,0.4 49.7,20.5 49.3,45 -28.1,1745.3 646.9,3087.3 653.7,3100.7 11.4,22.3 9.2,72.2 -63.5,78.5 -63.6,5.5 -103,-8.3 -114.5,-30.7 -1.7,-3.3 -152.2,-322.7 -319.5,-877.8 -154.1,-511.8 -271.1,-1349.7 -256.3,-2272 0.4,-24.2 22.7,-43.7 50.1,-43.7"
         style="fill:#ee9849;fill-opacity:1;fill-rule:nonzero;stroke:none"
         id="path921" /><path
         d="m 23260.1,8055 c 23.9,0 45.1,15.3 49.3,36.9 4.6,24.2 -13.7,47.1 -40.9,51.2 -43.4,6.6 -1067,159.4 -1525.2,31.9 -26.4,-7.3 -41.1,-32.2 -32.8,-55.6 8.3,-23.4 36.4,-36.5 62.8,-29.1 435.1,121.1 1467.9,-33.1 1478.3,-34.7 2.8,-0.4 5.7,-0.6 8.5,-0.6"
         style="fill:#ee9849;fill-opacity:1;fill-rule:nonzero;stroke:none"
         id="path923" /><path
         d="m 23143.1,7761 c 23.9,0 45.1,15.3 49.3,37 4.6,24.1 -13.7,47.1 -41,51.2 -43.3,6.6 -1066.9,159.4 -1525.1,31.9 -26.4,-7.4 -41.1,-32.3 -32.8,-55.7 8.3,-23.3 36.4,-36.4 62.8,-29 435.3,121.2 1467.9,-33.1 1478.3,-34.7 2.8,-0.4 5.7,-0.7 8.5,-0.7"
         style="fill:#ee9849;fill-opacity:1;fill-rule:nonzero;stroke:none"
         id="path925" /><path
         d="m 22874.5,5445.3 h -3084.6 c 0,0 71.9,298 1858.3,253.6 1264.1,-31.4 1226.3,-253.6 1226.3,-253.6"
         style="fill:#ee9849;fill-opacity:1;fill-rule:nonzero;stroke:none"
         id="path927" /><path
         d="m 23125.6,2769.1 c -357.7,1591.9 -265.7,2568.7 -265.2,2581 0.9,24.6 -50.5,46.8 -78.2,47.6 -27.9,0.4 -151.4,7.2 -165.7,-13.7 -18.7,-27.5 -90.7,-1231.1 442.3,-2614.9 h 66.8"
         style="fill:#e58638;fill-opacity:1;fill-rule:nonzero;stroke:none"
         id="path929" /><path
         d="m 20507,2769.1 c 357.6,1591.9 265.7,2568.7 265.2,2581 -0.9,24.6 50.5,46.8 78.1,47.6 28,0.4 151.5,7.2 165.8,-13.7 18.7,-27.5 90.7,-1231.1 -442.3,-2614.9 h -66.8"
         style="fill:#e58638;fill-opacity:1;fill-rule:nonzero;stroke:none"
         id="path931" /><path
         d="m 19674.8,2769.1 c 357.6,1591.9 265.7,2568.7 265.2,2581 -0.9,24.6 50.5,46.8 78.1,47.6 28,0.4 151.5,7.2 165.7,-13.7 18.7,-27.5 90.8,-1231.1 -442.3,-2614.9 h -66.7"
         style="fill:#ce6d25;fill-opacity:1;fill-rule:nonzero;stroke:none"
         id="path933" /><path
         d="m 22220,2769.1 c -357.6,1591.9 -265.6,2568.7 -265.2,2581 0.9,24.6 -50.5,46.8 -78.1,47.6 -28,0.4 -151.4,7.2 -165.7,-13.7 -18.7,-27.5 -90.8,-1231.1 442.3,-2614.9 h 66.7"
         style="fill:#ce6d25;fill-opacity:1;fill-rule:nonzero;stroke:none"
         id="path935" /><path
         d="m 19772.5,5350.1 h 3115.8 c 26.2,0 47.6,21.4 47.6,47.6 0,26.2 -21.4,47.6 -47.6,47.6 h -3115.8 c -26.2,0 -47.6,-21.4 -47.6,-47.6 0,-26.2 21.4,-47.6 47.6,-47.6"
         style="fill:#e58638;fill-opacity:1;fill-rule:nonzero;stroke:none"
         id="path937" /><path
         d="m 14621.7,7417.4 h 5673.7 c 69.5,0 126.2,-56.8 126.2,-126.2 V 7068 c 0,-69.5 -56.7,-126.2 -126.2,-126.2 h -2712 V 3305.3 c 629.9,-24.9 1158.5,-238.9 1377.6,-533.3 l -3004.8,-2.9 c 217.5,295.6 746.5,510.7 1377.6,536.2 v 3636.5 h -2712.1 c -69.4,0 -126.2,56.7 -126.2,126.2 v 223.2 c 0,69.4 56.8,126.2 126.2,126.2"
         style="fill:#365da4;fill-opacity:1;fill-rule:nonzero;stroke:none"
         id="path939" /><path
         d="m 18514.7,3481.3 c 0,0 -337.6,-337.2 -421.3,-419.9 -83.7,-82.7 -397.8,-46.3 -484.1,-290.1 h 855.9 c 0,0 212,154.7 541.8,147.2 0,0 62.8,233.1 0,323.3 -62.9,90.3 -85.9,239.5 -85.9,239.5 h -406.4"
         style="fill:#a53934;fill-opacity:1;fill-rule:nonzero;stroke:none"
         id="path941" /><path
         d="m 19007,2918.5 -43.2,-147.2 h -302.3 v 124.6 c 0,0 168.8,52.7 345.5,22.6"
         style="fill:#a53934;fill-opacity:1;fill-rule:nonzero;stroke:none"
         id="path943" /><path
         d="m 19034.9,5973.6 c 0,0 15.7,-1599.7 -113.8,-2492.3 h -406.4 l -286.6,1685.5 806.8,806.8"
         style="fill:#233862;fill-opacity:1;fill-rule:nonzero;stroke:none"
         id="path945" /><path
         d="m 17311.8,3481.3 h 406.4 l 0.2,0.2 c 19.5,20.2 1265,1311.3 1459.5,2122.4 0,0 116.3,10.5 256.4,4.3 40.7,-1.8 83.6,-5 126.3,-10.3 188.4,-23.6 2657.8,-113.9 2787.4,15.6 129.6,129.6 77.6,875.7 77.6,875.7 l -242.7,128.6 -256.6,135.9 c 0,0 -2847.9,-44.8 -3144.8,-268.6 -296.8,-223.8 -992.6,-1713.8 -1469.7,-3003.8"
         style="fill:#2d427c;fill-opacity:1;fill-rule:nonzero;stroke:none"
         id="path947" /><path
         d="m 17311.8,3481.3 c 0,0 -337.6,-338.3 -421.3,-421.2 -83.7,-83 -397.7,-46.4 -484.1,-291 h 855.8 c 0,0 212.1,155.2 541.9,147.6 0,0 62.8,233.9 0,324.4 -62.8,90.5 -85.9,240.2 -85.9,240.2 h -406.4"
         style="fill:#b64c41;fill-opacity:1;fill-rule:nonzero;stroke:none"
         id="path949" /><path
         d="m 17804.1,2918.5 -43.2,-147.2 h -302.3 v 124.6 c 0,0 168.8,52.7 345.5,22.6"
         style="fill:#b64c41;fill-opacity:1;fill-rule:nonzero;stroke:none"
         id="path951" /><path
         d="m 19434.3,5608.2 c 40.7,-1.8 83.6,-5 126.3,-10.3 188.4,-23.6 2657.8,-113.9 2787.4,15.6 129.6,129.6 77.6,875.7 77.6,875.7 l -242.7,128.6 -408,-173.1 c 0,0 60.4,-770 -2340.6,-836.5"
         style="fill:#233862;fill-opacity:1;fill-rule:nonzero;stroke:none"
         id="path953" /><path
         d="m 19403.1,7708.7 c 53.1,158.8 199.6,165.3 199.6,165.3 0,0 140.6,10.3 241.9,-19.4 101.2,-29.7 269.5,29 269.5,29 0,0 617.3,214.6 761.6,304.4 309.6,192.7 869.4,1441.7 1060.1,1289.5 0,0 246.3,-232.5 111,-632.3 -135.2,-399.9 -670,-950.2 -994.5,-1039.1 -239.8,-65.6 -866.4,-100.6 -949.5,-105 -103.5,-13.4 -243.9,-73.2 -281.4,-76.1 -41.6,-3.3 -134.1,58.3 -198.2,49.3 -233.7,-33 -220.1,34.4 -220.1,34.4"
         style="fill:#ea8e50;fill-opacity:1;fill-rule:nonzero;stroke:none"
         id="path955" /><path
         d="m 21825.3,9462.9 c 255.7,-3.6 539.2,23 781.5,55 -44.7,74.7 -97.9,289.8 -113,586.7 v 1.1 l -90.1,-4.9 -426.4,-22.7 c 0,0 0.5,-6.2 1.3,-17.1 4,-57.4 16.8,-245.7 14.6,-351.7 -0.8,-40.7 -22,-128.7 -28.5,-133 -46.5,-40 -93.2,-77.1 -139.4,-113.4"
         style="fill:#ffb07b;fill-opacity:1;fill-rule:nonzero;stroke:none"
         id="path957" /><path
         d="m 22582.8,11263.9 c 6.4,24.5 84.6,286.5 493.2,210.5 0,0 -204.7,20.5 -258.6,-59.6 0,0 159.8,78.3 262.7,18.9 102.9,-59.4 124.9,-267.5 111.4,-331.4 -13.5,-63.9 -120.4,-255.7 -194.5,-257.6 -28,-0.8 -58.3,7.8 -85,18.7 12.2,-33.3 23.4,-69.5 32.9,-109.3 88.2,-368.1 -150.7,-655.8 -279.7,-589.6 -82.8,42.5 -140.9,-101.9 -140.9,-101.9 l -700.6,880.3 c 0,0 457.4,579.4 759.1,321"
         style="fill:#64482c;fill-opacity:1;fill-rule:nonzero;stroke:none"
         id="path959" /><path
         d="m 21993.3,9709.4 c 258.4,30.6 423.4,257.6 500.6,395.3 0.9,1.6 1.9,3.2 2.8,4.9 l -92.9,-8.7 -425.1,-39.8 c 4,-57.5 16.7,-245.7 14.6,-351.7"
         style="fill:#ea8e50;fill-opacity:1;fill-rule:nonzero;stroke:none"
         id="path961" /><path
         d="m 21956.7,9907.7 c 0,0 604.7,5.6 595.4,382.2 -9.3,376.4 62.4,630.7 -324,643 -386.5,12.4 -457.9,-133.1 -485.4,-259.6 -27.4,-126.4 56.5,-757.4 214,-765.6"
         style="fill:#ffb07b;fill-opacity:1;fill-rule:nonzero;stroke:none"
         id="path963" /><path
         d="m 21755.3,10883.1 c 90.5,115.7 161.8,92.7 202.2,59.7 325.7,190.1 649.3,13 649.3,13 47.4,-269.1 142.4,-504.8 142.4,-504.8 0,0 -108.4,-70.8 -364.1,-12.1 -78.1,17.9 -148.8,71.3 -209.4,136.7 107.2,-169.7 250.4,-290.2 250.4,-290.2 -307,132.4 -439.7,551.2 -453,595.5 -36.1,-34.1 -106.9,-108 -127.3,-179.1 -27.6,-96.6 -36.1,-294.3 -93.8,-289.1 0,0 -132.4,297 3.3,470.4"
         style="fill:#64482c;fill-opacity:1;fill-rule:nonzero;stroke:none"
         id="path965" /><path
         d="m 21361.1,8764.9 c 0,0 -388.7,-502.4 -477,-510.2 -88.4,-7.9 -47.1,-342.3 0,-428.3 47.1,-86 349.6,-270.3 542.9,-72.2 193.2,198.2 -65.9,1010.7 -65.9,1010.7"
         style="fill:#82b378;fill-opacity:1;fill-rule:nonzero;stroke:none"
         id="path967" /><path
         d="m 20884.1,6680.3 c 288.5,-41.2 792.2,-76.6 890.8,-235.6 98.6,-159 725.7,-47.1 777.2,53 51.6,100.2 -107.4,913.9 -25,1051.8 62,103.6 276.2,673.9 387.2,1002 36.7,108.5 62.1,190.6 67,220.5 19.6,120.3 93.7,552.3 -203.9,679 0,0 -144.2,62 -156,113 -2.8,12 -3.2,30.8 -3.4,52 v 0.2 c -0.6,68.9 1.3,163.2 -65.9,136.2 -87.7,-35.3 -180.5,-121.6 -330.5,-113.8 -149.9,7.8 -279.5,74.6 -299,31.4 -19.7,-43.1 34.8,-100.8 0,-129.2 -34.9,-28.4 -473.2,-294.1 -608.6,-682.2 0,0 -110,-280.1 -110,-514.6 0,-18.2 0.2,-36.5 0.7,-55.1 3.1,-140.1 15.8,-289 1.8,-417.7 -0.7,-6.9 -1.6,-13.8 -2.5,-20.6 -21.9,-163.4 -45.8,-317.9 -70.3,-437.3 -24.2,-117.9 -48.9,-201.6 -72.9,-225.7 -117.8,-118.6 -465.3,-466.1 -176.7,-507.3"
         style="fill:#a8d29f;fill-opacity:1;fill-rule:nonzero;stroke:none"
         id="path969" /><path
         d="m 19338.2,7699.1 c 7.7,23.6 28.5,58.9 48.1,94.2 19.6,35.4 168.8,188.5 227.7,204.2 58.9,15.7 347.2,-64.8 347.2,-64.8 0,0 1134.4,-15 1315.3,96.2 235.6,144.8 807.8,744.3 1205.9,1050.1 189.8,145.9 340.1,225 395.7,156.5 0,0 151.5,-145.5 -39.3,-505 -10.5,-20.1 -22.3,-40.9 -35.2,-62.3 C 22560,8263 21624.3,7482.5 21248.3,7456.8 c -376,-25.7 -1329.5,293.7 -1329.5,293.7 0,0 -99.3,27.1 -150.3,-12.2 -51,-39.2 -248.1,-31.9 -276.2,-58.8 -52.5,-50.3 -166.9,-19.6 -154.1,19.6"
         style="fill:#ffb07b;fill-opacity:1;fill-rule:nonzero;stroke:none"
         id="path971" /><path
         d="m 21774.9,6444.7 c 98.6,-159 725.7,-47.1 777.2,53 51.6,100.2 -107.4,913.9 -25,1051.8 62,103.6 276.2,673.9 387.2,1002 -18.3,37 -44.6,54 -80.9,44 -253.7,-69.8 -1455.9,-993.4 -1699.7,-1182.2 -24.2,-117.9 -48.9,-201.6 -72.9,-225.7 0,0 750.9,-301.2 714.1,-742.9"
         style="fill:#82b378;fill-opacity:1;fill-rule:nonzero;stroke:none"
         id="path973" /><path
         d="m 21206.5,7871.2 c 368.7,156.8 1283.9,1044.1 1297.1,1056.8 -10.5,-3.7 -305.7,128.1 -1020.8,-522.8 -82.8,-75.4 -199.4,-227.9 -226.3,-294 -32.4,-79.5 -43.3,-178.4 -50,-240"
         style="fill:#82b378;fill-opacity:1;fill-rule:nonzero;stroke:none"
         id="path975" /><path
         d="m 22798,9260.4 c 0,0 -180.5,-26.2 -357.2,-163.6 -176.7,-137.4 -1059.2,-999.5 -1206.9,-1035.6 -147.6,-36.2 -465.5,-19.2 -461.6,-112.1 3.8,-92.9 74.5,-548.4 168.7,-630.8 94.2,-82.5 592.8,-121.7 808.8,15.7 215.9,137.4 1287.7,1429.1 1221,1707.9 -66.7,278.7 -172.8,218.5 -172.8,218.5"
         style="fill:#a8d29f;fill-opacity:1;fill-rule:nonzero;stroke:none"
         id="path977" /><path
         d="m 22382.9,9451 c 94.2,23.5 394.5,0 394.5,0 0,0 -144.2,62 -156,113 -2.8,12 -3.2,30.8 -3.4,52 -15.2,-61.9 -61.4,-91.2 -185.1,-97.1 -123.6,-5.9 -144.2,-91.3 -50,-67.9"
         style="fill:#82b378;fill-opacity:1;fill-rule:nonzero;stroke:none"
         id="path979" /><path
         d="m 18410.8,8533.8 c 19.2,7 40.6,-3 47.5,-22.1 l 371.1,-1020.1 h 1084.2 c 20.4,0 37.1,-16.7 37.1,-37.1 0,-20.4 -16.7,-37.1 -37.1,-37.1 h -1111.5 l -0.5,0.1 h -0.1 c -18.7,0.3 -34,14.7 -36.1,32.9 l -376.8,1035.9 c -6.9,19.2 3,40.6 22.2,47.5"
         style="fill:#ce6d25;fill-opacity:1;fill-rule:nonzero;stroke:none"
         id="path981" /><path
         d="m 13051.6,9041.8 -486.7,-778.7 1093.4,-683.5 486.7,778.7 -1093.4,683.5"
         style="fill:#2d427c;fill-opacity:1;fill-rule:nonzero;stroke:none"
         id="path983" /><path
         d="m 13054.7,9001.7 -452.5,-723.9 1042.9,-651.9 452.5,724 -1042.9,651.8"
         style="fill:#ddebfd;fill-opacity:1;fill-rule:nonzero;stroke:none"
         id="path985" /><path
         d="m 13899.4,8392.6 -369.4,-591 33.8,-21.1 369.4,591 -33.8,21.1"
         style="fill:#a8c3f7;fill-opacity:1;fill-rule:nonzero;stroke:none"
         id="path987" /><path
         d="m 13711.4,8510.1 -369.4,-591 15.5,-9.7 369.4,591 -15.5,9.7"
         style="fill:#a8c3f7;fill-opacity:1;fill-rule:nonzero;stroke:none"
         id="path989" /><path
         d="m 13674.9,8532.9 -369.4,-591 15.5,-9.7 369.4,591 -15.5,9.7"
         style="fill:#a8c3f7;fill-opacity:1;fill-rule:nonzero;stroke:none"
         id="path991" /><path
         d="m 13638.4,8555.7 -369.4,-591 15.5,-9.7 369.4,591 -15.5,9.7"
         style="fill:#a8c3f7;fill-opacity:1;fill-rule:nonzero;stroke:none"
         id="path993" /><path
         d="m 13601.9,8578.5 -369.4,-591 15.5,-9.7 369.4,591 -15.5,9.7"
         style="fill:#a8c3f7;fill-opacity:1;fill-rule:nonzero;stroke:none"
         id="path995" /><path
         d="m 13565.4,8601.3 -369.4,-591 15.5,-9.7 369.5,591 -15.6,9.7"
         style="fill:#a8c3f7;fill-opacity:1;fill-rule:nonzero;stroke:none"
         id="path997" /><path
         d="m 13529,8624.1 -369.4,-591 15.5,-9.7 369.4,591 -15.5,9.7"
         style="fill:#a8c3f7;fill-opacity:1;fill-rule:nonzero;stroke:none"
         id="path999" /><path
         d="m 13071.4,8328.9 c -25.2,15.8 -58.4,8.1 -74.1,-17.1 -15.8,-25.1 -8.1,-58.3 17.1,-74.1 25.1,-15.7 58.3,-8.1 74.1,17.1 15.7,25.2 8,58.4 -17.1,74.1"
         style="fill:#a8c3f7;fill-opacity:1;fill-rule:nonzero;stroke:none"
         id="path1001" /><path
         d="m 13214.8,8575 z m -67.9,-27.7 -0.2,-0.5 c -0.6,-1.3 0,-2.9 1.4,-3.5 2.8,-1.1 68.3,-27.6 108.8,-7.4 2.9,1.4 3.1,3.3 2.9,4.4 -0.7,4.4 -8.3,6.1 -38.1,11 -11.8,2 -25.9,4.3 -33.9,6.6 6.8,0.7 17.8,1 26.6,1.2 27.6,0.8 32.3,1.4 33.9,3.9 0.6,0.9 0.7,2 0.2,3 -1.1,2.7 -5,3.7 -17,6.1 -4.5,1 -11.5,2.5 -14.9,3.7 2.8,0.9 8,1.4 11.2,1.7 8.7,0.8 12.9,1.3 14.1,4.3 0.3,0.6 0.7,2.2 -0.7,4 l -2.1,2.1 c -2.1,1.8 -4.5,3.9 -4.4,7.7 0.4,7.6 10.8,23.9 58.4,57.7 1.3,0.9 1.5,2.5 0.7,3.8 -0.9,1.2 -2.6,1.5 -3.8,0.6 -40.2,-28.6 -60,-48.8 -60.6,-61.9 -0.3,-6.4 3.7,-9.9 6.1,-11.9 -2.2,-0.5 -5.6,-0.8 -8.2,-1.1 -9.5,-0.9 -15.4,-1.7 -17.2,-5.2 -0.6,-1.1 -0.6,-2.3 -0.1,-3.3 1.5,-3.2 7.4,-4.7 20.5,-7.4 2,-0.5 4.4,-1 6.6,-1.5 -6.3,-0.4 -15.4,-0.7 -22.8,-0.9 -30.8,-0.9 -35.6,-1.5 -36.7,-5 -0.1,-0.5 -0.5,-2.3 1.6,-3.7 4.9,-3.5 19.7,-6.2 41.6,-9.8 11.2,-1.8 25.9,-4.3 31.7,-6.3 -38.6,-17.2 -101.7,8.3 -102.3,8.6 -1.3,0.5 -2.7,0 -3.3,-1"
         style="fill:#a8c3f7;fill-opacity:1;fill-rule:nonzero;stroke:none"
         id="path1003" /><path
         d="m 13913.3,7945.6 c -6.3,-10 -3.2,-23.3 6.9,-29.6 10,-6.3 23.3,-3.2 29.6,6.8 6.3,10.1 3.2,23.4 -6.8,29.7 -10.1,6.3 -23.4,3.2 -29.7,-6.9 z m 87.1,137.6 -57.4,-91.8 c 6.7,-1.4 13.3,-3.9 19.5,-7.8 27.2,-17 35.5,-53 18.5,-80.2 -17.1,-27.3 -53,-35.6 -80.3,-18.6 -6.2,3.9 -11.3,8.7 -15.5,14.1 l -57.4,-91.8 c -4.6,-7.4 -14.3,-9.6 -21.7,-5 l -37.1,23.2 c -7.4,4.6 -9.6,14.4 -5,21.7 l 172.5,276.1 c 4.6,7.4 14.4,9.6 21.8,5 l 37,-23.2 c 7.4,-4.6 9.7,-14.3 5.1,-21.7"
         style="fill:#f99746;fill-opacity:1;fill-rule:nonzero;stroke:none"
         id="path1005" /><path
         d="m 13764,7847 172.5,276.1 c 4.6,7.4 14.4,9.6 21.8,5 l 37,-23.2 L 13764,7847"
         style="fill:#ed7d2b;fill-opacity:1;fill-rule:nonzero;stroke:none"
         id="path1007" /><path
         d="m 16045.2,11045.6 844.3,-360.9 506.9,1185.7 -844.4,360.9 -506.8,-1185.7"
         style="fill:#2d427c;fill-opacity:1;fill-rule:nonzero;stroke:none"
         id="path1009" /><path
         d="m 13197.8,8310.7 c 0,0 -57.5,-135.3 -117.3,-173 -59.7,-37.8 -116.5,-128.4 -128.9,-201.4 -22.8,-134 79.9,-217.1 155.4,-217.1 75.5,0 147.7,103 192.1,348.9 2.4,13.5 74,154.5 74,154.5 l -175.3,88.1"
         style="fill:#8e5121;fill-opacity:1;fill-rule:nonzero;stroke:none"
         id="path1015" /><path
         d="m 13801.2,8972.9 c -194.2,-362.3 -428,-750.3 -428,-750.3 l -188.8,56.6 c 92.7,225.1 195.4,595 273,872 l 343.8,-178.3"
         style="fill:#8e5121;fill-opacity:1;fill-rule:nonzero;stroke:none"
         id="path1017" /><path
         d="m 13214.8,7827.5 4.1,-15.9 c 3.5,-13.5 21.5,-16.2 28.8,-4.4 l 21.7,35.1 c 15.6,25.2 24.2,54.1 24.8,83.8 l 3.4,170.3 -113.2,-95.6 30.4,-173.3"
         style="fill:#8e5121;fill-opacity:1;fill-rule:nonzero;stroke:none"
         id="path1019" /><path
         d="m 17235.8,11405.6 c 0,0 -135.8,330.8 -299.5,103.4 -63.6,-88.3 50.2,-366.8 132,-379.5 81.8,-12.7 82.2,-57.3 82.2,-57.3 l 85.3,333.4"
         style="fill:#8e5121;fill-opacity:1;fill-rule:nonzero;stroke:none"
         id="path1021" /><path
         d="m 15438.6,12359.6 c 0,0 -52.6,31.2 -191.7,21 0,0 98.9,-98.9 191.7,-21"
         style="fill:#ffffff;fill-opacity:1;fill-rule:nonzero;stroke:none"
         id="path1023" /><path
         d="m 8355.07,4509.7 c 0,0 279.29,325.8 17.23,532.7 0,0 -191.42,115.9 -347.49,106.5 0,0 221.15,-370.9 149.61,-407.7 -71.55,-36.9 -216.64,430.9 -216.64,430.9 0,0 -435.58,42.3 -575.71,-25.1 0,0 372.37,-304.7 293.94,-322.8 -78.43,-18.2 -480.63,280.9 -480.63,280.9 0,0 -405.41,-69 -383.79,-316.3 21.61,-247.3 161.31,-323.7 222.7,-317.1 61.4,6.6 420.55,143.7 428.37,93.4 7.83,-50.3 -208.36,-214.7 -359.75,-222.4 0,0 285.82,-315.2 475.79,-224.3 189.95,91 206.16,235.2 324.57,289.3 118.43,54.1 219.5,53.9 170.61,-1.2 -48.88,-55.2 -263.2,-108.8 -330.92,-228.6 -67.71,-119.8 -128.45,-200.5 68.07,-171 196.54,29.6 516,173.4 530.02,338.1 14.02,164.7 14.02,164.7 14.02,164.7"
         style="fill:#82b378;fill-opacity:1;fill-rule:nonzero;stroke:none"
         id="path1025" /><path
         d="m 7010.79,4782.1 c 0,0 1101.11,42.5 1344.28,-272.4 0,0 142.07,-216.4 214.65,-346.8 l -35.82,-58.5 c 0,0 -129.32,230.9 -197.6,243.1 0,0 111.53,387.6 -1325.51,434.6"
         style="fill:#82b378;fill-opacity:1;fill-rule:nonzero;stroke:none"
         id="path1027" /><path
         d="m 8397.53,4370.4 c 0,0 236.35,-174.8 252.75,-487.1 l -42.89,-3.8 c 0,0 -75.48,322.9 -211.91,449.2 -136.45,126.3 2.05,41.7 2.05,41.7"
         style="fill:#82b378;fill-opacity:1;fill-rule:nonzero;stroke:none"
         id="path1029" /><path
         d="m 9331.5,4919.4 c 0,0 -444.26,248.8 -236.93,586.4 0,0 165.85,207.3 343.55,260.6 0,0 -94.79,-503.5 0,-515.3 94.77,-11.9 65.16,568.6 65.16,568.6 0,0 467.93,225.1 651.52,207.4 0,0 -290.21,-491.7 -195.43,-479.8 94.73,11.8 420.53,509.4 420.53,509.4 0,0 479.8,88.8 556.8,-195.5 77,-284.3 -47.4,-426.5 -118.5,-444.2 -71,-17.8 -527.1,-11.9 -515.3,-71.1 11.9,-59.3 319.9,-154 491.6,-100.7 0,0 -189.5,-468 -438.3,-444.3 -248.8,23.7 -325.8,177.7 -479.77,189.6 -153.99,11.8 -266.53,-29.6 -189.54,-71.1 77.01,-41.5 337.61,-13.6 462.01,-119.3 124.4,-105.8 225.1,-170.9 -5.9,-218.3 -231.02,-47.4 -645.65,-17.8 -728.57,159.9 -82.93,177.7 -82.93,177.7 -82.93,177.7"
         style="fill:#a8d29f;fill-opacity:1;fill-rule:nonzero;stroke:none"
         id="path1031" /><path
         d="m 10717.5,5772.3 c 0,0 -1243.84,-402.7 -1386,-852.9 0,0 5.92,-201.4 -118.47,-432.4 v -88.9 c 0,0 130.3,302.1 201.4,343.6 0,0 -278.4,390.9 1303.07,1030.6"
         style="fill:#82b378;fill-opacity:1;fill-rule:nonzero;stroke:none"
         id="path1033" /><path
         d="m 9213.03,4487 c 0,0 -191.82,-291.3 -82.46,-645.9 l 49.35,13.3 c 0,0 -47.91,390.5 52.46,586.9 100.35,196.5 -19.35,45.7 -19.35,45.7"
         style="fill:#82b378;fill-opacity:1;fill-rule:nonzero;stroke:none"
         id="path1035" /><path
         d="m 8624.74,5262.5 c 0,0 585.6,327.9 312.32,773 0,0 -218.62,273.3 -452.86,343.5 0,0 124.92,-663.6 0,-679.3 -124.94,-15.6 -85.89,749.6 -85.89,749.6 0,0 -616.84,296.7 -858.88,273.3 0,0 382.59,-648.1 257.65,-632.5 -124.92,15.7 -554.35,671.5 -554.35,671.5 0,0 -632.45,117.1 -733.95,-257.6 -101.5,-374.8 62.46,-562.2 156.16,-585.6 93.69,-23.5 694.9,-15.7 679.3,-93.7 -15.63,-78.1 -421.63,-203 -648.07,-132.8 0,0 249.86,-616.8 577.79,-585.6 327.93,31.3 429.44,234.3 632.45,249.9 203,15.6 351.36,-39.1 249.86,-93.7 -101.51,-54.7 -445.06,-17.9 -609.03,-157.3 -163.97,-139.4 -296.71,-225.3 7.8,-287.8 304.52,-62.4 851.08,-23.4 960.38,210.9 109.32,234.2 109.32,234.2 109.32,234.2"
         style="fill:#a8d29f;fill-opacity:1;fill-rule:nonzero;stroke:none"
         id="path1037" /><path
         d="m 6797.67,6386.8 c 0,0 1639.67,-530.9 1827.07,-1124.3 0,0 -7.81,-265.5 156.16,-570 v -117.1 c 0,0 -171.78,398.2 -265.48,452.9 0,0 366.98,515.3 -1717.75,1358.5"
         style="fill:#82b378;fill-opacity:1;fill-rule:nonzero;stroke:none"
         id="path1039" /><path
         d="m 8780.9,4692.5 c 0,0 252.86,-384 108.71,-851.4 l -65.06,17.5 c 0,0 63.15,514.8 -69.15,773.7 -132.29,259 25.5,60.2 25.5,60.2"
         style="fill:#82b378;fill-opacity:1;fill-rule:nonzero;stroke:none"
         id="path1041" /><path
         d="m 8644.47,2827.5 c -633.52,0 -1147.09,513.6 -1147.09,1147.1 h 2294.19 c 0,-633.5 -513.58,-1147.1 -1147.1,-1147.1"
         style="fill:#bc3f3f;fill-opacity:1;fill-rule:nonzero;stroke:none"
         id="path1043" /><path
         d="m 8362.2,2836.2 c 46.66,-5.8 94.23,-8.7 142.52,-8.7 633.51,0 1147.04,513.6 1147.04,1147.1 h -284.98 c 0,-585.3 -438.29,-1068.2 -1004.58,-1138.4"
         style="fill:#e58f8f;fill-opacity:1;fill-rule:nonzero;stroke:none"
         id="path1045" /><path
         d="M 7481.53,2769.1 H 9807.4 c 0,78.2 -63.36,141.5 -141.52,141.5 H 7623.05 c -78.15,0 -141.52,-63.3 -141.52,-141.5"
         style="fill:#bc3f3f;fill-opacity:1;fill-rule:nonzero;stroke:none"
         id="path1047" /><path
         d="m 7471.28,3939.4 h 2358 v 35.2 h -2358 v -35.2"
         style="fill:#912f2f;fill-opacity:1;fill-rule:nonzero;stroke:none"
         id="path1049" /><g
         id="g1051"><g
           id="g1053"
           clip-path="url(#clipPath1057)"><path
             d="m 23828.4,3438.4 h 1718.3 v 1654.9 h -1718.3 z"
             style="fill:#dceafd;fill-opacity:1;fill-rule:nonzero;stroke:none"
             id="path1059" /></g></g><path
         d="M 28074.4,2712 H 1925.63 c -16.71,0 -30.39,13.7 -30.39,30.4 v 12 c 0,16.7 13.68,30.3 30.39,30.3 H 28074.4 c 16.7,0 30.4,-13.6 30.4,-30.3 v -12 c 0,-16.7 -13.7,-30.4 -30.4,-30.4"
         style="fill:#2e3552;fill-opacity:1;fill-rule:nonzero;stroke:none"
         id="path1063" /></g></g></svg>
