<?xml version="1.0" encoding="UTF-8" standalone="no"?>
<svg
   xmlns:dc="http://purl.org/dc/elements/1.1/"
   xmlns:cc="http://creativecommons.org/ns#"
   xmlns:rdf="http://www.w3.org/1999/02/22-rdf-syntax-ns#"
   xmlns:svg="http://www.w3.org/2000/svg"
   xmlns="http://www.w3.org/2000/svg"
   xmlns:sodipodi="http://sodipodi.sourceforge.net/DTD/sodipodi-0.dtd"
   xmlns:inkscape="http://www.inkscape.org/namespaces/inkscape"
   version="1.1"
   id="svg1618"
   xml:space="preserve"
   width="4800"
   height="2666.6667"
   viewBox="0 0 4800 2666.6667"
   sodipodi:docname="4.svg"
   inkscape:version="1.0.1 (3bc2e813f5, 2020-09-07)"><metadata
     id="metadata1624"><rdf:RDF><cc:Work
         rdf:about=""><dc:format>image/svg+xml</dc:format><dc:type
           rdf:resource="http://purl.org/dc/dcmitype/StillImage" /><dc:title></dc:title></cc:Work></rdf:RDF></metadata><defs
     id="defs1622" /><sodipodi:namedview
     pagecolor="#ffffff"
     bordercolor="#666666"
     borderopacity="1"
     objecttolerance="10"
     gridtolerance="10"
     guidetolerance="10"
     inkscape:pageopacity="0"
     inkscape:pageshadow="2"
     inkscape:window-width="1920"
     inkscape:window-height="1017"
     id="namedview1620"
     showgrid="false"
     inkscape:zoom="0.22791667"
     inkscape:cx="2400"
     inkscape:cy="1333.3334"
     inkscape:window-x="-8"
     inkscape:window-y="-8"
     inkscape:window-maximized="1"
     inkscape:current-layer="g1628" /><g
     id="g1626"
     inkscape:groupmode="layer"
     inkscape:label="ink_ext_XXXXXX"
     transform="matrix(1.3333333,0,0,-1.3333333,0,2666.6667)"><g
       id="g1628"
       transform="scale(0.1)"><path
         d="M 0,0 H 36000 V 20000 H 0 Z"
         style="fill:#ffffff;fill-opacity:0;fill-rule:nonzero;stroke:none"
         id="path1630" /><path
         d="m 29048.7,1929.1 c 0,0 3431.3,-269.1 4488.1,1740 1571.3,2987.4 -1482.6,5395.4 -3698,4961.9 -2294.4,-448.9 -3235.7,1669.5 -4423.6,3787.9 -1311.5,2338.8 -2923.5,4677.6 -6988.7,3561.6 -674.8,-185.2 -1705.3,27.8 -2855.3,240.8 -2562.3,474.7 -5717.54,949.3 -6850.6,-2982.5 -390.36,-1354.5 -1773.36,-1503.6 -3781.05,-2363.1 -3929.22,-1682.1 -2132.62,-8975 674.96,-9003.6 2807.57,-28.7 23434.19,57 23434.19,57"
         style="fill:#ebf2f9;fill-opacity:1;fill-rule:nonzero;stroke:none"
         id="path1632" /><path
         d="M 33365.9,1861.4 H 3210.75 c -14.8,0 -26.91,12.1 -26.91,26.9 0,14.8 12.11,26.9 26.91,26.9 H 33365.9 c 14.8,0 27,-12.1 27,-26.9 0,-14.8 -12.2,-26.9 -27,-26.9"
         style="fill:#283250;fill-opacity:1;fill-rule:nonzero;stroke:none"
         id="path1634" /><path
         d="m 12058.2,9256 c -266.1,-267 -559.2,-498.9 -875.8,-694.3 -767.3,560.8 -1587.07,1040.8 -2441.16,1429.4 117.42,215.1 233.14,442.4 346.12,679.6 781.77,-103.6 1533.34,-165.8 2219.44,-181.9 179.1,-5.1 353,-5.1 521.7,-3.9 437.4,5.2 826.7,31.2 1160.2,77.9 -233.6,-484 -546.3,-922.7 -930.5,-1306.8 z m -1530,-1031.8 c -594.39,-251.7 -1223.8,-378.9 -1873.98,-378.9 -500.87,0 -990.15,75.6 -1460.2,225.3 356.23,186.7 714.14,615.5 989.78,1010.7 142.17,203.8 284.24,429.3 424.5,672.7 808.68,-366.2 1586.3,-816.1 2316.7,-1340.3 -128.9,-68.8 -261.2,-132.1 -396.8,-189.5 z m -6312.33,2563.1 c -10.84,25.8 -21.4,51.6 -31.78,77.5 370.55,-14.9 1057.54,-71 1935.07,-270.8 62.79,-14.3 125.54,-29.2 188.25,-44.5 -45.16,-263.4 -78.49,-515.2 -99.07,-751.8 -38.98,-448.2 -41.74,-965.1 83.29,-1334.2 -380.56,214.3 -729.55,479.3 -1042.73,792.5 -442.54,442.5 -790.35,957.7 -1033.03,1531.3 z m -170,1088.9 c 124.58,-46.8 251.77,-93.5 382.84,-138.9 602.53,-208.8 1277.96,-402.9 2000.44,-575 -26.24,-117.1 -50.43,-232.4 -72.65,-346 -59.04,14.3 -118.12,28.3 -177.24,41.8 -998.84,227.3 -1748.38,273.6 -2095.82,281.4 -86.07,259.3 -149.35,524.4 -189.41,795.1 50.61,-19.5 101.22,-39 151.84,-58.4 z m -698.2,551.5 c -920.11,449 -1340.59,882.5 -1152.41,1190 151.84,249.2 704.69,417.9 1550.83,480.2 -103.82,-350.4 -167.42,-712.5 -192.08,-1079.7 -7.78,-109 -11.67,-218 -12.97,-328.3 v -28.6 c 0,-110.3 3.9,-220.6 10.38,-329.6 -70.08,31.1 -137.56,63.6 -203.75,96 z m 868.2,2107.6 c 42.84,98.6 86.95,195.9 134.97,290.7 l 0.12,0.2 c 594.8,-743.4 1471.48,-1503.4 2495.8,-2162.6 -145.24,-442 -269.16,-876.5 -369.17,-1292.8 -745.22,180.3 -1435.85,384.3 -2041.09,602.7 -127.19,45.4 -250.47,92.1 -368.57,138.8 -70.08,27.3 -138.86,55.8 -206.34,84.4 -10.38,103.8 -18.17,208.9 -20.77,314.1 -1.3,50.6 -2.6,99.9 -2.6,150.5 0,58.4 1.3,118.1 2.6,176.5 16.87,437.3 90.85,864.3 220.62,1277 22.06,70.1 45.42,138.9 71.38,207.6 25.95,71.4 53.21,142.8 83.05,212.9 z m -265.94,2339.4 c 156.54,248.5 506.38,376.7 997.58,376.7 234.94,0 502.4,-29.3 796.32,-89 111.59,-22.6 225.58,-49.1 341.51,-79.7 l 0.3,-0.1 c -381.42,-220.6 -731.71,-490.5 -1046.99,-807 -66.18,-64.9 -129.77,-132.4 -192.06,-202.5 -77.87,-85.6 -151.84,-175.2 -223.22,-266 -114.2,-145.4 -219.32,-297.2 -316.65,-452.9 l -0.24,-0.4 c -434.05,644.4 -564.54,1190.9 -356.55,1520.9 z m 4704.29,602.6 c 333.56,0 661.62,-33.6 982.32,-100.2 -378.27,-164.6 -764.46,-622.9 -1057.61,-1043.2 -300.04,-430 -599.66,-956.4 -882.58,-1545.6 -190.91,103.7 -371.49,215.7 -541.13,336.1 -562.72,399.2 -899.85,817.3 -1083.57,1097.7 -97.54,148.8 -163.32,275.7 -205.2,366.7 197.52,140.5 405.22,266 622.38,375.5 l 0.2,-0.1 c 88.4,44.7 178.55,86.4 270.04,125.6 6.65,2.8 13.22,5.7 19.89,8.5 1.5,0.7 3.09,1.3 4.6,2 19.53,8.2 39.12,16.3 58.75,24.2 5.27,2.1 10.62,4.2 15.81,6.3 569.72,229.7 1174.47,346.5 1796.1,346.5 z m 3403.98,-1410.7 c 442.6,-442.5 790.4,-957.7 1033.1,-1531.3 86.5,-205 158.3,-414.4 215.3,-627.5 -1110,-81.2 -2127,-55.7 -3036.2,75.9 144.3,589.4 241.4,1144 284,1633.8 47,540.9 41.3,1181.5 -178,1542.1 50.8,-19.6 101.4,-39.9 151.8,-61.3 573.6,-242.6 1088.8,-589.1 1530,-1031.7 z m -2644,-2198.3 c 169.16,-39.3 342.9,-74.1 520.59,-105.1 -124.84,-469.8 -278.62,-959 -457.78,-1453 -69.06,-190.4 -140.56,-377.8 -214.12,-561.5 -673.01,247.1 -1387.33,600.5 -2089.6,1037 36.29,106.1 73.73,212.6 112.43,319.3 166.45,458.9 347.11,900.6 536.54,1314.3 477.34,-231.4 1009.64,-415.8 1591.94,-551 z m 580.39,3287.3 c 147.71,-53.5 222.61,-265.5 259.51,-433.9 58.3,-266 68.8,-639.8 30.5,-1080.8 -42,-482.7 -138.7,-1030.9 -282.5,-1614.7 -173.74,29.9 -343.43,63.7 -508.68,101.7 -570.94,131.3 -1091.43,310.9 -1556.23,536.5 277.35,578.4 570.63,1094.3 863.85,1514.6 253.26,363 500.93,643.1 716.24,810 112.34,87 263.54,180.2 395.92,180.2 28.16,0 55.49,-4.2 81.39,-13.6 z M 5645.72,16422 c 44.35,-90.9 105.61,-203.5 188.21,-331.2 351.95,-543.9 816.78,-938.2 1144.75,-1173.1 188.32,-135 389.3,-260 602.34,-375 -194.43,-423.7 -379.61,-875.9 -549.89,-1345.4 -31.75,-87.5 -62.62,-174.9 -92.79,-262.1 -1017.07,662 -1878.15,1421.7 -2443.01,2156.9 l -0.23,0.3 c 141.41,241.2 303.56,469.5 485.16,683.5 75.26,88.3 153.13,173.9 234.9,257 11.67,11.7 22.05,22 33.74,33.7 126.32,126.3 258.81,244.7 396.82,355.4 z m 1700.35,-5245.3 c -204.81,42.1 -406.66,86.1 -605.03,131.9 93.39,388.5 208.11,793.7 342.04,1206.4 696.19,-427.9 1404.2,-776.1 2074.56,-1023.1 -84.1,-200.8 -170.48,-396.6 -258.71,-586 -509.18,73 -1030.15,163.6 -1552.86,270.8 z M 8492.72,10101 c -610.92,263.2 -1239.02,480.8 -1873.41,648.7 22.36,115.1 46.87,232.3 73.51,351.2 176.41,-40.1 355.31,-78.9 536.45,-116.3 530.11,-108.4 1058.92,-200.5 1576.57,-275 -102.51,-212.1 -207.17,-415.4 -313.12,-608.6 z M 6768.13,8259.6 c -147.67,53.5 -222.63,265.5 -259.51,433.9 -58.29,266 -68.83,639.8 -30.48,1080.8 19.4,223 50.57,460.1 92.54,708.1 605.28,-161.3 1204.68,-368.7 1788.33,-618.8 -131.46,-226.7 -264.4,-436.9 -397.32,-627.4 -253.26,-363 -500.93,-643.1 -716.24,-810 -136.24,-105.6 -329.63,-220.2 -477.32,-166.6 z m 6325.77,2534.2 c -346.5,-62.3 -778.7,-98.6 -1283.5,-103.8 -783.4,-9.6 -1683,52.3 -2631.13,177.3 79.77,173.6 157.98,352.1 234.26,534.6 294.21,-98.4 579.73,-176.4 852.07,-231.6 311.9,-63.4 596.6,-94.6 850.7,-94.6 595.6,0 1022.4,171.9 1233.1,506.5 34.7,55.1 63,113.5 84.8,175.2 h -303.6 c -5.1,-9.2 -10.4,-18.3 -16,-27.2 -156.6,-248.6 -506.4,-376.9 -997.6,-376.8 -234.9,0 -502.4,29.3 -796.3,89 -256.2,52 -524.89,125 -801.92,216.9 73.1,182.9 144.18,369.3 212.82,558.6 185.08,510.3 343.5,1016.2 471.7,1502 584.1,-86.2 1211.1,-129.4 1877.3,-129.4 414.7,0 844.8,16.7 1289,50.2 66,-319.7 99.3,-647 99.3,-979.4 0,-647.6 -125.9,-1275.7 -375,-1867.5 z m 1221.2,837.1 -395.9,9.1 c 127.2,-164.9 155.8,-316.7 76.6,-445.2 -79.2,-131 -268.6,-238.8 -551.5,-320.5 214.1,569.7 321.8,1170.6 321.8,1787 0,690.4 -135,1360.1 -402.3,1989.5 -257,608.6 -625.5,1156.3 -1095.3,1624.8 -469.8,469.8 -1016.2,838.3 -1624.8,1096.6 -630.7,266 -1300.37,401 -1989.48,401 -690.41,0 -1360.06,-135 -1990.77,-401 -75.27,-32.5 -150.53,-66.2 -223.21,-101.3 l -0.67,-0.3 c -219.86,67.1 -434.01,122.1 -640.63,164 -1043,211.6 -1783.18,65.3 -2083.84,-411.9 -286.11,-454 -130.35,-1137.3 437.4,-1934.2 l -0.21,-0.4 c -76.58,-141.4 -145.35,-286.8 -208.95,-437.3 -48.01,-112.9 -90.84,-225.8 -129.78,-341.4 -1066.75,-63.5 -1637.77,-251.3 -1845.41,-591.3 -241.39,-395.8 88.25,-927 1143.33,-1443.5 145.35,-71.4 301.08,-141.5 464.6,-211.6 54.51,-478.9 177.79,-944.7 367.26,-1391.2 256.96,-608.6 625.52,-1156.3 1095.31,-1626.1 469.8,-468.5 1016.15,-837 1624.8,-1095.3 630.71,-266 1300.36,-401 1990.77,-401 689.11,0 1358.78,135 1989.48,401 608.6,258.3 1155,626.8 1624.8,1095.3 456.8,456.8 818.9,988.9 1074.5,1578.1 520.4,107.7 863,276.4 999.3,499.6 94.7,154.5 83.1,325.8 -27.2,507.5"
         style="fill:#adcbf9;fill-opacity:1;fill-rule:nonzero;stroke:none"
         id="path1636" /><path
         d="m 24093.3,12265.6 c 0,0 962.8,-947.4 1006.8,-1304.7 44,-357.2 -436.7,-916.1 -436.7,-916.1 l -570.1,2220.8"
         style="fill:#e58638;fill-opacity:1;fill-rule:nonzero;stroke:none"
         id="path1638" /><path
         d="m 23745.9,2424.9 c 0,0 -31.3,-503.7 -128.7,-510.9 -13,-0.9 -494.3,-0.9 -494.3,-0.9 l -614.3,3.5 c 0,0 4,148.1 183.6,179.4 179.6,31.3 480.1,157.5 588.9,394.8 114.5,249.7 464.8,-65.9 464.8,-65.9"
         style="fill:#163560;fill-opacity:1;fill-rule:nonzero;stroke:none"
         id="path1640" /><path
         d="m 25114.3,2424.9 c 0,0 -31.2,-503.7 -128.7,-510.9 -12.9,-0.9 -494.2,-0.9 -494.2,-0.9 l -614.4,3.5 c 0,0 4,148.1 183.6,179.4 179.6,31.3 480.2,157.5 589,394.8 114.4,249.7 464.7,-65.9 464.7,-65.9"
         style="fill:#163560;fill-opacity:1;fill-rule:nonzero;stroke:none"
         id="path1642" /><path
         d="m 23065.4,7838.2 c 0,0 160.7,-1027.7 760.2,-2852 599.4,-1824.4 681.1,-2614.3 681.1,-2614.3 l 643,18 c 0,0 5.5,1993.8 -270.8,2911.1 -276.2,917.4 -59.6,3307.3 -59.6,3307.3 l -1753.9,-770.1"
         style="fill:#163560;fill-opacity:1;fill-rule:nonzero;stroke:none"
         id="path1644" /><path
         d="m 22752.5,8552 c 0,0 -22.7,-1548.7 245.2,-3450.2 268,-1901.4 177.1,-2708.6 177.1,-2708.6 l 641.8,-21.3 c 0,0 383.5,1902.2 273.6,2853.9 -110,951.7 525.1,3265.9 525.1,3265.9 l -1862.8,60.3"
         style="fill:#1c468a;fill-opacity:1;fill-rule:nonzero;stroke:none"
         id="path1646" /><path
         d="m 23994.9,12176.1 -302.7,-224.2 -437.5,92.1 c 6.1,39.9 35,205.3 61.3,355 1.5,8.8 3.1,17.7 4.6,26.3 22.5,127.4 42,236.9 42,236.9 l 408.6,203.6 152.3,76 c -0.4,-2.7 -11.8,-141.5 -13.4,-161.7 -28.6,-359.7 84.8,-604 84.8,-604"
         style="fill:#ffb27d;fill-opacity:1;fill-rule:nonzero;stroke:none"
         id="path1648" /><path
         d="m 23285.3,12289.2 c 9.6,4.1 595.1,176.8 658.7,155.8 63.6,-21 101.3,-144 101.3,-144 l -957.7,-216.5 c 0,0 75.4,153.2 197.7,204.7"
         style="fill:#e58638;fill-opacity:1;fill-rule:nonzero;stroke:none"
         id="path1650" /><path
         d="m 24861.9,8360.8 c -99.2,-452.7 -1750.9,-506.4 -2176.6,-95.4 -48.4,46.8 -50.8,264.7 -32.6,558.6 35.8,574.1 150.5,1437.7 154.9,1878.9 2.2,213.1 31.5,431 70.5,628.9 83,421.8 209.5,752.7 209.5,752.7 0,0 806.7,260.8 957.7,216.5 727.2,-213.7 915.9,-3487.4 816.6,-3940.2"
         style="fill:#ee9849;fill-opacity:1;fill-rule:nonzero;stroke:none"
         id="path1652" /><path
         d="m 22652.7,8824 c 35.8,574.1 150.5,1437.7 154.9,1878.9 2.2,213.1 31.5,431 70.5,628.9 l 485.3,85.6 c 0,0 474.5,-1937.9 -710.7,-2593.4"
         style="fill:#e58638;fill-opacity:1;fill-rule:nonzero;stroke:none"
         id="path1654" /><path
         d="m 22915.5,9624.2 c 0,0 33.1,-79.1 -36.4,-132.2 -69.4,-53 -114.5,-139.1 -98.6,-201.9 15.9,-62.9 168.3,-165.4 221.1,-148.9 52.9,16.6 160.4,99.4 148.8,132.5 -11.6,33.2 72.3,291 -56.5,390.2 -128.8,99.2 -178.4,-39.7 -178.4,-39.7"
         style="fill:#ffb27d;fill-opacity:1;fill-rule:nonzero;stroke:none"
         id="path1656" /><path
         d="m 23457.2,12185 c 0,0 -472.3,-72.9 -849.4,-628.6 -377.1,-555.8 -625.2,-969 -555.8,-1169.3 69.5,-200.2 702.7,-894.9 811.9,-894.9 109.1,0 285.3,79.4 295.2,258 0,0 -445.8,668.2 -358,768.2 37.6,42.8 578.8,482.2 656.1,283.7 127.9,-328.4 0,1382.9 0,1382.9"
         style="fill:#ee9849;fill-opacity:1;fill-rule:nonzero;stroke:none"
         id="path1658" /><path
         d="m 23879.4,12773.7 c -89.7,-171.6 -424,-320.1 -563.4,-374.7 1.5,8.8 3.1,17.7 4.6,26.3 22.5,127.4 42,236.9 42,236.9 l 408.6,203.6 c 90.3,1.4 145.3,-21.4 108.2,-92.1"
         style="fill:#fca56b;fill-opacity:1;fill-rule:nonzero;stroke:none"
         id="path1660" /><path
         d="m 23164.1,12686.1 c 0,0 737.1,-229.9 873.2,231.3 136.1,461.3 322.9,742.2 -141.9,908.5 -464.9,166.3 -608.7,17.4 -691.6,-125.5 -82.9,-142.9 -228,-942.6 -39.7,-1014.3"
         style="fill:#ffb27d;fill-opacity:1;fill-rule:nonzero;stroke:none"
         id="path1662" /><path
         d="m 23319.4,13727.3 c 0,0 42.6,-553.7 154,-528.7 111.4,25 212.5,43.6 194.8,-123.5 -17.6,-167.2 -173.5,-361.4 169.1,-388 342.6,-26.7 843,888.3 750.2,1060 -267.6,495.2 -1655.9,583.8 -1268.1,-19.8"
         style="fill:#163560;fill-opacity:1;fill-rule:nonzero;stroke:none"
         id="path1664" /><path
         d="m 28520.9,8666.3 c 0,0 -282.7,-72.6 -462.5,-18.4 -179.7,54.1 -489,-34.8 -538.8,-100.3 -49.8,-65.6 -31.5,-91.6 57.4,-114.2 88.8,-22.6 403.8,-157 610.7,-79.2 207,77.7 476.9,80.5 476.9,80.5 l -143.7,231.6"
         style="fill:#e49963;fill-opacity:1;fill-rule:nonzero;stroke:none"
         id="path1666" /><path
         d="m 30964.3,11122.3 c 0,0 -317.6,-2257.3 -843.5,-2459.5 -259.5,-99.8 -1406.3,-325.9 -1745.6,-348.6 0,0 -83.1,67.4 -62.8,341.8 0,0 1201.5,441.1 1372.2,681 254.1,357 -157.7,1458.6 161.1,1793.9 318.7,335.3 855.6,479.4 1118.6,-8.6"
         style="fill:#4a75cb;fill-opacity:1;fill-rule:nonzero;stroke:none"
         id="path1668" /><path
         d="m 30923.7,2420.5 v 496.4 h 774.9 c 20.9,0 38,17.1 38,38 v 78.9 c 0,20.9 -17.1,38 -38,38 h -774.9 v 2801.6 c 0,78.6 -64.3,142.9 -142.9,142.9 h -153.3 c -78.7,0 -143,-64.3 -143,-142.9 V 3071.8 h -774.8 c -20.9,0 -38,-17.1 -38,-38 v -78.9 c 0,-20.9 17.1,-38 38,-38 h 774.8 v -496.4 c -560.6,-42.4 -1009.8,-244.3 -1135.8,-505.1 h 2710.8 c -126,260.8 -575.1,462.7 -1135.8,505.1"
         style="fill:#2b478b;fill-opacity:1;fill-rule:nonzero;stroke:none"
         id="path1670" /><path
         d="m 30857.3,6366.6 c -92.7,-157.2 -199.8,-304.4 -310.3,-443.9 -341.3,-430.9 -712.9,-786.2 -777.6,-1122.1 -12.9,-66.9 -33.3,-139 -60,-215 -27.1,-76.9 -60.5,-157.8 -99.1,-241.4 -144.8,-314.6 -361.4,-667.2 -577.7,-987.7 -373.9,-554 -725.5,-1016.3 -725.5,-1016.3 l -644.7,27.5 c 25.8,64.6 307,829.6 683.2,1764.4 152.8,379.5 315.2,783.1 471.9,1172.4 20.9,52 41.8,103.8 62.4,155.1 48,119.1 95.1,236.4 141.1,350.6 353.3,877.7 634.6,1576.7 634.6,1576.7 0,0 1411.8,534.8 1558.4,188.3 120.9,-285.8 22.4,-565.7 -356.7,-1208.6"
         style="fill:#163560;fill-opacity:1;fill-rule:nonzero;stroke:none"
         id="path1672" /><path
         d="m 28287,2457.5 c 0,0 -31.6,-534.6 -134.5,-542.3 -13.7,-1 -1177.5,0 -1177.5,0 0,0 9.3,161.7 199,194.8 189.7,33 507.2,166.3 622.1,417.1 120.9,263.7 490.9,-69.6 490.9,-69.6"
         style="fill:#163560;fill-opacity:1;fill-rule:nonzero;stroke:none"
         id="path1674" /><path
         d="m 29780,3977.4 c 0,0 448.4,-288.2 404.9,-381.8 -5.8,-12.4 -253.6,-456.3 -253.6,-456.3 l -319.7,-564.8 c 0,0 -134.4,79.9 -70.8,261.7 63.6,181.7 102,524 -60.9,746.5 -171.4,234.2 300.1,394.7 300.1,394.7"
         style="fill:#163560;fill-opacity:1;fill-rule:nonzero;stroke:none"
         id="path1676" /><path
         d="m 29184.4,7646.9 c 0,0 -1783.3,-1110 -1981.1,-1851.8 -197.8,-741.8 2357.3,-2324.2 2357.3,-2324.2 0,0 280.2,247.2 329.7,428.6 0,0 -1155,1383.6 -1405.5,1693.8 -153.9,190.5 2275,659.4 2571.7,1121 296.7,461.5 190.5,849.9 190.5,849.9 l -2062.6,82.7"
         style="fill:#1c468a;fill-opacity:1;fill-rule:nonzero;stroke:none"
         id="path1678" /><path
         d="m 32517.5,6223.3 h -3626.7 c -72.6,0 -131.9,-59.3 -131.9,-131.8 v -725.4 c 0,-72.5 59.3,-131.9 131.9,-131.9 h 3626.7 c 72.5,0 131.9,59.4 131.9,131.9 v 725.4 c 0,72.5 -59.4,131.8 -131.9,131.8"
         style="fill:#ee9849;fill-opacity:1;fill-rule:nonzero;stroke:none"
         id="path1680" /><path
         d="m 30850.9,11548.2 c 0,0 -703.7,-393.4 -1128.3,-283.6 0,0 96,136.8 270,244.6 -9.3,41.3 -17.4,80.2 -24.4,116.4 -40.6,207.3 -47.9,327.9 -47.9,327.9 l 324.2,290.5 c 89.7,-19 173.5,-36.8 218,-46.2 4.2,-21.4 8.8,-42.2 14,-62.6 101.2,-403.4 374.4,-587 374.4,-587"
         style="fill:#e49963;fill-opacity:1;fill-rule:nonzero;stroke:none"
         id="path1682" /><path
         d="m 31300.5,9504.8 c -60.8,-817.9 19.2,-2061.7 -49.8,-2277.1 -59.6,-185.9 -737.9,-75.4 -1008.7,-13.4 -100.2,23 -221.6,55.8 -346.9,94.6 -349.7,108.3 -730.8,262.9 -771.7,377.7 -1.5,4.5 -2.9,8.9 -3.7,13.2 v 0.2 c -0.7,2.9 -1.2,5.8 -1.6,8.6 -1.8,13.5 -0.7,26.3 2.3,39.3 13.6,58.5 66.1,121.8 72.3,266.7 6.9,161.7 5.9,352.2 12,557 0.3,23.1 0.6,48.3 3.1,71.2 l 0.1,8.4 c 0.1,4.4 0.2,8.7 0.3,13.1 5.9,228.4 17.9,468.6 31.7,706.7 8.8,149.6 19,297.8 30.7,439.7 30.5,366.4 71.6,692.2 126,898.1 88.9,335.8 284.9,554.8 463.4,715.3 l 129,110.7 c 144,-31.5 314.3,-10.6 468.3,62.4 166.6,79.1 224.2,135.8 253.2,114.4 384.9,-297 661.8,-1207 590,-2206.8"
         style="fill:#739af0;fill-opacity:1;fill-rule:nonzero;stroke:none"
         id="path1684" /><path
         d="m 29895.1,7308.9 c -349.7,108.3 -730.8,262.9 -771.7,377.7 -1.5,4.5 -2.9,8.9 -3.7,13.2 v 0.2 c 0,2.8 -0.6,5.7 -1.6,8.6 -1.8,13.5 -0.7,26.3 2.3,39.3 13.6,58.5 66.1,121.8 72.3,266.7 6.9,161.7 5.9,352.2 12,557 0.3,23.1 0.6,48.3 3.1,71.2 l 0.1,8.4 c 0.1,4.4 0.2,8.7 0.3,13.1 l 1321,599.1 c 0,0 76.1,-1064.6 -634.1,-1954.5"
         style="fill:#4a75cb;fill-opacity:1;fill-rule:nonzero;stroke:none"
         id="path1686" /><path
         d="m 30476.5,12135.2 c -48,-121.3 -191.7,-407.3 -508.3,-509.6 -40.6,207.3 -47.9,327.9 -47.9,327.9 l 324.2,290.5 c 89.7,-19 173.5,-36.8 218,-46.2 4.2,-21.4 8.8,-42.2 14,-62.6"
         style="fill:#d68d5d;fill-opacity:1;fill-rule:nonzero;stroke:none"
         id="path1688" /><path
         d="m 29792.1,11956.7 c 0,0 695.6,-78.5 737.8,355.5 42.2,434 160.5,716.1 -281.9,784.6 -442.4,68.4 -545,-88.8 -594.3,-230.2 -49.3,-141.4 -41.5,-878.4 138.4,-909.9"
         style="fill:#e49963;fill-opacity:1;fill-rule:nonzero;stroke:none"
         id="path1690" /><path
         d="m 30527,12282.2 c 0,0 -44.2,576.1 -677.4,635.8 -433.8,40.8 -191.9,414.2 -145.7,473.7 0,0 332.3,-45.6 673,-101.8 714.9,-118.2 220.3,-918 150.1,-1007.7"
         style="fill:#2b478b;fill-opacity:1;fill-rule:nonzero;stroke:none"
         id="path1692" /><path
         d="m 28855.4,8223.7 -1723.9,-36.8 -490.1,1508.3 -60.9,-19.8 518.1,-1594.5 1759,37.5 -2.2,105.3"
         style="fill:#4a75cb;fill-opacity:1;fill-rule:nonzero;stroke:none"
         id="path1694" /><path
         d="m 28666.4,8319.3 c 0,0 -273,-103.3 -457.6,-69.3 -184.6,34 -482.2,-88.5 -524.5,-159.1 -42.3,-70.7 -21.3,-94.5 69.6,-107.2 90.8,-12.7 418.6,-111.5 615.8,-11.4 197.1,100.1 465.1,132.7 465.1,132.7 l -168.4,214.3"
         style="fill:#e49963;fill-opacity:1;fill-rule:nonzero;stroke:none"
         id="path1696" /><path
         d="m 30824.1,11029.6 c 0,0 -66.8,-2278.5 -567.2,-2537.4 -246.9,-127.8 -1361.8,-479 -1696.4,-539 0,0 -90.1,57.9 -100.2,332.8 0,0 1145.6,570.9 1288.8,828.2 213.1,382.8 -317.6,1432.3 -37.7,1800.7 279.8,368.4 797.6,570.8 1112.7,114.7"
         style="fill:#739af0;fill-opacity:1;fill-rule:nonzero;stroke:none"
         id="path1698" /><path
         d="m 11949,10833.1 -706.9,-8405.5 c 0,0 -74.1,-509.6 304.9,-510.5 623.2,-1.5 3101.7,0 3101.7,0 0,0 -469,106.1 -463.4,344.7 6.8,281.3 826.3,8650.8 826.3,8650.8 l -3062.6,-79.5"
         style="fill:#d86713;fill-opacity:1;fill-rule:nonzero;stroke:none"
         id="path1700" /><path
         d="m 14849.8,2069.6 c -122.6,-0.3 -2489.9,-7.8 -3096.7,0 -264.5,3.3 -310.9,235.2 -313.1,385.2 -1,72 8.1,125.1 8.1,125.1 l 18.4,218.5 46.8,556.9 41.4,491.9 53.2,632.2 44.8,533.6 502.3,5972.7 3062.6,79.4 c 0,0 -345.2,-3502.6 -589.3,-6052.1 -27.3,-284.1 -53.2,-556.5 -77.2,-810.8 -7.8,-81.1 -15.2,-160.5 -22.5,-237.8 -22.7,-241.2 -43.4,-462.7 -61.4,-658.3 -9.5,-103.1 -18.2,-198.9 -26.1,-286.6 -31.2,-343.9 -49.4,-563.4 -49.7,-605.2 -0.1,-24.3 2,-47 6,-68 50.2,-267.9 406.4,-276.7 452.4,-276.7"
         style="fill:#ee9849;fill-opacity:1;fill-rule:nonzero;stroke:none"
         id="path1702" /><path
         d="M 4511.34,15407.1 6233.29,8490.3 6469.06,7543.1 7271.05,4321.5 H 22170.9 l -2956,11085.6 H 4511.34"
         style="fill:#f1a34f;fill-opacity:1;fill-rule:nonzero;stroke:none"
         id="path1704" /><path
         d="M 4511.32,15407.1 4272.68,15327.5 6953.8,4080.8 7271.08,4321.4 4511.32,15407.1"
         style="fill:#ee9849;fill-opacity:1;fill-rule:nonzero;stroke:none"
         id="path1706" /><path
         d="M 6953.8,4080.8 H 21762 l 408.9,240.6 H 7271.08 L 6953.8,4080.8"
         style="fill:#d86713;fill-opacity:1;fill-rule:nonzero;stroke:none"
         id="path1708" /><path
         d="m 12154,1913.9 h 3206.2 v 152.398 H 12154 Z"
         style="fill:#f1a34f;fill-opacity:1;fill-rule:nonzero;stroke:none"
         id="path1710" /><path
         d="m 21449.1,6364.2 -2417.7,8896.3 H 4487.5 v 146.6 h 14727.4 l 2409.6,-9023.2 -175.4,-19.7"
         style="fill:#f1a34f;fill-opacity:1;fill-rule:nonzero;stroke:none"
         id="path1712" /><path
         d="m 14545.1,4080.9 -16.5,-116.5 -3015.3,-609.1 41.4,491.9 19.7,233.7 h 2970.7"
         style="fill:#d86713;fill-opacity:1;fill-rule:nonzero;stroke:none"
         id="path1714" /><path
         d="m 13216.3,2066.3 h -722.6 c -317.1,0.3 -585.9,1.3 -740.6,3.3 -264.5,3.3 -310.9,235.2 -313.1,385.2 l 3001.1,564.7 c -31.2,-343.9 -49.4,-563.4 -49.7,-605.2 0,-0.8 0,-1.5 0,-2.3 0,-23.5 2.1,-45.3 6,-65.7 50.2,-267.9 406.4,-276.7 452.4,-276.7 -69.2,-0.2 -854.1,-2.6 -1633.5,-3.3"
         style="fill:#e58433;fill-opacity:1;fill-rule:nonzero;stroke:none"
         id="path1716" /><path
         d="m 12829.7,2066.1 c -115.8,0 -228.7,0 -336,0.2 v 0 h 722.6 c -130.1,-0.2 -260.1,-0.2 -386.6,-0.2"
         style="fill:#e78b37;fill-opacity:1;fill-rule:nonzero;stroke:none"
         id="path1718" /><path
         d="m 7271.05,4321.5 v 0 L 6469.06,7543.1 13816.4,6565.6 7271.08,4321.4"
         style="fill:#e78b37;fill-opacity:1;fill-rule:nonzero;stroke:none"
         id="path1720" /><path
         d="M 4511.32,15407.1 H 19214.9 L 21600.6,6497.7 H 6653.56 l -2142.24,8909.4"
         style="fill:#699dee;fill-opacity:1;fill-rule:nonzero;stroke:none"
         id="path1722" /><path
         d="m 15116,5371.5 c -42.5,218.5 -254,395.6 -472.5,395.6 -218.5,0 -361.2,-177.1 -318.7,-395.6 42.4,-218.5 254,-395.7 472.5,-395.7 218.5,0 361.2,177.2 318.7,395.7"
         style="fill:#d86713;fill-opacity:1;fill-rule:nonzero;stroke:none"
         id="path1724" /><path
         d="M 20907.1,6883.8 H 7140.09 l -1559.08,6210.9 -119.51,476.3 -102.01,406.2 -239.1,952.6 H 18689 l 262.5,-952.6 112,-406.2 131.3,-476.3 1712.3,-6210.9"
         style="fill:#e9f3fe;fill-opacity:1;fill-rule:nonzero;stroke:none"
         id="path1726" /><path
         d="M 18951.5,13977.2 H 5359.49 l -239.1,952.6 H 18689 l 262.5,-952.6"
         style="fill:#afcdfb;fill-opacity:1;fill-rule:nonzero;stroke:none"
         id="path1728" /><path
         d="m 5771.1,14618.4 c -65.77,0 -105.79,-53.3 -89.39,-119.1 16.4,-65.7 83,-119.1 148.77,-119.1 65.77,0 105.79,53.4 89.39,119.1 -16.39,65.8 -83,119.1 -148.77,119.1"
         style="fill:#e9f3fe;fill-opacity:1;fill-rule:nonzero;stroke:none"
         id="path1730" /><path
         d="m 6166.77,14618.4 c -65.77,0 -105.79,-53.3 -89.39,-119.1 16.39,-65.7 83.01,-119.1 148.77,-119.1 65.77,0 105.79,53.4 89.39,119.1 -16.39,65.8 -83,119.1 -148.77,119.1"
         style="fill:#e9f3fe;fill-opacity:1;fill-rule:nonzero;stroke:none"
         id="path1732" /><path
         d="m 6741.6,14499.3 c -16.4,65.8 -83.01,119.1 -148.77,119.1 -65.77,0 -105.79,-53.3 -89.4,-119.1 16.4,-65.7 83.01,-119.1 148.78,-119.1 65.76,0 105.79,53.4 89.39,119.1"
         style="fill:#e9f3fe;fill-opacity:1;fill-rule:nonzero;stroke:none"
         id="path1734" /><path
         d="m 16454.6,10702.6 c -94,-120.3 -241.6,-186.6 -415.6,-186.6 -373.9,0 -753.9,304.5 -847.2,678.7 -45.5,182.3 -16.3,352 82.1,478 94,120.3 241.6,186.5 415.6,186.5 373.9,0 753.9,-304.4 847.2,-678.6 45.5,-182.3 16.3,-352.1 -82.1,-478 z m 138.8,492.1 c -99.4,398.6 -504.9,723 -903.9,723 -192.4,0 -356.3,-74.3 -461.7,-209.1 -109.7,-140.4 -142.6,-327.9 -92.7,-528 99.4,-398.7 504.9,-723 903.9,-723 192.4,0 356.4,74.2 461.7,209 109.7,140.4 142.6,328 92.7,528.1"
         style="fill:#f1a34f;fill-opacity:1;fill-rule:nonzero;stroke:none"
         id="path1736" /><path
         d="m 15956,11024.4 -72.7,508.2 -5.7,23 h -204.7 l 5.8,-23 180.7,-508.2 h 96.6"
         style="fill:#f1a34f;fill-opacity:1;fill-rule:nonzero;stroke:none"
         id="path1738" /><path
         d="m 15836.9,10934.7 45.9,-183.9 h 186.2 l -45.8,183.9 h -186.3"
         style="fill:#f1a34f;fill-opacity:1;fill-rule:nonzero;stroke:none"
         id="path1740" /><path
         d="m 16899.1,8976.2 c -94,-120.4 -241.7,-186.6 -415.7,-186.6 -373.8,0 -753.9,304.4 -847.2,678.7 -45.5,182.3 -16.3,352 82.1,477.9 94,120.4 241.6,186.6 415.6,186.6 373.9,0 754,-304.4 847.3,-678.7 45.4,-182.3 16.3,-352 -82.1,-477.9 z m 138.7,492.1 c -99.4,398.6 -504.8,722.9 -903.9,722.9 -192.4,0 -356.3,-74.2 -461.6,-209 -109.7,-140.4 -142.7,-328 -92.8,-528.1 99.4,-398.6 504.9,-722.9 903.9,-722.9 192.4,0 356.4,74.2 461.7,209 109.7,140.4 142.6,328 92.7,528.1"
         style="fill:#f1a34f;fill-opacity:1;fill-rule:nonzero;stroke:none"
         id="path1742" /><path
         d="m 16400.4,9298 -72.7,508.1 -5.7,23 h -204.6 l 5.7,-23 180.7,-508.1 h 96.6"
         style="fill:#f1a34f;fill-opacity:1;fill-rule:nonzero;stroke:none"
         id="path1744" /><path
         d="m 16281.3,9208.3 45.9,-184 h 186.3 l -45.9,184 h -186.3"
         style="fill:#f1a34f;fill-opacity:1;fill-rule:nonzero;stroke:none"
         id="path1746" /><path
         d="m 18561.3,11416.7 c 45.3,0 73.1,37 61.8,82.2 -11.3,45.3 -57.6,82.3 -102.8,82.3 h -1465.1 c -45.2,0 -73,-37 -61.8,-82.3 11.3,-45.2 57.6,-82.2 102.8,-82.2 h 1465.1"
         style="fill:#afcdfb;fill-opacity:1;fill-rule:nonzero;stroke:none"
         id="path1748" /><path
         d="m 18380,12585.3 c -11.3,45.3 -57.6,82.3 -102.8,82.3 h -1465.1 c -45.3,0 -73.1,-37 -61.8,-82.3 11.3,-45.2 57.6,-82.2 102.8,-82.2 h 1465.1 c 45.2,0 73,37 61.8,82.2"
         style="fill:#afcdfb;fill-opacity:1;fill-rule:nonzero;stroke:none"
         id="path1750" /><path
         d="m 18639.5,11103.3 c 45.2,0 73,37 61.7,82.2 -11.3,45.3 -57.5,82.3 -102.8,82.3 h -1465.1 c -45.2,0 -73,-37 -61.7,-82.3 11.3,-45.2 57.5,-82.2 102.8,-82.2 h 1465.1"
         style="fill:#afcdfb;fill-opacity:1;fill-rule:nonzero;stroke:none"
         id="path1752" /><path
         d="m 18779.3,10872.1 c -11.2,45.3 -57.5,82.3 -102.7,82.3 h -1465.1 c -45.3,0 -73.1,-37 -61.8,-82.3 11.3,-45.2 57.5,-82.2 102.8,-82.2 h 1465.1 c 45.2,0 73,37 61.7,82.2"
         style="fill:#afcdfb;fill-opacity:1;fill-rule:nonzero;stroke:none"
         id="path1754" /><path
         d="m 19005.7,9690.2 c 45.3,0 73.1,37.1 61.8,82.3 -11.3,45.2 -57.5,82.3 -102.8,82.3 h -1465.1 c -45.2,0 -73,-37.1 -61.7,-82.3 11.2,-45.2 57.5,-82.3 102.7,-82.3 h 1465.1"
         style="fill:#afcdfb;fill-opacity:1;fill-rule:nonzero;stroke:none"
         id="path1756" /><path
         d="m 19083.9,9376.8 c 45.2,0 73,37.1 61.7,82.3 -11.2,45.3 -57.5,82.3 -102.7,82.3 h -1465.1 c -45.3,0 -73.1,-37 -61.8,-82.3 11.3,-45.2 57.5,-82.3 102.8,-82.3 h 1465.1"
         style="fill:#afcdfb;fill-opacity:1;fill-rule:nonzero;stroke:none"
         id="path1758" /><path
         d="m 19223.8,9145.7 c -11.3,45.3 -57.6,82.3 -102.8,82.3 h -1465.1 c -45.3,0 -73,-37 -61.8,-82.3 11.3,-45.2 57.6,-82.2 102.8,-82.2 H 19162 c 45.3,0 73,37 61.8,82.2"
         style="fill:#afcdfb;fill-opacity:1;fill-rule:nonzero;stroke:none"
         id="path1760" /><path
         d="m 18318.3,12931.2 -102.3,410.1 c -18.7,75.2 -95.6,136.8 -170.8,136.8 H 6302.14 c -75.21,0 -121.4,-61.6 -102.65,-136.8 l 102.26,-410.1 c 18.75,-75.2 95.63,-136.8 170.85,-136.8 h 11743 c 75.2,0 121.4,61.6 102.7,136.8"
         style="fill:#afcdfb;fill-opacity:1;fill-rule:nonzero;stroke:none"
         id="path1762" /><path
         d="m 14626.6,13478.1 170.4,-683.7 H 6472.6 c -75.22,0 -152.1,61.6 -170.85,136.8 l -102.26,410.1 c -18.75,75.2 27.44,136.8 102.65,136.8 h 8324.46"
         style="fill:#f1a34f;fill-opacity:1;fill-rule:nonzero;stroke:none"
         id="path1764" /><path
         d="m 16122,13262 13.1,-52.6 h 129.9 l -67.8,-223.9 h 68.7 l 66.5,230.7 -11.4,45.8 h -199"
         style="fill:#699dee;fill-opacity:1;fill-rule:nonzero;stroke:none"
         id="path1766" /><path
         d="m 16534.2,13035.7 c -36.8,0 -70.2,37.5 -82.8,88.1 -12.8,51.3 1.7,88 38,88 36.4,0 70.3,-37.9 82.8,-88 12.7,-51 -1.3,-88.1 -38,-88.1 z m -57.6,231 c -73.5,0 -107.6,-62.8 -87.6,-142.9 20.2,-81 84.2,-143 158.1,-143 73.8,0 107.5,62.8 87.5,143 -20.2,80.9 -85,142.9 -158,142.9"
         style="fill:#699dee;fill-opacity:1;fill-rule:nonzero;stroke:none"
         id="path1768" /><path
         d="m 16938.9,13018.3 c -15.8,0 -30.1,16.2 -34.8,34.8 -4.7,18.9 0.1,34.7 16.6,34.7 15.8,0 30.1,-16.2 34.8,-34.7 4.6,-18.6 -0.1,-34.8 -16.6,-34.8 z m 58,34.8 c -9.8,39.5 -44.4,70.7 -84.3,70.7 -40.3,0 -59.7,-31.6 -49.9,-70.7 9.8,-39.5 44.4,-70.7 84.3,-70.7 40.3,0 59.6,32 49.9,70.7"
         style="fill:#699dee;fill-opacity:1;fill-rule:nonzero;stroke:none"
         id="path1770" /><path
         d="m 16870.2,13262 -132.9,-276.5 h 47 l 132.9,276.5 h -47"
         style="fill:#699dee;fill-opacity:1;fill-rule:nonzero;stroke:none"
         id="path1772" /><path
         d="m 16699.1,13194.4 c -4.8,19 0,34.8 16.6,34.8 15.8,0 30.1,-16.2 34.7,-34.8 4.6,-18.5 0,-34.7 -16.6,-34.7 -15.8,0 -30.1,16.2 -34.7,34.7 z m 92.8,0 c -9.9,39.5 -44.5,70.7 -84.4,70.7 -40.3,0 -59.6,-31.6 -49.9,-70.7 9.9,-39.4 44.5,-70.6 84.4,-70.6 40.3,0 59.5,31.9 49.9,70.6"
         style="fill:#699dee;fill-opacity:1;fill-rule:nonzero;stroke:none"
         id="path1774" /><path
         d="m 14076.4,9831.4 c 85.4,0 137.3,69.1 116,154.4 -21.3,85.3 -107.7,154.5 -193,154.5 H 7152.07 c -85.32,0 -137.23,-69.2 -115.96,-154.5 21.27,-85.3 107.67,-154.4 192.98,-154.4 h 6847.31"
         style="fill:#afcdfb;fill-opacity:1;fill-rule:nonzero;stroke:none"
         id="path1776" /><path
         d="m 14204.3,9318.5 c 85.3,0 137.2,69.2 116,154.5 -21.3,85.3 -107.7,154.5 -193,154.5 H 7279.93 c -85.32,0 -137.23,-69.2 -115.96,-154.5 21.27,-85.3 107.67,-154.5 192.98,-154.5 h 6847.35"
         style="fill:#afcdfb;fill-opacity:1;fill-rule:nonzero;stroke:none"
         id="path1778" /><path
         d="m 14453.8,8937.4 c -21.3,85.3 -107.7,154.5 -193,154.5 H 7413.47 c -85.31,0 -137.23,-69.2 -115.96,-154.5 21.27,-85.3 107.68,-154.5 192.98,-154.5 h 6847.41 c 85.3,0 137.2,69.2 115.9,154.5"
         style="fill:#afcdfb;fill-opacity:1;fill-rule:nonzero;stroke:none"
         id="path1780" /><path
         d="m 10329.4,10664.9 c 26.7,-107.2 135.3,-194.1 242.6,-194.1 h 763.7 c 107.2,0 172.5,86.9 145.7,194.1 l -369.1,1480.7 c -26.8,107.2 -135.4,194.1 -242.6,194.1 H 10106 c -107.25,0 -172.49,-86.9 -145.76,-194.1 l 369.16,-1480.7"
         style="fill:#afcdfb;fill-opacity:1;fill-rule:nonzero;stroke:none"
         id="path1782" /><path
         d="m 11651.3,10664.9 c 26.7,-107.2 135.3,-194.1 242.5,-194.1 h 763.8 c 107.2,0 172.4,86.9 145.7,194.1 l -369.2,1480.7 c -26.7,107.2 -135.3,194.1 -242.5,194.1 h -763.8 c -107.2,0 -172.4,-86.9 -145.7,-194.1 l 369.2,-1480.7"
         style="fill:#afcdfb;fill-opacity:1;fill-rule:nonzero;stroke:none"
         id="path1784" /><path
         d="m 12948.5,10664.9 c 26.7,-107.2 135.3,-194.1 242.5,-194.1 h 763.7 c 107.3,0 172.5,86.9 145.8,194.1 l -369.2,1480.7 c -26.7,107.2 -135.3,194.1 -242.5,194.1 H 12725 c -107.2,0 -172.5,-86.9 -145.7,-194.1 l 369.2,-1480.7"
         style="fill:#afcdfb;fill-opacity:1;fill-rule:nonzero;stroke:none"
         id="path1786" /><path
         d="m 10070.5,10796.2 -303.68,1218.1 c -44.81,179.7 -226.83,325.4 -406.55,325.4 H 6774.63 c -179.72,0 -289.09,-145.7 -244.28,-325.4 l 303.71,-1218.1 c 44.81,-179.7 226.83,-325.4 406.56,-325.4 h 2585.63 c 179.75,0 289.05,145.7 244.25,325.4"
         style="fill:#afcdfb;fill-opacity:1;fill-rule:nonzero;stroke:none"
         id="path1788" /><path
         d="m 9327.65,11872.5 c 40.74,0 65.76,33.3 55.6,74.1 v 0 c -10.15,40.7 -51.8,74 -92.54,74 H 6874.76 c -40.75,0 -65.77,-33.3 -55.61,-74 v 0 c 10.16,-40.8 51.8,-74.1 92.54,-74.1 h 2415.96"
         style="fill:#699dee;fill-opacity:1;fill-rule:nonzero;stroke:none"
         id="path1790" /><path
         d="m 9398.68,11587.6 c 40.74,0 65.76,33.3 55.61,74.1 -10.16,40.7 -51.8,74 -92.55,74 H 6945.79 c -40.74,0 -65.77,-33.3 -55.6,-74 10.15,-40.8 51.8,-74.1 92.53,-74.1 h 2415.96"
         style="fill:#699dee;fill-opacity:1;fill-rule:nonzero;stroke:none"
         id="path1792" /><path
         d="m 9525.32,11376.8 c -10.15,40.7 -51.8,74 -92.54,74 H 7016.82 c -40.74,0 -65.76,-33.3 -55.6,-74 10.16,-40.8 51.8,-74.1 92.54,-74.1 h 2415.96 c 40.74,0 65.76,33.3 55.6,74.1"
         style="fill:#699dee;fill-opacity:1;fill-rule:nonzero;stroke:none"
         id="path1794" /><path
         d="m 7666.36,11131.8 h -569.98 c -40.74,0 -65.76,-33.4 -55.6,-74.1 10.15,-40.8 51.8,-74.1 92.54,-74.1 h 569.98 c 40.74,0 65.76,33.3 55.6,74.1 -10.15,40.7 -51.8,74.1 -92.54,74.1"
         style="fill:#699dee;fill-opacity:1;fill-rule:nonzero;stroke:none"
         id="path1796" /><path
         d="m 20144.4,7543.9 -159.3,638.9 c -23.5,94.3 -119,170.7 -213.2,170.7 h -1356.3 c -94.3,0 -151.6,-76.4 -128.1,-170.7 l 159.3,-638.9 c 23.5,-94.3 119,-170.7 213.2,-170.7 h 1356.3 c 94.3,0 151.6,76.4 128.1,170.7"
         style="fill:#afcdfb;fill-opacity:1;fill-rule:nonzero;stroke:none"
         id="path1798" /><path
         d="m 19754.8,8108.4 c 21.3,0 34.5,17.5 29.1,38.9 -5.3,21.4 -27.1,38.8 -48.5,38.8 h -1267.3 c -21.3,0 -34.5,-17.4 -29.1,-38.8 5.3,-21.4 27.1,-38.9 48.5,-38.9 h 1267.3"
         style="fill:#699dee;fill-opacity:1;fill-rule:nonzero;stroke:none"
         id="path1800" /><path
         d="m 19792,7959 c 21.4,0 34.5,17.5 29.2,38.8 -5.3,21.4 -27.2,38.9 -48.6,38.9 h -1267.2 c -21.4,0 -34.5,-17.5 -29.2,-38.9 5.4,-21.3 27.2,-38.8 48.6,-38.8 H 19792"
         style="fill:#699dee;fill-opacity:1;fill-rule:nonzero;stroke:none"
         id="path1802" /><path
         d="m 19858.4,7848.4 c -5.3,21.4 -27.1,38.9 -48.5,38.9 h -1267.2 c -21.4,0 -34.5,-17.5 -29.2,-38.9 5.3,-21.4 27.2,-38.8 48.5,-38.8 h 1267.3 c 21.3,0 34.5,17.4 29.1,38.8"
         style="fill:#699dee;fill-opacity:1;fill-rule:nonzero;stroke:none"
         id="path1804" /><path
         d="m 18883.4,7719.9 h -299 c -21.4,0 -34.5,-17.5 -29.2,-38.9 5.3,-21.3 27.2,-38.8 48.6,-38.8 h 298.9 c 21.4,0 34.5,17.5 29.2,38.8 -5.3,21.4 -27.2,38.9 -48.5,38.9"
         style="fill:#699dee;fill-opacity:1;fill-rule:nonzero;stroke:none"
         id="path1806" /><path
         d="m 10739.9,8011.4 c 32.2,0 51.7,26.1 43.7,58.3 -8,32.2 -40.6,58.2 -72.8,58.2 H 8128.05 c -32.18,0 -51.76,-26 -43.73,-58.2 8.02,-32.2 40.61,-58.3 72.78,-58.3 h 2582.8"
         style="fill:#f1a34f;fill-opacity:1;fill-rule:nonzero;stroke:none"
         id="path1808" /><path
         d="m 10788.1,7818 c 32.2,0 51.8,26.1 43.8,58.2 -8.1,32.2 -40.7,58.3 -72.8,58.3 H 8176.28 c -32.18,0 -51.76,-26.1 -43.74,-58.3 8.03,-32.1 40.61,-58.2 72.79,-58.2 h 2582.77"
         style="fill:#f1a34f;fill-opacity:1;fill-rule:nonzero;stroke:none"
         id="path1810" /><path
         d="M 10809.4,7732.5 H 8226.65 c -32.18,0 -51.76,-26.1 -43.73,-58.3 8.02,-32.2 40.61,-58.2 72.79,-58.2 h 2582.79 c 32.2,0 51.7,26 43.7,58.2 -8,32.2 -40.6,58.3 -72.8,58.3"
         style="fill:#f1a34f;fill-opacity:1;fill-rule:nonzero;stroke:none"
         id="path1812" /><path
         d="m 14073.1,8011.4 c 32.1,0 51.7,26.1 43.7,58.3 -8,32.2 -40.6,58.2 -72.8,58.2 h -2582.8 c -32.2,0 -51.7,-26 -43.7,-58.2 8,-32.2 40.6,-58.3 72.8,-58.3 h 2582.8"
         style="fill:#f1a34f;fill-opacity:1;fill-rule:nonzero;stroke:none"
         id="path1814" /><path
         d="m 14121.3,7818 c 32.2,0 51.7,26.1 43.7,58.2 -8,32.2 -40.6,58.3 -72.8,58.3 h -2582.8 c -32.1,0 -51.7,-26.1 -43.7,-58.3 8,-32.1 40.6,-58.2 72.8,-58.2 h 2582.8"
         style="fill:#f1a34f;fill-opacity:1;fill-rule:nonzero;stroke:none"
         id="path1816" /><path
         d="m 14142.6,7732.5 h -2582.8 c -32.2,0 -51.7,-26.1 -43.7,-58.3 8,-32.2 40.6,-58.2 72.8,-58.2 h 2582.8 c 32.1,0 51.7,26 43.7,58.2 -8,32.2 -40.6,58.3 -72.8,58.3"
         style="fill:#f1a34f;fill-opacity:1;fill-rule:nonzero;stroke:none"
         id="path1818" /><path
         d="m 17303.7,8011.4 c 32.1,0 51.7,26.1 43.7,58.3 -8,32.2 -40.6,58.2 -72.8,58.2 h -2582.8 c -32.2,0 -51.7,-26 -43.7,-58.2 8,-32.2 40.6,-58.3 72.8,-58.3 h 2582.8"
         style="fill:#f1a34f;fill-opacity:1;fill-rule:nonzero;stroke:none"
         id="path1820" /><path
         d="m 17351.9,7818 c 32.2,0 51.8,26.1 43.7,58.2 -8,32.2 -40.6,58.3 -72.8,58.3 h -2582.7 c -32.2,0 -51.8,-26.1 -43.8,-58.3 8,-32.1 40.6,-58.2 72.8,-58.2 h 2582.8"
         style="fill:#f1a34f;fill-opacity:1;fill-rule:nonzero;stroke:none"
         id="path1822" /><path
         d="m 17446,7674.2 c -8,32.2 -40.6,58.3 -72.8,58.3 h -2582.8 c -32.1,0 -51.7,-26.1 -43.7,-58.3 8,-32.2 40.6,-58.2 72.8,-58.2 h 2582.8 c 32.1,0 51.7,26 43.7,58.2"
         style="fill:#f1a34f;fill-opacity:1;fill-rule:nonzero;stroke:none"
         id="path1824" /><path
         d="m 7718.47,8356.1 c -26.42,0 -48.59,-9.8 -62.43,-27.5 -14.72,-18.8 -18.94,-44.7 -11.89,-73 l 198.89,-797.7 c 15.49,-62.1 80.75,-114.6 142.51,-114.6 h 9960.15 c 26.4,0 48.6,9.8 62.4,27.5 14.7,18.8 18.9,44.7 11.9,73 l -198.9,797.7 c -15.5,62.1 -80.8,114.6 -142.5,114.6 z M 17945.7,7284.9 H 7985.55 c -87.99,0 -177.34,71.3 -199.18,158.9 l -198.89,797.7 c -11.33,45.4 -3.11,90.3 22.53,123.1 25.16,32.2 63.67,49.9 108.46,49.9 h 9960.13 c 88,0 177.3,-71.3 199.2,-158.9 l 198.9,-797.7 c 11.3,-45.4 3.1,-90.3 -22.6,-123.1 -25.1,-32.2 -63.6,-49.9 -108.4,-49.9"
         style="fill:#f1a34f;fill-opacity:1;fill-rule:nonzero;stroke:none"
         id="path1826" /><path
         d="m 8063.36,16599.4 c -1.57,11.2 -11.91,18.9 -23.14,17.4 l -223.34,-31.2 c -7.98,70.9 -48.03,137.4 -114.15,175.8 l -13.52,7.9 c -69.06,40.1 -150.72,40.3 -218.05,8 l -88.24,221.3 c -4.2,10.5 -16.15,15.6 -26.64,11.5 -10.51,-4.2 -15.63,-16.2 -11.44,-26.7 l 90.66,-227.4 c -14.3,-10.3 -27.64,-22.2 -39.47,-35.8 -9.38,-10.8 -17.81,-22.6 -25.2,-35.3 l -24.55,-42.3 c -115.87,67.3 -202.26,117.5 -205.3,119.3 -9.8,5.7 -22.33,2.3 -28.02,-7.5 -5.68,-9.8 -2.35,-22.3 7.44,-28 3.04,-1.7 89.43,-51.9 205.29,-119.2 l -13.93,-24 c -13.33,-23 -22.19,-47.3 -27,-72 l -280.7,-39.3 c -11.21,-1.6 -19.03,-11.9 -17.46,-23.1 1.44,-10.3 10.21,-17.7 20.28,-17.7 0.94,0 1.89,0.1 2.86,0.2 l 270.77,37.9 c -0.8,-81.3 40.77,-160.9 115.67,-204.4 l 13.52,-7.9 c 71.95,-41.7 157.56,-40.3 226.38,-3.9 l 96.27,-241.4 c 3.2,-8 10.9,-12.9 19.04,-12.9 2.53,0 5.1,0.5 7.59,1.4 10.51,4.2 15.63,16.2 11.44,26.7 l -99.3,249 c 22.37,17.6 41.86,39.6 56.97,65.6 l 13.93,24 c 117.92,-68.5 205.31,-119.3 205.31,-119.3 3.24,-1.9 6.78,-2.8 10.28,-2.8 7.06,0 13.94,3.7 17.74,10.2 5.69,9.8 2.36,22.4 -7.43,28 0,0 -87.39,50.8 -205.31,119.3 l 24.54,42.3 c 7.4,12.7 13.48,25.9 18.2,39.3 7.14,20.2 11.21,41.1 12.56,61.9 l 227.99,31.9 c 11.21,1.6 19.03,11.9 17.46,23.2"
         style="fill:#afcdfb;fill-opacity:1;fill-rule:nonzero;stroke:none"
         id="path1828" /><path
         d="m 7787.15,16443.1 -59.06,-101.7 c -64.35,-110.8 -207.6,-148.8 -318.39,-84.5 l -13.52,7.9 c -110.74,64.3 -148.77,207.6 -84.42,318.4 l 59.07,101.7 c 7.39,12.7 15.82,24.5 25.2,35.3 l 409.32,-237.8 c -4.72,-13.4 -10.8,-26.6 -18.2,-39.3"
         style="fill:#e57970;fill-opacity:1;fill-rule:nonzero;stroke:none"
         id="path1830" /><path
         d="m 3381.38,13923.6 -257.93,73.2 c -0.32,28.4 -5.82,57.3 -17.22,85.1 l -10.51,25.7 219.71,90 c 10.48,4.3 15.49,16.2 11.2,26.7 -4.29,10.5 -16.24,15.5 -26.73,11.2 l -219.72,-90 -18.52,45.2 c -5.58,13.6 -12.31,26.5 -20.08,38.4 -11.7,18 -25.73,34 -41.43,47.8 l 113.76,200.1 c 5.59,9.8 2.14,22.3 -7.69,27.9 -9.85,5.6 -22.36,2.2 -27.95,-7.7 l -111.44,-196 c -61.08,36.9 -138.23,45.7 -208.99,16.8 l -14.47,-6 c -73.91,-30.2 -123.85,-94.8 -139.3,-167.9 l -229.22,65 c -10.89,3.1 -22.22,-3.2 -25.31,-14.1 -3.09,-10.9 3.23,-22.2 14.13,-25.3 l 235.49,-66.8 c -0.53,-17.7 0.75,-35.5 4.38,-53.2 2.79,-14 7,-27.8 12.58,-41.5 l 18.53,-45.2 -219.7,-90 c -10.48,-4.3 -15.49,-16.3 -11.2,-26.7 3.25,-8 10.9,-12.8 18.97,-12.8 2.59,0 5.22,0.5 7.76,1.6 l 219.71,90 10.51,-25.7 c 10.05,-24.6 23.94,-46.4 40.61,-65.3 l -140.06,-246.4 c -5.59,-9.9 -2.14,-22.4 7.7,-28 3.19,-1.8 6.67,-2.6 10.1,-2.6 7.14,0 14.07,3.7 17.84,10.3 l 135.11,237.7 c 63.91,-50.2 152.37,-65.8 232.52,-32.9 l 14.46,5.9 c 77,31.5 128.1,100.2 141.19,177 l 250.03,-70.9 c 1.87,-0.6 3.75,-0.8 5.6,-0.8 8.94,0 17.15,5.9 19.71,14.9 3.09,10.9 -3.23,22.2 -14.13,25.3"
         style="fill:#afcdfb;fill-opacity:1;fill-rule:nonzero;stroke:none"
         id="path1832" /><path
         d="m 3061.66,14190.7 44.57,-108.8 c 48.56,-118.6 -8.68,-255.3 -127.25,-303.8 l -14.46,-5.9 c -118.51,-48.6 -255.26,8.6 -303.82,127.2 l -44.58,108.8 c -5.58,13.7 -9.8,27.5 -12.58,41.5 l 438.04,179.4 c 7.77,-11.9 14.49,-24.8 20.08,-38.4"
         style="fill:#e57970;fill-opacity:1;fill-rule:nonzero;stroke:none"
         id="path1834" /><path
         d="m 5968.84,6561.2 c -1.63,-1.1 -3.47,-2.6 -5.73,-4.3 -85.92,-65.8 -669.97,-464.1 -1982.07,-287.7 -8.96,-50.4 -17.31,-100.5 -25.15,-149.8 -3.93,-24.7 -7.84,-49.3 -11.45,-73.7 -3.69,-24.1 -7.23,-48.1 -10.62,-72 l -0.23,-1.3 c -3.41,-24 -6.78,-47.8 -9.9,-71.6 -3.25,-23.8 -6.34,-47.5 -9.31,-71.3 -3.05,-23.4 -5.8,-46.6 -8.55,-69.9 l -0.2,-1.1 c -2.61,-23.2 -5.31,-46.2 -7.74,-69.1 -2.58,-23 -4.89,-45.9 -7.19,-68.8 -2.28,-22.8 -4.54,-45.5 -6.52,-68.1 -2.09,-22.5 -4.05,-44.9 -5.86,-67.3 -1.37,-16.3 -2.72,-32.5 -3.94,-48.7 -1.11,-13.4 -2.09,-26.8 -2.92,-40.1 -0.86,-11.3 -1.6,-22.6 -2.33,-34 -0.42,-5.9 -0.83,-11.8 -1.13,-17.8 -1.19,-18.9 -2.37,-37.8 -3.42,-56.6 -1.14,-20.1 -2.16,-40.3 -3.16,-60.3 -0.18,-3.9 -0.34,-7.7 -0.51,-11.6 -0.62,-15 -1.34,-29.9 -1.92,-44.6 -0.42,-11.8 -0.95,-23.4 -1.23,-35.1 -1.3,-37.6 -2.22,-74.6 -2.85,-111.4 -0.3,-16.9 -0.58,-33.7 -0.72,-50.4 -0.17,-19.8 -0.3,-39.3 -0.28,-58.7 -0.02,-1.6 -0.01,-3 -0.03,-4.6 0.08,-19.1 0.07,-38 0.33,-56.8 0.05,-15.7 0.25,-31.2 0.59,-46.7 0.08,-13.3 0.44,-26.5 0.82,-39.6 0.09,-4.6 0.15,-9.3 0.24,-13.9 0.39,-13.8 0.8,-27.4 1.22,-41 0.48,-14.7 1.01,-29.2 1.54,-43.6 0.7,-15.7 1.43,-31.2 2.18,-46.6 0.77,-18.1 1.72,-36 2.8,-53.9 0.1,-1.6 0.18,-3.3 0.29,-4.9 1,-17.7 2.16,-35.1 3.33,-52.5 1.26,-18.4 2.54,-36.6 3.99,-54.6 1.43,-18.1 2.89,-36.1 4.51,-53.9 1.48,-17.9 3.1,-35.7 4.9,-53.2 1.66,-16.9 3.36,-33.5 5.2,-50.1 0.16,-2 0.45,-4 0.61,-6 1.78,-16.2 3.59,-32.2 5.54,-48.2 2.03,-16.9 4.09,-33.7 6.28,-50.6 l 0.15,-1.3 c 2.23,-16.6 4.34,-33.1 6.72,-49.6 2.25,-16.4 4.64,-32.9 7.17,-49.3 l 0.15,-1.3 c 2.47,-16 4.97,-31.8 7.46,-47.6 l 0.11,-0.8 c 2.58,-16.2 5.33,-32 8.08,-47.9 2.72,-16 5.6,-32 8.49,-47.7 3.55,-19.4 7.14,-38.6 10.88,-57.7 2.42,-11.9 4.71,-23.8 7.15,-35.6 3.06,-14.9 6.16,-29.5 9.29,-44 0.44,-1.9 0.88,-3.8 1.31,-5.7 2.89,-13.7 6.02,-27.5 9.07,-40.9 3.31,-15 6.79,-29.7 10.4,-44.4 7.2,-30.3 14.62,-60 22.39,-89.3 3.45,-13.5 7.08,-26.6 10.7,-39.8 3.77,-13.9 7.58,-27.5 11.52,-41.1 2.76,-10 5.67,-19.9 8.58,-29.8 2.78,-9.9 5.74,-19.6 8.8,-29.4 2.26,-7.7 4.67,-15.3 7.06,-23 4.11,-13.4 8.24,-26.7 12.4,-39.8 8.56,-26.3 17.32,-52.3 26.15,-77.9 4.35,-12.8 8.84,-25.5 13.36,-38 4.53,-12.6 9.05,-25.1 13.61,-37.4 12.56,-33.8 25.38,-66.9 38.6,-99.3 3.86,-9.7 7.87,-19.3 11.88,-28.9 5.73,-13.8 11.48,-27.5 17.38,-41.1 4.61,-10.6 9.22,-21.2 13.98,-31.7 25.34,-57 51.49,-111.7 78.23,-163.8 5.31,-10.4 10.54,-20.4 15.89,-30.5 12.65,-24 25.39,-47.4 38.32,-70.4 4.41,-8.1 9.09,-16.2 13.65,-24.2 4.28,-7.4 8.55,-14.8 12.84,-22.1 4.98,-8.6 9.98,-17.1 14.86,-25.4 11.56,-19.1 23.04,-37.9 34.72,-56.3 3.93,-6.4 8.01,-12.8 11.98,-19 12.61,-19.7 25.32,-39 38.1,-57.8 4.51,-6.9 9.04,-13.5 13.6,-20.1 29.97,-43.6 59.89,-84.6 89.84,-123.2 5.49,-7.2 11.12,-14.3 16.65,-21.3 28.9,-36.5 57.52,-70.9 85.77,-103.1 8.98,-10.2 17.99,-20.3 26.91,-30.2 0.77,-0.7 1.54,-1.5 2.29,-2.4 5.35,-5.8 10.68,-11.8 16.05,-17.4 31.98,-34.6 63.31,-66.3 93.55,-95.4 5,-4.8 10.01,-9.6 15.03,-14.3 9.9,-9.5 19.74,-18.5 29.51,-27.3 9.3,-8.5 18.39,-16.7 27.28,-24.5 l 1.35,-1.2 c 8.92,-7.7 17.6,-15.3 26.07,-22.5 14.72,-12.5 29.02,-24.3 42.8,-35.4 3.89,-3 7.65,-6.1 11.54,-9.1 25.1,-19.9 48.55,-37.5 70.04,-52.8 6.49,-4.6 12.84,-9.1 18.87,-13.3 17.98,-12.4 34.3,-23.2 48.6,-32.1 4.31,-2.9 8.42,-5.4 12.41,-7.9 8.82,-5.3 16.56,-10.1 23.41,-14.1 1.53,-0.9 3.08,-1.7 4.51,-2.5 1.53,-0.9 2.93,-1.8 4.36,-2.6 15.83,-9.1 24.47,-13.3 24.47,-13.3 83.82,27.3 165.02,57.4 243.59,90.4 496.24,207.7 888.75,523.1 1199.37,888.5 0.83,1 1.65,1.9 2.36,3 668.58,788.1 956.07,1808 1078.85,2483.3 13.47,74.8 25.13,145.3 34.98,210.8 -1318.92,300.1 -1713.6,897.5 -1754.9,965.8"
         style="fill:#588fe0;fill-opacity:1;fill-rule:nonzero;stroke:none"
         id="path1836" /><path
         d="m 7499.81,5283.8 c -111.93,-615.6 -374.03,-1545.5 -983.55,-2264 -0.65,-0.9 -1.39,-1.7 -2.15,-2.7 -283.19,-333.2 -641.02,-620.7 -1093.42,-810 -71.64,-30.1 -145.66,-57.5 -222.08,-82.4 0,0 -7.88,3.8 -22.31,12.1 -1.3,0.7 -2.58,1.5 -3.98,2.4 -1.29,0.7 -2.71,1.4 -4.1,2.3 -6.25,3.6 -13.31,8 -21.34,12.9 -3.65,2.2 -7.39,4.5 -11.32,7.1 -13.03,8.2 -27.91,18 -44.31,29.3 -5.49,3.8 -11.29,7.9 -17.2,12.1 -19.59,14 -40.97,30 -63.86,48.1 -3.54,2.8 -6.97,5.6 -10.51,8.3 -12.57,10.1 -25.61,20.9 -39.03,32.3 -7.72,6.6 -15.63,13.5 -23.76,20.5 l -1.23,1.1 c -8.11,7.2 -16.4,14.6 -24.88,22.3 -8.9,8 -17.87,16.3 -26.9,24.9 -4.58,4.3 -9.14,8.7 -13.7,13.1 -27.57,26.5 -56.13,55.4 -85.29,86.9 -4.89,5.2 -9.75,10.6 -14.63,15.9 l -2.08,2.2 c -8.14,9 -16.35,18.2 -24.54,27.5 -25.74,29.4 -51.85,60.7 -78.2,94 -5.03,6.4 -10.16,12.9 -15.18,19.4 -27.3,35.2 -54.58,72.6 -81.9,112.4 -4.15,6 -8.28,12 -12.4,18.3 -11.64,17.1 -23.23,34.7 -34.73,52.7 -3.62,5.6 -7.33,11.4 -10.91,17.3 -10.66,16.8 -21.13,33.9 -31.66,51.4 -4.46,7.5 -9.01,15.3 -13.55,23.1 -3.91,6.6 -7.81,13.4 -11.7,20.2 -4.16,7.3 -8.43,14.6 -12.45,22 -11.79,21 -23.4,42.3 -34.93,64.1 -4.89,9.3 -9.65,18.4 -14.49,27.9 -24.38,47.5 -48.22,97.4 -71.32,149.3 -4.34,9.6 -8.54,19.3 -12.74,28.9 -5.39,12.4 -10.63,24.9 -15.85,37.5 -3.66,8.7 -7.31,17.5 -10.84,26.3 -12.04,29.5 -23.73,59.7 -35.18,90.5 -4.16,11.2 -8.29,22.7 -12.41,34.1 -4.12,11.5 -8.22,23 -12.18,34.7 -8.05,23.3 -16.03,47 -23.84,71 -3.79,12 -7.56,24.1 -11.3,36.3 -2.18,7 -4.38,14 -6.44,21 -2.79,8.9 -5.48,17.7 -8.02,26.8 -2.66,9 -5.31,18 -7.83,27.2 -3.59,12.4 -7.06,24.8 -10.49,37.4 -3.31,12 -6.62,24 -9.77,36.3 -7.08,26.7 -13.84,53.8 -20.41,81.4 -3.29,13.4 -6.46,26.8 -9.47,40.5 -2.79,12.2 -5.65,24.8 -8.27,37.2 -0.4,1.8 -0.8,3.5 -1.21,5.2 -2.84,13.3 -5.67,26.6 -8.46,40.2 -2.22,10.8 -4.31,21.6 -6.52,32.5 -3.41,17.3 -6.68,34.8 -9.91,52.5 -2.64,14.4 -5.27,28.9 -7.75,43.5 -2.5,14.5 -5.01,29 -7.36,43.7 l -0.1,0.7 c -2.28,14.4 -4.55,28.9 -6.8,43.4 l -0.15,1.2 c -2.3,15 -4.47,30 -6.53,45 -2.17,15 -4.09,30.1 -6.12,45.2 l -0.14,1.2 c -1.99,15.3 -3.87,30.7 -5.73,46.1 -1.77,14.6 -3.43,29.1 -5.05,44 -0.14,1.8 -0.41,3.6 -0.56,5.4 -1.67,15.2 -3.22,30.3 -4.73,45.7 -1.64,16 -3.12,32.2 -4.47,48.5 -1.48,16.2 -2.8,32.6 -4.11,49.1 -1.33,16.4 -2.49,33 -3.64,49.8 -1.06,15.8 -2.13,31.7 -3.03,47.8 -0.1,1.5 -0.18,3 -0.27,4.5 -0.98,16.3 -1.85,32.6 -2.55,49.2 -0.69,14 -1.35,28.2 -1.99,42.4 -0.49,13.2 -0.97,26.4 -1.41,39.8 -0.37,12.4 -0.75,24.8 -1.11,37.4 -0.07,4.2 -0.14,8.4 -0.22,12.6 -0.34,12 -0.67,24 -0.74,36.2 -0.32,14.1 -0.5,28.2 -0.54,42.5 -0.24,17.2 -0.23,34.4 -0.31,51.8 0.02,1.4 0.02,2.7 0.04,4.2 -0.02,17.7 0.1,35.5 0.25,53.5 0.13,15.2 0.38,30.5 0.66,45.9 0.57,33.6 1.42,67.3 2.59,101.6 0.26,10.6 0.74,21.3 1.13,32 0.52,13.5 1.18,27 1.74,40.7 0.16,3.5 0.31,7 0.47,10.5 0.91,18.3 1.84,36.7 2.89,55 0.95,17.2 2.02,34.4 3.12,51.7 0.26,5.4 0.64,10.8 1.02,16.2 0.67,10.3 1.34,20.7 2.13,31 0.75,12.1 1.65,24.3 2.65,36.5 1.12,14.8 2.35,29.5 3.6,44.4 1.65,20.4 3.44,40.9 5.34,61.3 1.81,20.7 3.87,41.3 5.95,62.1 2.1,20.9 4.2,41.8 6.55,62.8 2.22,20.9 4.68,41.8 7.05,62.9 l 0.19,1.1 c 2.5,21.2 5.01,42.4 7.79,63.7 2.71,21.7 5.53,43.3 8.49,65 2.84,21.7 5.91,43.4 9.03,65.3 l 0.2,1.1 c 3.1,21.8 6.33,43.7 9.69,65.7 3.29,22.2 6.86,44.7 10.44,67.2 7.15,45 14.76,90.6 22.92,136.5 1196.21,-160.8 1728.66,202.4 1807,262.4 2.06,1.5 3.73,2.8 5.22,3.9 37.65,-62.3 397.47,-606.9 1599.88,-880.5 -8.98,-59.7 -19.61,-124.1 -31.89,-192.2"
         style="fill:#afcdfb;fill-opacity:1;fill-rule:nonzero;stroke:none"
         id="path1838" /><path
         d="m 5937,6360.8 -760.7,-4224 c -7.87,4.5 -17.76,10.3 -29.42,17.6 -3.65,2.2 -7.39,4.5 -11.32,7.1 -13.03,8.2 -27.91,18 -44.31,29.3 -5.49,3.8 -11.29,7.9 -17.2,12.1 -19.59,14 -40.97,30 -63.86,48.1 -3.54,2.8 -6.97,5.6 -10.51,8.3 -12.57,10.1 -25.61,20.9 -39.03,32.3 -7.72,6.6 -15.63,13.5 -23.76,20.5 l -1.23,1.1 c -8.11,7.2 -16.4,14.6 -24.88,22.3 -8.9,8 -17.87,16.3 -26.9,24.9 -4.58,4.3 -9.14,8.7 -13.7,13.1 -27.57,26.5 -56.13,55.4 -85.29,86.9 -4.89,5.2 -9.75,10.6 -14.63,15.9 l -2.08,2.2 c -8.14,9 -16.35,18.2 -24.54,27.5 -25.74,29.4 -51.85,60.7 -78.2,94 -5.03,6.4 -10.16,12.9 -15.18,19.4 -27.3,35.2 -54.58,72.6 -81.9,112.4 -4.15,6 -8.28,12 -12.4,18.3 -11.64,17.1 -23.23,34.7 -34.73,52.7 -3.62,5.6 -7.33,11.4 -10.91,17.3 -10.66,16.8 -21.13,33.9 -31.66,51.4 -4.46,7.5 -9.01,15.3 -13.55,23.1 -3.91,6.6 -7.81,13.4 -11.7,20.2 -4.16,7.3 -8.43,14.6 -12.45,22 -11.79,21 -23.4,42.3 -34.93,64.1 -4.89,9.3 -9.65,18.4 -14.49,27.9 -24.38,47.5 -48.22,97.4 -71.32,149.3 -4.34,9.6 -8.54,19.3 -12.74,28.9 -5.39,12.4 -10.63,24.9 -15.85,37.5 -3.66,8.7 -7.31,17.5 -10.84,26.3 -12.04,29.5 -23.73,59.7 -35.18,90.5 -4.16,11.2 -8.29,22.7 -12.41,34.1 -4.12,11.5 -8.22,23 -12.18,34.7 -8.05,23.3 -16.03,47 -23.84,71 -3.79,12 -7.56,24.1 -11.3,36.3 -2.18,7 -4.38,14 -6.44,21 -2.79,8.9 -5.48,17.7 -8.02,26.8 -2.66,9 -5.31,18 -7.83,27.2 -3.59,12.4 -7.06,24.8 -10.49,37.4 -3.31,12 -6.62,24 -9.77,36.3 -7.08,26.7 -13.84,53.8 -20.41,81.4 -3.29,13.4 -6.46,26.8 -9.47,40.5 -2.79,12.2 -5.65,24.8 -8.27,37.2 -0.4,1.8 -0.8,3.5 -1.21,5.2 -2.84,13.3 -5.67,26.6 -8.46,40.2 -2.22,10.8 -4.31,21.6 -6.52,32.5 -3.41,17.3 -6.68,34.8 -9.91,52.5 -2.64,14.4 -5.27,28.9 -7.75,43.5 -2.5,14.5 -5.01,29 -7.36,43.7 l -0.1,0.7 c -2.28,14.4 -4.55,28.9 -6.8,43.4 l -0.15,1.2 c -2.3,15 -4.47,30 -6.53,45 -2.17,15 -4.09,30.1 -6.12,45.2 l -0.14,1.2 c -1.99,15.3 -3.87,30.7 -5.73,46.1 -1.77,14.6 -3.43,29.1 -5.05,44 -0.14,1.8 -0.41,3.6 -0.56,5.4 -1.67,15.2 -3.22,30.3 -4.73,45.7 -1.64,16 -3.12,32.2 -4.47,48.5 -1.48,16.2 -2.8,32.6 -4.11,49.1 -1.33,16.4 -2.49,33 -3.64,49.8 -1.06,15.8 -2.13,31.7 -3.03,47.8 -0.1,1.5 -0.18,3 -0.27,4.5 -0.98,16.3 -1.85,32.6 -2.55,49.2 -0.69,14 -1.35,28.2 -1.99,42.4 -0.49,13.2 -0.97,26.4 -1.41,39.8 -0.37,12.4 -0.75,24.8 -1.11,37.4 -0.07,4.2 -0.14,8.4 -0.22,12.6 -0.34,12 -0.67,24 -0.74,36.2 -0.32,14.1 -0.5,28.2 -0.54,42.5 -0.24,17.2 -0.23,34.4 -0.31,51.8 0.02,1.4 0.02,2.7 0.04,4.2 -0.02,17.7 0.1,35.5 0.25,53.5 0.13,15.2 0.38,30.5 0.66,45.9 0.57,33.6 1.42,67.3 2.59,101.6 0.26,10.6 0.74,21.3 1.13,32 0.52,13.5 1.18,27 1.74,40.7 0.16,3.5 0.31,7 0.47,10.5 0.91,18.3 1.84,36.7 2.89,55 0.95,17.2 2.02,34.4 3.12,51.7 0.26,5.4 0.64,10.8 1.02,16.2 0.67,10.3 1.34,20.7 2.13,31 0.75,12.1 1.65,24.3 2.65,36.5 1.12,14.8 2.35,29.5 3.6,44.4 1.65,20.4 3.44,40.9 5.34,61.3 1.81,20.7 3.87,41.3 5.95,62.1 2.1,20.9 4.2,41.8 6.55,62.8 2.22,20.9 4.68,41.8 7.05,62.9 l 0.19,1.1 c 2.5,21.2 5.01,42.4 7.79,63.7 2.71,21.7 5.53,43.3 8.49,65 2.84,21.7 5.91,43.4 9.03,65.3 l 0.2,1.1 c 3.1,21.8 6.33,43.7 9.69,65.7 3.29,22.2 6.86,44.7 10.44,67.2 7.15,45 14.76,90.6 22.92,136.5 1301.72,-175.1 1817.4,270.6 1817.4,270.6"
         style="fill:#699dee;fill-opacity:1;fill-rule:nonzero;stroke:none"
         id="path1840" /></g></g></svg>
