<?xml version="1.0" encoding="UTF-8" standalone="no"?>
<svg
   xmlns:dc="http://purl.org/dc/elements/1.1/"
   xmlns:cc="http://creativecommons.org/ns#"
   xmlns:rdf="http://www.w3.org/1999/02/22-rdf-syntax-ns#"
   xmlns:svg="http://www.w3.org/2000/svg"
   xmlns="http://www.w3.org/2000/svg"
   xmlns:sodipodi="http://sodipodi.sourceforge.net/DTD/sodipodi-0.dtd"
   xmlns:inkscape="http://www.inkscape.org/namespaces/inkscape"
   version="1.1"
   id="svg1628"
   xml:space="preserve"
   width="4000"
   height="2666.6667"
   viewBox="0 0 4000 2666.6667"
   sodipodi:docname="5.svg"
   inkscape:version="1.0.1 (3bc2e813f5, 2020-09-07)"><metadata
     id="metadata1634"><rdf:RDF><cc:Work
         rdf:about=""><dc:format>image/svg+xml</dc:format><dc:type
           rdf:resource="http://purl.org/dc/dcmitype/StillImage" /></cc:Work></rdf:RDF></metadata><defs
     id="defs1632" /><sodipodi:namedview
     pagecolor="#ffffff"
     bordercolor="#666666"
     borderopacity="1"
     objecttolerance="10"
     gridtolerance="10"
     guidetolerance="10"
     inkscape:pageopacity="0"
     inkscape:pageshadow="2"
     inkscape:window-width="1920"
     inkscape:window-height="1017"
     id="namedview1630"
     showgrid="false"
     inkscape:zoom="0.77357482"
     inkscape:cx="2021.3878"
     inkscape:cy="1929.7085"
     inkscape:window-x="-8"
     inkscape:window-y="-8"
     inkscape:window-maximized="1"
     inkscape:current-layer="g1638" /><g
     id="g1636"
     inkscape:groupmode="layer"
     inkscape:label="ink_ext_XXXXXX"
     transform="matrix(1.3333333,0,0,-1.3333333,0,2666.6667)"><g
       id="g1638"
       transform="scale(0.1)"><path
         d="M 30000,0 H 0 V 20000 H 30000 V 0"
         style="fill:#ffffff;fill-opacity:0;fill-rule:nonzero;stroke:none"
         id="path1640" /><path
         d="m 15280.144,2979.0566 -821.275,2045.7251 c -9.238,23.0136 11.226,53.1007 45.468,66.8481 l 41.019,16.467 c 34.336,13.7848 69.923,6.2002 79.162,-16.8135 l 821.276,-2045.7251 c 9.24,-23.0147 -11.199,-53.1639 -45.535,-66.9486 l -41.019,-16.467 c -34.242,-13.7475 -69.855,-6.1008 -79.096,16.914"
         style="fill:#d1a586;fill-opacity:1;fill-rule:nonzero;stroke:none;stroke-width:0.819803"
         id="path1718-0"
         inkscape:transform-center-x="-5.4844607"
         inkscape:transform-center-y="2.7422304" /><path
         d="m 6458.78,2697.2 17399.52,12.7 c 0,0 2542.6,3633.5 1253.4,6486.3 -716.4,1585.2 -2954.1,2550.6 -5903.5,1835.8 -2173.4,-526.7 -3808.6,1297.9 -5693.5,1577.8 -44,6.5 -88.2,12.2 -132.4,17 -928.9,100.7 -1922,-190.8 -3071.8,-1331.8 C 9477.62,10468.4 9164.76,7841.7 7418.9,7984.4 4109.46,8254.8 3432.48,3639.4 6458.78,2697.2"
         style="fill:#fcecdb;fill-opacity:1;fill-rule:nonzero;stroke:none"
         id="path1694" /><path
         d="m 15262.315,3067.4982 h 1506.38 c 0,0 -35.044,309.1 -907.484,263.1 -617.359,-32.6 -598.896,-263.1 -598.896,-263.1"
         style="fill:#e5bd9e;fill-opacity:1;fill-rule:nonzero;stroke:none;stroke-width:0.677697"
         id="path1708-6" /><ellipse
         style="opacity:0.993;fill:#ffffff;fill-opacity:0;fill-rule:evenodd;stroke:#a0795f;stroke-width:252.285;stroke-linecap:round;stroke-linejoin:round;stroke-miterlimit:4;stroke-dasharray:none;stroke-dashoffset:0;stroke-opacity:1;paint-order:stroke fill markers"
         id="path2393-1-9"
         cx="13742.44"
         cy="-4592.5322"
         rx="1724.4832"
         ry="1724.4834"
         transform="scale(1,-1)" /><path
         d="m 12441.226,5916.4274 c -24.2,595.4 -76.4,1113.3 -138.9,1474.5 -99.5,575.7 -189.2,906.9 -190.2,910.4 -13.1,50.7 -202.6,255.5 -623.8,249.2 -421.3,-6.3 -381.4,-275 -381.4,-275 v 0 c 0,-9.1 1.2,-17.5 3.1,-23.9 4,-13.8 390.7,-1415.9 374,-3226.2 -0.3,-25.4 -3.1,-69.3 -1.3,-98.6 0,-0.1 976.2,-25.2 976.4,0 34.1,158.2 17.5,596.6 -17.9,989.6"
         style="fill:#d1a586;fill-opacity:1;fill-rule:nonzero;stroke:none"
         id="path1700" /><path
         d="m 12563.926,5034.3274 c -0.3,-25.2 -13.6,-45.4 -29.8,-45.4 h -0.4 c -16.3,0.4 -29.2,20.6 -29.4,45.4 h -836.6 c -0.3,-25.2 -13.6,-45.4 -29.8,-45.4 h -0.4 c -16.5,0.4 -29.7,21.3 -29.5,46.8 4.9,518.2 -24.7,1002.1 -69.4,1429.2 -111.2,1065 -316.8,1776.9 -319.7,1786.7 -1.8,6.4 -3,14.8 -3,23.9 0,0 -40,268.7 381.3,275 421.3,6.4 610.7,-198.6 623.9,-249.2 0.7,-2.6 51.5,-190.2 118.9,-527.4 22.4,-111.7 46.5,-239.8 71.3,-383 62.4,-361.2 114.6,-879.1 138.8,-1474.4 35.4,-393.1 47.8,-724 13.8,-882.2"
         style="fill:#e5bd9e;fill-opacity:1;fill-rule:nonzero;stroke:none"
         id="path1702" /><path
         d="m 12563.926,5034.3274 c -0.3,-25.2 -13.6,-45.4 -29.8,-45.4 h -0.4 c -16.3,0.4 -29.2,20.6 -29.4,45.4 h -836.6 c -0.3,-25.2 -13.6,-45.4 -29.8,-45.4 h -0.4 c -16.5,0.4 -29.7,21.3 -29.5,46.8 4.9,518.2 -24.7,1002.1 -69.4,1429.2 138.4,675.9 672.9,1192.8 801.4,1309 22.4,-111.7 46.5,-239.8 71.3,-383 62.4,-361.2 114.6,-879.1 138.8,-1474.4 35.4,-393.1 47.8,-724 13.8,-882.2"
         style="fill:#dfb697;fill-opacity:1;fill-rule:nonzero;stroke:none"
         id="path1704" /><path
         d="m 11907.626,5101.4274 c -93.4,0 -159.4,-4.3 -182.6,-28.1 -0.1,-0.1 -0.2,-0.1 -0.2,-0.2 -0.4,23.9 -1.7,68.5 -4,152.5 -2.7,99 -7.5,253.5 -14.3,427.8 -12.1,304.9 -32.9,724.4 -64,991.1 -36.2,309.8 -252.4,1569.8 -253.6,1573.8 -1.3,4.5 -2,10.5 -2,16.3 -0.1,1.4 -8.5,62.8 37.3,116.6 45.4,53.4 126.7,81.4 241.4,83.1 4.8,0.1 9.5,0.1 14.2,0.1 298,0 434.7,-142.6 444.9,-181.8 2.3,-8.9 242,-981.4 283.7,-1533.2 3.9,-51.2 12.4,-138.1 23.3,-248.1 23.6,-239.7 56,-567.9 71.5,-844.3 22.6,-404.7 -3.3,-495 -29,-499.5 -173,-30.3 -346.7,-28.3 -486.3,-26.8 -28.5,0.4 -55.4,0.7 -80.3,0.7 z m -186.8,-58.4 2.3,1.6 c 0.7,0.5 1.2,0.9 1.5,4.2 l 0.5,0.1 c -0.2,7.2 2,12.9 6.7,17.7 26.6,27.1 127.8,26 256,24.5 140,-1.6 314.2,-3.5 488,26.9 89.8,15.8 29.3,707.3 -34.6,1354.2 -10.8,110 -19.4,196.9 -23.2,248 l -4.8,-0.4 4.8,0.4 c -41.6,550.2 -281.8,1527.3 -284.1,1535 -10.6,41.2 -155,193.4 -468.4,188.7 -117.8,-1.8 -201.5,-30.9 -248.8,-86.6 -48.5,-57.2 -39.8,-120.7 -39.4,-123.4 0,-6.1 0.8,-12.9 2.4,-18.3 1.3,-5.4 217.9,-1269.2 253.2,-1572.2 58.2,-498.5 81.6,-1534.7 82.6,-1592.3 0,-0.7 0,-1.4 0,-2.1 l 0.1,-2.9 5.2,-3.1"
         style="fill:#d1a586;fill-opacity:1;fill-rule:nonzero;stroke:none"
         id="path1706" /><path
         d="m 11546.226,4988.9274 h 3279.9 c 0,0 -76.3,309.1 -1975.9,263.1 -1344.2,-32.6 -1304,-263.1 -1304,-263.1"
         style="fill:#e5bd9e;fill-opacity:1;fill-rule:nonzero;stroke:none"
         id="path1708" /><path
         d="m 14828.126,4890.3274 h -3280 c -36.9,0 -67.1,30.2 -67.1,67.1 v 44.2 c 0,37 30.2,67.2 67.1,67.2 h 3280 c 36.9,0 67.2,-30.2 67.2,-67.2 v -44.2 c 0,-36.9 -30.3,-67.1 -67.2,-67.1"
         style="fill:#d1a586;fill-opacity:1;fill-rule:nonzero;stroke:none"
         id="path1718" /><path
         d="m 16769.613,2968.8982 h -1506.426 c -16.947,0 -30.817,30.2 -30.817,67.1 v 44.2 c 0,37 13.87,67.2 30.817,67.2 h 1506.426 c 16.947,0 30.864,-30.2 30.864,-67.2 v -44.2 c 0,-36.9 -13.917,-67.1 -30.864,-67.1"
         style="fill:#d1a586;fill-opacity:1;fill-rule:nonzero;stroke:none;stroke-width:0.677697"
         id="path1718-6" /><g
         id="g2434"
         transform="rotate(36.025241,15770.513,6350.5106)"><path
           d="m 13666.527,4158.0788 c -27.3,-31.3 -30.7,-66.2 -17.2,-103.6 0,-0.1 0.1,-0.4 0.2,-0.5 25,-69.1 107.6,-146.2 203.5,-223.2 12.3,-9.9 23.2,-18.9 32.7,-27.2 2.4,-2.2 4.9,-4.4 7.3,-6.6 1.9,-1.7 3.8,-3.5 5.6,-5.1 89.5,-82.4 55.8,-101.3 216.5,-268.6 183.2,-190.6 309.3,-194.1 345.2,-176.7 30.4,14.8 -31.3,115.9 -99.6,229.5 -3.4,5.5 -6.6,11.1 -10,16.6 -9.1,15.1 -18.2,30.4 -27.2,45.6 -80.1,136.8 -59.5,201 -40.5,404.5 15.4,165.4 257.3,924 257.3,924 l -351.1,60.5 c 0,0 -105.8,-604.1 -222.2,-697.1 -62.3,-49.6 -132.1,-50.3 -191.9,-87 -4.3,-2.6 -8.4,-5.2 -12.5,-7.9 -34,-22.5 -68.7,-45.8 -96.1,-77.2"
           style="fill:#ffb27d;fill-opacity:1;fill-rule:nonzero;stroke:none;stroke-width:0.999997"
           id="path1722" /><path
           d="m 13666.527,4158.0788 c -27.3,-31.3 -30.7,-66.2 -17.2,-103.6 0,-0.1 0.1,-0.4 0.2,-0.5 30.6,-69 111.1,-145.7 203.8,-222.5 12.1,-10.1 22.8,-19.3 32.4,-27.9 2.4,-2.2 4.9,-4.4 7.3,-6.6 1.9,-1.7 3.8,-3.5 5.6,-5.1 89.5,-82.4 55.8,-101.3 216.5,-268.6 183.2,-190.6 309.3,-194.1 345.2,-176.7 30.4,14.8 -31.3,115.9 -99.6,229.5 -35.7,13.1 -201.4,80.4 -326.6,240.7 -110.4,140.7 -183.9,321.6 -259,426.4 -4.3,-2.6 -8.4,-5.2 -12.5,-7.9 -34,-22.5 -68.7,-45.8 -96.1,-77.2"
           style="fill:#1c468a;fill-opacity:1;fill-rule:nonzero;stroke:none;stroke-width:0.999997"
           id="path1724" /><path
           d="m 15206.627,6531.3788 -726,-1953.8 c 0,0 -111.5,-10.8 -218.5,20 -98.4,28.3 -211.1,102.8 -211.1,102.8 0,0 180.1,1876.1 510.3,2266.3 330.1,390.2 645.3,-435.3 645.3,-435.3"
           style="fill:#163560;fill-opacity:1;fill-rule:nonzero;stroke:none;stroke-width:0.999997"
           id="path1732" /></g><path
         d="m 14604.9,7858.9 1090.2,236.2 64.2,-156.5 c 0,0 -1203,-715.8 -1315.7,-680.8 -112.7,35.1 161.3,601.1 161.3,601.1"
         style="fill:#ffb27d;fill-opacity:1;fill-rule:nonzero;stroke:none"
         id="path1720" /><path
         d="m 16444.7,3147.3 c 21.7,-108.4 176.1,-90.3 348.7,-48.1 172.6,42.2 131.6,-8 377.3,19.2 245.6,27.2 320,118.8 327.5,155.3 6.7,32.4 -114.7,43.9 -244.9,58.8 -16.3,1.9 -32.8,3.9 -49.2,5.9 -147,18.5 -254.6,113.3 -388.2,191.2 -126.4,73.8 -315.1,374.4 -315.1,374.4 l -336.9,-26.7 c 0,0 176.8,-268.5 245.1,-385.2 40.2,-68.7 38.1,-159.5 33.1,-229.6 -2.6,-38.1 -5.1,-77 2.6,-115.2"
         style="fill:#ffb27d;fill-opacity:1;fill-rule:nonzero;stroke:none"
         id="path1726" /><path
         d="m 16793.4,3099.2 c 172.6,42.2 131.6,-8 377.3,19.2 245.6,27.2 320,118.8 327.5,155.3 6.7,32.4 -114.7,43.9 -244.9,58.8 l -1.2,-2.5 c 0,0 -147.3,-104.4 -351.7,-109.3 -166.7,-4 -343.2,43.7 -458.3,41.8 -2.6,-38.1 -5.1,-77 2.6,-115.2 21.7,-108.4 176.1,-90.3 348.7,-48.1"
         style="fill:#1c468a;fill-opacity:1;fill-rule:nonzero;stroke:none"
         id="path1728" /><path
         d="m 12282.1,6091.8 c 0,0 2086.2,705.4 2551.4,555.3 465.3,-150.1 1862.2,-2929.4 1862.2,-2929.4 0,0 -31.5,-41.9 -117.5,-74.2 -80.1,-30 -273.8,-28.1 -273.8,-28.1 0,0 -1260.7,1080.6 -1410.8,1395.8 -150.1,315.1 -210.1,615.3 -360.2,585.3 -150.1,-30 -1936.1,-735.4 -2341.3,-315.2 -405.2,420.3 -299.3,966.2 -299.3,966.2 l 389.3,-155.7"
         style="fill:#1c468a;fill-opacity:1;fill-rule:nonzero;stroke:none"
         id="path1734" /><path
         d="m 13557,9373.3 c 33.3,68.8 70.6,191 88.8,408.8 -2.8,-21.7 -40.4,-296.3 -146,-451.8 -433.8,-284.9 -1265.4,-1236 -1249,-1416.2 0,0 -292.9,496.8 -297.9,499.8 0,0 -540.3,687 100,1080.6 325.5,200 323.9,456.8 310.3,679.8 -13.7,223 88.7,1183 740.7,931.8 0,0 104.6,46.5 151.5,39.5 0,0 -38.3,-7.3 -57.7,-27.4 75.5,4.4 183.6,-1.1 273.8,-52.4 239,-135.8 452.9,-1354.4 85.5,-1692.5"
         style="fill:#163560;fill-opacity:1;fill-rule:nonzero;stroke:none"
         id="path1736" /><path
         d="m 13474.1,9316.1 c 2.2,-1 -209.4,-110.9 -368.6,-67.3 -149.8,40.8 -247.6,235 -245.6,235.4 63.4,12.6 81.7,99.7 80.4,474.2 l 28.7,-5.6 482,-95.5 c 0,0 -11,-151.7 -11.3,-294.6 -0.3,-120 7,-233.8 34.4,-246.6"
         style="fill:#ffb27d;fill-opacity:1;fill-rule:nonzero;stroke:none"
         id="path1738" /><path
         d="m 13451,9857.3 c 0,0 -11,-151.7 -11.3,-294.6 -269.7,7.6 -412.3,253.7 -470.7,390.1 l 482,-95.5"
         style="fill:#ed975d;fill-opacity:1;fill-rule:nonzero;stroke:none"
         id="path1740" /><path
         d="m 12919.2,10005.3 c 0,0 -141.4,223.3 -175.3,414.3 -24.2,136.4 45.2,641.8 553.1,569 0,0 147.5,-14.5 286.2,-108.2 110.3,-74.5 269.4,-235.2 91.5,-676.3 l -46.3,-149 -709.2,-49.8"
         style="fill:#163560;fill-opacity:1;fill-rule:nonzero;stroke:none"
         id="path1742" /><path
         d="m 13541.1,9722 c 0,0 -638.2,-10.5 -638.7,387 -0.4,397.6 -83.1,664 324.4,687.5 407.5,23.5 486.8,-128.1 519.2,-260.7 32.4,-132.7 -38.9,-800.8 -204.9,-813.8"
         style="fill:#ffb27d;fill-opacity:1;fill-rule:nonzero;stroke:none"
         id="path1744" /><path
         d="m 13517.5,10806.3 c 0,0 -174.8,-466.5 -442.9,-535.4 -268.2,-69 -384.6,2.9 -384.6,2.9 0,0 47.6,285.4 90.3,570.6 0,0 605.4,183.8 737.2,-38.1"
         style="fill:#163560;fill-opacity:1;fill-rule:nonzero;stroke:none"
         id="path1746" /><path
         d="m 13474.2,10768.4 c 0,0 130.5,-104.1 162.3,-205.4 31.8,-101.2 46.1,-309.6 106.8,-302.5 0,0 131.7,317 -16.3,496.3 -156.8,190.2 -252.8,11.6 -252.8,11.6"
         style="fill:#163560;fill-opacity:1;fill-rule:nonzero;stroke:none"
         id="path1748" /><path
         d="m 12052.9,7599.1 c -62.9,263.9 151.2,776.1 374.8,1200.2 202.8,384.3 413.3,696.1 432.2,684.9 534.9,-317.5 583.3,-53.5 583.3,-53.5 v -0.1 c 0.2,0 485.9,-64.5 623.5,-301.3 170.6,-293.8 355,-1114.9 538.2,-1270.4 -28.2,-86 -16.1,-131.9 13.7,-238.5 6.4,-22.9 13.4,-44.6 21.2,-65.2 27.6,-75 62.1,-135.9 91.9,-188.8 -93,-56.5 -272.8,-164.1 -405.3,-86.8 -201.9,118.2 -359.4,478 -448.1,621.2 -0.3,0.6 -0.6,1.1 -1,1.6 -192.7,-1090.9 69.4,-1339.3 -63.3,-1454.3 -140.1,-121.5 -340.2,57.8 -780.5,-133 -288.7,-125.3 -689.5,-306.4 -959.2,-337.9 -141.5,-16.6 -247.1,8 -281.5,103.6 -100.1,277.6 380.2,1015.1 260.1,1518.3"
         style="fill:#f99746;fill-opacity:1;fill-rule:nonzero;stroke:none"
         id="path1750" /><path
         d="m 13399.2,9963 c 0,0 11.9,-50.5 137.5,-42.7 0,0 105.5,6.5 102.3,62 0,0 -102.3,39.5 -239.8,-19.3"
         style="fill:#ffffff;fill-opacity:1;fill-rule:nonzero;stroke:none"
         id="path1752" /><path
         d="m 11792.8,6080.8 c 34.4,-95.6 140,-120.2 281.5,-103.6 186.7,81.4 993.3,393.8 984.2,605.6 -13.4,313.5 -155,323.5 -55,710.4 80.4,310.7 -664.9,888.4 -783.8,1013.9 -223.5,-424 -229.7,-444.1 -166.8,-708 120.1,-503.2 -360.2,-1240.7 -260.1,-1518.3"
         style="fill:#ed7d2b;fill-opacity:1;fill-rule:nonzero;stroke:none"
         id="path1754" /><path
         d="m 13131.1,7300.7 c 0,0 135.1,105.1 262.7,80 127.5,-25 190.1,-112.5 185.1,-152.5 -5,-40.1 -72.6,-152.6 -170.1,-162.6 -97.6,-10.1 -375.3,60 -375.3,60 l 97.6,175.1"
         style="fill:#ffb27d;fill-opacity:1;fill-rule:nonzero;stroke:none"
         id="path1756" /><path
         d="m 11701.6,7211.4 c 143.1,200.9 292.1,307.1 390.1,360.5 -22.6,58.1 601.7,823.4 601.7,942 0,120.1 166.5,970.4 166.5,970.4 0,0 -520.1,-32.2 -700.2,-283.3 -225.2,-314.1 -693,-1522.9 -458.1,-1989.6"
         style="fill:#f99746;fill-opacity:1;fill-rule:nonzero;stroke:none"
         id="path1758" /><path
         d="m 12091.7,7571.9 1039.4,-271.2 -97.6,-175.1 c 0,0 -1264.9,8.8 -1331.9,85.8 -67,77 390.1,360.5 390.1,360.5"
         style="fill:#ffb27d;fill-opacity:1;fill-rule:nonzero;stroke:none"
         id="path1760" /><path
         d="m 13878.3,7900.8 c 88.7,-143.2 246.2,-503 448.1,-621.2 132.5,-77.3 312.3,30.3 405.3,86.8 -29.8,52.9 -64.3,113.8 -91.9,188.8 -74.3,-17 -165,-38.7 -223.4,-56.3 -113.8,-34.5 -538.1,401.9 -538.1,401.9"
         style="fill:#ed7d2b;fill-opacity:1;fill-rule:nonzero;stroke:none"
         id="path1762" /><g
         id="g2451"
         transform="matrix(1,0,0,0.84927901,0,409.53907)"><path
           d="m 17073.5,7527.4 134.9,-764 v 0 l 372.3,-2110.3 332.9,-1886.4 c 5,-28.6 30.5,-49.5 60.2,-49.5 26.3,0 46.6,22.4 43.1,47.7 l -287.1,2138.6 -307,2287.4 -46.3,345.1 -303,-8.6"
           style="fill:#a0795f;fill-opacity:1;fill-rule:nonzero;stroke:none"
           id="path1696" /><path
           d="m 10048.1,2717.2 c 29.8,0 55.2,20.9 60.3,49.5 l 295.7,1676.1 425.4,2410.5 118.9,674.1 -303,8.6 -52.5,-391.3 -369.1,-2749.8 -218.8,-1630 c -3.3,-25.3 16.8,-47.7 43.1,-47.7"
           style="fill:#a0795f;fill-opacity:1;fill-rule:nonzero;stroke:none"
           id="path1698" /><path
           d="m 18547.4,7527.4 134.9,-764 v 0 l 372.3,-2110.3 332.9,-1886.4 c 5,-28.6 30.5,-49.5 60.3,-49.5 26.2,0 46.5,22.4 43,47.7 l -287,2138.6 -307.1,2287.4 -46.3,345.1 -303,-8.6"
           style="fill:#c69d7f;fill-opacity:1;fill-rule:nonzero;stroke:none"
           id="path1764" /><path
           d="m 18682.3,6763.4 c -17.7,328.3 214.4,427.5 214.4,427.5 l -46.3,345.1 -303,-8.6 134.9,-764"
           style="fill:#a0795f;fill-opacity:1;fill-rule:nonzero;stroke:none"
           id="path1766" /><path
           d="m 8349.54,2717.2 c 29.79,0 55.25,20.9 60.33,49.5 l 295.71,1676.1 425.34,2410.5 118.93,674.1 -302.95,8.6 -52.56,-391.3 -369.07,-2749.8 -218.8,-1630 c -3.35,-25.3 16.84,-47.7 43.07,-47.7"
           style="fill:#c69d7f;fill-opacity:1;fill-rule:nonzero;stroke:none"
           id="path1768" /><path
           d="m 8894.34,7144.7 c 196.27,-86.6 236.58,-291.4 236.58,-291.4 l 118.93,674.1 -302.95,8.6 -52.56,-391.3"
           style="fill:#a0795f;fill-opacity:1;fill-rule:nonzero;stroke:none"
           id="path1770" /></g><path
         d="m 8160.52,12992.3 h 3058.28 c 84.1,0 152.9,-68.8 152.9,-152.9 v -1551.3 c 0,-84.2 -68.8,-153 -152.9,-153 h -258.6 l 124.8,-527.2 -783.7,527.2 H 8160.52 c -84.11,0 -152.93,68.8 -152.93,153 v 1551.3 c 0,84.1 68.82,152.9 152.93,152.9"
         style="fill:#efd6bd;fill-opacity:1;fill-rule:nonzero;stroke:none"
         id="path1782" /><path
         d="m 8335.64,12301 h 2701.66 c 36.8,0 66.9,-30.1 66.9,-66.9 v 0 c 0,-36.8 -30.1,-66.9 -66.9,-66.9 H 8335.64 c -36.78,0 -66.9,30.1 -66.9,66.9 v 0 c 0,36.8 30.12,66.9 66.9,66.9"
         style="fill:#ddb897;fill-opacity:1;fill-rule:nonzero;stroke:none"
         id="path1784" /><path
         d="m 8335.64,12001.6 h 2701.66 c 36.8,0 66.9,-30.2 66.9,-67 0,-36.7 -30.1,-66.9 -66.9,-66.9 H 8335.64 c -36.78,0 -66.9,30.2 -66.9,66.9 0,36.8 30.12,67 66.9,67"
         style="fill:#ddb897;fill-opacity:1;fill-rule:nonzero;stroke:none"
         id="path1786" /><path
         d="m 8335.64,11702.1 h 2701.66 c 36.8,0 66.9,-30.1 66.9,-66.9 0,-36.8 -30.1,-66.9 -66.9,-66.9 H 8335.64 c -36.78,0 -66.9,30.1 -66.9,66.9 0,36.8 30.12,66.9 66.9,66.9"
         style="fill:#ddb897;fill-opacity:1;fill-rule:nonzero;stroke:none"
         id="path1788" /><path
         d="M 10954.4,12632.3 H 9807.5 c -43.8,0 -79.63,35.9 -79.63,79.7 0,43.8 35.83,79.6 79.63,79.6 h 1146.9 c 43.8,0 79.7,-35.8 79.7,-79.6 0,-43.8 -35.9,-79.7 -79.7,-79.7"
         style="fill:#ddb897;fill-opacity:1;fill-rule:nonzero;stroke:none"
         id="path1790" /><path
         d="m 9512,12632.3 h -690.14 c -34.61,0 -62.94,28.4 -62.94,63 v 33.4 c 0,34.6 28.33,62.9 62.94,62.9 H 9512 c 34.61,0 62.94,-28.3 62.94,-62.9 v -33.4 c 0,-34.6 -28.33,-63 -62.94,-63"
         style="fill:#ddb897;fill-opacity:1;fill-rule:nonzero;stroke:none"
         id="path1792" /><g
         id="g2443"
         transform="translate(-33.8,-530.7)"><path
           d="m 15695.1,8095.1 c 0,0 80.3,196.6 168.6,204.7 88.3,8 369.2,52.1 389.2,12 20.1,-40.1 0,-184.6 -60.1,-236.8 -60.2,-52.1 -433.5,-136.4 -433.5,-136.4 l -64.2,156.5"
           style="fill:#ffb27d;fill-opacity:1;fill-rule:nonzero;stroke:none"
           id="path1730" /><path
           d="m 14898.8,7792.1 h -1221.2 v 0 c 0,53.7 43.6,97.3 97.4,97.3 h 1123.8 v -97.3"
           style="fill:#b24940;fill-opacity:1;fill-rule:nonzero;stroke:none"
           id="path1772" /><path
           d="m 14895.2,9122 h 1888 l -452.9,-1329.9 h -1900.1 l 465,1329.9"
           style="fill:#b24940;fill-opacity:1;fill-rule:nonzero;stroke:none"
           id="path1774" /><path
           d="M 16811,9122 16358.1,7792.1 H 14458 L 14923.1,9122 H 16811"
           style="fill:#c65447;fill-opacity:1;fill-rule:nonzero;stroke:none"
           id="path1776" /><path
           d="m 15793.1,8469.3 c -11.7,-50.8 -62.4,-92 -113.2,-92 -50.8,0 -82.5,41.2 -70.8,92 11.7,50.8 62.4,92 113.3,92 50.8,0 82.5,-41.2 70.7,-92"
           style="fill:#f9ddbf;fill-opacity:1;fill-rule:nonzero;stroke:none"
           id="path1778" /><path
           d="m 16811,9122 -452.9,-1329.9 h -883.9 L 16533,9122 h 278"
           style="fill:#b24940;fill-opacity:1;fill-rule:nonzero;stroke:none"
           id="path1780" /><path
           d="M 8026.65,7262.8 H 19734.4 c 124.4,0 226.1,101.7 226.1,226 v 77.2 c 0,124.4 -101.7,226.1 -226.1,226.1 H 8026.65 c -124.32,0 -226.02,-101.7 -226.02,-226.1 v -77.2 c 0,-124.3 101.7,-226 226.02,-226"
           style="fill:#c69d7f;fill-opacity:1;fill-rule:nonzero;stroke:none"
           id="path1794" /></g><path
         d="m 20119.5,5317.6 c 0,0 611.5,342.5 326.1,807.2 0,0 -228.3,285.3 -472.8,358.7 0,0 130.4,-693 0,-709.3 -130.5,-16.3 -89.7,782.6 -89.7,782.6 0,0 -644.1,309.9 -896.8,285.4 0,0 399.5,-676.7 269,-660.4 -130.4,16.3 -578.8,701.1 -578.8,701.1 0,0 -660.4,122.3 -766.3,-269 -106,-391.3 65.2,-587 163,-611.4 97.8,-24.5 725.6,-16.3 709.3,-97.9 -16.3,-81.5 -440.3,-211.9 -676.7,-138.6 0,0 260.9,-644 603.3,-611.4 342.4,32.6 448.4,244.6 660.4,260.9 211.9,16.3 366.8,-40.8 260.9,-97.9 -106,-57 -464.7,-18.7 -635.9,-164.2 -171.3,-145.5 -309.9,-235.2 8.1,-300.5 318,-65.2 888.6,-24.4 1002.8,220.2 114.1,244.5 114.1,244.5 114.1,244.5"
         style="fill:#a8d29f;fill-opacity:1;fill-rule:nonzero;stroke:none"
         id="path1808" /><path
         d="m 19837.9,4531.6 c 0,0 291.6,340.2 18,556.3 0,0 -199.8,120.9 -362.8,111.1 0,0 230.9,-387.2 156.2,-425.7 -74.7,-38.5 -226.2,450 -226.2,450 0,0 -454.8,44.1 -601.1,-26.2 0,0 388.8,-318.2 306.9,-337.1 -81.9,-19 -501.8,293.3 -501.8,293.3 0,0 -423.3,-72 -400.8,-330.3 22.6,-258.2 168.5,-337.9 232.6,-331 64.1,6.8 439.1,150 447.2,97.4 8.2,-52.5 -217.5,-224.1 -375.6,-232.2 0,0 298.4,-329.1 496.8,-234.1 198.3,95 215.3,245.5 338.9,302 123.6,56.5 229.2,56.4 178.1,-1.3 -51,-57.6 -274.8,-113.5 -345.5,-238.6 -70.7,-125.1 -134.1,-209.4 71.1,-178.5 205.2,30.8 538.8,181 553.4,352.9 14.6,172 14.6,172 14.6,172"
         style="fill:#82b378;fill-opacity:1;fill-rule:nonzero;stroke:none"
         id="path1796" /><path
         d="m 18434.3,4816.1 c 0,0 1149.7,44.3 1403.6,-284.5 0,0 56.2,-168.2 229,-321.3 l 26.9,-73.4 c 0,0 -199.2,210 -270.5,222.7 0,0 111.5,407.4 -1389,456.5"
         style="fill:#82b378;fill-opacity:1;fill-rule:nonzero;stroke:none"
         id="path1798" /><path
         d="m 20066.9,4210.3 c 0,0 246.8,-182.5 263.9,-508.6 l -44.8,-4 c 0,0 -78.8,337.1 -221.3,469 -142.4,131.9 2.2,43.6 2.2,43.6"
         style="fill:#82b378;fill-opacity:1;fill-rule:nonzero;stroke:none"
         id="path1800" /><path
         d="m 20857.5,4959.4 c 0,0 -463.9,259.8 -247.4,612.3 0,0 173.2,216.5 358.7,272.1 0,0 -99,-525.7 0,-538 98.9,-12.4 68,593.7 68,593.7 0,0 488.6,235 680.3,216.5 0,0 -303,-513.4 -204.1,-501 99,12.4 439.2,531.9 439.2,531.9 0,0 500.9,92.7 581.3,-204.1 80.4,-296.9 -49.5,-445.3 -123.7,-463.9 -74.2,-18.5 -550.4,-12.3 -538,-74.2 12.3,-61.8 333.9,-160.8 513.3,-105.1 0,0 -197.9,-488.6 -457.7,-463.9 -259.7,24.7 -340.1,185.5 -500.9,197.9 -160.8,12.4 -278.3,-30.9 -197.9,-74.2 80.4,-43.3 352.5,-14.2 482.4,-124.6 129.8,-110.4 235,-178.4 -6.2,-227.9 -241.2,-49.5 -674.2,-18.6 -760.7,167 -86.6,185.5 -86.6,185.5 -86.6,185.5"
         style="fill:#a8d29f;fill-opacity:1;fill-rule:nonzero;stroke:none"
         id="path1802" /><path
         d="m 22304.7,5850 c 0,0 -1298.8,-420.5 -1447.2,-890.6 0,0 6.2,-210.3 -123.7,-451.5 v -92.7 c 0,0 136,315.4 210.3,358.7 0,0 -290.7,408.2 1360.6,1076.1"
         style="fill:#82b378;fill-opacity:1;fill-rule:nonzero;stroke:none"
         id="path1804" /><path
         d="m 20733.8,4507.9 c 0,0 -200.3,-304.1 -86.1,-674.4 l 51.5,13.9 c 0,0 -50,407.8 54.8,612.9 104.8,205.1 -20.2,47.6 -20.2,47.6"
         style="fill:#82b378;fill-opacity:1;fill-rule:nonzero;stroke:none"
         id="path1806" /><path
         d="m 18211.8,6491.6 c 0,0 1712,-554.4 1907.7,-1174 0,0 -8.1,-277.1 163.1,-595.1 v -122.3 c 0,0 -179.4,415.8 -277.2,472.9 0,0 383.2,538.1 -1793.6,1418.5"
         style="fill:#82b378;fill-opacity:1;fill-rule:nonzero;stroke:none"
         id="path1810" /><path
         d="m 20282.6,4722.5 c 0,0 264,-400.9 113.5,-889 l -68,18.3 c 0,0 66,537.5 -72.2,807.9 -138.1,270.4 26.7,62.8 26.7,62.8"
         style="fill:#82b378;fill-opacity:1;fill-rule:nonzero;stroke:none"
         id="path1812" /><path
         d="m 20140.1,2775.2 c -661.5,0 -1197.7,536.2 -1197.7,1197.7 h 2395.5 c 0,-661.5 -536.3,-1197.7 -1197.8,-1197.7"
         style="fill:#f99746;fill-opacity:1;fill-rule:nonzero;stroke:none"
         id="path1814" /><path
         d="m 19845.4,2784.3 c 48.7,-6.1 98.4,-9.1 148.8,-9.1 661.5,0 1197.7,536.2 1197.7,1197.7 h -297.6 c 0,-611.1 -457.6,-1115.3 -1048.9,-1188.6"
         style="fill:#ffb973;fill-opacity:1;fill-rule:nonzero;stroke:none"
         id="path1816" /><path
         d="m 18925.8,2714.2 h 2428.6 v 0 c 0,81.6 -66.2,147.8 -147.8,147.8 h -2133 c -81.6,0 -147.8,-66.2 -147.8,-147.8 v 0"
         style="fill:#f99746;fill-opacity:1;fill-rule:nonzero;stroke:none"
         id="path1818" /><path
         d="m 18915.2,3936.2 h 2462 v 36.7 h -2462 v -36.7"
         style="fill:#d86713;fill-opacity:1;fill-rule:nonzero;stroke:none"
         id="path1820" /><circle
         style="opacity:0.993;fill:#ffffff;fill-opacity:0;fill-rule:evenodd;stroke-width:28.2614;stroke-linecap:round;stroke-linejoin:round;stroke-dasharray:169.568, 169.568;paint-order:stroke fill markers"
         id="path2391"
         cx="12847.35"
         cy="-5260.5122"
         transform="scale(1,-1)"
         rx="1878.4277"
         ry="2029.2506" /><ellipse
         style="opacity:0.993;fill:#ffffff;fill-opacity:0;fill-rule:evenodd;stroke:#d1a586;stroke-width:252.285;stroke-linecap:round;stroke-linejoin:round;stroke-miterlimit:4;stroke-dasharray:none;stroke-dashoffset:0;stroke-opacity:1;paint-order:stroke fill markers"
         id="path2393-1"
         cx="12928.065"
         cy="-4594.5801"
         rx="1724.4832"
         ry="1724.4834"
         transform="scale(1,-1)" /><path
         d="M 26716.4,2666.5 H 3283.61 c -28.11,0 -51.11,23.1 -51.11,51.2 v 0 c 0,28.1 23,51.1 51.11,51.1 H 26716.4 c 28.1,0 51.1,-23 51.1,-51.1 v 0 c 0,-28.1 -23,-51.2 -51.1,-51.2"
         style="fill:#2e3552;fill-opacity:1;fill-rule:nonzero;stroke:none"
         id="path1822" /></g></g></svg>
