<?xml version="1.0" encoding="UTF-8" standalone="no"?>
<svg
   xmlns:dc="http://purl.org/dc/elements/1.1/"
   xmlns:cc="http://creativecommons.org/ns#"
   xmlns:rdf="http://www.w3.org/1999/02/22-rdf-syntax-ns#"
   xmlns:svg="http://www.w3.org/2000/svg"
   xmlns="http://www.w3.org/2000/svg"
   xmlns:sodipodi="http://sodipodi.sourceforge.net/DTD/sodipodi-0.dtd"
   xmlns:inkscape="http://www.inkscape.org/namespaces/inkscape"
   version="1.1"
   id="svg2403"
   xml:space="preserve"
   width="4266.6665"
   height="2666.6667"
   viewBox="0 0 4266.6665 2666.6667"
   sodipodi:docname="6.svg"
   inkscape:version="1.0.1 (3bc2e813f5, 2020-09-07)"><metadata
     id="metadata2409"><rdf:RDF><cc:Work
         rdf:about=""><dc:format>image/svg+xml</dc:format><dc:type
           rdf:resource="http://purl.org/dc/dcmitype/StillImage" /><dc:title /></cc:Work></rdf:RDF></metadata><defs
     id="defs2407" /><sodipodi:namedview
     pagecolor="#ffffff"
     bordercolor="#666666"
     borderopacity="1"
     objecttolerance="10"
     gridtolerance="10"
     guidetolerance="10"
     inkscape:pageopacity="0"
     inkscape:pageshadow="2"
     inkscape:window-width="1920"
     inkscape:window-height="1017"
     id="namedview2405"
     showgrid="false"
     inkscape:zoom="0.51281252"
     inkscape:cx="939.23841"
     inkscape:cy="2507.7952"
     inkscape:window-x="-8"
     inkscape:window-y="-8"
     inkscape:window-maximized="1"
     inkscape:current-layer="g2413"
     inkscape:document-rotation="0" /><g
     id="g2411"
     inkscape:groupmode="layer"
     inkscape:label="ink_ext_XXXXXX"
     transform="matrix(1.3333333,0,0,-1.3333333,0,2666.6667)"><g
       id="g2413"
       transform="scale(0.1)"><path
         d="M 32000,0 H 0 V 20000 H 32000 V 0"
         style="fill:#ffffff;fill-opacity:0;fill-rule:nonzero;stroke:none"
         id="path2415" /><path
         d="m 4279.22,2914.9 c 0,0 -5014.513,6239.1 -1077.36,10063.4 5860.15,5692.1 9848.44,-2397.4 12105.84,950.4 3734.2,5537.9 15950.4,4116.7 12212.7,-2769.7 -1960.9,-3612.9 4599.9,-3073 1925.2,-8251.3 l -25166.38,7.2"
         style="fill:#ebf3fa;fill-opacity:1;fill-rule:nonzero;stroke:none"
         id="path2417" /><path
         d="m 19825.7,12665.5 c 214,-313.8 240.2,-668.8 122.5,-941.3 -414.2,-954.2 -1699,-868.8 -1990.2,114.7 -71.3,252.7 -41,534.4 141.2,808.7 427,635.5 1317,617.4 1726.5,17.9 z m 1235.1,-1989.5 181.1,424.1 4.2,10.2 c 21.7,51.7 1.5,111.3 -47.2,138.6 l -335.6,188.7 c -5.6,3.1 -10.8,6.6 -15.5,10.4 -32.8,27.3 -48,71.8 -35.6,113.4 69.7,246.4 89.9,503.4 58.8,757.4 -1.2,10.5 -0.8,20.9 0.7,30.9 6.4,37.8 32.9,70.6 69.5,84.9 l 300.8,113.1 c 39.5,15.2 66.3,51.9 70.5,92.3 0.9,12.3 0.3,25.5 -2.9,38.5 l -117.7,455.9 c -14.4,56.1 -70.1,92.4 -127.7,82.5 l -421.5,-71.6 c -41.6,-6.9 -83.2,10.6 -107.3,45.3 -35.4,49.5 -72.4,97.6 -112.6,144.4 -75.4,87.7 -156.9,166.6 -243.3,237 l -0.4,0.4 c -36.1,29.5 -50.3,77 -35.8,121.2 l 135.7,412.4 6.6,20.8 c 17.9,52.8 -8.2,111.7 -60.3,133.8 l -433.5,185.3 c -52.9,22.2 -114.5,1.7 -142.6,-48.5 l -210.1,-373.5 c -23.3,-41.6 -70.6,-63.6 -116.8,-54.3 -195.8,36.1 -396.2,42.3 -594,17 -50.4,-5.9 -98.1,22.9 -116.2,70.7 l -134.9,356.2 c -20.7,54.2 -78.1,83.4 -133.4,68.9 l -457.9,-117.9 c -54.1,-14.1 -88.3,-67.2 -78.8,-121.8 l 83.3,-495.5 c 7.3,-42 -10.2,-84.4 -44.6,-109.7 -42.6,-30.8 -84.2,-63.7 -124.8,-98.5 -76.6,-65.8 -146.5,-136.1 -209.7,-209.8 -28.5,-33.9 -74.5,-47.5 -116.3,-33.1 l -495.5,163.6 c -54.8,17.7 -113.3,-8.8 -135.9,-61.3 l -186.1,-435 c -19.3,-46.1 -4.8,-99.9 33.9,-129.9 4.1,-3 8.5,-6.4 13.3,-8.7 l 414.4,-233.4 c 38.6,-21.5 61,-63.4 56.1,-107.2 -0.3,-3.8 -0.6,-7.6 -1.6,-11.4 -2.4,-11.5 -4.8,-22.1 -6.1,-34 -25.6,-134.4 -36.3,-271.7 -32.8,-409 2,-45.8 -26.7,-87.8 -70.5,-103.8 l -376.2,-142.7 c -53.4,-20 -82.9,-77.7 -68.5,-133 l 26,-101.5 91.8,-353.7 c 14,-55.6 68.6,-90.7 125.4,-81.5 l 415.2,70.5 c 44.4,7.8 88,-13.6 110.6,-52.5 58.9,-102 128.9,-200.9 208.9,-294.1 59.4,-69.1 123.5,-133.6 190.3,-192 l -28.6,-86.5 -116.6,-355 c -14.9,-43.8 0.4,-91.8 35.9,-118.9 7.3,-5.9 15.5,-10.4 24.5,-14.2 l 436,-187.4 c 51.8,-21.7 111.4,-0.6 139.1,47.6 l 143.1,255.5 c 24.2,43.1 75.8,65.1 123.5,52.2 198.1,-53.6 402.7,-75.7 605.9,-65.1 48.2,2.6 91.8,-25.5 107.4,-69.6 l 170.4,-450.3 c 19.4,-50.2 73,-78.3 125.5,-64.8 l 462.7,119.9 c 54.9,14 89.5,67.5 79.7,122.5 l -86.9,515.5 c -7.8,44.3 12.5,88.5 51.1,112.3 82.4,50.7 161.5,109.3 237.7,174.8 41,35.2 80.1,71.7 117.4,109.6 29.4,29.5 72.7,40.1 112.4,27.5 l 475.1,-156.7 c 55.2,-18.1 114.5,8.4 137.8,61.6"
         style="fill:#dfedfb;fill-opacity:1;fill-rule:nonzero;stroke:none"
         id="path2419" /><path
         d="m 13413.4,8684.2 c 104.1,-202.9 177.2,-433.3 211.8,-690.5 8,-54.4 10.3,-116.2 9.8,-180.9 -5.8,-279.3 -89.8,-617.4 -213.3,-827.1 -947.4,-1602.1 -3209.6,-1165 -3507.99,645.8 -4.54,29.8 -9.06,59.6 -12.78,90 -36.42,282.9 53.24,718.5 195.47,965.2 74.9,129.3 158.3,245.6 247.7,349.4 899.2,1033.3 2475.4,803.6 3069.3,-351.9 z m 1750.9,-3806.7 415.7,712.7 9.8,17.1 c 50,87.1 27.3,197.4 -53,256.6 l -554.1,409.6 c -9.2,6.8 -17.6,14.2 -25.1,22 -52.2,55.7 -69.3,138.1 -38,209.2 178.5,421.9 271.4,873.8 272.6,1331.6 0.3,19 3.3,37.4 8.2,54.7 19.7,65.8 74,118.2 142.3,135.4 l 559.2,134 c 73.4,18.3 129.1,77.4 145.5,148.1 4.4,21.7 6.4,45.2 3.5,69.1 l -107.7,835.7 c -13,102.7 -103.8,179.5 -208.4,174.7 l -764.3,-33.4 c -75.3,-3 -145.3,37.2 -180.4,104.2 -51.8,95.8 -106.8,189.4 -167.8,281.3 -114.4,172.6 -241.6,330.8 -379.4,475 l -0.6,0.8 c -57.5,60.3 -72.2,147.9 -36.5,223.1 l 332.5,702.1 16.3,35.5 c 43.6,89.8 10.2,200.1 -77.4,251 l -728.4,425.2 c -89.1,51.1 -202.9,28.4 -264,-54.4 l -456.1,-616.5 c -50.6,-68.6 -139.5,-97.1 -219.3,-70.4 -339.7,107.6 -694.2,163.2 -1050.9,162.1 -90.8,0.8 -169.2,62.5 -190.6,151.4 l -160.4,662.4 c -24.7,100.9 -120.1,165.3 -221.5,152 l -839.2,-107.6 c -99.2,-13.1 -171.7,-99.9 -167.1,-198.7 l 37.9,-898.4 c 3.6,-76.1 -36.9,-147.5 -103.6,-184.8 -82.5,-45.3 -163.62,-94.3 -243.39,-147.2 -150.59,-99.9 -290.36,-209 -419.05,-326 -58.1,-53.8 -142.65,-67.6 -213.82,-32.8 l -843.36,400.6 c -93.34,43.5 -203.14,9.4 -254.83,-78.8 l -427.08,-730.9 c -44.63,-77.6 -30.78,-176.2 31.37,-238.1 6.49,-6.3 13.51,-13.3 21.63,-18.5 l 683.82,-506.4 c 63.82,-46.7 94.24,-126.2 75.9,-202.8 -1.38,-6.7 -2.75,-13.5 -5.47,-20 -6.82,-19.8 -13.37,-38.2 -18.3,-59 -75.34,-232.8 -124.96,-474.3 -149.13,-718.8 -6.7,-81.8 -67.01,-150 -148.32,-168.7 l -699.58,-169.8 c -99.2,-23.6 -164.44,-119.6 -151.15,-220.9 l 23.65,-185.9 84.28,-648.4 c 12.48,-101.9 101.69,-176.4 204.63,-172.5 l 752.87,32.8 c 80.48,4.1 153.22,-43.7 184.73,-117.8 81.88,-194.1 184.07,-385.4 305.52,-568.5 90.14,-135.9 189.51,-264.6 295.13,-383.2 l -69.98,-147.2 -285.91,-604.5 c -36.21,-74.4 -19.64,-163 37.38,-218.9 11.62,-12.3 25.14,-22.1 40.29,-30.8 l 732.5,-429.5 c 87.1,-50 197.69,-25.9 257.48,53.6 l 310.89,421.8 c 52.5,71.1 149,98.8 231,65.2 339.6,-139.2 698.1,-223.8 1061.3,-250.2 86.1,-6.1 157.2,-65.6 175.1,-147.5 l 202.5,-837.3 c 23.3,-93.5 112.3,-155.2 208.5,-143 l 848.1,110.1 c 100.6,12.7 173.9,100.1 168.7,199.8 l -39.6,934.6 c -4.2,80.5 41.8,154.3 115.6,188 157.5,71.7 311,158.3 460.8,257.6 80.6,53.4 158.2,109.6 232.9,168.4 58.6,45.9 138,55.2 205.6,23.9 l 808.8,-383.7 c 93.8,-44.3 205,-10.5 258.3,78.8"
         style="fill:#d6e8fc;fill-opacity:1;fill-rule:nonzero;stroke:none"
         id="path2421" /><path
         d="m 5417.78,2968.6 c 0,0 -22.09,172.1 -73.26,274.4 -51.17,102.3 -376.78,37.2 -376.78,37.2 0,0 -65.11,-55.8 -79.07,-316.3 l 529.11,4.7"
         style="fill:#233862;fill-opacity:1;fill-rule:nonzero;stroke:none"
         id="path2423" /><path
         d="m 6527.14,2970.9 c -76.51,46.7 -32.97,395.1 -32.97,395.1 0,0 356.51,285.2 405.53,66.8 49.02,-218.4 338.68,-316.4 503.57,-343.1 113.82,-18.5 149.06,-81.5 159.98,-118.8 H 6527.14"
         style="fill:#233862;fill-opacity:1;fill-rule:nonzero;stroke:none"
         id="path2425" /><path
         d="m 5788.7,5504.7 c 14.51,-79.9 23.72,-145.5 26.16,-192.5 33.15,-646.5 544.16,-2124.6 635.57,-2159 141.43,-53.4 364.15,60 480.66,97.2 48.29,15.4 80.87,64.1 70.13,113.5 -253.07,1163.4 -346.08,2838.6 -379.92,3830.5 -17.09,499.5 -102.84,844.6 -102.84,844.6 0,0 -1246.36,332.6 -1253.76,-88.1 -6.56,-372.2 412.85,-1832.1 524,-2446.2"
         style="fill:#213f7a;fill-opacity:1;fill-rule:nonzero;stroke:none"
         id="path2427" /><path
         d="m 5788.7,5504.7 832.6,1689.7 c -17.09,499.5 -102.84,844.6 -102.84,844.6 0,0 -1246.36,332.6 -1253.76,-88.1 -6.56,-372.2 412.85,-1832.1 524,-2446.2"
         style="fill:#233862;fill-opacity:1;fill-rule:nonzero;stroke:none"
         id="path2429" /><path
         d="M 6066.01,7949.4 5407.13,3174.1 c 0,0 -289.35,-69.8 -514.39,-14 0,0 -192.9,2539.8 -176.82,3153.8 16.07,614 -138.44,1643 35.26,1756.4 173.71,113.5 1314.83,-120.9 1314.83,-120.9"
         style="fill:#213f7a;fill-opacity:1;fill-rule:nonzero;stroke:none"
         id="path2431" /><path
         d="m 4622.77,8029 c -3.18,-43.1 24.43,-82.4 65.98,-94.5 91.9,-26.6 197.87,-45.2 402.25,-87.5 191.94,-39.9 450.2,-75.2 767.52,-77.1 504.69,-3.3 695.77,170.7 695.77,170.7 21.75,-0.4 -11.48,105.2 -41.41,607.5 -10.14,170.1 -19.93,385.7 -26.98,658.3 -6.37,245.2 -10.67,536.6 -11.07,882.2 -0.54,415.8 -644.1,863.1 -655.98,863.1 l -0.13,-0.2 c 0,-59.9 -94.36,-170.4 -239.67,-179.9 -172.48,-11.3 -384.09,74.6 -384.09,173.9 0,1 -311.82,-498.8 -422.55,-1031.3 -14.1,-67.6 -24.97,-138.8 -33.63,-213.7 -26.29,-225.9 -0.92,-64.8 -116.01,-1671.5"
         style="fill:#f99746;fill-opacity:1;fill-rule:nonzero;stroke:none"
         id="path2433" /><path
         d="m 5818.84,10951.6 c 0,0 598.44,5.1 742.46,-196.9 144.02,-201.9 459.81,-1288.5 295.02,-1650.1 -164.79,-361.6 -473.13,149.6 -644.26,371 -171.14,221.5 -393.22,1476 -393.22,1476"
         style="fill:#f99746;fill-opacity:1;fill-rule:nonzero;stroke:none"
         id="path2435" /><path
         d="m 5824.96,11043 -0.34,-61.9 c 0,0 16.85,-193.4 -221.38,-221.7 -238.24,-28.3 -415.6,35.6 -409.14,184.9 21.46,115.6 41.89,234.8 43.49,330.5 0.58,35.5 -1.85,73.2 -8.47,115.8 l 461.63,9.2 135.96,-22.2 -1.75,-334.6"
         style="fill:#ffb27d;fill-opacity:1;fill-rule:nonzero;stroke:none"
         id="path2437" /><path
         d="m 5826.71,11377.6 -1.75,-334.6 c -49.04,-22.8 -104.37,-36.7 -166.4,-36.7 -212.16,0 -349.3,155.6 -420.97,268.5 0.58,35.5 -1.85,73.2 -8.47,115.8 l 461.63,9.2 135.96,-22.2"
         style="fill:#e2915a;fill-opacity:1;fill-rule:nonzero;stroke:none"
         id="path2439" /><path
         d="m 5193.75,11464.9 c 53.55,-288.3 425.5,-278.8 586.24,-260.7 45.24,5.1 73.7,10.8 73.7,10.8 51,13.7 79.46,94 92.68,199.2 26.24,208.3 -6.91,514 -42.08,592.2 -52.96,117.6 -152.69,244.9 -527.25,153.1 -374.63,-91.9 -252.02,-325.3 -183.29,-694.6"
         style="fill:#ffb27d;fill-opacity:1;fill-rule:nonzero;stroke:none"
         id="path2441" /><path
         d="m 6430.8,10141.9 c 0,0 231.45,-511.2 224.72,-664.4 0,0 -114.62,3.9 -224.72,-28.9 -180.94,-53.9 0,693.3 0,693.3"
         style="fill:#ed7d2b;fill-opacity:1;fill-rule:nonzero;stroke:none"
         id="path2443" /><path
         d="m 6019.23,12280.8 c 0,0 -164.86,12.6 -359.33,97.2 -157.83,68.6 -356.96,-7 -421.6,-41 1.74,10.4 5.89,24.6 15.76,38.9 0,0 -29.02,-20.6 -33.29,-49.4 -2.99,-2.2 -4.33,-3.7 -3.56,-4.2 0,0 -32.9,6 -54.04,-3.5 0,0 14.8,2.1 20.09,-7.4 0.55,-1 1.39,-1.8 2.37,-2.6 -246.22,-119 -268.95,-508.1 -189.72,-598.1 95.32,-108.3 236.52,-349.4 236.52,-349.4 0,0 14.78,54.8 -2.55,150.1 -17.33,95.3 64.99,95.3 168.98,138.6 103.99,43.4 17.34,164.7 108.32,238.3 90.99,73.7 424.63,30.4 420.29,86.7 123.84,45.1 91.76,293.1 91.76,305.8"
         style="fill:#233862;fill-opacity:1;fill-rule:nonzero;stroke:none"
         id="path2445" /><path
         d="m 5118.31,9184.4 c 97.72,-392.4 1154.37,-595.1 1394.57,-636.3 -10.14,170.1 -19.93,385.7 -26.98,658.3 l -1367.59,-22"
         style="fill:#ed7d2b;fill-opacity:1;fill-rule:nonzero;stroke:none"
         id="path2447" /><path
         d="m 5350.26,9056.8 c -10.07,0 -234.9,33.6 -275.17,53.7 -40.27,20.2 -224.45,281.9 -103.83,349 120.61,67.1 444.4,-201.3 444.4,-201.3 l -65.4,-201.4"
         style="fill:#ffb27d;fill-opacity:1;fill-rule:nonzero;stroke:none"
         id="path2449" /><path
         d="m 6717.74,8979.1 c 0,0 -869.56,-47.2 -1453.12,77.7 0,0 -14.71,168.6 168.69,243.5 0,0 909.5,192.8 1127.99,139.1 218.49,-53.7 156.44,-460.3 156.44,-460.3"
         style="fill:#f99746;fill-opacity:1;fill-rule:nonzero;stroke:none"
         id="path2451" /><path
         d="m 4720.8,9661.5 c 180.46,-217.6 416.37,-395.3 676.44,-436.9 l 0.06,0.1 c 2.15,3.3 78.73,119.5 64.37,290.4 -6.65,79.1 -32.75,169.9 -94.7,266.6 -19.06,29.7 -36.04,64.5 -51.14,103.1 -142.02,362.3 -120.87,1060.7 -120.87,1060.7 0,0 -603.09,-63.1 -791.01,-331.6 -115.1,-164.4 31.68,-608.4 316.85,-952.4"
         style="fill:#f99746;fill-opacity:1;fill-rule:nonzero;stroke:none"
         id="path2453" /><path
         d="m 5779.99,11204.2 c 45.24,5.1 73.7,10.8 73.7,10.8 51,13.7 79.46,94 92.68,199.2 -95.64,-23.5 -139.47,-97.4 -157.72,-128.9 -8.25,-14.2 -9.93,-45.9 -8.66,-81.1"
         style="fill:#e2915a;fill-opacity:1;fill-rule:nonzero;stroke:none"
         id="path2455" /><path
         d="m 6022.97,11041.2 c 0,0 208.29,343.7 46.31,358.6 -161.97,15 -227.05,-94.6 -250.44,-134.9 -23.39,-40.3 6.12,-221.9 6.12,-221.9 l 198.01,-1.8"
         style="fill:#ffb27d;fill-opacity:1;fill-rule:nonzero;stroke:none"
         id="path2457" /><path
         d="m 5229.12,9526.6 c 6.37,-43.5 19.4,-83.6 35.5,-119.3 50.87,-112.9 132.62,-182.7 132.62,-182.7 l 0.06,0.1 c 540.95,244.2 650.41,1082.6 668.74,1543.3 7.38,185.2 0,309.3 0,309.3 -244.03,80.8 -312.62,-59.6 -312.62,-59.6 0,0 -288.13,-685.1 -437.59,-1132.9 -57.18,-171.4 -94.03,-308 -86.71,-358.2"
         style="fill:#f99746;fill-opacity:1;fill-rule:nonzero;stroke:none"
         id="path2459" /><path
         d="m 4720.8,9661.5 c 180.46,-217.6 416.37,-395.3 676.44,-436.9 l 0.06,0.1 c 540.95,244.2 650.41,1082.6 668.74,1543.3 0,0 -255.98,-928.4 -604.37,-1252.9 -62.95,-58.7 -128.99,-97.7 -197.05,-107.8 0,0 -439.33,124.2 -531.48,241.1 -6.57,8.4 -10.6,12.5 -12.34,13.1"
         style="fill:#ed7d2b;fill-opacity:1;fill-rule:nonzero;stroke:none"
         id="path2461" /><path
         d="m 27267.8,4633.4 c 0,0 -264.6,308.7 -16.3,504.7 0,0 181.3,109.8 329.1,100.9 0,0 -209.5,-351.3 -141.7,-386.3 67.8,-34.9 205.2,408.3 205.2,408.3 0,0 412.7,40.1 545.4,-23.8 0,0 -352.7,-288.6 -278.4,-305.8 74.3,-17.2 455.3,266.1 455.3,266.1 0,0 384,-65.3 363.6,-299.6 -20.5,-234.3 -152.8,-306.6 -211,-300.4 -58.2,6.2 -398.4,136.1 -405.8,88.4 -7.4,-47.6 197.4,-203.4 340.8,-210.7 0,0 -270.8,-298.6 -450.7,-212.4 -180,86.2 -195.4,222.8 -307.5,274 -112.2,51.3 -208,51.1 -161.6,-1.1 46.3,-52.3 249.3,-103 313.4,-216.5 64.2,-113.5 121.7,-190 -64.4,-162 -186.2,28 -488.9,164.2 -502.2,320.2 -13.2,156 -13.2,156 -13.2,156"
         style="fill:#c8dbf4;fill-opacity:1;fill-rule:nonzero;stroke:none"
         id="path2463" /><path
         d="m 28541.3,4891.6 c 0,0 -1043.2,40.2 -1273.5,-258.2 0,0 -51,-152.5 -207.8,-291.5 l -24.4,-66.6 c 0,0 180.8,190.6 245.4,202.1 0,0 -101.1,369.6 1260.3,414.2"
         style="fill:#c8dbf4;fill-opacity:1;fill-rule:nonzero;stroke:none"
         id="path2465" /><path
         d="m 27060,4341.9 c 0,0 -223.9,-165.6 -239.4,-461.4 l 40.6,-3.7 c 0,0 71.5,305.9 200.8,425.6 129.2,119.6 -2,39.5 -2,39.5"
         style="fill:#c8dbf4;fill-opacity:1;fill-rule:nonzero;stroke:none"
         id="path2467" /><path
         d="m 26342.8,5021.6 c 0,0 420.8,235.7 224.4,555.5 0,0 -157.1,196.4 -325.5,246.9 0,0 89.8,-476.9 0,-488.2 -89.7,-11.2 -61.7,538.7 -61.7,538.7 0,0 -443.3,213.3 -617.2,196.4 0,0 274.9,-465.7 185.2,-454.5 -89.8,11.2 -398.5,482.6 -398.5,482.6 0,0 -454.5,84.2 -527.4,-185.2 -73,-269.3 44.9,-404 112.2,-420.8 67.3,-16.9 499.4,-11.3 488.2,-67.4 -11.2,-56.1 -303,-145.9 -465.8,-95.4 0,0 179.6,-443.3 415.3,-420.8 235.7,22.4 308.6,168.3 454.5,179.5 145.9,11.3 252.5,-28 179.6,-67.3 -73,-39.3 -319.9,-12.9 -437.7,-113.1 -117.8,-100.1 -213.2,-161.9 5.6,-206.7 218.8,-44.9 611.6,-16.9 690.2,151.5 78.6,168.3 78.6,168.3 78.6,168.3"
         style="fill:#c8dbf4;fill-opacity:1;fill-rule:nonzero;stroke:none"
         id="path2469" /><path
         d="m 25029.7,5829.6 c 0,0 1178.4,-381.5 1313.1,-808 0,0 -5.7,-190.8 112.2,-409.6 v -84.2 c 0,0 -123.5,286.2 -190.8,325.5 0,0 263.7,370.3 -1234.5,976.3"
         style="fill:#c8dbf4;fill-opacity:1;fill-rule:nonzero;stroke:none"
         id="path2471" /><path
         d="m 26455,4612 c 0,0 181.7,-276 78.1,-611.9 l -46.7,12.5 c 0,0 45.3,370 -49.7,556.1 -95.1,186.1 18.3,43.3 18.3,43.3"
         style="fill:#c8dbf4;fill-opacity:1;fill-rule:nonzero;stroke:none"
         id="path2473" /><path
         d="m 27012.3,5346.6 c 0,0 -554.8,310.7 -295.9,732.3 0,0 207.1,258.9 429,325.5 0,0 -118.3,-628.8 0,-643.5 118.4,-14.8 81.4,710.1 81.4,710.1 0,0 584.4,281 813.7,258.8 0,0 -362.5,-613.9 -244.1,-599.1 118.3,14.8 525.1,636.1 525.1,636.1 0,0 599.2,111 695.3,-244.1 96.2,-355 -59.1,-532.5 -147.9,-554.7 -88.8,-22.2 -658.3,-14.8 -643.5,-88.8 14.8,-74 399.4,-192.3 613.9,-125.7 0,0 -236.7,-584.4 -547.3,-554.8 -310.7,29.6 -406.9,221.9 -599.2,236.7 -192.3,14.8 -332.8,-37 -236.7,-88.8 96.2,-51.7 421.6,-16.9 577,-149 155.3,-132 281,-213.4 -7.4,-272.6 -288.5,-59.2 -806.3,-22.2 -909.9,199.7 -103.5,221.9 -103.5,221.9 -103.5,221.9"
         style="fill:#d4e4f8;fill-opacity:1;fill-rule:nonzero;stroke:none"
         id="path2475" /><path
         d="m 28743.2,6411.8 c 0,0 -1553.4,-503 -1730.9,-1065.2 0,0 7.4,-251.5 -147.9,-539.9 v -111 c 0,0 162.7,377.2 251.4,429 0,0 -347.6,488.2 1627.4,1287.1"
         style="fill:#d4e4f8;fill-opacity:1;fill-rule:nonzero;stroke:none"
         id="path2477" /><path
         d="m 26864.4,4806.7 c 0,0 -239.6,-363.8 -103,-806.6 l 61.6,16.5 c 0,0 -59.8,487.8 65.5,733.1 125.3,245.3 -24.1,57 -24.1,57"
         style="fill:#d4e4f8;fill-opacity:1;fill-rule:nonzero;stroke:none"
         id="path2479" /><path
         d="m 26993.6,3039.8 c 600.2,0 1086.7,486.6 1086.7,1086.7 h -2173.4 c 0,-600.1 486.5,-1086.7 1086.7,-1086.7"
         style="fill:#d4e4f8;fill-opacity:1;fill-rule:nonzero;stroke:none"
         id="path2481" /><path
         d="m 28095.3,2984.5 h -2203.4 v 0 c 0,74.1 60,134.1 134.1,134.1 h 1935.2 c 74.1,0 134.1,-60 134.1,-134.1 v 0"
         style="fill:#d4e4f8;fill-opacity:1;fill-rule:nonzero;stroke:none"
         id="path2483" /><path
         d="m 28105,4093.2 h -2233.8 v 33.3 H 28105 v -33.3"
         style="fill:#9fc1f4;fill-opacity:1;fill-rule:nonzero;stroke:none"
         id="path2485" /><path
         d="m 23214.2,11373.1 c -160,83 -288.1,30.8 -288.1,30.8 -489.4,57.5 -632.2,-513.3 -625.6,-709.7 6.6,-196.3 29.1,-407.3 -189.5,-662.4 -631.4,-737 690.9,-769.6 690.9,-769.6 11.2,588.9 717,374 686.1,314.4 904.9,-217.2 90,1607.8 -273.8,1796.5"
         style="fill:#163560;fill-opacity:1;fill-rule:nonzero;stroke:none"
         id="path2487" /><path
         d="m 21326.3,8918.3 c 0,0 -86.1,131 -155.5,133.6 -69.3,2.5 -197.8,38.5 -187.5,12.8 10.2,-25.7 89.9,-28.3 97.6,-43.7 7.7,-15.4 -118.2,-38.5 -154.2,-41.1 -35.9,-2.5 -120.7,0 -118.1,-18 2.5,-17.9 152.8,-92.5 258.8,-82.2 106,10.3 237,-30.8 237,-30.8 l 21.9,69.4"
         style="fill:#ffb27d;fill-opacity:1;fill-rule:nonzero;stroke:none"
         id="path2489" /><path
         d="m 22571,8875.9 c 0,0 -46.8,-92.7 -131.6,-199.1 -102.3,-128.1 -260,-276.1 -458,-305.3 -94.6,-14 -187.1,6.4 -272.1,44.2 -0.2,0 -0.3,0 -0.3,0 -240.5,106.8 -421.3,352.3 -421.3,352.3 -42.4,115.6 27,194 27,194 0,0 485.6,-109.3 531.8,-86.1 46.3,23.1 316,800.2 380.2,897.9 64.3,97.7 283.2,148.4 283.2,148.4 l 61.1,-1046.3"
         style="fill:#f9ddbf;fill-opacity:1;fill-rule:nonzero;stroke:none"
         id="path2491" /><path
         d="m 22439.4,8676.8 c -102.3,-128.1 -260,-276.1 -458,-305.3 -94.6,-14 -187.1,6.4 -272.1,44.2 9.4,-1.3 249.6,-30.9 345.3,140.3 97.7,174.7 203.3,452.2 348.3,359.7 62.6,-39.9 59.8,-139.1 36.5,-238.9"
         style="fill:#f2ccaa;fill-opacity:1;fill-rule:nonzero;stroke:none"
         id="path2493" /><path
         d="m 24382.6,3634.4 c 0,0 148.2,-135.3 119.3,-231.3 -28.9,-96.1 -162.7,-160.2 -180.7,-277.6 -18.1,-117.4 -90.4,-181.5 -155.4,-181.5 -65.1,0 -310.1,0 -310.1,0 0,0 -47.9,82.7 67.7,107.6 115.7,24.9 159.3,162.9 152,291 -7.2,128.1 10.9,298.9 10.9,298.9 l 245.7,56.9 50.6,-64"
         style="fill:#233862;fill-opacity:1;fill-rule:nonzero;stroke:none"
         id="path2495" /><path
         d="m 23128.5,3576.9 c 0,0 53.3,-572.8 -11.7,-604.8 l -832.5,1.7 c 0,0 0,96.1 133.7,117.4 133.7,21.4 368.6,99.7 408.4,274 39.7,174.4 302.1,211.7 302.1,211.7"
         style="fill:#233862;fill-opacity:1;fill-rule:nonzero;stroke:none"
         id="path2497" /><path
         d="m 23721.8,7686.5 c -171.3,384.2 -276.2,494.5 -256.2,613.7 14.9,88.8 -45.3,1654.8 -45.3,1654.8 -20.3,6.3 -61.1,11.9 -83.4,16.9 -70.2,15.6 -128.4,64.9 -152.6,132.7 -29.1,81.7 -52.3,202.2 -51.8,353.3 l -21.9,-4.3 -369,-73.1 c 0,0 8.4,-116.1 8.6,-225.5 0,-0.9 0,-1.8 0,-2.7 0.5,-95 -61.8,-178.8 -153.1,-205.2 -46.6,-13.5 -87.2,-24.9 -87.2,-24.9 0,0 -135.5,-386.9 -161.3,-784.2 -25.9,-397.4 246.3,-570.1 -2.1,-1364.2 -253.6,-811 1469.9,-299.5 1375.3,-87.3"
         style="fill:#ffb27d;fill-opacity:1;fill-rule:nonzero;stroke:none"
         id="path2499" /><path
         d="m 22741.6,10380.5 c 0,0 8.4,-116.1 8.6,-225.5 206.5,5.8 315.6,194.2 360.4,298.6 l -369,-73.1"
         style="fill:#e8945b;fill-opacity:1;fill-rule:nonzero;stroke:none"
         id="path2501" /><path
         d="m 22672.6,10277 c 0,0 488.6,-8.1 488.9,296.2 0.3,304.3 63.6,508.2 -248.3,526.2 -311.9,18 -372.6,-98 -397.4,-199.6 -24.8,-101.5 29.8,-612.9 156.8,-622.8"
         style="fill:#ffb27d;fill-opacity:1;fill-rule:nonzero;stroke:none"
         id="path2503" /><path
         d="m 22690.7,11106.9 c 0,0 133.8,-357 339,-409.8 205.3,-52.8 294.4,2.2 294.4,2.2 0,0 -157.5,125.1 -190.2,343.4 0,0 -342.3,234.1 -443.2,64.2"
         style="fill:#163560;fill-opacity:1;fill-rule:nonzero;stroke:none"
         id="path2505" /><path
         d="m 22723.9,11077.9 c 0,0 -99.2,-37.1 -140,-109.4 -40,-70.8 -74,-164.5 -66.1,-279.4 0,0 -100.7,242.7 12.5,379.9 120.1,145.6 193.6,8.9 193.6,8.9"
         style="fill:#163560;fill-opacity:1;fill-rule:nonzero;stroke:none"
         id="path2507" /><path
         d="m 22778.9,10465.7 c 0,0 -33.7,-44.3 -101.1,-41.1 -54.3,2.6 -75.3,49.7 -75.3,49.7 0,0 99.8,24 176.4,-8.6"
         style="fill:#ebf3fa;fill-opacity:1;fill-rule:nonzero;stroke:none"
         id="path2509" /><path
         d="m 23768.9,9262.2 c 0,0 12.4,-174.9 0,-384.7 -8.2,-139.1 -149,-325.5 -168.9,-371.6 -50.1,-115.6 -106.6,-134.4 -106.6,-134.4 l -437.1,-107.1 -153.7,-37.7 -484.7,144.8 c 0,0 -220.7,616.1 -132.1,963 88.7,346.8 224.1,587.7 224.1,587.7 0,0 395.5,-387.3 910.4,32.8 l 348.6,-692.8"
         style="fill:#f9ddbf;fill-opacity:1;fill-rule:nonzero;stroke:none"
         id="path2511" /><path
         d="m 23641,8820.7 c -8.3,-139.1 -21.1,-268.7 -41,-314.8 -50.1,-115.6 -106.6,-134.4 -106.6,-134.4 l -437.1,-107.1 -189.9,55.8 c 0,0 633.8,96 563.5,641.2 l 211.1,-140.7"
         style="fill:#f2ccaa;fill-opacity:1;fill-rule:nonzero;stroke:none"
         id="path2513" /><path
         d="m 22448.8,8278 c 0,0 -240,-747.1 -255.5,-1001.4 -15.4,-254.4 458.8,-3613.3 477.9,-3730.5 18,-110.5 155.2,-180.9 155.2,-180.9 0,0 63.1,-37.2 153.1,-11.8 125,35.3 164.4,77.5 164.4,77.5 0,0 186.9,2395.6 71.2,3251.3 -115.6,855.8 -116.9,1595.8 -116.9,1595.8 h -649.4"
         style="fill:#ed7d2b;fill-opacity:1;fill-rule:nonzero;stroke:none"
         id="path2515" /><path
         d="m 23465.6,8300.2 c 0,0 366.1,-491.2 400.3,-823.2 34.1,-332.1 53.5,-1498.5 126.2,-1822.2 72.8,-323.7 339.9,-946.7 339.9,-1956.4 0,0 -27.8,-57.9 -113.5,-88.7 -27.4,-9.9 -64.2,-19.4 -99.8,-27.6 -70.7,-16.2 -143.3,18.4 -175.6,83.3 -180.6,363.7 -755.9,1536.6 -785.4,1780.1 -20.9,172.3 -202.6,1312.6 -598.8,1981.8 -95.1,160.6 58.4,799.4 58.4,799.4 l 848.3,73.5"
         style="fill:#f99746;fill-opacity:1;fill-rule:nonzero;stroke:none"
         id="path2517" /><path
         d="m 22768.1,10457.6 c 0,0 -8.5,-35.9 -97.7,-30.3 0,0 -74.9,4.6 -72.6,44 0,0 72.6,28.1 170.3,-13.7"
         style="fill:#ffffff;fill-opacity:1;fill-rule:nonzero;stroke:none"
         id="path2519" /><path
         d="m 22410.4,8393.3 c 0,0 96.4,-76.2 287.8,-80.1 228.6,-4.6 795.1,58.3 795.1,58.3 0,0 25.2,-70.3 24.2,-144.6 0,0 -691.9,-174.5 -1092.8,-25.5 0,0 -51.7,97.3 -14.3,191.9"
         style="fill:#233862;fill-opacity:1;fill-rule:nonzero;stroke:none"
         id="path2521" /><path
         d="m 22643.3,8317.8 c -38.4,0 -69.7,-37.5 -69.7,-83.5 0,-46.1 31.3,-83.5 69.7,-83.5 38.5,0 69.8,37.4 69.8,83.5 0,46 -31.3,83.5 -69.8,83.5 z m 0,-201.6 c -57.5,0 -104.3,53 -104.3,118.1 0,65.1 46.8,118 104.3,118 57.6,0 104.4,-52.9 104.4,-118 0,-65.1 -46.8,-118.1 -104.4,-118.1"
         style="fill:#ffffff;fill-opacity:1;fill-rule:nonzero;stroke:none"
         id="path2523" /><path
         d="m 24238.2,8258.1 -708.9,-617.2 -844.9,970.3 708.9,617.3 844.9,-970.4"
         style="fill:#b5453c;fill-opacity:1;fill-rule:nonzero;stroke:none"
         id="path2525" /><path
         d="m 23333.5,8255.9 c 0,0 -259.8,-30.4 -259,-92 0.9,-61.7 64.8,-188.4 96.8,-194 32.1,-5.6 211.4,171.3 211.4,171.3 l -49.2,114.7"
         style="fill:#ffb27d;fill-opacity:1;fill-rule:nonzero;stroke:none"
         id="path2527" /><path
         d="m 23420.3,9955 c 0,0 346.8,-24.3 479.7,-347.4 132.9,-323.2 385.1,-865.7 385.1,-957 0,-91.3 -140.8,-372.6 -897.4,-534.4 0,0 -78.3,82.3 -73.6,147.4 0,0 472.3,405.7 471.1,453.1 -2.4,89.7 -77.5,208.1 -492.1,622.9 -112.8,112.8 127.2,615.4 127.2,615.4"
         style="fill:#f9ddbf;fill-opacity:1;fill-rule:nonzero;stroke:none"
         id="path2529" /><path
         d="m 26188.3,11889.7 206.8,-722.8 c 3.1,-10.6 4.1,-21.4 3.4,-31.9 -2.5,-38 -28.5,-72 -67.2,-83.1 L 25076,10692.7 c -38.9,-11.1 -79.1,4.3 -101.2,35.5 -6,8.4 -10.7,17.9 -13.7,28.4 l -206.7,722.5 c -14.2,49.4 14.4,100.8 63.7,115 l 1255.2,359.1 c 49.3,14.1 100.7,-14.2 115,-63.5"
         style="fill:#cde0fb;fill-opacity:1;fill-rule:nonzero;stroke:none"
         id="path2531" /><path
         d="m 26398.5,11135 c -2.5,-38 -28.5,-72 -67.2,-83.1 L 25076,10692.7 c -38.9,-11.1 -79.1,4.3 -101.2,35.5 l 639.3,582.5 784.4,-175.7"
         style="fill:#bed7fb;fill-opacity:1;fill-rule:nonzero;stroke:none"
         id="path2533" /><path
         d="m 26188.3,11889.7 -562,-697.8 -861.4,250.2 -10.5,37 c -14.2,49.4 14.4,100.8 63.7,115 l 1255.2,359.1 c 49.3,14.1 100.7,-14.2 115,-63.5"
         style="fill:#dfebfd;fill-opacity:1;fill-rule:nonzero;stroke:none"
         id="path2535" /><path
         d="m 16234.3,2963.9 h -3.5 c -21.1,0 -38.1,17.4 -37.6,38.4 l 56.9,2468.4 167.8,19.6 -143,-2488.1 c -1.3,-21.5 -19.1,-38.3 -40.6,-38.3"
         style="fill:#b0d4ff;fill-opacity:1;fill-rule:nonzero;stroke:none"
         id="path2537" /><path
         d="m 15256.8,2963.9 h -3.6 c -21.1,0 -38.1,17.4 -37.6,38.4 l 57,2468.4 167.7,19.6 -143,-2488.1 c -1.3,-21.5 -19,-38.3 -40.5,-38.3"
         style="fill:#95c0f4;fill-opacity:1;fill-rule:nonzero;stroke:none"
         id="path2539" /><path
         d="m 17954.3,2963.9 h 3.6 c 21.1,0 38,17.4 37.5,38.4 l -56.9,2468.4 -167.8,19.6 143.1,-2488.1 c 1.2,-21.5 19,-38.3 40.5,-38.3"
         style="fill:#b0d4ff;fill-opacity:1;fill-rule:nonzero;stroke:none"
         id="path2541" /><path
         d="m 15145.6,5623.8 v 1691.4 c 0,297.6 241.3,538.9 538.9,538.9 h 1218.6 c 297.6,0 538.9,-241.3 538.9,-538.9 V 5559.1 l -2296.4,64.7"
         style="fill:#b0d4ff;fill-opacity:1;fill-rule:nonzero;stroke:none"
         id="path2543" /><path
         d="m 17660.4,5356.7 h -2353 c -89.4,0 -161.8,72.5 -161.8,161.8 v 105.3 h 2514.8 v -267.1"
         style="fill:#95c0f4;fill-opacity:1;fill-rule:nonzero;stroke:none"
         id="path2545" /><path
         d="m 17942.3,5356.7 h -1780.1 c -66.1,0 -119.6,53.6 -119.6,119.7 v 27.7 c 0,66.1 53.5,119.7 119.6,119.7 h 1780.1 c 66.1,0 119.7,-53.6 119.7,-119.7 v -27.7 c 0,-66.1 -53.6,-119.7 -119.7,-119.7"
         style="fill:#b0d4ff;fill-opacity:1;fill-rule:nonzero;stroke:none"
         id="path2547" /><path
         d="m 17873.2,6045.2 c -174.6,-303.8 -394.1,-421.1 -394.1,-421.1 h -913.5 c 0,0 1440.8,652.9 1307.6,421.1"
         style="fill:#233862;fill-opacity:1;fill-rule:nonzero;stroke:none"
         id="path2549" /><path
         d="m 17171.6,3694.3 c -23.8,-27.3 -26.8,-57.8 -15,-90.3 0,-0.1 0,-0.3 0.2,-0.5 21.8,-60.2 93.8,-127.4 177.4,-194.5 10.6,-8.7 20.2,-16.5 28.4,-23.8 2.2,-1.9 4.4,-3.8 6.4,-5.7 1.7,-1.5 3.3,-3 4.9,-4.4 78,-71.9 48.7,-88.4 188.7,-234.2 159.8,-166.2 269.7,-169.2 301,-154.1 26.5,12.9 -27.3,101.1 -86.9,200.1 -2.9,4.8 -5.7,9.7 -8.7,14.5 -7.9,13.2 -15.8,26.5 -23.7,39.8 -69.8,119.2 -51.8,175.1 -35.3,352.6 13.5,144.2 224.3,805.5 224.3,805.5 l -306.1,52.7 c 0,0 -92.1,-526.6 -193.7,-607.7 -54.3,-43.2 -115.1,-43.8 -167.3,-75.8 -3.7,-2.2 -7.3,-4.5 -10.8,-6.9 -29.7,-19.6 -59.9,-39.9 -83.8,-67.3"
         style="fill:#784421;fill-opacity:1;fill-rule:nonzero;stroke:none"
         id="path2551" /><path
         d="m 17171.6,3694.3 c -23.8,-27.3 -26.8,-57.8 -15,-90.3 0,-0.1 0,-0.3 0.2,-0.5 26.7,-60.1 96.8,-127 177.7,-193.9 10.5,-8.8 19.8,-16.9 28.1,-24.4 2.2,-1.9 4.4,-3.8 6.4,-5.7 1.7,-1.5 3.3,-3 4.9,-4.4 78,-71.9 48.7,-88.4 188.7,-234.2 159.8,-166.2 269.7,-169.2 301,-154.1 26.5,12.9 -27.3,101.1 -86.9,200.1 -31.1,11.4 -175.5,70.1 -284.7,209.8 -96.2,122.8 -160.3,280.4 -225.8,371.8 -3.7,-2.2 -7.3,-4.5 -10.8,-6.9 -29.7,-19.6 -59.9,-39.9 -83.8,-67.3"
         style="fill:#233862;fill-opacity:1;fill-rule:nonzero;stroke:none"
         id="path2553" /><path
         d="m 19639.7,3885.5 c 18.9,-94.5 153.5,-78.7 304,-42 150.5,36.8 114.7,-6.9 328.8,16.8 214.2,23.7 279.1,103.5 285.6,135.4 5.8,28.2 -100,38.2 -213.5,51.3 -14.2,1.6 -28.6,3.3 -42.9,5.1 -128.2,16.1 -222,98.8 -338.4,166.7 -110.2,64.3 -274.8,326.4 -274.8,326.4 l -293.6,-23.3 c 0,0 154.1,-234.1 213.7,-335.8 35,-59.9 33.2,-139 28.8,-200.2 -2.3,-33.2 -4.4,-67.1 2.3,-100.4"
         style="fill:#784421;fill-opacity:1;fill-rule:nonzero;stroke:none"
         id="path2555" /><path
         d="m 19943.7,3843.5 c 150.5,36.8 114.7,-6.9 328.8,16.8 214.2,23.7 279.1,103.5 285.6,135.4 5.8,28.2 -100,38.2 -213.5,51.3 l -1,-2.2 c 0,0 -128.5,-91.1 -306.7,-95.3 -145.3,-3.6 -299.2,38.1 -399.5,36.4 -2.3,-33.2 -4.4,-67.1 2.3,-100.4 18.9,-94.5 153.5,-78.7 304,-42"
         style="fill:#233862;fill-opacity:1;fill-rule:nonzero;stroke:none"
         id="path2557" /><path
         d="m 18514.2,5763.3 -274.5,-738.7 -358.4,-964.6 c 0,0 -97.3,-9.4 -190.4,17.4 -85.8,24.8 -184.2,89.6 -184.2,89.6 0,0 99.5,1035.7 285.2,1630.2 47.6,152.6 100.9,276.1 159.7,345.5 287.8,340.2 562.6,-379.4 562.6,-379.4"
         style="fill:#233862;fill-opacity:1;fill-rule:nonzero;stroke:none"
         id="path2559" /><path
         d="m 18235.1,6936.5 c -179.8,58 -692.8,-16.5 -1208.1,-117.3 l -107.9,177.9 -1113,86.9 c 0,0 -367.3,-814.4 -166.3,-1333.4 29.6,-76.3 88.3,-125.2 188.4,-126.8 0.1,-0.1 16.2,0 16.3,0 0,0 662.4,0.4 877.5,0.4 553.6,0 1171.5,380.5 1251.4,396.4 130.9,26.2 183.2,-235.5 314,-510.2 130.9,-274.8 1229.9,-1216.8 1229.9,-1216.8 0,0 168.9,-1.7 238.7,24.5 75.1,28.1 102.5,64.6 102.5,64.6 0,0 -1217.8,2423 -1623.4,2553.8"
         style="fill:#2b478b;fill-opacity:1;fill-rule:nonzero;stroke:none"
         id="path2561" /><path
         d="m 16875.3,10238.1 c -142.6,74.8 -359.5,85 -394.8,89.7 -421.7,56.7 -675.6,-556.2 -690.5,-741.9 -27.5,-342.3 -208.6,-394.5 -463.5,-608.8 -511,-429.9 -361.2,-929.3 -81.7,-1114.9 167.6,-111.4 463.2,0 463.2,0 4.1,-2.9 808.2,449.5 1204.5,667.7 594.2,84.5 326.1,1517.4 -37.2,1708.2"
         style="fill:#152139;fill-opacity:1;fill-rule:nonzero;stroke:none"
         id="path2563" /><path
         d="m 16580.3,8715.7 c 1.8,-1.1 -195,-68.3 -326.5,-10.1 -123.8,54.7 -217.6,258.4 -215.7,258.5 56.3,2.6 118.1,51.8 165.7,374.8 l 24,-8.6 403.1,-145.1 c 0,0 -29.2,-129.3 -48.1,-252.5 -15.9,-103.3 -24.5,-202.4 -2.5,-217"
         style="fill:#784421;fill-opacity:1;fill-rule:nonzero;stroke:none"
         id="path2565" /><path
         d="m 16630.9,9185.2 c 0,0 -29.2,-129.3 -48.1,-252.5 -231.6,41.7 -322.4,272.4 -355,397.6 l 403.1,-145.1"
         style="fill:#552200;fill-opacity:1;fill-rule:nonzero;stroke:none"
         id="path2567" /><path
         d="m 16690.9,9056.9 c 0,0 -551.5,74 -500.1,416.7 51.4,342.8 14.8,583.2 369.1,550.4 354.3,-32.8 402.9,-173.8 413.6,-292.4 10.7,-118.5 -137.8,-685.2 -282.6,-674.7"
         style="fill:#784421;fill-opacity:1;fill-rule:nonzero;stroke:none"
         id="path2569" /><path
         d="m 16953.4,9919.5 c 0,0 -353,-304.2 -593.2,-328.8 -240.1,-24.5 -331.1,52.6 -331.1,52.6 0,0 141.6,117.5 226.8,307.2 25.1,55.9 78.1,94.3 139.2,99.5 171.5,14.8 496.5,21.6 558.3,-130.5"
         style="fill:#152139;fill-opacity:1;fill-rule:nonzero;stroke:none"
         id="path2571" /><path
         d="m 16732.7,9946.8 c 0,0 118.1,-114.2 155.3,-198.9 35.9,-81.8 46.7,-277.3 18.1,-354.9 0,0 184,357.8 79.8,531.7 -110.4,184.3 -253.2,22.1 -253.2,22.1"
         style="fill:#162540;fill-opacity:1;fill-rule:nonzero;stroke:none"
         id="path2573" /><path
         d="m 17044.7,7903.2 c -16.6,-1116.4 -4.5,-883.1 -126.6,-989 -29.5,-25.5 -112.2,-40.7 -221.1,-47.9 -342.3,-22.7 -944.1,33.7 -967,96.9 -78.9,218.9 -23.2,286.9 -89.1,622.1 -6.8,35.6 -15.3,74.2 -25.3,116.2 -54.9,230.2 -108.4,308.5 86.5,678.3 176.7,335 360.3,606.8 376.8,597 466.2,-276.8 503.9,-44.1 503.9,-44.1 0,0 470.1,-484.9 461.9,-1029.5"
         style="fill:#ffffff;fill-opacity:1;fill-rule:nonzero;stroke:none"
         id="path2575" /><path
         d="M 18239.7,5024.6 17881.3,4060 c 0,0 -97.3,-9.4 -190.4,17.4 -85.8,24.8 -184.2,89.6 -184.2,89.6 0,0 99.5,1035.7 285.2,1630.2 l 447.8,-772.6"
         style="fill:#2b478b;fill-opacity:1;fill-rule:nonzero;stroke:none"
         id="path2577" /><path
         d="m 16582.8,8932.7 c 0,0 479.7,-81.3 536.1,-287.9 56.3,-206.5 387.8,-1420.8 387.8,-1420.8 0,0 -243.9,-43.8 -356.5,68.8 -112.7,112.7 -392.1,1045.3 -392.1,1045.3 l -175.3,594.6"
         style="fill:#ffffff;fill-opacity:1;fill-rule:nonzero;stroke:none"
         id="path2579" /><path
         d="m 16697,6866.3 c -342.3,-22.7 -944.1,33.7 -967,96.9 -78.9,218.9 -23.2,286.9 -89.1,622.1 l 165.2,464.9 c 0,0 -27.3,-517.7 125.3,-653.9 152.6,-136.2 625.2,-262.9 699.4,-376.7 35.8,-54.6 59.4,-109.3 66.2,-153.3"
         style="fill:#ebf3ff;fill-opacity:1;fill-rule:nonzero;stroke:none"
         id="path2581" /><path
         d="m 16304.8,7084 c 0,0 337.7,75.2 392.2,45.3 54.5,-30 187.7,-139.1 204.4,-177.1 16.7,-38 -121.4,28.8 -166.2,40.8 -29.1,7.8 -105.6,-18.8 -143.5,-31.4 -159.4,-53.1 -257.1,-25.8 -257.1,-25.8 l -29.8,148.2"
         style="fill:#784421;fill-opacity:1;fill-rule:nonzero;stroke:none"
         id="path2583" /><path
         d="m 16078.6,8977.1 c 0,0 -453.5,-28 -610.4,-246.9 -221,-308.2 -659.4,-1621.8 -408.2,-1797 283,-197.2 1287.7,-51.6 1287.7,-51.6 0,0 33.5,156.3 -13.1,231.9 -46.5,75.6 -802.5,197.7 -837.4,232.6 -34.9,34.9 436.2,680.4 436.2,785.1 0,104.7 145.2,845.9 145.2,845.9"
         style="fill:#ffffff;fill-opacity:1;fill-rule:nonzero;stroke:none"
         id="path2585" /><path
         d="m 16713.4,7035.3 c 0,0 70.7,-91.3 93.9,-102.2 23.2,-10.9 38.2,-8.2 38.2,-8.2 l -47.7,85.8 -84.4,24.6"
         style="fill:#784421;fill-opacity:1;fill-rule:nonzero;stroke:none"
         id="path2587" /><path
         d="m 16697,7129.3 205.8,-99.9 c 0,0 -8.8,-14.4 -34.1,-13.2 -25.4,1.1 -89.3,24.5 -89.3,24.5 l -82.4,88.6"
         style="fill:#784421;fill-opacity:1;fill-rule:nonzero;stroke:none"
         id="path2589" /><path
         d="m 16807.3,6793.3 h 1627.5 l 489.6,1217.4 h -1625 l -492.1,-1217.4"
         style="fill:#f99746;fill-opacity:1;fill-rule:nonzero;stroke:none"
         id="path2591" /><path
         d="m 18453.9,6840.7 h -2149.1 v -47.4 h 2130 l 19.1,47.4"
         style="fill:#ed7d2b;fill-opacity:1;fill-rule:nonzero;stroke:none"
         id="path2593" /><path
         d="m 18024,7402 c 12.3,42.8 -12.5,77.5 -55.3,77.5 -42.8,0 -87.4,-34.7 -99.7,-77.5 -12.3,-42.8 12.5,-77.5 55.3,-77.5 42.8,0 87.4,34.7 99.7,77.5"
         style="fill:#ffffff;fill-opacity:1;fill-rule:nonzero;stroke:none"
         id="path2595" /><path
         d="m 9280.64,5414.6 h -5.2 c -60.48,0 -109.52,49.1 -109.52,109.6 v 2311.9 c 0,60.5 49.04,109.6 109.52,109.6 h 5.2 c 60.49,0 109.53,-49.1 109.53,-109.6 V 5524.2 c 0,-60.5 -49.04,-109.6 -109.53,-109.6"
         style="fill:#b0d4ff;fill-opacity:1;fill-rule:nonzero;stroke:none"
         id="path2597" /><path
         d="m 9277.08,2963.9 h -3.58 c -21.08,0 -38.04,17.4 -37.55,38.4 l 56.95,2468.4 167.75,19.6 -143.05,-2488.1 c -1.23,-21.5 -19.01,-38.3 -40.52,-38.3"
         style="fill:#95c0f4;fill-opacity:1;fill-rule:nonzero;stroke:none"
         id="path2599" /><path
         d="m 11974.6,2963.9 h 3.6 c 21.1,0 38,17.4 37.6,38.4 l -57,2468.4 -167.8,19.6 143.1,-2488.1 c 1.2,-21.5 19,-38.3 40.5,-38.3"
         style="fill:#b0d4ff;fill-opacity:1;fill-rule:nonzero;stroke:none"
         id="path2601" /><path
         d="M 11962.6,5623.8 H 9165.92 v -105.3 c 0,-89.3 72.45,-161.8 161.81,-161.8 h 854.77 1498.2 281.9 c 66.1,0 119.7,53.6 119.7,119.7 v 27.7 c 0,66.1 -53.6,119.7 -119.7,119.7"
         style="fill:#b0d4ff;fill-opacity:1;fill-rule:nonzero;stroke:none"
         id="path2603" /><path
         d="m 13362.7,3491.6 c 0,0 -41.2,-511.8 50.5,-518.6 12.2,-0.9 464.8,-0.9 464.8,-0.9 l 577.8,3.3 c 0,0 -3.8,139.3 -172.7,168.7 -168.9,29.4 -503.1,171.5 -605.5,394.8 -107.6,234.8 -314.9,-47.3 -314.9,-47.3"
         style="fill:#163560;fill-opacity:1;fill-rule:nonzero;stroke:none"
         id="path2605" /><path
         d="m 9886.69,6295.4 c 0,0 19.24,-503 107.9,-671.6 h 2043.51 c 0,0 491,-50.8 535.8,-84 56.5,-41.7 -196.7,-456.2 752.3,-2075.8 l 464.8,11.8 c 0,0 -486,2626.8 -572.4,2693.2 -129.2,99.5 -1641,445.6 -1899.8,453.2 -258.8,7.5 -1432.11,-326.8 -1432.11,-326.8"
         style="fill:#1c468a;fill-opacity:1;fill-rule:nonzero;stroke:none"
         id="path2607" /><path
         d="m 11032.4,9275.7 c 157.7,-97.7 166.5,-292.3 166.5,-292.3 -384.6,-99.4 -944.2,327.6 -944.2,327.6 0,0 247.6,166.3 339.3,531.8 4.6,18.5 8.9,37.4 12.6,56.7 12,61.6 19.5,128.3 20.8,200.2 l 176.7,-158.3 293.8,-263.2 c 0,0 -6.7,-109.2 -43.4,-297.1 -6.4,-32.8 -13.7,-68 -22.1,-105.4"
         style="fill:#ffc8a2;fill-opacity:1;fill-rule:nonzero;stroke:none"
         id="path2609" /><path
         d="m 11249.7,7256.5 c -13.2,-85.8 13.4,-154.8 26.2,-218.7 5,-24.3 7.9,-48 5.8,-71.5 -21,-237.4 63.6,-267.5 37.1,-344.1 0,0 -90.4,-52.9 -255.9,-115.7 -72,-27.1 -158.3,-56.3 -257.6,-83.8 -5.2,-1.4 -10.4,-2.8 -15.8,-4.2 -384.4,-104 -788.6,-126.2 -902.81,-123.1 -218.14,5.8 -262.15,558.7 -181.23,1255.2 126.06,1084.9 296.54,1610.9 745.74,1990.9 28.3,24 9.2,-57.5 160.2,-130.3 139.5,-67.1 307.8,-82.8 438.4,-53.9 l 102.7,-105.3 c 204,-322.3 225.4,-704.8 208.1,-1023.7 -22,-403.1 -73,-724.8 -110.9,-971.8"
         style="fill:#b0d4ff;fill-opacity:1;fill-rule:nonzero;stroke:none"
         id="path2611" /><path
         d="m 11097.9,9678.2 c 0,0 15.6,16.4 -21.1,-171.4 -325.5,94.1 -431.5,259.9 -474.9,369.8 -12.4,31.1 121,47.6 202.2,64.8 l 293.8,-263.2"
         style="fill:#f2b287;fill-opacity:1;fill-rule:nonzero;stroke:none"
         id="path2613" /><path
         d="m 11249.2,9677.3 c 0,0 -627.9,-90 -677.9,301.9 -50,391.9 -164.7,644.2 234.1,718.2 398.8,74 495.9,-65.6 544.4,-192.3 48.5,-126.8 61.4,-794.3 -100.6,-827.8"
         style="fill:#ffc8a2;fill-opacity:1;fill-rule:nonzero;stroke:none"
         id="path2615" /><path
         d="m 13612.3,6772.8 48,-15.1 393.4,1257.5 -48,15 -393.4,-1257.4"
         style="fill:#1c468a;fill-opacity:1;fill-rule:nonzero;stroke:none"
         id="path2617" /><path
         d="m 12278.7,6854.8 1382.5,-14.4 -0.9,-82.7 -1382.5,14.4 0.9,82.7"
         style="fill:#1c468a;fill-opacity:1;fill-rule:nonzero;stroke:none"
         id="path2619" /><path
         d="m 10371.1,10689.5 c -5.1,5.9 -16.8,10.7 -42.9,12.3 0,0 21,12.9 48.9,13.4 5.7,36.2 25.6,100.3 88.1,115.4 0,0 -33.7,-17.6 -38.4,-56.2 72.9,73.7 228.3,126.6 657.2,89.3 565.2,-49.1 376,-409.7 302.4,-452.3 -73.5,-42.6 -256.9,77.2 -393.4,67.5 -136.5,-9.8 -164,-206.7 -210.5,-233.4 -46.5,-26.7 -27.9,21 -90.3,49.8 -62.4,28.8 -69.2,-74.9 -51.6,-142.5 17.5,-67.6 -69.2,-155.9 -69.2,-155.9 0,0 0,0 -86.2,94.3 -86.2,94.3 -165,491.5 -124.8,575.8 3.5,7.4 7,14.9 10.7,22.5"
         style="fill:#3f538f;fill-opacity:1;fill-rule:nonzero;stroke:none"
         id="path2621" /><path
         d="m 11318.8,6622.2 c 0,0 -90.4,-52.9 -255.9,-115.7 -716.4,522.7 -712.5,1760 -716.4,1781.2 l 899.7,-792.4 29.7,-457.5 c 5,-24.3 7.9,-48 5.8,-71.5 -21,-237.4 63.6,-267.5 37.1,-344.1"
         style="fill:#91b8ef;fill-opacity:1;fill-rule:nonzero;stroke:none"
         id="path2623" /><path
         d="m 12615.8,7204.2 c 0,0 57.6,-9.4 118.4,19.2 60.8,28.5 270.5,118.6 309.9,106.3 39.4,-12.3 168,-84.9 198.3,-98.7 30.3,-13.8 83.8,-84.6 83.8,-84.6 -22.2,-22.4 -100.4,29 -135.2,28 -34.9,-0.9 -292.7,-141.7 -369.3,-144.8 -76.6,-3.1 -196,12.6 -196,12.6 l -9.9,162"
         style="fill:#ffcead;fill-opacity:1;fill-rule:nonzero;stroke:none"
         id="path2625" /><path
         d="m 13083,7193 c 0.7,-4.2 94.2,-108.5 165.5,-75.4 l -78.1,77.2 -87.4,-1.8"
         style="fill:#ffcead;fill-opacity:1;fill-rule:nonzero;stroke:none"
         id="path2627" /><path
         d="m 12734.2,7223.4 c 0,0 83.9,77.7 111.7,115 0,0 16.8,-7.6 17.5,-21.8 1.1,-23.6 -22,-67 -22,-67 l -107.2,-26.2"
         style="fill:#ffcead;fill-opacity:1;fill-rule:nonzero;stroke:none"
         id="path2629" /><path
         d="m 11083.8,9069.5 c -461.1,280.8 -1005.4,-209.8 -776.6,-698.9 265.4,-567.1 707.1,-1258.7 1058.1,-1299.6 250.2,-29.1 965.2,-120.8 1268.1,-64.3 0,0 146.7,-7.2 67.1,229 0,0 -978.4,272.7 -1141,484.3 -87.1,113.3 -235.5,342.8 -465,1342.9 -0.9,4.1 -7.1,4.4 -10.7,6.6"
         style="fill:#b0d4ff;fill-opacity:1;fill-rule:nonzero;stroke:none"
         id="path2631" /><path
         d="m 23483.3,2963.9 h 4.9 c 29.1,0 52.6,24 51.9,53.1 l -78.7,3409.9 -231.7,27.1 197.6,-3437.2 c 1.7,-29.7 26.2,-52.9 56,-52.9"
         style="fill:#739af0;fill-opacity:1;fill-rule:nonzero;stroke:none"
         id="path2633" /><path
         d="m 12089.1,2963.9 h -4.9 c -29.1,0 -52.6,24 -51.9,53.1 l 78.7,3409.9 231.7,27.1 -197.6,-3437.2 c -1.7,-29.7 -26.2,-52.9 -56,-52.9"
         style="fill:#739af0;fill-opacity:1;fill-rule:nonzero;stroke:none"
         id="path2635" /><path
         d="M 23685.2,6364.2 H 11857.7 c -86,0 -155.8,69.8 -155.8,155.8 v 99.8 c 0,86.1 69.8,155.9 155.8,155.9 h 11827.5 c 86,0 155.8,-69.8 155.8,-155.9 V 6520 c 0,-86 -69.8,-155.8 -155.8,-155.8"
         style="fill:#739af0;fill-opacity:1;fill-rule:nonzero;stroke:none"
         id="path2637" /><path
         d="m 21736.7,15082.5 c 0,-285.6 101.1,-547.6 269.5,-752 145.7,-176.8 226.6,-398.1 226.6,-627.1 v -330.3 c 0,-210 171.8,-381.8 381.8,-381.8 h 611 c 210,0 381.8,171.8 381.8,381.8 v 330.9 c 0,229.5 82.1,450.5 227.7,627.9 169.1,206 270.1,470 268.4,757.7 -3.8,652.7 -530.7,1176.3 -1183.4,1176.3 -72.5,0 -143.5,-6.5 -212.4,-19.1 -15.3,-2.7 -30.5,-5.8 -45.5,-9.1 -529.6,-117.7 -925.5,-590.2 -925.5,-1155.2"
         style="fill:#f9ddbf;fill-opacity:1;fill-rule:nonzero;stroke:none"
         id="path2639" /><path
         d="m 23223.4,12991.3 -1.3,-10.2 -16.8,-128.6 -4.4,-33.9 v -0.3 l -4.5,-34.1 -16.7,-128.7 -4.4,-33.9 -0.1,-0.3 -4.4,-34.1 -2.5,-18.9 c -8.5,-65.2 -83.1,-115.1 -172.3,-115.1 h -201.1 c -21.3,0 -41.6,2.8 -60.5,8 h -0.1 c -17,4.6 -32.7,11.2 -46.8,19.4 l -1.1,0.7 c -11.4,6.7 -21.6,14.5 -30.4,23.2 -18.1,17.7 -29.9,39.1 -33.3,62.6 l -7.2,49.9 -4.5,31.4 v 0 l -0.1,0.7 v 0.1 l -4.4,30.7 -17,119.3 -4.5,31.3 -0.1,0.7 -4.5,30.9 -18.5,129.2 h 661.5"
         style="fill:#95c0f4;fill-opacity:1;fill-rule:nonzero;stroke:none"
         id="path2641" /><path
         d="M 23143.6,12991.3 H 23030 c -183.4,-53 -365.3,-105.4 -449.6,-129.2 l 4.5,-30.9 0.1,-0.7 4.5,-31.3 c 68.2,18.9 232.1,65.8 632.6,181.9 l 1.3,10.2 h -79.8"
         style="fill:#739af0;fill-opacity:1;fill-rule:nonzero;stroke:none"
         id="path2643" /><path
         d="m 22610.9,12649.2 v -0.1 l 0.1,-0.7 v 0 l 4.5,-31.4 c 79,22.2 241.8,68.9 580.9,167.2 l 4.5,34.1 v 0.3 l 4.4,33.9 c -214.3,-62.1 -473.6,-137 -598.8,-172.6 l 4.4,-30.7"
         style="fill:#739af0;fill-opacity:1;fill-rule:nonzero;stroke:none"
         id="path2645" /><path
         d="m 22686.4,12481.3 1.1,-0.7 c 14.1,-8.2 29.8,-14.8 46.8,-19.4 h 0.1 c 93,26.6 231.1,66.5 436.4,126 l 4.4,34.1 0.1,0.3 4.4,33.9 c -183.4,-53.1 -393.8,-113.8 -523.7,-151 8.8,-8.7 19,-16.5 30.4,-23.2"
         style="fill:#739af0;fill-opacity:1;fill-rule:nonzero;stroke:none"
         id="path2647" /><path
         d="m 22681.5,12986.8 -256.5,1514.1 52.8,8.9 256.5,-1514 -52.8,-9"
         style="fill:#ffffff;fill-opacity:1;fill-rule:nonzero;stroke:none"
         id="path2649" /><path
         d="m 23134.8,12986.5 -52.7,9.6 272.8,1490.2 52.6,-9.6 -272.7,-1490.2"
         style="fill:#ffffff;fill-opacity:1;fill-rule:nonzero;stroke:none"
         id="path2651" /><path
         d="m 23238.4,14435.3 c -28.1,-27 -47.2,-61.7 -45.8,-88.4 1.1,-19.3 12.7,-33.2 34.5,-41.2 11.9,-4.4 20.1,-1.1 25.8,10.1 12.5,24.9 7.1,78.1 -14.5,119.5 z m -597.8,10.4 c -28.3,-25.3 -44.2,-60.9 -47.7,-93.4 -3,-27.7 3.8,-50.1 16.5,-54.6 20.6,-7.3 35.7,-2.7 44.8,13.9 16.4,30 10.4,87.8 -13.6,134.1 z m 202.6,-51.4 c -14.9,-18.5 -26.5,-37.9 -32.7,-56.2 -12.3,-36.3 -2.3,-60.8 29.9,-72.9 12.9,-4.9 30.1,-8.7 38.3,0.6 12.8,14.5 5.3,55.4 -18.1,99.6 -5.2,9.8 -11.1,19.5 -17.4,28.9 z m 234.2,-1.1 c -32.1,-46.8 -54.6,-99.7 -49.5,-128.1 1.7,-9 6.1,-14 13.9,-15.8 31.7,-7.2 51.2,2.1 58,27.6 7.8,29.4 -2.4,75.4 -22.4,116.3 z m -16.1,-162.5 c -6.8,0 -14.5,0.9 -23.1,2.8 -14.3,3.3 -23.4,13.2 -26.2,28.7 -6.1,33.5 20.1,94.8 57,146.8 -19.3,33.7 -44.9,61.4 -71.8,69.5 -39.8,12.1 -100.7,-24.6 -143.2,-71.5 7.8,-11 14.8,-22.4 20.9,-34 21.7,-41.1 37.4,-93.6 16,-117.9 -7.9,-9 -24.1,-17.2 -56.2,-5 -40.1,15.1 -54.6,49.1 -39.6,93.2 7.4,21.6 20.9,44.1 38,64.9 -32.9,42.9 -76.8,75.5 -120.1,70.1 -23.2,-3 -43,-11.1 -59.5,-22.5 27.7,-51.5 34.1,-116.9 14.9,-152 -13.1,-23.9 -36,-31.5 -64.4,-21.4 -20.5,7.3 -31.1,35.4 -27.2,71.6 4,37.1 22.5,77.8 55.5,106 -8.6,13.4 -18.9,25.3 -30.7,34.5 -74.7,57.9 -136.4,-4.2 -138.9,-6.9 l -11.7,11.2 c 0.8,0.8 74.6,75.2 160.5,8.5 13,-10.1 24.3,-23 33.7,-37.5 18.3,12.5 40.2,21.3 65.8,24.5 48.5,6.1 97,-28.1 132.9,-73.7 46.2,50.2 112,87.3 158,73.4 29,-8.7 56.3,-36.7 77.3,-71.2 19.4,25.2 41.1,47.3 62.2,61.2 33.8,22.4 55.9,17.3 68.4,9.1 12.8,-8.5 23.8,-19.8 32.8,-32.9 10.2,8.1 20.8,15 31.4,20.3 39.2,19.5 75.2,18 101.3,-4.1 l -10.5,-12.3 c -28.1,23.8 -64.4,11.4 -83.5,1.9 -10.6,-5.3 -20.7,-11.9 -30.2,-19.5 26.1,-47 31.2,-108.3 16.2,-138 -9.4,-18.7 -26.2,-25.2 -45.8,-18 -35.4,13 -44,37.4 -45,55.5 -2,34.8 22.1,74.3 53.6,103.5 -8.1,12.1 -17.9,22.6 -29.2,30 -15.3,10.1 -35.9,0.7 -50.5,-9 -21.1,-13.9 -43.1,-36.9 -62.7,-62.9 24.3,-46.2 36.9,-100.1 27.7,-134.9 -4.4,-16.8 -17.3,-42 -54.1,-42"
         style="fill:#ffffff;fill-opacity:1;fill-rule:nonzero;stroke:none"
         id="path2653" /><path
         d="m 9057.76,11309.2 h -197.51 v 726.7 h 197.51 v -726.7"
         style="fill:#d6e8fc;fill-opacity:1;fill-rule:nonzero;stroke:none"
         id="path2655" /><path
         d="m 9033.07,12107.8 h -139.14 c -13.58,0 -24.69,11.1 -24.69,24.7 v 0 c 0,13.6 11.11,24.7 24.69,24.7 h 139.14 c 13.58,0 24.69,-11.1 24.69,-24.7 v 0 c 0,-13.6 -11.11,-24.7 -24.69,-24.7"
         style="fill:#d6e8fc;fill-opacity:1;fill-rule:nonzero;stroke:none"
         id="path2657" /><path
         d="m 8717.25,11309.2 h -197.5 v 1297.3 h 197.5 v -1297.3"
         style="fill:#d6e8fc;fill-opacity:1;fill-rule:nonzero;stroke:none"
         id="path2659" /><path
         d="m 8688.07,12660.3 h -139.14 c -13.58,0 -24.7,11.1 -24.7,24.7 v 0 c 0,13.6 11.12,24.7 24.7,24.7 h 139.14 c 13.58,0 24.68,-11.1 24.68,-24.7 v 0 c 0,-13.6 -11.1,-24.7 -24.68,-24.7"
         style="fill:#d6e8fc;fill-opacity:1;fill-rule:nonzero;stroke:none"
         id="path2661" /><path
         d="m 8390.93,11309.2 h -197.5 v 2200.6 h 197.5 v -2200.6"
         style="fill:#d6e8fc;fill-opacity:1;fill-rule:nonzero;stroke:none"
         id="path2663" /><path
         d="m 8361.75,13569.8 h -139.14 c -13.58,0 -24.69,11.1 -24.69,24.7 v 0 c 0,13.6 11.11,24.7 24.69,24.7 h 139.14 c 13.58,0 24.69,-11.1 24.69,-24.7 v 0 c 0,-13.6 -11.11,-24.7 -24.69,-24.7"
         style="fill:#d6e8fc;fill-opacity:1;fill-rule:nonzero;stroke:none"
         id="path2665" /><path
         d="m 8056.04,11309.2 h -197.51 v 1801.3 h 197.51 v -1801.3"
         style="fill:#d6e8fc;fill-opacity:1;fill-rule:nonzero;stroke:none"
         id="path2667" /><path
         d="m 8026.85,13158.7 h -139.14 c -13.58,0 -24.69,11.1 -24.69,24.7 v 0 c 0,13.6 11.11,24.7 24.69,24.7 h 139.14 c 13.58,0 24.69,-11.1 24.69,-24.7 v 0 c 0,-13.6 -11.11,-24.7 -24.69,-24.7"
         style="fill:#d6e8fc;fill-opacity:1;fill-rule:nonzero;stroke:none"
         id="path2669" /><path
         d="m 7729.72,11309.2 h -197.5 v 2800.9 h 197.5 v -2800.9"
         style="fill:#d6e8fc;fill-opacity:1;fill-rule:nonzero;stroke:none"
         id="path2671" /><path
         d="M 7700.54,14163.8 H 7561.4 c -13.58,0 -24.69,11.1 -24.69,24.6 v 0 c 0,13.6 11.11,24.7 24.69,24.7 h 139.14 c 13.58,0 24.69,-11.1 24.69,-24.7 v 0 c 0,-13.5 -11.11,-24.6 -24.69,-24.6"
         style="fill:#d6e8fc;fill-opacity:1;fill-rule:nonzero;stroke:none"
         id="path2673" /><path
         d="m 7411.99,11309.2 h -197.5 v 2363.5 h 197.5 v -2363.5"
         style="fill:#d6e8fc;fill-opacity:1;fill-rule:nonzero;stroke:none"
         id="path2675" /><path
         d="m 7382.81,13722.9 h -139.14 c -13.58,0 -24.69,11.2 -24.69,24.7 v 0 c 0,13.6 11.11,24.7 24.69,24.7 h 139.14 c 13.58,0 24.69,-11.1 24.69,-24.7 v 0 c 0,-13.5 -11.11,-24.7 -24.69,-24.7"
         style="fill:#d6e8fc;fill-opacity:1;fill-rule:nonzero;stroke:none"
         id="path2677" /><path
         d="M 21928.5,6775.7 H 20301 l -489.6,1217.4 h 1625 l 492.1,-1217.4"
         style="fill:#2b478b;fill-opacity:1;fill-rule:nonzero;stroke:none"
         id="path2679" /><path
         d="M 20281.9,6823.1 H 22431 v -47.4 h -2130 l -19.1,47.4"
         style="fill:#2b478b;fill-opacity:1;fill-rule:nonzero;stroke:none"
         id="path2681" /><path
         d="m 20711.8,7384.4 c -12.2,42.8 12.5,77.5 55.3,77.5 42.8,0 87.4,-34.7 99.7,-77.5 12.3,-42.8 -12.5,-77.5 -55.3,-77.5 -42.8,0 -87.4,34.7 -99.7,77.5"
         style="fill:#ffffff;fill-opacity:1;fill-rule:nonzero;stroke:none"
         id="path2683" /><path
         d="m 30649.9,2963.1 v -11.7 c 0,-18.8 -14.4,-34.3 -31.8,-34.3 H 2564.9 c -17.47,0 -31.86,15.5 -31.86,34.3 v 11.7 c 0,18.9 14.39,34.3 31.86,34.3 h 28053.2 c 17.4,0 31.8,-15.4 31.8,-34.3"
         style="fill:#2e3552;fill-opacity:1;fill-rule:nonzero;stroke:none"
         id="path2685" /></g></g></svg>
