<?xml version="1.0" encoding="UTF-8" standalone="no"?>
<svg
   xmlns:dc="http://purl.org/dc/elements/1.1/"
   xmlns:cc="http://creativecommons.org/ns#"
   xmlns:rdf="http://www.w3.org/1999/02/22-rdf-syntax-ns#"
   xmlns:svg="http://www.w3.org/2000/svg"
   xmlns="http://www.w3.org/2000/svg"
   xmlns:sodipodi="http://sodipodi.sourceforge.net/DTD/sodipodi-0.dtd"
   xmlns:inkscape="http://www.inkscape.org/namespaces/inkscape"
   width="100.40027mm"
   height="85.024918mm"
   viewBox="0 0 100.40027 85.024918"
   version="1.1"
   id="svg8"
   sodipodi:docname="1-2.svg"
   inkscape:version="1.0.1 (3bc2e813f5, 2020-09-07)">
  <defs
     id="defs2">
    <inkscape:path-effect
       effect="bspline"
       id="path-effect976"
       is_visible="true"
       lpeversion="1"
       weight="33.333333"
       steps="2"
       helper_size="0"
       apply_no_weight="true"
       apply_with_weight="true"
       only_selected="false" />
    <inkscape:path-effect
       effect="bspline"
       id="path-effect915"
       is_visible="true"
       lpeversion="1"
       weight="33.333333"
       steps="2"
       helper_size="0"
       apply_no_weight="true"
       apply_with_weight="true"
       only_selected="false" />
    <inkscape:path-effect
       effect="bspline"
       id="path-effect896"
       is_visible="true"
       lpeversion="1"
       weight="33.333333"
       steps="2"
       helper_size="0"
       apply_no_weight="true"
       apply_with_weight="true"
       only_selected="false" />
  </defs>
  <sodipodi:namedview
     id="base"
     pagecolor="#ffffff"
     bordercolor="#666666"
     borderopacity="1.0"
     inkscape:pageopacity="0.0"
     inkscape:pageshadow="2"
     inkscape:zoom="2.8"
     inkscape:cx="76.564682"
     inkscape:cy="190.26347"
     inkscape:document-units="mm"
     inkscape:current-layer="layer1"
     inkscape:document-rotation="0"
     showgrid="false"
     inkscape:window-width="1920"
     inkscape:window-height="1017"
     inkscape:window-x="-8"
     inkscape:window-y="-8"
     inkscape:window-maximized="1"
     fit-margin-top="0"
     fit-margin-left="0"
     fit-margin-right="0"
     fit-margin-bottom="0" />
  <metadata
     id="metadata5">
    <rdf:RDF>
      <cc:Work
         rdf:about="">
        <dc:format>image/svg+xml</dc:format>
        <dc:type
           rdf:resource="http://purl.org/dc/dcmitype/StillImage" />
        <dc:title />
        <dc:title />
      </cc:Work>
    </rdf:RDF>
  </metadata>
  <g
     inkscape:label="Layer 1"
     inkscape:groupmode="layer"
     id="layer1"
     transform="translate(-44.945577,-37.423307)">
    <path
       id="path999"
       style="opacity:0.993;fill:#ffaacc;fill-opacity:1;fill-rule:evenodd;stroke:none;stroke-width:0.409312;stroke-linecap:round;stroke-linejoin:round;stroke-miterlimit:4;stroke-dasharray:none;stroke-opacity:1;paint-order:stroke fill markers"
       d="m 119.18779,117.97317 c 19.74936,-0.0187 26.15809,2.24374 26.15805,-7.21121 C 130.27266,93.467305 126.43667,98.479843 126.65239,79.519844 126.65237,62.506527 168.22919,4.0117624 61.49197,63.545106 48.75933,70.646812 45.3979,72.339805 45.01985,85.77863 c -1.77319,14.97842 28.79247,15.92553 28.70739,24.98333 0,9.4681 17.752178,14.86506 36.59438,9.6603 z"
       sodipodi:nodetypes="cccsccsc" />
    <path
       style="fill:#ab3600;fill-opacity:1;stroke:none;stroke-width:0.203909px;stroke-linecap:butt;stroke-linejoin:miter;stroke-opacity:1"
       d="m 94.580709,74.674957 c -8.34071,-12.386991 -11.30897,-19.973823 -12.07072,-8.752791 -0.64469,9.496683 -2.57197,10.761039 4.40348,15.355774 l 0.31083,0.204744"
       id="path1082-8-0"
       sodipodi:nodetypes="cssc" />
    <path
       style="fill:#ab3600;fill-opacity:1;stroke:none;stroke-width:0.203909px;stroke-linecap:butt;stroke-linejoin:miter;stroke-opacity:1"
       d="m 100.04029,75.295407 c 8.34071,-12.386991 11.30897,-19.973823 12.07072,-8.752791 0.64469,9.496683 2.57197,10.761039 -4.40348,15.355774 l -0.31083,0.204744"
       id="path1082-8"
       sodipodi:nodetypes="cssc" />
    <path
       style="fill:#531901;fill-opacity:1;stroke:none;stroke-width:1.029;stroke-linecap:butt;stroke-linejoin:miter;stroke-miterlimit:4;stroke-dasharray:none;stroke-opacity:1"
       d="m 102.78599,75.609266 c 5.26413,-7.817885 7.35835,-12.617757 7.61828,-5.524209 0.24145,6.589378 1.65465,6.771077 -2.7792,9.691595 l -0.19618,0.129221"
       id="path1082-4-7"
       sodipodi:nodetypes="cssc" />
    <path
       style="fill:#531b01;fill-opacity:1;stroke:none;stroke-width:1.029;stroke-linecap:butt;stroke-linejoin:miter;stroke-miterlimit:4;stroke-dasharray:none;stroke-opacity:1"
       d="m 91.835009,74.988816 c -5.26413,-7.817885 -7.35835,-12.617757 -7.61828,-5.524209 -0.24145,6.589378 -1.65465,6.771077 2.7792,9.691595 l 0.19618,0.129221"
       id="path1082-4-7-2"
       sodipodi:nodetypes="cssc" />
    <rect
       style="opacity:0.993;fill:#aa3e00;fill-opacity:1;fill-rule:evenodd;stroke:none;stroke-width:5.83852;stroke-linecap:round;stroke-linejoin:round;stroke-opacity:1;paint-order:stroke fill markers"
       id="rect837"
       width="27.221146"
       height="21.104509"
       x="84.031563"
       y="70.307236"
       ry="10.552255" />
    <path
       style="fill:#aa3e00;fill-opacity:1;stroke:none;stroke-width:0.233868px;stroke-linecap:butt;stroke-linejoin:miter;stroke-opacity:1"
       d="m 84.58583,84.051703 c 2.058606,4.862157 3.932398,6.721991 11.613269,8.434158 l 2.915194,-0.02303 C 105.7119,91.483719 109.15382,87.747616 110.80793,83.86713"
       id="path885"
       sodipodi:nodetypes="cccc" />
    <path
       style="fill:#c04201;fill-opacity:1;stroke:none;stroke-width:0.23347px;stroke-linecap:butt;stroke-linejoin:miter;stroke-opacity:1"
       d="m 93.556623,88.020468 c 3.3357,-13.472658 4.128098,-14.373249 7.988917,-0.330729 v 0"
       id="path941"
       sodipodi:nodetypes="ccc" />
    <rect
       style="opacity:0.993;fill:#ffffff;fill-opacity:1;fill-rule:evenodd;stroke:none;stroke-width:2.5693;stroke-linecap:round;stroke-linejoin:round;stroke-opacity:1;paint-order:stroke fill markers"
       id="rect837-5"
       width="8.6253119"
       height="8.6987534"
       x="93.209312"
       y="84.222282"
       ry="4.1202164" />
    <rect
       style="opacity:0.993;fill:#050505;fill-opacity:1;fill-rule:evenodd;stroke:none;stroke-width:0.955586;stroke-linecap:round;stroke-linejoin:round;stroke-opacity:1;paint-order:stroke fill markers"
       id="rect837-5-2"
       width="4.4874229"
       height="3.429455"
       x="95.320496"
       y="85.407082"
       ry="1.7147275" />
    <path
       sodipodi:type="star"
       style="opacity:0.993;fill:#f9f9f9;fill-rule:evenodd;stroke-width:1.029;stroke-linecap:round;stroke-linejoin:round;paint-order:stroke fill markers"
       id="path873"
       sodipodi:sides="8"
       sodipodi:cx="72.875244"
       sodipodi:cy="80.052795"
       sodipodi:r1="0.1984375"
       sodipodi:r2="1.4174107"
       sodipodi:arg1="0.78539816"
       sodipodi:arg2="1.1780972"
       inkscape:flatsided="false"
       inkscape:rounded="0"
       inkscape:randomized="0"
       d="m 73.015561,80.193112 0.402103,1.1692 -0.54242,-1.111079 -0.542419,1.111079 0.402103,-1.1692 -1.169201,0.402103 1.11108,-0.54242 -1.11108,-0.542419 1.169201,0.402103 -0.402104,-1.1692 0.54242,1.111079 0.54242,-1.111079 -0.402103,1.1692 1.1692,-0.402103 -1.111079,0.542419 1.111079,0.54242 z"
       inkscape:transform-center-x="-8.7459866"
       inkscape:transform-center-y="-2.6976196"
       transform="matrix(5.7179839,0,0,6.0668489,-346.69738,-403.04296)" />
    <path
       sodipodi:type="star"
       style="opacity:0.993;fill:#f9f9f9;fill-rule:evenodd;stroke-width:1.029;stroke-linecap:round;stroke-linejoin:round;paint-order:stroke fill markers"
       id="path873-1"
       sodipodi:sides="8"
       sodipodi:cx="72.875244"
       sodipodi:cy="80.052795"
       sodipodi:r1="0.1984375"
       sodipodi:r2="1.4174107"
       sodipodi:arg1="0.78539816"
       sodipodi:arg2="1.1780972"
       inkscape:flatsided="false"
       inkscape:rounded="0"
       inkscape:randomized="0"
       d="m 73.015561,80.193112 0.402103,1.1692 -0.54242,-1.111079 -0.542419,1.111079 0.402103,-1.1692 -1.169201,0.402103 1.11108,-0.54242 -1.11108,-0.542419 1.169201,0.402103 -0.402104,-1.1692 0.54242,1.111079 0.54242,-1.111079 -0.402103,1.1692 1.1692,-0.402103 -1.111079,0.542419 1.111079,0.54242 z"
       inkscape:transform-center-x="-8.7459866"
       inkscape:transform-center-y="-2.6976196"
       transform="matrix(5.717984,0,0,6.066849,-300.97786,-429.91307)" />
    <path
       sodipodi:type="star"
       style="opacity:0.993;fill:#f9f9f9;fill-rule:evenodd;stroke-width:1.029;stroke-linecap:round;stroke-linejoin:round;paint-order:stroke fill markers"
       id="path873-7"
       sodipodi:sides="8"
       sodipodi:cx="72.875244"
       sodipodi:cy="80.052795"
       sodipodi:r1="0.1984375"
       sodipodi:r2="1.4174107"
       sodipodi:arg1="0.78539816"
       sodipodi:arg2="1.1780972"
       inkscape:flatsided="false"
       inkscape:rounded="0"
       inkscape:randomized="0"
       d="m 73.015561,80.193112 0.402103,1.1692 -0.54242,-1.111079 -0.542419,1.111079 0.402103,-1.1692 -1.169201,0.402103 1.11108,-0.54242 -1.11108,-0.542419 1.169201,0.402103 -0.402104,-1.1692 0.54242,1.111079 0.54242,-1.111079 -0.402103,1.1692 1.1692,-0.402103 -1.111079,0.542419 1.111079,0.54242 z"
       inkscape:transform-center-x="-8.7459866"
       inkscape:transform-center-y="-2.6976196"
       transform="matrix(5.717984,0,0,6.066849,-307.30896,-382.00459)" />
    <path
       sodipodi:type="star"
       style="opacity:0.993;fill:#f9f9f9;fill-rule:evenodd;stroke-width:1.029;stroke-linecap:round;stroke-linejoin:round;paint-order:stroke fill markers"
       id="path873-5"
       sodipodi:sides="8"
       sodipodi:cx="72.875244"
       sodipodi:cy="80.052795"
       sodipodi:r1="0.1984375"
       sodipodi:r2="1.4174107"
       sodipodi:arg1="0.78539816"
       sodipodi:arg2="1.1780972"
       inkscape:flatsided="false"
       inkscape:rounded="0"
       inkscape:randomized="0"
       d="m 73.015561,80.193112 0.402103,1.1692 -0.54242,-1.111079 -0.542419,1.111079 0.402103,-1.1692 -1.169201,0.402103 1.11108,-0.54242 -1.11108,-0.542419 1.169201,0.402103 -0.402104,-1.1692 0.54242,1.111079 0.54242,-1.111079 -0.402103,1.1692 1.1692,-0.402103 -1.111079,0.542419 1.111079,0.54242 z"
       inkscape:transform-center-x="-3.0066442"
       inkscape:transform-center-y="-0.893593"
       transform="matrix(1.9656932,0,0,2.0096572,-26.583807,-68.53303)" />
    <path
       sodipodi:type="star"
       style="opacity:0.993;fill:#f9f9f9;fill-rule:evenodd;stroke-width:1.029;stroke-linecap:round;stroke-linejoin:round;paint-order:stroke fill markers"
       id="path873-9"
       sodipodi:sides="8"
       sodipodi:cx="72.875244"
       sodipodi:cy="80.052795"
       sodipodi:r1="0.1984375"
       sodipodi:r2="1.4174107"
       sodipodi:arg1="0.78539816"
       sodipodi:arg2="1.1780972"
       inkscape:flatsided="false"
       inkscape:rounded="0"
       inkscape:randomized="0"
       d="m 73.015561,80.193112 0.402103,1.1692 -0.54242,-1.111079 -0.542419,1.111079 0.402103,-1.1692 -1.169201,0.402103 1.11108,-0.54242 -1.11108,-0.542419 1.169201,0.402103 -0.402104,-1.1692 0.54242,1.111079 0.54242,-1.111079 -0.402103,1.1692 1.1692,-0.402103 -1.111079,0.542419 1.111079,0.54242 z"
       inkscape:transform-center-x="-4.110361"
       inkscape:transform-center-y="-0.97332906"
       transform="matrix(2.6872859,0,0,2.1889892,-77.500663,-65.413777)" />
    <path
       sodipodi:type="star"
       style="opacity:0.993;fill:#f9f9f9;fill-rule:evenodd;stroke-width:1.029;stroke-linecap:round;stroke-linejoin:round;paint-order:stroke fill markers"
       id="path873-18"
       sodipodi:sides="8"
       sodipodi:cx="72.875244"
       sodipodi:cy="80.052795"
       sodipodi:r1="0.1984375"
       sodipodi:r2="1.4174107"
       sodipodi:arg1="0.78539816"
       sodipodi:arg2="1.1780972"
       inkscape:flatsided="false"
       inkscape:rounded="0"
       inkscape:randomized="0"
       d="m 73.015561,80.193112 0.402103,1.1692 -0.54242,-1.111079 -0.542419,1.111079 0.402103,-1.1692 -1.169201,0.402103 1.11108,-0.54242 -1.11108,-0.542419 1.169201,0.402103 -0.402104,-1.1692 0.54242,1.111079 0.54242,-1.111079 -0.402103,1.1692 1.1692,-0.402103 -1.111079,0.542419 1.111079,0.54242 z"
       inkscape:transform-center-x="-4.8703521"
       inkscape:transform-center-y="-1.5573596"
       transform="matrix(3.1841541,0,0,3.5024414,-155.33962,-212.76247)" />
  </g>
</svg>
