<?xml version="1.0" encoding="UTF-8" standalone="no"?>
<svg
   xmlns:dc="http://purl.org/dc/elements/1.1/"
   xmlns:cc="http://creativecommons.org/ns#"
   xmlns:rdf="http://www.w3.org/1999/02/22-rdf-syntax-ns#"
   xmlns:svg="http://www.w3.org/2000/svg"
   xmlns="http://www.w3.org/2000/svg"
   xmlns:sodipodi="http://sodipodi.sourceforge.net/DTD/sodipodi-0.dtd"
   xmlns:inkscape="http://www.inkscape.org/namespaces/inkscape"
   width="100.40027mm"
   height="85.024918mm"
   viewBox="0 0 100.40027 85.024918"
   version="1.1"
   id="svg8"
   sodipodi:docname="3-2.svg"
   inkscape:version="1.0.1 (3bc2e813f5, 2020-09-07)">
  <defs
     id="defs2">
    <inkscape:path-effect
       effect="bspline"
       id="path-effect976"
       is_visible="true"
       lpeversion="1"
       weight="33.333333"
       steps="2"
       helper_size="0"
       apply_no_weight="true"
       apply_with_weight="true"
       only_selected="false" />
    <inkscape:path-effect
       effect="bspline"
       id="path-effect915"
       is_visible="true"
       lpeversion="1"
       weight="33.333333"
       steps="2"
       helper_size="0"
       apply_no_weight="true"
       apply_with_weight="true"
       only_selected="false" />
    <inkscape:path-effect
       effect="bspline"
       id="path-effect896"
       is_visible="true"
       lpeversion="1"
       weight="33.333333"
       steps="2"
       helper_size="0"
       apply_no_weight="true"
       apply_with_weight="true"
       only_selected="false" />
    <clipPath
       clipPathUnits="userSpaceOnUse"
       id="clipPath1161">
      <path
         sodipodi:type="star"
         style="opacity:0.993;fill:#015f01;fill-opacity:1;fill-rule:evenodd;stroke:none;stroke-width:1.065;stroke-linecap:round;stroke-linejoin:round;paint-order:stroke fill markers"
         id="path1163"
         sodipodi:sides="6"
         sodipodi:cx="82.412468"
         sodipodi:cy="74.937447"
         sodipodi:r1="6.9583173"
         sodipodi:r2="6.0260797"
         sodipodi:arg1="2.5592397"
         sodipodi:arg2="3.0828385"
         inkscape:flatsided="true"
         inkscape:rounded="0"
         inkscape:randomized="0"
         d="m 76.601084,78.764456 -0.408595,-6.946311 5.811384,-3.827009 6.219979,3.119302 0.408595,6.94631 -5.811384,3.827009 z"
         transform="rotate(-6.5396342,84.668941,71.747598)" />
    </clipPath>
    <clipPath
       clipPathUnits="userSpaceOnUse"
       id="clipPath1171">
      <path
         id="path1173"
         style="opacity:0.993;fill:#008000;fill-opacity:1;fill-rule:evenodd;stroke:none;stroke-width:1.065;stroke-linecap:round;stroke-linejoin:round;paint-order:stroke fill markers"
         d="m 77.476324,93.038318 c -1.955412,-4.551107 -0.818893,-10.297401 1.44536,-13.692276 3.341253,-5.009663 10.489752,-7.540777 16.841188,-7.617631 6.351438,-0.07686 11.334628,2.754343 12.776928,7.25923"
         sodipodi:nodetypes="cssc" />
    </clipPath>
    <clipPath
       clipPathUnits="userSpaceOnUse"
       id="clipPath1181">
      <path
         id="path1183"
         style="opacity:0.993;fill:#008000;fill-opacity:1;fill-rule:evenodd;stroke:none;stroke-width:1.065;stroke-linecap:round;stroke-linejoin:round;paint-order:stroke fill markers"
         d="m 78.798984,74.952358 c -0.696767,-4.904155 1.903384,-10.153039 4.976874,-12.837375 4.535411,-3.961155 12.097107,-4.534108 18.247472,-2.946777 6.15037,1.587331 10.2194,5.623529 10.43302,10.348844"
         sodipodi:nodetypes="cssc" />
    </clipPath>
  </defs>
  <sodipodi:namedview
     id="base"
     pagecolor="#ffffff"
     bordercolor="#666666"
     borderopacity="1.0"
     inkscape:pageopacity="0.0"
     inkscape:pageshadow="2"
     inkscape:zoom="1.979899"
     inkscape:cx="60.566351"
     inkscape:cy="166.53304"
     inkscape:document-units="mm"
     inkscape:current-layer="layer1"
     inkscape:document-rotation="0"
     showgrid="false"
     inkscape:window-width="1920"
     inkscape:window-height="1017"
     inkscape:window-x="-8"
     inkscape:window-y="-8"
     inkscape:window-maximized="1"
     fit-margin-top="0"
     fit-margin-left="0"
     fit-margin-right="0"
     fit-margin-bottom="0" />
  <metadata
     id="metadata5">
    <rdf:RDF>
      <cc:Work
         rdf:about="">
        <dc:format>image/svg+xml</dc:format>
        <dc:type
           rdf:resource="http://purl.org/dc/dcmitype/StillImage" />
        <dc:title />
        <dc:title />
      </cc:Work>
    </rdf:RDF>
  </metadata>
  <g
     inkscape:label="Layer 1"
     inkscape:groupmode="layer"
     id="layer1"
     transform="translate(-44.945577,-37.423307)">
    <path
       id="path999"
       style="opacity:0.993;fill:#ffeeaa;fill-opacity:1;fill-rule:evenodd;stroke:none;stroke-width:0.409312;stroke-linecap:round;stroke-linejoin:round;stroke-miterlimit:4;stroke-dasharray:none;stroke-opacity:1;paint-order:stroke fill markers"
       d="m 71.960734,48.350821 c -14.32768,-10.94198 72.907176,16.30057 64.667396,20.937605 -15.80592,8.894952 -30.69752,2.492725 -22.33008,10.895578 16.70433,11.801561 50.7006,57.160896 -32.671836,31.885416 -13.95218,-4.22979 -42.09463,-15.16791 -30.89451,-18.544794 21.25362,-6.408057 -4.63318,-27.419749 -4.71826,-36.477555 -1.10356,-9.51526 60.828266,12.550325 44.531882,2.62393 z"
       sodipodi:nodetypes="cscsscsc" />
    <path
       style="opacity:0.993;fill:#0d580d;fill-opacity:1;fill-rule:evenodd;stroke:none;stroke-width:1.4229;stroke-linecap:round;stroke-linejoin:round;paint-order:stroke fill markers"
       id="path1000-3"
       sodipodi:type="arc"
       sodipodi:cx="79.657158"
       sodipodi:cy="89.945244"
       sodipodi:rx="4.213676"
       sodipodi:ry="8.9875917"
       sodipodi:start="2.9095337"
       sodipodi:end="0.23856473"
       sodipodi:arc-type="arc"
       d="m 75.55643,92.012226 a 4.213676,8.9875917 0 0 1 1.725741,-9.490931 4.213676,8.9875917 0 0 1 4.772567,0.03311 4.213676,8.9875917 0 0 1 1.696757,9.514678"
       sodipodi:open="true" />
    <path
       id="path997-2"
       style="opacity:0.993;fill:#008000;fill-opacity:1;fill-rule:evenodd;stroke:none;stroke-width:1.4229;stroke-linecap:round;stroke-linejoin:round;paint-order:stroke fill markers"
       d="m 69.466716,87.499061 c -0.33875,-6.720994 3.677119,-13.510111 8.012739,-16.771427 6.397878,-4.812577 16.36004,-4.674206 24.222925,-1.782864 7.86289,2.891339 12.71599,8.845223 12.44339,15.265808"
       sodipodi:nodetypes="cssc" />
    <path
       style="opacity:0.993;fill:#0d580d;fill-opacity:1;fill-rule:evenodd;stroke:none;stroke-width:1.4229;stroke-linecap:round;stroke-linejoin:round;paint-order:stroke fill markers"
       id="path1000-3-6"
       sodipodi:type="arc"
       sodipodi:cx="111.95396"
       sodipodi:cy="89.378502"
       sodipodi:rx="4.213676"
       sodipodi:ry="8.9875917"
       sodipodi:start="2.9095337"
       sodipodi:end="0.23856473"
       sodipodi:arc-type="arc"
       d="m 107.85323,91.445484 a 4.213676,8.9875917 0 0 1 1.72574,-9.490931 4.213676,8.9875917 0 0 1 4.77257,0.03311 4.213676,8.9875917 0 0 1 1.69675,9.514678"
       sodipodi:open="true" />
    <path
       style="opacity:0.993;fill:#658000;fill-opacity:1;fill-rule:evenodd;stroke:none;stroke-width:0.62156;stroke-linecap:round;stroke-linejoin:round;paint-order:stroke fill markers"
       id="path997-9"
       sodipodi:type="arc"
       sodipodi:cx="86.298393"
       sodipodi:cy="-91.629639"
       sodipodi:rx="22.279421"
       sodipodi:ry="3.1696143"
       sodipodi:start="2.9095282"
       sodipodi:end="0.030963238"
       sodipodi:open="true"
       sodipodi:arc-type="arc"
       d="m 64.616202,-90.900668 a 22.279421,3.1696143 0 0 1 7.882159,-3.21734 22.279421,3.1696143 0 0 1 23.828175,-0.342014 22.279421,3.1696143 0 0 1 12.240604,2.928509"
       transform="matrix(0.99783798,-0.06572195,-0.06080063,-0.99814993,0,0)" />
    <path
       id="path997"
       style="opacity:0.993;fill:#016001;fill-opacity:1;fill-rule:evenodd;stroke:none;stroke-width:1.065;stroke-linecap:round;stroke-linejoin:round;paint-order:stroke fill markers"
       d="m 74.005522,84.987768 c -0.257839,-4.946691 2.798834,-9.943521 6.098885,-12.343869 4.869737,-3.542085 12.452424,-3.440243 18.437245,-1.312199 5.984828,2.128043 9.678758,6.510137 9.471268,11.235725"
       sodipodi:nodetypes="cssc"
       clip-path="url(#clipPath1161)"
       transform="matrix(1.3138038,0,0,1.3586847,-27.762014,-27.972524)" />
    <path
       style="opacity:0.993;fill:#91b601;fill-opacity:1;fill-rule:evenodd;stroke:none;stroke-width:1.4229;stroke-linecap:round;stroke-linejoin:round;paint-order:stroke fill markers"
       id="path1000"
       sodipodi:type="arc"
       sodipodi:cx="74.302277"
       sodipodi:cy="91.415688"
       sodipodi:rx="4.213676"
       sodipodi:ry="8.9875917"
       sodipodi:start="2.9095337"
       sodipodi:end="0.23856473"
       sodipodi:arc-type="arc"
       d="m 70.201548,93.48267 a 4.213676,8.9875917 0 0 1 1.725742,-9.490932 4.213676,8.9875917 0 0 1 4.772567,0.03311 4.213676,8.9875917 0 0 1 1.696756,9.514678"
       sodipodi:open="true" />
    <path
       style="opacity:0.993;fill:#91b601;fill-opacity:1;fill-rule:evenodd;stroke:none;stroke-width:1.4229;stroke-linecap:round;stroke-linejoin:round;paint-order:stroke fill markers"
       id="path1000-3-1"
       sodipodi:type="arc"
       sodipodi:cx="102.92014"
       sodipodi:cy="91.034653"
       sodipodi:rx="4.213676"
       sodipodi:ry="8.9875917"
       sodipodi:start="2.9095337"
       sodipodi:end="0.23856473"
       sodipodi:arc-type="arc"
       d="m 98.819415,93.101635 a 4.213676,8.9875917 0 0 1 1.725745,-9.490932 4.213676,8.9875917 0 0 1 4.77256,0.03311 4.213676,8.9875917 0 0 1 1.69676,9.514678"
       sodipodi:open="true" />
    <ellipse
       style="opacity:0.993;fill:#91b601;fill-opacity:1;fill-rule:evenodd;stroke:none;stroke-width:1.36657;stroke-linecap:round;stroke-linejoin:round;paint-order:stroke fill markers"
       id="path1053"
       cx="102.84155"
       cy="93.074409"
       rx="7.3593564"
       ry="5.8500595"
       transform="matrix(0.98447816,-0.17550713,0.16442239,0.98639002,0,0)" />
    <path
       style="opacity:0.993;fill:#d1fe22;fill-opacity:1;fill-rule:evenodd;stroke:none;stroke-width:0.28144;stroke-linecap:round;stroke-linejoin:round;paint-order:stroke fill markers"
       id="path1000-3-1-4"
       sodipodi:type="arc"
       sodipodi:cx="106.0762"
       sodipodi:cy="92.795914"
       sodipodi:rx="0.96563399"
       sodipodi:ry="1.5343127"
       sodipodi:start="2.9095337"
       sodipodi:end="0.23856473"
       sodipodi:arc-type="arc"
       d="m 105.13645,93.148778 a 0.96563399,1.5343127 0 0 1 0.39548,-1.62024 0.96563399,1.5343127 0 0 1 1.09372,0.0057 0.96563399,1.5343127 0 0 1 0.38884,1.624294"
       sodipodi:open="true" />
    <path
       style="opacity:0.993;fill:#d1fe22;fill-opacity:1;fill-rule:evenodd;stroke:none;stroke-width:0.28144;stroke-linecap:round;stroke-linejoin:round;paint-order:stroke fill markers"
       id="path1000-3-1-4-3"
       sodipodi:type="arc"
       sodipodi:cx="104.19817"
       sodipodi:cy="92.786209"
       sodipodi:rx="0.96563399"
       sodipodi:ry="1.5343127"
       sodipodi:start="2.9095337"
       sodipodi:end="0.23856473"
       sodipodi:arc-type="arc"
       d="m 103.25842,93.139073 a 0.96563399,1.5343127 0 0 1 0.39549,-1.62024 0.96563399,1.5343127 0 0 1 1.09371,0.0057 0.96563399,1.5343127 0 0 1 0.38884,1.624294"
       sodipodi:open="true" />
    <path
       style="opacity:0.993;fill:#d1fe22;fill-opacity:1;fill-rule:evenodd;stroke:none;stroke-width:0.28144;stroke-linecap:round;stroke-linejoin:round;paint-order:stroke fill markers"
       id="path1000-3-1-4-36"
       sodipodi:type="arc"
       sodipodi:cx="74.082809"
       sodipodi:cy="93.181747"
       sodipodi:rx="0.96563399"
       sodipodi:ry="1.5343127"
       sodipodi:start="2.9095337"
       sodipodi:end="0.23856473"
       sodipodi:arc-type="arc"
       d="m 73.143059,93.534611 a 0.96563399,1.5343127 0 0 1 0.395483,-1.62024 0.96563399,1.5343127 0 0 1 1.093713,0.0057 0.96563399,1.5343127 0 0 1 0.38884,1.624294"
       sodipodi:open="true" />
    <path
       style="opacity:0.993;fill:#d1fe22;fill-opacity:1;fill-rule:evenodd;stroke:none;stroke-width:0.28144;stroke-linecap:round;stroke-linejoin:round;paint-order:stroke fill markers"
       id="path1000-3-1-4-4"
       sodipodi:type="arc"
       sodipodi:cx="75.960854"
       sodipodi:cy="93.191444"
       sodipodi:rx="0.96563399"
       sodipodi:ry="1.5343127"
       sodipodi:start="2.9095337"
       sodipodi:end="0.23856473"
       sodipodi:arc-type="arc"
       d="m 75.021103,93.544308 a 0.96563399,1.5343127 0 0 1 0.395483,-1.62024 0.96563399,1.5343127 0 0 1 1.093713,0.0057 0.96563399,1.5343127 0 0 1 0.38884,1.624294"
       sodipodi:open="true" />
    <path
       style="opacity:0.993;fill:#d1fe22;fill-opacity:1;fill-rule:evenodd;stroke:none;stroke-width:0.28144;stroke-linecap:round;stroke-linejoin:round;paint-order:stroke fill markers"
       id="path1000-3-1-4-6"
       sodipodi:type="arc"
       sodipodi:cx="77.458321"
       sodipodi:cy="93.176964"
       sodipodi:rx="0.96563399"
       sodipodi:ry="1.5343127"
       sodipodi:start="2.9095337"
       sodipodi:end="0.23856473"
       sodipodi:arc-type="arc"
       d="m 76.518571,93.529828 a 0.96563399,1.5343127 0 0 1 0.395482,-1.62024 0.96563399,1.5343127 0 0 1 1.093713,0.0057 0.96563399,1.5343127 0 0 1 0.38884,1.624294"
       sodipodi:open="true" />
    <path
       style="fill:#91b601;fill-opacity:1;stroke:none;stroke-width:0.353498px;stroke-linecap:butt;stroke-linejoin:miter;stroke-opacity:1"
       d="m 109.31382,75.320297 c 0.10336,3.744638 -2.52431,6.333787 -4.09685,9.500682 3.74012,1.489274 6.31589,0.398293 8.9288,-0.610401 1.61615,-0.880601 -0.0156,-4.305033 -0.67304,-8.248345"
       id="path1105"
       sodipodi:nodetypes="cccc" />
    <path
       sodipodi:type="star"
       style="opacity:0.993;fill:#015f01;fill-opacity:1;fill-rule:evenodd;stroke:none;stroke-width:1.065;stroke-linecap:round;stroke-linejoin:round;paint-order:stroke fill markers"
       id="path1110-0"
       sodipodi:sides="6"
       sodipodi:cx="95.452644"
       sodipodi:cy="75.031937"
       sodipodi:r1="6.9583173"
       sodipodi:r2="6.0260797"
       sodipodi:arg1="2.5592397"
       sodipodi:arg2="3.0828385"
       inkscape:flatsided="true"
       inkscape:rounded="0"
       inkscape:randomized="0"
       d="m 89.641261,78.858946 -0.408596,-6.946311 5.811384,-3.827009 6.219981,3.119302 0.40859,6.94631 -5.811381,3.827009 z"
       transform="matrix(1.2324618,0.47064937,-0.45510257,1.274564,16.322089,-67.548416)"
       clip-path="url(#clipPath1171)" />
    <path
       sodipodi:type="star"
       style="opacity:0.993;fill:#015f01;fill-opacity:1;fill-rule:evenodd;stroke:none;stroke-width:1.065;stroke-linecap:round;stroke-linejoin:round;paint-order:stroke fill markers"
       id="path1110-0-2"
       sodipodi:sides="6"
       sodipodi:cx="95.452644"
       sodipodi:cy="75.031937"
       sodipodi:r1="6.9583173"
       sodipodi:r2="6.0260797"
       sodipodi:arg1="2.5592397"
       sodipodi:arg2="3.0828385"
       inkscape:flatsided="true"
       inkscape:rounded="0"
       inkscape:randomized="0"
       d="m 89.641261,78.858946 -0.408596,-6.946311 5.811384,-3.827009 6.219981,3.119302 0.40859,6.94631 -5.811381,3.827009 z"
       transform="matrix(1.3054869,0.1526366,-0.1475946,1.3500839,-22.912034,-26.719479)"
       clip-path="url(#clipPath1181)" />
  </g>
</svg>
