<?xml version="1.0" encoding="UTF-8" standalone="no"?>
<svg
   xmlns:dc="http://purl.org/dc/elements/1.1/"
   xmlns:cc="http://creativecommons.org/ns#"
   xmlns:rdf="http://www.w3.org/1999/02/22-rdf-syntax-ns#"
   xmlns:svg="http://www.w3.org/2000/svg"
   xmlns="http://www.w3.org/2000/svg"
   xmlns:sodipodi="http://sodipodi.sourceforge.net/DTD/sodipodi-0.dtd"
   xmlns:inkscape="http://www.inkscape.org/namespaces/inkscape"
   width="100.40027mm"
   height="85.024918mm"
   viewBox="0 0 100.40027 85.024918"
   version="1.1"
   id="svg8"
   sodipodi:docname="6-2.svg"
   inkscape:version="1.0.1 (3bc2e813f5, 2020-09-07)">
  <defs
     id="defs2">
    <inkscape:path-effect
       effect="bspline"
       id="path-effect976"
       is_visible="true"
       lpeversion="1"
       weight="33.333333"
       steps="2"
       helper_size="0"
       apply_no_weight="true"
       apply_with_weight="true"
       only_selected="false" />
    <inkscape:path-effect
       effect="bspline"
       id="path-effect915"
       is_visible="true"
       lpeversion="1"
       weight="33.333333"
       steps="2"
       helper_size="0"
       apply_no_weight="true"
       apply_with_weight="true"
       only_selected="false" />
    <inkscape:path-effect
       effect="bspline"
       id="path-effect896"
       is_visible="true"
       lpeversion="1"
       weight="33.333333"
       steps="2"
       helper_size="0"
       apply_no_weight="true"
       apply_with_weight="true"
       only_selected="false" />
  </defs>
  <sodipodi:namedview
     id="base"
     pagecolor="#ffffff"
     bordercolor="#666666"
     borderopacity="1.0"
     inkscape:pageopacity="0.0"
     inkscape:pageshadow="2"
     inkscape:zoom="1.979899"
     inkscape:cx="173.7234"
     inkscape:cy="136.09949"
     inkscape:document-units="mm"
     inkscape:current-layer="layer1"
     inkscape:document-rotation="0"
     showgrid="false"
     inkscape:window-width="1920"
     inkscape:window-height="1017"
     inkscape:window-x="-8"
     inkscape:window-y="-8"
     inkscape:window-maximized="1"
     fit-margin-top="0"
     fit-margin-left="0"
     fit-margin-right="0"
     fit-margin-bottom="0" />
  <metadata
     id="metadata5">
    <rdf:RDF>
      <cc:Work
         rdf:about="">
        <dc:format>image/svg+xml</dc:format>
        <dc:type
           rdf:resource="http://purl.org/dc/dcmitype/StillImage" />
        <dc:title />
        <dc:title />
      </cc:Work>
    </rdf:RDF>
  </metadata>
  <g
     inkscape:label="Layer 1"
     inkscape:groupmode="layer"
     id="layer1"
     transform="translate(-44.945577,-37.423307)">
    <path
       id="path999"
       style="opacity:0.993;fill:#afe9c6;fill-opacity:1;fill-rule:evenodd;stroke:none;stroke-width:0.409312;stroke-linecap:round;stroke-linejoin:round;stroke-miterlimit:4;stroke-dasharray:none;stroke-opacity:1;paint-order:stroke fill markers"
       d="m 119.18779,117.97317 c 19.74936,-0.0187 26.15809,2.24374 26.15805,-7.21121 C 130.27266,93.467305 126.43667,98.479843 126.65239,79.519844 126.65237,62.506527 168.22919,4.0117624 61.49197,63.545106 48.75933,70.646812 45.3979,72.339805 45.01985,85.77863 c -1.77319,14.97842 28.79247,15.92553 28.70739,24.98333 0,9.4681 17.752178,14.86506 36.59438,9.6603 z"
       sodipodi:nodetypes="cccsccsc" />
    <path
       style="fill:#7b4723;fill-opacity:1;stroke:none;stroke-width:0.203909px;stroke-linecap:butt;stroke-linejoin:miter;stroke-opacity:1"
       d="m 99.243788,75.849695 c 8.340712,-12.386991 8.599742,-19.450647 12.070722,-8.752791 3.47098,10.697856 3.67511,10.034501 -4.40348,15.355774 l -0.31083,0.204744"
       id="path1082-8"
       sodipodi:nodetypes="cssc" />
    <path
       style="fill:#7b4723;fill-opacity:1;stroke:none;stroke-width:0.203909px;stroke-linecap:butt;stroke-linejoin:miter;stroke-opacity:1"
       d="M 95.227366,75.68603 C 86.886652,63.29904 86.627623,56.235384 83.156642,66.93324 c -3.470979,10.697856 -3.67511,10.0345 4.403484,15.355774 l 0.310834,0.204743"
       id="path1082"
       sodipodi:nodetypes="cssc" />
    <path
       style="fill:#a75931;fill-opacity:1;stroke:none;stroke-width:0.128695px;stroke-linecap:butt;stroke-linejoin:miter;stroke-opacity:1"
       d="m 92.481664,75.99989 c -5.264131,-7.817886 -5.427613,-12.27602 -7.618278,-5.524209 -2.190662,6.751811 -2.319497,6.333143 2.779202,9.691594 l 0.196178,0.129221"
       id="path1082-4"
       sodipodi:nodetypes="cssc" />
    <path
       style="fill:#a75931;fill-opacity:1;stroke:none;stroke-width:0.128695px;stroke-linecap:butt;stroke-linejoin:miter;stroke-opacity:1"
       d="m 101.98949,76.163554 c 5.26413,-7.817885 5.42761,-12.27602 7.61828,-5.524209 2.19066,6.751812 2.3195,6.333144 -2.7792,9.691595 l -0.19618,0.129221"
       id="path1082-4-7"
       sodipodi:nodetypes="cssc" />
    <rect
       style="opacity:0.993;fill:#93542a;fill-opacity:1;fill-rule:evenodd;stroke:none;stroke-width:6.50617;stroke-linecap:round;stroke-linejoin:round;stroke-opacity:1;paint-order:stroke fill markers"
       id="rect837"
       width="27.221146"
       height="26.207188"
       x="84.031563"
       y="70.307236"
       ry="13.103594" />
    <path
       style="opacity:0.993;fill:none;fill-opacity:1;fill-rule:evenodd;stroke:#7b4723;stroke-width:1.1917;stroke-linecap:round;stroke-linejoin:round;stroke-miterlimit:4;stroke-dasharray:none;stroke-opacity:1;paint-order:stroke fill markers"
       id="path1132-8"
       sodipodi:type="arc"
       sodipodi:cx="97.714684"
       sodipodi:cy="79.400597"
       sodipodi:rx="5.714591"
       sodipodi:ry="3.4068832"
       sodipodi:start="3.1414504"
       sodipodi:end="0.11559415"
       sodipodi:arc-type="slice"
       d="m 92.000093,79.401081 a 5.714591,3.4068832 0 0 1 3.04958,-3.014211 5.714591,3.4068832 0 0 1 5.894607,0.203086 5.714591,3.4068832 0 0 1 2.44686,3.20358 l -5.676456,-0.392939 z" />
    <rect
       style="opacity:0.993;fill:#432f1e;fill-opacity:1;fill-rule:evenodd;stroke:none;stroke-width:1.79799;stroke-linecap:round;stroke-linejoin:round;stroke-opacity:1;paint-order:stroke fill markers"
       id="rect837-5-6"
       width="7.454967"
       height="7.3081331"
       x="99.167122"
       y="76.979256"
       ry="3.6540666" />
    <rect
       style="opacity:0.993;fill:#432f1e;fill-opacity:1;fill-rule:evenodd;stroke:none;stroke-width:1.79799;stroke-linecap:round;stroke-linejoin:round;stroke-opacity:1;paint-order:stroke fill markers"
       id="rect837-5-6-8"
       width="7.454967"
       height="7.3081331"
       x="88.184311"
       y="76.945808"
       ry="3.6540666" />
    <path
       style="opacity:0.993;fill:none;fill-opacity:1;fill-rule:evenodd;stroke:#7b4723;stroke-width:1.1917;stroke-linecap:round;stroke-linejoin:round;stroke-miterlimit:4;stroke-dasharray:none;stroke-opacity:1;paint-order:stroke fill markers"
       id="path1132"
       sodipodi:type="arc"
       sodipodi:cx="97.4795"
       sodipodi:cy="84.482124"
       sodipodi:rx="5.714591"
       sodipodi:ry="3.4068832"
       sodipodi:start="3.1414504"
       sodipodi:end="0.11559415"
       sodipodi:arc-type="slice"
       d="m 91.764909,84.482609 a 5.714591,3.4068832 0 0 1 3.049581,-3.014211 5.714591,3.4068832 0 0 1 5.89461,0.203086 5.714591,3.4068832 0 0 1 2.44685,3.20358 l -5.67645,-0.39294 z" />
    <rect
       style="opacity:0.993;fill:#442f1e;fill-opacity:1;fill-rule:evenodd;stroke:none;stroke-width:3.63678;stroke-linecap:round;stroke-linejoin:round;stroke-opacity:1;paint-order:stroke fill markers"
       id="rect837-5"
       width="14.707763"
       height="15.155291"
       x="90.149879"
       y="81.501778"
       ry="7.5776453" />
    <path
       id="path919"
       style="fill:#272727;fill-opacity:1;stroke:none;stroke-width:0.351749px;stroke-linecap:butt;stroke-linejoin:miter;stroke-opacity:1"
       d="m 92.002687,91.238096 c 3.083949,3.327361 4.167275,-2.30253 5.797355,-2.477289 3.356088,2.473805 1.785486,5.496015 5.525288,2.380062 -1.85767,-0.668794 -4.914994,0.295446 -5.683166,-5.428444 -0.499338,5.556204 -3.725564,4.968032 -5.639477,5.525671 z"
       sodipodi:nodetypes="ccccc" />
    <path
       style="opacity:0.993;fill:none;fill-opacity:1;fill-rule:evenodd;stroke:#7b4723;stroke-width:1.26242;stroke-linecap:round;stroke-linejoin:round;stroke-miterlimit:4;stroke-dasharray:none;stroke-opacity:1;paint-order:stroke fill markers"
       id="path1132-9"
       sodipodi:type="arc"
       sodipodi:cx="23.742289"
       sodipodi:cy="118.27723"
       sodipodi:rx="6.6077681"
       sodipodi:ry="3.3064194"
       sodipodi:start="3.5427252"
       sodipodi:end="5.8521922"
       sodipodi:arc-type="arc"
       d="m 17.659049,116.9862 a 6.6077681,3.3064194 0 0 1 5.984587,-2.01502 6.6077681,3.3064194 0 0 1 6.102149,1.92472"
       sodipodi:open="true"
       transform="matrix(0.7975109,-0.60330453,0.61252946,0.79044776,0,0)" />
    <path
       style="opacity:0.993;fill:none;fill-opacity:1;fill-rule:evenodd;stroke:#7b4723;stroke-width:1.26242;stroke-linecap:round;stroke-linejoin:round;stroke-miterlimit:4;stroke-dasharray:none;stroke-opacity:1;paint-order:stroke fill markers"
       id="path1132-9-1"
       sodipodi:type="arc"
       sodipodi:cx="-130.28041"
       sodipodi:cy="0.83054686"
       sodipodi:rx="6.6077681"
       sodipodi:ry="3.3064194"
       sodipodi:start="3.5427252"
       sodipodi:end="5.8521922"
       sodipodi:arc-type="arc"
       d="m -136.36365,-0.46048174 a 6.6077681,3.3064194 0 0 1 5.98459,-2.01502226 6.6077681,3.3064194 0 0 1 6.10215,1.92471713"
       sodipodi:open="true"
       transform="matrix(-0.79751089,-0.60330455,-0.61252948,0.79044775,0,0)" />
    <rect
       style="opacity:0.993;fill:#050505;fill-opacity:1;fill-rule:evenodd;stroke:none;stroke-width:0.955586;stroke-linecap:round;stroke-linejoin:round;stroke-opacity:1;paint-order:stroke fill markers"
       id="rect837-5-2"
       width="4.4874229"
       height="3.429455"
       x="95.225998"
       y="82.525017"
       ry="1.7147275" />
  </g>
</svg>
