<?xml version="1.0" encoding="UTF-8" standalone="no"?>
<svg
   xmlns:dc="http://purl.org/dc/elements/1.1/"
   xmlns:cc="http://creativecommons.org/ns#"
   xmlns:rdf="http://www.w3.org/1999/02/22-rdf-syntax-ns#"
   xmlns:svg="http://www.w3.org/2000/svg"
   xmlns="http://www.w3.org/2000/svg"
   xmlns:sodipodi="http://sodipodi.sourceforge.net/DTD/sodipodi-0.dtd"
   xmlns:inkscape="http://www.inkscape.org/namespaces/inkscape"
   version="1.1"
   id="svg833"
   xml:space="preserve"
   width="3068"
   height="2666.6667"
   viewBox="0 0 3068 2666.6667"
   sodipodi:docname="end.svg"
   inkscape:version="1.0.1 (3bc2e813f5, 2020-09-07)"><metadata
     id="metadata839"><rdf:RDF><cc:Work
         rdf:about=""><dc:format>image/svg+xml</dc:format><dc:type
           rdf:resource="http://purl.org/dc/dcmitype/StillImage" /><dc:title></dc:title></cc:Work></rdf:RDF></metadata><defs
     id="defs837"><clipPath
       clipPathUnits="userSpaceOnUse"
       id="clipPath933"><path
         d="m 14640.2,5421.8 c 3.7,23.9 6.7,48.5 8.4,72.1 -1.7,-23.6 -4.7,-48.2 -8.4,-72.1 v 0 m 8.4,72.2 c 0,0.4 0,0.8 0.1,1.2 -0.1,-0.4 -0.1,-0.8 -0.1,-1.2 m 0.1,1.5 c 0,0.2 0,0.4 0,0.6 0,-0.2 0,-0.4 0,-0.6 m 0.1,1 c 0,0.1 0,0.2 0,0.3 0,-0.1 0,-0.2 0,-0.3 m 0,0.7 c 0,0.1 0,0.2 0,0.3 0,-0.1 0,-0.2 0,-0.3 m 0.1,0.8 c 0,0.1 0,0.1 0,0.1 0,0 0,0 0,-0.1 m -1.7,74.5 c 0,0.1 0,0.1 0,0.1 0,0 0,0 0,-0.1 m -0.1,0.6 v 0.1 -0.1 m 262.3,6.1 -4.5,29.1 4.5,-29.1 v 0"
         id="path931" /></clipPath></defs><sodipodi:namedview
     pagecolor="#ffffff"
     bordercolor="#666666"
     borderopacity="1"
     objecttolerance="10"
     gridtolerance="10"
     guidetolerance="10"
     inkscape:pageopacity="0"
     inkscape:pageshadow="2"
     inkscape:window-width="1920"
     inkscape:window-height="1017"
     id="namedview835"
     showgrid="false"
     inkscape:zoom="0.31874999"
     inkscape:cx="1151.8779"
     inkscape:cy="1994.71"
     inkscape:window-x="-8"
     inkscape:window-y="-8"
     inkscape:window-maximized="1"
     inkscape:current-layer="g843" /><g
     id="g841"
     inkscape:groupmode="layer"
     inkscape:label="ink_ext_XXXXXX"
     transform="matrix(1.3333333,0,0,-1.3333333,0,2666.6667)"><g
       id="g843"
       transform="scale(0.1)"><path
         d="M 0,0 H 23010 V 20000 H 0 Z"
         style="fill:#000000;fill-opacity:0;fill-rule:nonzero;stroke:none"
         id="path845" /><path
         d="m 20377.7,14485.8 c -405.6,-329.7 -981.9,-695.6 -1456.5,-853.1 l 705.1,-132.8 -2912.6,-3434.5 -5805.2,-1670.7 -6869.89,-7326.4 5411.61,1.9 2757.38,4427 5524.4,3282.2 2145.6,4572.2 457,-553.2 c -91.4,491.6 -49.5,1173 43.1,1687.4"
         style="fill:#f7cc7f;fill-opacity:1;fill-rule:nonzero;stroke:none"
         id="path847" /><path
         d="m 3110.85,6729.8 c 0,0 -314.64,564 -391.19,683.9 -76.55,119.8 -275.96,596.2 -283.09,615 -7.12,18.8 137.33,244.2 105.09,251.9 -32.25,7.8 -67.93,-118.8 -102.33,-103.7 -34.4,15.1 -134.89,319.9 -154.5,304.7 -36.68,-28.2 54.17,-189 34.62,-199.1 -19.56,-10.1 -78.79,176.8 -117.19,171.3 -38.4,-5.5 73.03,-171.3 62.29,-186 -10.74,-14.6 -126.42,141.6 -147.35,108.3 -11.37,-18.1 106.36,-136.4 83.75,-147.5 -22.61,-11.1 -127.34,65.3 -138.43,43.3 -11.09,-22 96.86,-52.2 129.14,-111.6 32.27,-59.4 87.24,-85 110.07,-195 22.84,-110 56.95,-507.9 173.89,-706.5 116.93,-198.5 374.09,-638 374.09,-638 l 261.14,109"
         style="fill:#fbcec8;fill-opacity:1;fill-rule:nonzero;stroke:none"
         id="path849" /><path
         d="m 3023.76,6912.6 c 0,0 348.04,-375.1 399.78,-526.3 51.75,-151.2 -50.43,-367.4 -191.55,-376.9 -141.12,-9.4 -455.16,665.8 -455.16,665.8 l 246.93,237.4"
         style="fill:#355389;fill-opacity:1;fill-rule:nonzero;stroke:none"
         id="path851" /><path
         d="m 4663.14,4196.9 c -25.33,21.2 -55.95,11.6 -143.88,52.3 -17.04,7.9 -61.81,20.4 -81.87,24.4 -3.76,0.8 -6.74,3.6 -7.72,7.3 -26.73,101.2 -143.81,568.7 -156.66,703.5 -13.14,137.9 -102.06,722.4 -115.62,811.3 -0.93,6 -6.93,9.9 -12.82,8.2 l -255.47,-71.2 c -5.23,-1.5 -8.41,-6.8 -7.21,-12.1 15.78,-69.6 113.97,-507.1 142.81,-728.5 23,-176.5 285.93,-742.7 291.2,-778.9 l 0.15,-1 c 1.59,-10.9 10.92,-19 21.93,-19 64.87,0 272.83,0.1 284.69,0 10.82,-0.1 48.39,-2.9 40.47,3.7"
         style="fill:#f9bfb7;fill-opacity:1;fill-rule:nonzero;stroke:none"
         id="path853" /><path
         d="m 4094.31,6047.9 c -135.94,412.4 -287.96,394.8 -287.96,394.8 l 117.56,-866.9 c 83.95,22.9 193.25,74 277.11,97.7 -27.81,130.4 -73.23,272.9 -106.71,374.4"
         style="fill:#13375b;fill-opacity:1;fill-rule:nonzero;stroke:none"
         id="path855" /><path
         d="m 4052.1,7120.2 c -41.61,271.2 -286.97,466.2 -543.58,334.6 -57.71,-29.5 -135.85,-89.6 -175.71,-140.8 -107.76,-138.3 -135.32,-309.1 -246.64,-443.4 40.89,-31 90.34,-63.5 149.23,-94.8 l 69.31,92.4 -23.86,-115.3 c 172.27,-82.4 415.57,-150.4 748.33,-148.5 41.82,188.4 45.11,371.2 22.92,515.8"
         style="fill:#fadfae;fill-opacity:1;fill-rule:nonzero;stroke:none"
         id="path857" /><path
         d="m 4132.1,1108.5 c -39.17,28.8 -70.77,47.9 -195.86,108.6 -8.16,3.9 -37.87,22.9 -48.58,29.4 -27.16,16.6 -54.44,42.8 -77.92,69 -22.42,25 -33.11,105.2 -38.15,169.1 12.87,142.8 219.74,2432.4 263.37,2680.3 45.04,255.8 -23.56,646.1 -23.56,646.1 l -159.7,60.2 -303.16,-1050.7 23.9,-799.9 c 0,0 -71.29,-230.5 -80.29,-368.3 -9.02,-137.8 103.05,-1256.1 103.05,-1256.1 h 0.01 c 0,-40 -1.57,-76.1 -6.02,-98.7 -8.22,-41.8 -54.04,-127.9 -33.03,-167.3 21.02,-39.4 45.05,-49.2 45.05,-49.2 l 544.75,-8.8 c 29.67,-0.5 10.07,18.6 -13.86,36.3"
         style="fill:#f9bfb7;fill-opacity:1;fill-rule:nonzero;stroke:none"
         id="path859" /><path
         d="m 3305.32,4893.1 c 0,0 -189.16,-285.4 -234.2,-521.6 -45.05,-236.1 33.05,-961.9 -53.59,-1271.4 -46.9,-167.6 -224.66,-426.3 -251.69,-642.8 C 2738.82,2240.8 2644.79,1616 2644.79,1616 h 0.01 c -14.22,-65.6 -36.51,-146.8 -65.43,-184.5 -17.71,-23.1 -50.05,-52.3 -71.28,-94 -33.05,-65 -14.78,-161.7 9.6,-214.9 12.51,-27.3 -0.89,-27.3 27.61,-36.1 84.37,-26.1 174.13,17.9 210.05,98.9 20.07,45.2 37.68,105.6 41.21,181.6 3.75,80.6 16.36,144.7 29.8,192 l 604.66,1483.3 437.75,1280.1 112.14,659.3 -675.59,-88.6"
         style="fill:#fac5ba;fill-opacity:1;fill-rule:nonzero;stroke:none"
         id="path861" /><path
         d="m 2771.71,1228 c -130.87,-24 -217.95,52.8 -263.26,110.2 -33.26,-65.1 -49.49,-162.2 -25.02,-215.6 21.55,-47.1 84.52,-45.7 134.11,-47.6 52.43,-1.9 92.99,27.2 119,73 12.15,21.4 24.68,48 35.17,80"
         style="fill:#86b1f2;fill-opacity:1;fill-rule:nonzero;stroke:none"
         id="path863" /><path
         d="m 3887.59,1246.6 c -144.07,-37.1 -250.57,-11.9 -310.14,12.2 -15.37,-43.7 -35.74,-98.4 -24.93,-130 13.22,-38.6 32.06,-47.4 48.69,-47.8 131.59,-3.5 482.03,-8.2 582.37,-9.5 14.01,-0.2 21.74,16.2 12.73,27 -24.88,29.8 -297.99,141.5 -308.72,148.1"
         style="fill:#86b1f2;fill-opacity:1;fill-rule:nonzero;stroke:none"
         id="path865" /><path
         d="m 3427.99,3039.4 c 11.31,-0.8 22.69,-1.5 34.13,-2.2 l 1.77,-0.1 c 11.22,-0.7 22.49,-1.3 33.81,-1.9 l 2.05,-0.1 c 11.32,-0.6 22.69,-1.2 34.06,-1.7 h 1.75 c 11.58,-0.5 23.18,-1 34.77,-1.3 129.13,-4.3 288.63,-2.6 390.96,14.8 52.18,522.3 71.61,998.9 90.93,1104.4 46.83,255.9 -40.82,659.7 -40.82,659.7 l -41.84,7.5 26.45,149.6 -702.55,-88.6 c 0,0 -196.71,-285.4 -243.55,-521.5 -46.84,-236.2 34.38,-962 -55.72,-1271.5 0,0 200.57,-31.3 433.8,-47.1"
         style="fill:#f7cc7f;fill-opacity:1;fill-rule:nonzero;stroke:none"
         id="path867" /><path
         d="m 3458.46,6516.8 c 0,0 -250.47,16 -349.55,-92.3 -99.09,-108.2 219.8,-964.5 237.82,-1102.3 18.02,-137.7 -91.85,-504.1 -91.85,-504.1 0,0 588.37,-118.6 756.52,-7.1 0,0 18.02,990.7 0,1089.1 -18.02,98.4 -168.15,498.6 -204.19,538 -36.03,39.3 -348.75,78.7 -348.75,78.7"
         style="fill:#355389;fill-opacity:1;fill-rule:nonzero;stroke:none"
         id="path869" /><path
         d="m 3541.84,6852.2 c 0,0 -1.3,-7.4 -3.63,-20 -11.16,-60.3 -54.17,-260.5 -83.22,-315.6 -35.11,-66.5 120.19,-278.6 269.66,-252.7 44.5,7.7 -37.6,194.9 -33.66,214.7 7.55,38 17.8,89.8 28.28,142.9 5.91,29.9 11.9,60.3 17.52,88.8 15.99,81.2 29.03,147.5 29.03,147.5 l -223.98,-5.6"
         style="fill:#fac5ba;fill-opacity:1;fill-rule:nonzero;stroke:none"
         id="path871" /><path
         d="m 3538.21,6832.2 c 2.33,12.6 3.63,20 3.63,20 l 223.98,5.6 c 0,0 -13.04,-66.3 -29.03,-147.5 -5.59,-28.3 -11.54,-58.5 -17.42,-88.3 -34.58,5.1 -70.72,21.9 -106.95,53.7 -39.5,34.7 -65.38,76.3 -81,120.8 2.76,14.1 5.06,26.4 6.79,35.7"
         style="fill:#f8a08d;fill-opacity:1;fill-rule:nonzero;stroke:none"
         id="path873" /><path
         d="m 3692.59,7362.5 c 0,0 -105.57,12.2 -171.75,-73.6 -66.18,-85.8 -137.5,-351 26.89,-495.3 164.39,-144.2 326.82,19.1 350.9,192.2 24.08,173.1 33.44,382.9 -206.04,376.7"
         style="fill:#fac5ba;fill-opacity:1;fill-rule:nonzero;stroke:none"
         id="path875" /><path
         d="m 3947.26,6988.3 c -19.62,-38.2 -52.56,-59.4 -73.56,-47.3 -21.01,12.1 -22.14,53 -2.51,91.2 19.62,38.2 52.56,59.4 73.56,47.3 21.01,-12.1 22.13,-53 2.51,-91.2"
         style="fill:#fac5ba;fill-opacity:1;fill-rule:nonzero;stroke:none"
         id="path877" /><path
         d="m 3704.39,7390.8 c 0,0 -141.04,-252.2 -241.93,-263.9 -100.9,-11.6 -114.15,-145.7 -114.15,-145.7 0,0 36.07,308.9 135.96,368.5 99.89,59.5 220.12,41.1 220.12,41.1"
         style="fill:#fadfae;fill-opacity:1;fill-rule:nonzero;stroke:none"
         id="path879" /><path
         d="m 3488.92,7063.5 c 8.2,-44.8 -8.3,-85.9 -36.87,-91.7 -28.56,-5.9 -58.37,25.6 -66.57,70.4 -8.21,44.8 8.29,85.9 36.86,91.8 28.56,5.9 58.37,-25.7 66.58,-70.5"
         style="fill:#fac5ba;fill-opacity:1;fill-rule:nonzero;stroke:none"
         id="path881" /><path
         d="m 3613.19,6900.8 152.63,-30 c 0,0 -14.92,-57.3 -82.42,-46 -82.31,13.7 -70.21,76 -70.21,76"
         style="fill:#ffffff;fill-opacity:1;fill-rule:nonzero;stroke:none"
         id="path883" /><path
         d="m 16186.4,1052.9 62.6,11.8 -270.4,1434.3 -62.6,-11.9 270.4,-1434.2"
         style="fill:#3c8f7c;fill-opacity:1;fill-rule:nonzero;stroke:none"
         id="path885" /><path
         d="m 13291.5,1046.4 h -75.2 l 280.5,1452.6 62.5,-11.9 -267.8,-1440.7"
         style="fill:#3c8f7c;fill-opacity:1;fill-rule:nonzero;stroke:none"
         id="path887" /><path
         d="m 15489,1046.4 h -75.2 l 280.5,1452.6 62.5,-11.9 -267.8,-1440.7"
         style="fill:#3c8f7c;fill-opacity:1;fill-rule:nonzero;stroke:none"
         id="path889" /><path
         d="m 13977.4,1046.4 61.1,-0.8 -269,1446.9 -62.5,-11.9 270.4,-1434.2"
         style="fill:#184655;fill-opacity:1;fill-rule:nonzero;stroke:none"
         id="path891" /><path
         d="m 15060.5,5647.1 c 334.1,-35.8 766.5,-73.5 1200.6,-810.2 474.4,-805.1 224.7,-2007.7 -149.8,-2341.9 -374.4,-334.2 -1597.4,-746.8 -2625.5,-129 0,0 -620.7,374.3 -302.1,995.6 490.2,956.1 421,1155.5 640.2,1530.2 219.2,374.7 527.4,831.2 1236.6,755.3"
         style="fill:#f47458;fill-opacity:1;fill-rule:nonzero;stroke:none"
         id="path893" /><path
         d="m 16261.1,4836.9 c -296.3,502.8 -591.8,680 -855.7,753.2 102.1,-105.7 205.6,-241.6 309.2,-417.5 474.4,-805.1 224.7,-2007.7 -149.8,-2341.9 -332,-296.3 -1331.4,-654.3 -2270.4,-300.7 96.6,-106.8 191.4,-164 191.4,-164 1028.1,-617.8 2251.1,-205.2 2625.5,129 374.5,334.2 624.2,1536.8 149.8,2341.9"
         style="fill:#b75742;fill-opacity:1;fill-rule:nonzero;stroke:none"
         id="path895" /><path
         d="m 13987.8,4423.4 -85.9,-257.7 261.8,103 z"
         style="fill:#f79c8d;fill-opacity:1;fill-rule:nonzero;stroke:none"
         id="path897" /><path
         d="m 14257.6,5190.1 c -17.4,-0.8 -65.2,-16.7 -135.2,-148.4 -89.2,-168.2 -219.7,-676.2 -219.7,-676.2 l 389.5,-144.5 50,106 82.4,816.3 c 0,0 -162.1,47 -167,46.8"
         style="fill:#6394db;fill-opacity:1;fill-rule:nonzero;stroke:none"
         id="path899" /><path
         d="m 14772.5,5263.3 c -111.4,-0.2 -387,-32.6 -514.9,-73.3 0,0 -93.9,-804.9 84.6,-1416.5 40,-136.9 -33,-567.6 -33,-567.6 l 1154.1,15.2 c 0,0 -136.7,1041.1 -85.2,1209.3 51.5,168.1 52.8,754.2 52.8,754.2 0,0 -8,1.2 -259.4,44.5 -117.2,20.2 -280.1,34.3 -399,34.2"
         style="fill:#86b1f2;fill-opacity:1;fill-rule:nonzero;stroke:none"
         id="path901" /><path
         d="m 14907,1712 c 0,0 -25.5,-293.7 -72.5,-375.1 -46.9,-81.3 2.5,-219.6 5,-238.6 2.4,-18.9 98.8,-46.1 252,-29.8 153.2,16.3 150.7,51.5 138.4,108.5 -12.4,56.9 -93.9,130.1 -98.9,184.3 -4.9,54.2 47,249.4 47,249.4 l -271,101.3"
         style="fill:#f7a491;fill-opacity:1;fill-rule:nonzero;stroke:none"
         id="path903" /><path
         d="m 14439.4,3448.3 c 0,0 -796.8,44.1 -974.7,-63.3 -177.9,-107.3 32.2,-327.9 32.2,-327.9 0,0 648.6,-281 1734.5,-343.5 257.2,-14.8 279.3,668.2 231.3,724.8 -48.1,56.5 -1023.3,9.9 -1023.3,9.9"
         style="fill:#e5b05c;fill-opacity:1;fill-rule:nonzero;stroke:none"
         id="path905" /><path
         d="m 15110.6,1045.7 c 157.8,16.8 138.2,94 125.5,152.6 -7.9,36.7 -53.2,80 -80.2,120.9 -14.1,-11.2 -37,-30.9 -105.5,-51.1 -71.2,-20.9 -168.7,20.5 -230.8,46.5 -22.2,-82.2 -23.2,-186.9 -21.1,-202.8 2.5,-19.6 154.4,-82.8 312.1,-66.1"
         style="fill:#f47458;fill-opacity:1;fill-rule:nonzero;stroke:none"
         id="path907" /><path
         d="m 15023.5,2880.3 c -31.8,-240.1 -189.4,-1435.1 -189.4,-1435.1 l 365.7,-45.2 c 0,0 449.7,1559.8 426.6,1798.4 -23,238.6 -191.4,258.6 -191.4,258.6 0,0 -327.2,58.7 -411.5,-576.7"
         style="fill:#f7cc7f;fill-opacity:1;fill-rule:nonzero;stroke:none"
         id="path909" /><path
         d="m 15443.4,5095.1 c -107.9,40.4 -160.7,-928.7 -175.2,-1327.5 -191.1,-18.3 -524.2,-0.1 -607.2,6.1 -39,2.9 -128.9,35.7 -167.7,40.8 -39.8,5.2 -75.8,7.9 -95.3,4.5 -7.2,-1.3 -206.4,-82.5 -223.4,-100.3 -21.2,-22 -78.3,-77.7 -68.7,-101.8 9.7,-24.1 109.9,67.1 109.9,67.1 l 49,27.4 c -61,-59.4 -177.3,-137.6 -160.6,-166.1 16.4,-27.7 121.3,51.6 196.1,105.7 -64.1,-57.7 -143.8,-161 -125.5,-177.2 16.5,-14.4 107.2,105.2 204,139.6 35.9,12.8 71.7,-22.6 99.9,-26.8 20.8,-3.2 52.8,-9.8 73.2,-4.1 l 104.9,29.7 c 35.7,-3.3 36.6,-24.3 72.7,-32 41.9,-8.9 110.6,-18.2 163.9,-31.2 307.2,-74.8 409.6,-109.5 503.7,-109.5 284.8,0.2 301.4,1560.3 46.3,1655.6"
         style="fill:#f7a491;fill-opacity:1;fill-rule:nonzero;stroke:none"
         id="path911" /><path
         d="m 15648.2,4185.4 c 20.2,408.5 17.3,912.1 -212.5,998 -90.7,33.9 -250.6,-169.9 -221.8,-1006.3 122.7,-10.1 302.8,-18.2 434.3,8.3"
         style="fill:#86b1f2;fill-opacity:1;fill-rule:nonzero;stroke:none"
         id="path913" /><path
         d="m 13837.6,1460.7 c 0,0 31.9,-101.9 -25.2,-169.4 -57.1,-67.4 -294.5,-133.5 -325.7,-170.1 -31.2,-36.5 -28.8,-67.6 -28.8,-67.6 l 666.3,18.3 -7.2,200.6 -30.7,144.1 -248.7,44.1"
         style="fill:#f7a491;fill-opacity:1;fill-rule:nonzero;stroke:none"
         id="path915" /><path
         d="m 13771,1257.7 c 0,0 171.2,-69 253.9,-28.1 82.7,40.8 80.2,52.1 104.1,36.9 24,-15.2 32.5,-220.1 32.5,-220.1 l -749.3,-5.1 c -52.1,1.2 -78.5,39.5 -36.1,72.2 29,22.5 62.6,37.5 81.7,48.5 58.6,33.4 313.2,95.7 313.2,95.7"
         style="fill:#f47458;fill-opacity:1;fill-rule:nonzero;stroke:none"
         id="path917" /><path
         d="m 13862.9,3260.1 c -51.5,108 -168.6,248.7 -374.7,164 -196.6,-80.8 -249.4,-279.4 -187.4,-482.7 62.1,-203.3 470.4,-1398.5 484.6,-1562.8 l 326,-2.1 c 0,0 -59.3,946.3 -73.8,1175.1 -14,220.1 -85.6,521.6 -174.7,708.5"
         style="fill:#f7cc7f;fill-opacity:1;fill-rule:nonzero;stroke:none"
         id="path919" /><path
         d="m 13333.7,4360.9 h 1089.7 c 28.8,0 54.8,-17.4 65.7,-44.1 l 335.6,-818.3 h 600.7 c 16.8,0 30.5,-13.6 30.5,-30.4 0,-16.8 -13.7,-30.4 -30.5,-30.4 h -1709.8 c -47,0 -89.6,27.6 -108.9,70.5 l -337.9,752.6 c -21.1,47 13.3,100.1 64.9,100.1"
         style="fill:#355389;fill-opacity:1;fill-rule:nonzero;stroke:none"
         id="path921" /><path
         d="m 13920.4,3884.4 c 7.3,-36.8 39.4,-61.4 71.6,-54.9 32.2,6.4 52.3,41.4 45,78.2 -7.4,36.8 -39.5,61.3 -71.7,54.9 -32.2,-6.4 -52.3,-41.5 -44.9,-78.2"
         style="fill:#ffffff;fill-opacity:1;fill-rule:nonzero;stroke:none"
         id="path923" /><path
         d="m 14904.9,5608.3 53.4,-351.4 c 0,0 -194.8,-418.4 -311,-382.1 -97.5,30.4 -37.5,400.6 -37.5,400.6 0,0 53.1,198.9 37.2,298.4 -15.9,99.5 257.9,34.5 257.9,34.5"
         style="fill:#f7a491;fill-opacity:1;fill-rule:nonzero;stroke:none"
         id="path925" /><g
         id="g927"><g
           id="g929"
           clip-path="url(#clipPath933)"><path
             d="m 14640.2,5421.8 h 269.199 v 186.5 H 14640.2 Z"
             style="fill:#f47458;fill-opacity:1;fill-rule:nonzero;stroke:none"
             id="path935" /></g></g><path
         d="m 14640.2,5421.8 c 3.7,23.9 6.7,48.5 8.4,72.1 0,0.1 0,0.1 0,0.1 0,0.4 0,0.8 0.1,1.2 0,0.1 0,0.2 0,0.3 0,0.2 0,0.4 0,0.6 0,0.1 0.1,0.3 0.1,0.4 0,0.1 0,0.2 0,0.3 0,0.1 0,0.3 0,0.4 0,0.1 0,0.2 0,0.3 0,0.2 0,0.3 0.1,0.5 0,0.1 0,0.1 0,0.1 1.7,27.3 1.6,53.1 -1.7,74.4 0,0.1 0,0.1 0,0.1 -0.1,0.2 -0.1,0.4 -0.1,0.5 v 0.1 c -0.1,0.2 -0.1,0.4 -0.1,0.6 v 0 c -0.5,2.8 -0.7,5.6 -0.7,8.2 0.1,36.5 45.1,47.1 97.5,47.1 73.3,0 161.1,-20.8 161.1,-20.8 v 0 l 4.5,-29.1 c -8.1,-19.5 -17.9,-36.2 -29.7,-49 -61.2,-65.8 -156.8,-105.4 -239.5,-108.4"
         style="fill:#f69a86;fill-opacity:1;fill-rule:nonzero;stroke:none"
         id="path937" /><path
         d="m 14949.9,6105.5 c 7.7,2.8 62,-400.3 -41,-511.2 -103.1,-110.9 -303.9,-147.2 -375.9,-59.8 -79.7,96.6 -75.7,529.8 84.6,643.9 160.2,114.1 332.3,-72.9 332.3,-72.9"
         style="fill:#f7a491;fill-opacity:1;fill-rule:nonzero;stroke:none"
         id="path939" /><path
         d="m 14678.6,6394 c 123.8,-25.3 204,-101 233.5,-133.2 56.2,-6.7 132.7,-37.7 211.6,-168.4 97.1,-160.7 25.4,-338.7 -87.6,-426.1 -113,-87.3 -111.4,-188.2 -111.4,-188.2 l -17.9,52.2 c -13.1,39.5 -18.5,81.4 -14.1,122.9 2.6,24.9 8,51.8 18.3,73.9 27.1,58.3 -58.4,97.1 -82.4,145.6 -18.5,37.4 -19.4,122.9 -48.4,184.6 l -34.8,47.2 c 0,0 -80.2,62.4 -158.6,44.8 -78.4,-17.6 -67.2,277.1 91.8,244.7"
         style="fill:#f14414;fill-opacity:1;fill-rule:nonzero;stroke:none"
         id="path941" /><path
         d="m 14833.9,5801 c -0.8,-49.2 21.5,-89.4 49.9,-89.9 28.4,-0.5 52.1,39 52.9,88.1 0.8,49.2 -21.5,89.5 -49.9,90 -28.4,0.4 -52.1,-39 -52.9,-88.2"
         style="fill:#f7a491;fill-opacity:1;fill-rule:nonzero;stroke:none"
         id="path943" /><path
         d="m 14694.7,5664.7 -155.3,8 c 0,0 0.5,-59.2 68.7,-64.7 83.2,-6.7 86.6,56.7 86.6,56.7"
         style="fill:#ffffff;fill-opacity:1;fill-rule:nonzero;stroke:none"
         id="path945" /><path
         d="m 17789.5,7623.8 c 16.9,-69.7 47.5,-179.7 47.5,-179.7 -2.4,-30.3 -11.4,-156.2 -22,-310.5 l 226.9,90.8 c 0,0 -2.8,251.4 7.4,266.8 8.5,13 22.9,-3.2 92.4,96.3 20.1,28.7 23.9,80 23.9,80 0,0 4.1,63.2 -10.1,69.1 -14.2,5.9 -30.4,-3.6 -35.6,-14.5 -5.1,-10.9 -3.8,-36.3 -8.9,-47.2 -5.2,-11 -38,-24.1 -51.8,-23.4 -13.8,0.6 1.7,186.8 1.7,186.8 0,0 7.8,52.8 11.7,70.1 3.3,14.7 16.7,57.9 16.7,57.9 0,0 15.7,62.6 -3.7,67.4 -11.5,2.8 -40.7,-48.1 -60.7,-102.1 -21.6,-58.2 -33.8,-119.9 -40,-119 -14.5,1.9 -6.8,104 -6.8,104 0,0 14.4,46.7 14.1,68.8 13.6,27 22.6,77.2 -1.4,81.3 -4.4,0.8 -36,-62.9 -36,-62.9 0,0 -12.5,-44.9 -19.7,-65.8 -12.8,-37 -14.7,-95.4 -21.4,-121.1 -5.5,-21.5 -10.5,-12.7 -12.8,-13.6 -1.8,-0.6 1.3,28.9 4.8,69.5 1.8,20.5 -0.5,44 5.2,67.3 5.3,21.6 8.3,52.5 9.7,71.1 3.9,52.8 -29.4,47.4 -40.9,-0.9 -4.3,-18.3 -8.9,-38.4 -13.5,-58.8 -17.9,-79.1 -17.4,-155.3 -25.9,-156 -11.1,-0.8 -3.8,138 -3.8,138 0,0 -17,76.9 -33.9,5.6 -19.6,-82.8 -17.5,-150.3 -17.2,-153.3 1.7,-20.2 -12.9,-92.4 4.1,-162"
         style="fill:#f8a492;fill-opacity:1;fill-rule:nonzero;stroke:none"
         id="path947" /><path
         d="m 20197.2,7807.2 c -17,-69.6 -47.5,-179.7 -47.5,-179.7 2.4,-30.2 11.3,-156.1 22,-310.5 l -226.9,90.8 c 0,0 2.7,251.5 -7.4,266.9 -8.6,13 -22.9,-3.3 -92.5,96.2 -20,28.8 -23.8,80.1 -23.8,80.1 0,0 -4.1,63.1 10.1,69 14.1,5.9 30.4,-3.5 35.5,-14.4 5.2,-11 3.8,-36.4 9,-47.3 5.1,-10.9 37.9,-24.1 51.8,-23.4 13.8,0.7 -1.8,186.9 -1.8,186.9 0,0 -7.7,52.7 -11.6,70 -3.3,14.7 -16.7,57.9 -16.7,57.9 0,0 -15.8,62.7 3.7,67.5 11.4,2.8 40.7,-48.1 60.7,-102.1 21.6,-58.2 33.8,-119.9 40,-119.1 14.5,2 6.8,104 6.8,104 0,0 -14.5,46.8 -14.1,68.8 -13.6,27.1 -22.7,77.2 1.3,81.4 4.5,0.7 36.1,-63 36.1,-63 0,0 12.4,-44.8 19.7,-65.8 12.7,-37 14.7,-95.3 21.3,-121.1 5.6,-21.4 10.6,-12.6 12.9,-13.5 1.8,-0.7 -1.3,28.8 -4.9,69.4 -1.7,20.5 0.6,44.1 -5.1,67.4 -5.3,21.6 -8.4,52.4 -9.7,71.1 -3.9,52.8 29.3,47.4 40.8,-0.9 4.4,-18.4 9,-38.4 13.6,-58.8 17.8,-79.1 17.3,-155.4 25.9,-156 11,-0.8 3.7,138 3.7,138 0,0 17,76.8 33.9,5.5 19.6,-82.7 17.6,-150.2 17.3,-153.2 -1.8,-20.2 12.8,-92.4 -4.1,-162.1"
         style="fill:#f8a492;fill-opacity:1;fill-rule:nonzero;stroke:none"
         id="path949" /><path
         d="m 19576.7,1890.4 c 0,0 125.8,-156 157.1,-175.2 31.3,-19.2 -14,-245.7 -99.3,-260.6 -48.1,-8.4 -74.9,44.6 -74.9,44.6 l 13.8,65.2 -179.7,185.2 183,140.8"
         style="fill:#f7a491;fill-opacity:1;fill-rule:nonzero;stroke:none"
         id="path951" /><path
         d="m 18928.7,1851.8 c 0,0 104.9,-170.7 133.5,-193.7 28.6,-23.1 -45.3,-242 -131.8,-245.8 -48.8,-2.2 -68.6,53.7 -68.6,53.7 l 22.1,63 -154.6,206.6 199.4,116.2"
         style="fill:#f7a491;fill-opacity:1;fill-rule:nonzero;stroke:none"
         id="path953" /><path
         d="m 19055.9,1664.8 c 0,0 -60.2,-76.8 -93.1,-107.4 -42.4,-39.4 -96.7,-78 -96.7,-78 0,0 -61.5,-111.6 -78.3,-150.6 -37.5,-86.7 -79.5,-183.4 -73.4,-231.9 1.9,-15.6 36.9,-32.1 66.1,-23.2 121.5,37.4 432.1,321.6 471.4,397.9 45.2,87.9 -196,193.2 -196,193.2"
         style="fill:#13375b;fill-opacity:1;fill-rule:nonzero;stroke:none"
         id="path955" /><path
         d="m 18169.2,4265.2 c 11.3,31.6 22.1,60.8 32.5,88.3 129.3,-28.2 275.2,-59.2 425.4,-91.2 l 18.3,-550.4 c -0.1,42.5 -112.9,-877.7 -112.9,-877.7 0,0 291.7,-646 491.3,-1022.4 -81.9,-102.2 -120.4,-135.2 -238.9,-204.8 -309.8,371.3 -715.2,1050.8 -732,1163.8 -9.7,65 -18.4,1115.5 116.3,1494.4"
         style="fill:#3c8f7c;fill-opacity:1;fill-rule:nonzero;stroke:none"
         id="path957" /><path
         d="m 19322.5,4106.1 c -39.5,-428.9 -127.2,-1248.6 -119.9,-1314.6 22,-82.2 412.5,-840.8 482.8,-951.2 -55.8,-84.1 -142.2,-174.9 -235.1,-200 -18.3,-5 -662.7,912.1 -697.9,984.8 -39.7,82.3 -105.9,531.2 -107,1086.8 l -18.3,550.4 c 250.1,-53.4 480.1,-105.7 695.4,-156.2"
         style="fill:#50bfa5;fill-opacity:1;fill-rule:nonzero;stroke:none"
         id="path959" /><path
         d="m 18501,6060.8 294.5,-40.4 c 0,0 235.6,-4.3 264.8,-4.3 29.2,0 214.6,-1075.7 268.2,-1479.9 53.5,-404.3 12,-475.8 12,-475.8 0,0 -373.3,-84 -649.5,-59.5 -287.3,25.4 -610.4,180.5 -610.4,180.5 0,0 245.5,776.8 294.2,1019.4 48.6,242.5 126.2,860 126.2,860"
         style="fill:#355389;fill-opacity:1;fill-rule:nonzero;stroke:none"
         id="path961" /><path
         d="m 17787,7362 c 0,0 -18.9,-800.9 11.3,-862.1 44,-89.1 538.4,-721 538.4,-721 0,0 -236.2,-988.5 -335.5,-1329.8 -10,-34.4 -54.3,-256.4 -54.3,-278.1 0,-48 209,-108.9 233.8,-105.3 22.2,3.3 204.5,943.5 320.9,1403.6 39.4,155.9 107.1,303.2 199.7,434.8 l 80.9,115 -621.2,622.6 c 0,0 -76.5,693 -76.5,750.4 0,15.1 -267.3,26.4 -297.5,-30.1"
         style="fill:#86b1f2;fill-opacity:1;fill-rule:nonzero;stroke:none"
         id="path963" /><path
         d="m 19050.1,6016 774.6,789.3 c 0,0 107.9,746.4 115.6,774.5 7.5,27.6 199.9,42.5 277.4,50.1 24.9,2.4 -13,-795 -50.1,-928.6 -43.8,-157.9 -629.3,-877.4 -629.3,-877.4 0,0 -104.9,-389.6 -79.6,-675.4 41.9,-474.8 155.1,-1127.8 134.8,-1148.3 -125.9,-79.3 -609,-87.8 -639.6,-38.5 -337.7,543.8 96.2,2054.3 96.2,2054.3"
         style="fill:#86b1f2;fill-opacity:1;fill-rule:nonzero;stroke:none"
         id="path965" /><path
         d="m 19726.7,1721.1 c 0,0 -49.9,-83.9 -78.6,-118.4 -37,-44.5 -86,-89.7 -86,-89.7 0,0 -46.7,-118.6 -58.4,-159.4 -26,-90.8 -55.5,-200.4 -43.2,-247.8 3.9,-15.2 37.3,-44.2 64.9,-26.3 106.6,69.4 391.2,394.3 420.4,475 33.6,93 -219.1,166.6 -219.1,166.6"
         style="fill:#13375b;fill-opacity:1;fill-rule:nonzero;stroke:none"
         id="path967" /><path
         d="m 18817.2,7044.4 c 33,-1.2 65.9,-0.9 98.8,2 37.1,3.3 84.5,5.6 111.7,-0.1 57.3,-12.1 148.2,-52.7 178.5,-127.8 37.8,-93.6 172.9,-79.6 12.8,-434.4 -181.1,-401.6 -392.9,-270.1 -395.8,-261.1 -2.9,9.1 -104.7,340.2 -104.7,340.2 0,0 -126.6,-125.6 -124.5,-120 2,5.4 -172.5,615.5 223.2,601.2"
         style="fill:#0e2e35;fill-opacity:1;fill-rule:nonzero;stroke:none"
         id="path969" /><path
         d="m 18799.5,6166.2 -21.1,-157.1 c 0,0 -47.3,-226.4 13.5,-270 60.8,-43.7 258.7,276.4 258.7,276.4 l -20.9,398.2 -230.2,-247.5"
         style="fill:#f7a491;fill-opacity:1;fill-rule:nonzero;stroke:none"
         id="path971" /><path
         d="m 19036.4,6284.6 c -50.2,-135.8 -169.9,-219.2 -254.8,-251.6 l 17.9,133.2 230.2,247.5 6.7,-129.1"
         style="fill:#f47458;fill-opacity:1;fill-rule:nonzero;stroke:none"
         id="path973" /><path
         d="m 18960.9,6863.9 c -113.3,65 -258,8.9 -300.6,-113 -18.5,-53 -38.9,-120.1 -54.6,-194.8 -37.9,-179.6 21.5,-372.7 103.1,-388.2 81.6,-15.6 329.4,58.1 386.7,312.4 35.3,157 -15.8,315.5 -134.6,383.6"
         style="fill:#f7a491;fill-opacity:1;fill-rule:nonzero;stroke:none"
         id="path975" /><path
         d="m 19031.5,6471.5 c -7.6,-39.7 12.5,-77 44.9,-83.2 32.4,-6.1 64.8,21.1 72.4,60.9 7.7,39.7 -12.4,76.9 -44.8,83.1 -32.4,6.2 -64.9,-21 -72.5,-60.8"
         style="fill:#f7a491;fill-opacity:1;fill-rule:nonzero;stroke:none"
         id="path977" /><path
         d="m 19104,6532.3 c 0,0 -101.3,11.9 -113.2,84.4 -11.8,72.5 -86.2,247.4 -262.4,253 -176.2,5.7 186.3,77.7 198.8,73 12.5,-4.8 162.7,-60.3 162.7,-60.3 0,0 79.7,-138.6 79.9,-150.6 0.2,-12.1 -9.4,-138.5 -9.4,-138.5 l -56.4,-61"
         style="fill:#0e2e35;fill-opacity:1;fill-rule:nonzero;stroke:none"
         id="path979" /><path
         d="m 18840.9,6347.9 -180.6,31.3 c 0,0 -7.9,-69.5 71.1,-85.6 96.4,-19.6 109.5,54.3 109.5,54.3"
         style="fill:#ffffff;fill-opacity:1;fill-rule:nonzero;stroke:none"
         id="path981" /><path
         d="m 9713.52,5612.8 c 6.8,-23.5 10.72,-31.3 19.38,-47 55.84,-101.7 185.41,-246.7 185.41,-246.7 l 100.19,225.8 c 0,0 -16.3,70.9 -44.65,172.2 -96.8,-25.2 -188.99,-39.9 -260.33,-104.3"
         style="fill:#f8a492;fill-opacity:1;fill-rule:nonzero;stroke:none"
         id="path983" /><path
         d="m 10288.1,5808.6 c 0,0 -558.96,-240.7 -577.04,-236.1 -11.64,3 -229.3,367.3 -231.62,709.9 -1.08,158.2 163.25,348.6 346.6,310.9 92.3,-18.9 90.87,-44.6 227.46,-243.1 136.5,-198.4 234.6,-541.6 234.6,-541.6"
         style="fill:#13375b;fill-opacity:1;fill-rule:nonzero;stroke:none"
         id="path985" /><path
         d="m 10765.3,1492.7 -13.3,-220 c -4.9,-27.9 -24.1,-96.7 -24.1,-122.1 0,-95.2 452,80.8 350.7,123 -9.1,3.8 -57.2,32.7 -60.2,65.1 -4.6,49.9 -16.4,150.9 -16.4,150.9 l -236.7,3.1"
         style="fill:#8a3a10;fill-opacity:1;fill-rule:nonzero;stroke:none"
         id="path987" /><path
         d="m 11077.5,1274.5 c 0,0 -106.1,-29.1 -160.5,-36.4 -54.3,-7.3 -126,54 -164.4,37.5 -42.4,-18.2 -40.7,-182.3 -40.7,-182.3 0,0 569.1,-46.7 729.1,1.6 63.4,19.2 -146.5,111.8 -363.5,179.6"
         style="fill:#dd513a;fill-opacity:1;fill-rule:nonzero;stroke:none"
         id="path989" /><path
         d="m 9840.64,1492.7 -13.34,-220 c -4.88,-27.9 -24.08,-96.7 -24.08,-122.1 0,-95.2 451.98,80.8 350.68,123 -9.1,3.8 -71.4,54.3 -74.4,86.7 -4.7,49.9 -2.2,129.3 -2.2,129.3 l -236.66,3.1"
         style="fill:#8a3a10;fill-opacity:1;fill-rule:nonzero;stroke:none"
         id="path991" /><path
         d="m 10152.8,1274.5 c 0,0 -106.1,-29.1 -160.46,-36.4 -54.35,-7.3 -126.01,54 -164.46,37.5 -42.31,-18.2 -44,-182.3 -44,-182.3 0,0 571.72,-54.4 732.52,1.6 62.4,21.8 -146.6,111.8 -363.6,179.6"
         style="fill:#dd513a;fill-opacity:1;fill-rule:nonzero;stroke:none"
         id="path993" /><path
         d="m 9978.79,5491.1 398.11,557.7 c 1.7,4.9 5.3,14.9 10.8,30.2 20.1,55.3 61.8,170.4 98.1,285 l 0.4,1.2 c 11.4,40.1 35.6,109.9 59.1,177.5 26,75.1 58.3,168.3 59.4,184.2 -1,2.7 -2.9,7.6 -5.4,14.1 -14.6,37.9 -34.3,128.1 -41.3,167.3 -4.4,25 -8.9,85.8 20.8,85.8 46.7,0 24.5,-60.7 46,-98.6 7.9,25.4 23.9,75.6 32.4,126.4 l 7.8,118.6 c 1.5,8.9 -8,74.3 24.7,74.3 h 1.6 c 29.4,-2.2 28.8,-71.7 41,-189.3 3.9,13.5 7.7,29.8 10.6,44.8 -0.3,8.1 5.6,43.4 10,62.1 -5.9,32.8 -2.5,84.5 32.4,79.6 17.5,-2.5 16.1,-74.6 16.1,-74.6 -0.2,-9.9 -1.2,-86.2 -0.7,-101.2 3.6,25.5 17.6,134.7 45,134.7 22.7,0 24.5,-29.4 24,-52.6 -0.3,-13.8 -14.5,-132 -15.3,-145.8 10.7,17.9 23.4,122.2 33.9,122.2 44.3,0 28.3,-148.2 12.1,-186.8 -1.6,-4 -3.2,-11.7 -5.1,-20.7 -5.5,-26.4 -14.8,-70.6 -37.9,-110.2 -27.8,-47.6 -66.2,-123.2 -72,-134.8 -4.3,-23.6 -17.7,-108.6 -34.4,-215.4 -7.2,-45.8 -15,-95.9 -23.2,-147.8 h -0.5 c -1.5,-11.2 -9.8,-46.9 -41.3,-181 -43.1,-183.5 -47.5,-191.4 -49.4,-194.8 -18.7,-33.1 -448,-616.1 -466.3,-640.8 l -10.7,-14.7 -180.81,243.4"
         style="fill:#8a3a10;fill-opacity:1;fill-rule:nonzero;stroke:none"
         id="path995" /><path
         d="m 10719.3,6791.8 c 0,0 -32.3,82.7 -89.9,82.8 0,0 32.2,11.6 59.7,-10.2 27.6,-21.8 30.2,-72.6 30.2,-72.6"
         style="fill:#501c00;fill-opacity:1;fill-rule:nonzero;stroke:none"
         id="path997" /><path
         d="m 9882.6,6951.5 -51.25,-324.1 c 0,0 195.25,-156.8 309.15,-123.7 95.5,27.7 30,152.6 30,152.6 0,0 -50.9,173 -35.3,263.7 15.6,90.7 -252.6,31.5 -252.6,31.5"
         style="fill:#8a3a10;fill-opacity:1;fill-rule:nonzero;stroke:none"
         id="path999" /><path
         d="m 9919.39,6853.5 c 48.95,-23.1 145.71,-54.6 221.01,-62.3 -7.2,45.4 -11.3,93.4 -5.2,128.8 7.2,41.9 -46.1,51.8 -105.5,50.3 -77.77,-6.6 -147.1,-18.8 -147.1,-18.8 l -9.86,-62.3 c 14.8,-15.6 30.35,-28 46.65,-35.7"
         style="fill:#501c00;fill-opacity:1;fill-rule:nonzero;stroke:none"
         id="path1001" /><path
         d="m 9636.16,7325.4 c -8.06,-0.1 77.19,-362.1 209.12,-424.4 131.93,-62.3 328.72,-29.8 365.62,67.7 40.8,107.8 -108.1,477.2 -293.69,524.2 -185.56,46.9 -281.05,-167.5 -281.05,-167.5"
         style="fill:#8a3a10;fill-opacity:1;fill-rule:nonzero;stroke:none"
         id="path1003" /><path
         d="m 9788.83,7658 c -105.39,-60.7 -153.75,-150.9 -170.03,-187.8 -49.46,-23.5 -109.31,-74.2 -138.03,-211 -35.33,-168.2 90.26,-297.9 223.4,-336.9 133.15,-39 153.72,-127.1 153.72,-127.1 l 15.09,94.8 c 0,0 -29.62,82.6 -74.15,123.9 -44.54,41.3 21.1,101.5 26.87,150.7 4.44,37.8 -23.41,111.2 -17.37,173.3 0,0 73.98,112.1 146.91,139.8 124.36,47.2 -31.2,258.3 -166.41,180.3"
         style="fill:#212121;fill-opacity:1;fill-rule:nonzero;stroke:none"
         id="path1005" /><path
         d="m 9844.91,7101.5 c 17.24,-41.8 10.19,-83.3 -15.74,-92.7 -25.94,-9.4 -60.95,16.9 -78.19,58.7 -17.25,41.8 -10.2,83.3 15.74,92.7 25.94,9.4 60.95,-16.9 78.19,-58.7"
         style="fill:#8a3a10;fill-opacity:1;fill-rule:nonzero;stroke:none"
         id="path1007" /><path
         d="m 10336.3,5482.1 768,125.2 c 0,0 -87.4,220 -118.6,220 -31.2,0 -580.7,-239.8 -580.7,-239.8 l -43.7,-87.8 -25,-17.6"
         style="fill:#8a3a10;fill-opacity:1;fill-rule:nonzero;stroke:none"
         id="path1009" /><path
         d="m 9942.99,4955.6 c 0,0 -76.6,-370.3 -45.38,-651.1 31.22,-280.8 33.67,-1278.4 33.67,-1278.4 l -119.13,-1596 282.65,-6.2 c 0,0 335.2,1595.3 329,1554.4 -6.3,-41 112.3,1123.2 112.3,1123.2 l -399.6,889.2 -193.51,-35.1"
         style="fill:#184655;fill-opacity:1;fill-rule:nonzero;stroke:none"
         id="path1011" /><path
         d="m 10017.9,4973.2 c 0,0 -49.93,-333.5 12.5,-479.7 62.4,-146.3 535.5,-1581.3 541.8,-1698.3 6.2,-117 163.5,-1410.3 163.5,-1410.3 l 328.7,9.3 71.1,1437.8 -148.9,1807.1 -144.5,456.9 -824.2,-122.8"
         style="fill:#13375b;fill-opacity:1;fill-rule:nonzero;stroke:none"
         id="path1013" /><path
         d="m 9831.35,6627.4 c 0,0 81.05,-53.2 156.64,-47 75.61,6.1 182.51,75.9 182.51,75.9 l -14.9,50.3 c 0,0 -195.54,28.5 -200.47,25.5 -4.93,-3.1 -123.78,-104.7 -123.78,-104.7"
         style="fill:#8a3a10;fill-opacity:1;fill-rule:nonzero;stroke:none"
         id="path1015" /><path
         d="m 10695.2,5838.2 c 0,0 290.5,-274.1 421.6,-227.4 131.1,46.9 185.4,206.8 -134.6,440.9 -286.3,209.5 -287,-213.5 -287,-213.5"
         style="fill:#8a3a10;fill-opacity:1;fill-rule:nonzero;stroke:none"
         id="path1017" /><path
         d="m 10892,5499.7 c -43.1,234.8 -355.9,965.3 -380.8,1099.8 -12.2,65.5 -180.9,66.9 -341.5,58.4 -169.76,-9 -338.35,-30.5 -338.35,-30.5 0,0 -150.25,-24.7 -216.35,-86.6 -66.1,-62 -83.66,-233.3 11.36,-558.4 75.02,-256.7 168.01,-397.7 214.03,-584.6 9.32,-62.8 17.3,-124.6 27.88,-196.9 16.92,-279.6 -0.2,-648.9 -0.2,-648.9 0,0 817.93,-169.7 1123.83,87.7 0,0 -55.7,619.5 -99.9,860"
         style="fill:#355389;fill-opacity:1;fill-rule:nonzero;stroke:none"
         id="path1019" /><path
         d="m 11100.6,6004.5 c 0,0 -321,-264.9 -339.7,-264.9 -12.1,0 -458,328 -560.9,597.5 -56.9,149 62.4,315.6 198.8,315.1 94.5,-0.4 136.5,-24.7 323.8,-182.7 187.3,-157.9 378,-465 378,-465"
         style="fill:#466eb6;fill-opacity:1;fill-rule:nonzero;stroke:none"
         id="path1021" /><path
         d="m 11582.9,11994.2 c -201.9,-375.5 -670.1,-516.3 -1045.7,-314.3 v 0 c -375.5,201.9 -516.3,670.1 -314.3,1045.7 201.9,375.5 670.1,516.3 1045.7,314.3 v 0 c 375.5,-201.9 516.3,-670.1 314.3,-1045.7 z m 839.6,-147.3 c -78.5,53 -158.8,103.2 -236.2,157.7 -14.2,10 -26.6,35.4 -25.1,52.4 10.2,109.2 26.7,217.8 36.1,327.1 2.8,31.8 10,48.5 40.5,60.4 107.4,42 213.8,86.9 320.5,130.9 17.3,7.1 34.3,14.8 64.2,27.8 -51,163.7 -101.4,325.7 -153,491.7 -137.4,-27.3 -262.7,-50 -386.8,-77.9 -43.8,-9.8 -67.6,-4.7 -95.8,35.8 -57.6,83 -126.7,157.8 -188.7,237.8 -9.5,12.3 -13.6,37.1 -8.1,51.3 42.2,109.3 84.3,218.7 133,325.1 23.4,51 11.7,78.5 -34,102.2 -17.6,9.2 -31.9,24.6 -47.7,37.2 -78.9,42.5 -157.8,84.9 -236.8,127.3 -9.9,2 -20.4,2.4 -29.6,6.2 -96.3,39.4 -77.8,38.6 -132.5,-41.8 -66.6,-97.9 -131.6,-197 -188.6,-282.6 -147.6,13.8 -285.4,26.7 -427.8,40 -53.9,130.9 -110.3,267.6 -166.9,405.2 -173.8,-23.4 -333.5,-78.1 -490.2,-152.4 27.1,-135.1 53.2,-266.8 80.2,-398.4 4.9,-23.6 3.4,-37.9 -19.7,-55.2 -90.6,-67.8 -179.6,-137.9 -265.33,-211.7 -24.71,-21.3 -40.6,-21.4 -67.14,-10.2 -109.55,46 -220.18,89.6 -329.93,135.2 -27.27,11.3 -44.92,10.5 -65.11,-16.2 -90.57,-119.6 -152.33,-253.4 -202.99,-393.4 -10.02,-27.7 3.31,-39.7 24.23,-53.3 96.8,-62.9 192.07,-128.2 289.29,-190.4 28.02,-17.9 36.57,-33.4 30.98,-69.6 -19.35,-125 -31.41,-251.2 -47.44,-387.1 -118.93,-49 -253.89,-104.6 -388.8,-160.2 23.1,-177.1 70.57,-341 149.02,-497.2 147.24,30.3 290.48,59.7 420.22,86.3 80.91,-93.2 153.88,-181.9 232.3,-265.4 29.6,-31.6 34.9,-55.4 17.6,-94.4 -46.21,-103.9 -88.33,-209.6 -131,-315 -8.43,-20.8 -25.04,-45 7.48,-62.2 132.32,-69.9 264.52,-139.8 396.72,-209.6 28.2,-14.9 45.9,-5.4 62.9,21.1 63.3,98.5 131,194.4 192.6,293.9 23.8,38.4 49.4,39.9 89.2,34.5 98.5,-13.2 197.7,-24.5 296.9,-26.8 42.7,-1 58.4,-12.1 72.8,-50.1 46.4,-122.1 97.5,-242.4 145.8,-360.9 105.9,0 394.4,90.4 498.4,155.1 -27.2,129.9 -53.4,261.7 -83.2,392.6 -7.5,32.7 2.2,46.8 27.3,66.5 80.8,63.6 157.1,132.9 237.3,197.3 13.5,10.8 40.9,16.8 56.3,10.8 97.8,-38.3 194.3,-80 290.8,-121.7 53.9,-23.4 75.6,-33 96.3,-19.1 l 225.9,420.2 c 0.6,34.2 -22.9,50.3 -86.4,93.2"
         style="fill:#cae1f9;fill-opacity:1;fill-rule:nonzero;stroke:none"
         id="path1023" /><path
         d="M 7494.5,9480.5 C 7607.16,8917.3 7241.89,8369.3 6678.64,8256.7 6115.4,8144 5567.46,8509.3 5454.8,9072.5 c -112.66,563.3 252.62,1111.2 815.86,1223.9 563.25,112.6 1111.18,-252.6 1223.84,-815.9 z m 998.19,567.6 c -126.97,-12.3 -253.53,-29.2 -380.66,-39 -23.22,-1.8 -58.05,13.9 -70.95,32.9 -83.16,122.1 -159.32,249 -243.3,370.6 -24.44,35.3 -31.26,58.8 -9.82,97.4 75.52,135.8 147.36,273.7 220.45,410.9 11.84,22.3 22.91,44.9 42.77,84 -193.46,126.3 -384.76,251.2 -580.88,379.2 -119.22,-146.2 -229.74,-277.3 -334.7,-412.8 -37.01,-47.8 -66.13,-63 -130.21,-45 -130.96,36.7 -266.96,55.1 -400,84.9 -20.39,4.6 -45.88,26.8 -52.43,46.4 -49.92,149.6 -100.2,299.3 -140.9,451.6 -19.54,73 -55.2,91.5 -123.08,76.9 -26.08,-5.6 -54.19,-1.8 -81.38,-2.3 -118.38,-23.6 -236.76,-47.3 -355.13,-71 -11.99,-6.5 -23.32,-15.1 -36.08,-19.1 -133.8,-41.7 -113.85,-26.6 -101.64,-157 14.87,-158.9 32.41,-317.5 46.64,-455.3 -165.01,-112.3 -319.22,-217.3 -478.49,-325.7 -168.26,89.6 -344.08,183.2 -521.04,277.5 -160.35,-173.4 -279.22,-367.3 -378.1,-578.9 144.05,-117 284.2,-231.5 425.19,-344.8 25.3,-20.4 36.07,-36.5 26.89,-74.3 -35.9,-148.1 -68.07,-297.4 -93.72,-447.5 -7.39,-43.3 -23.8,-57.1 -60.93,-68.3 -153.29,-46.1 -305.5,-95.9 -458.6,-142.7 -38.04,-11.7 -55.65,-27.7 -53.73,-72.7 8.63,-201.9 59.35,-393.8 126.89,-582.6 13.36,-37.4 37.5,-38.4 70.9,-34.6 154.49,17.8 309.42,31.8 463.77,50.6 44.48,5.4 66.62,-3.3 91.87,-45.6 87.26,-146.5 183.05,-287.9 283.05,-442.7 -81.44,-153 -173.85,-326.5 -266.22,-500 175.95,-164 365.91,-293.4 581.46,-388.3 126.9,157.8 250.35,311.3 362.16,450.3 164.06,-27.4 315.9,-56.8 469.01,-76.2 57.86,-7.4 83.75,-27.6 99.24,-83 41.23,-147.4 88.21,-293.3 134.38,-439.4 9.12,-28.8 12.69,-68.3 61.19,-58.2 197.26,41 394.57,81.8 591.82,122.9 41.93,8.7 52.24,33.8 47.17,75.9 -18.84,156.7 -30.82,314.2 -52.3,470.5 -8.28,60.3 17,83.7 63,112.4 113.59,70.7 226.35,144.1 331.23,226.9 45.21,35.7 71.03,37.5 118.62,10.5 152.93,-87 309.27,-168 461.06,-249.6 109.94,90.9 331.91,432.4 384.41,588.7 -139.83,111.6 -280.07,225.9 -423.39,336.2 -35.86,27.6 -37.84,50.6 -28.75,92.5 29.34,135.4 49.12,272.8 77.09,408.6 4.71,22.8 28.03,52.5 49.18,59.5 134.44,44.2 270.45,83.7 406.39,123.2 76,22.1 106.76,30.7 116.35,62.9 l -126.05,630.1 c -28.8,36 -66.98,32.6 -169.7,22.6"
         style="fill:#9bc1f9;fill-opacity:1;fill-rule:nonzero;stroke:none"
         id="path1025" /><path
         d="m 7090.71,12481 c -3.42,0 -7.23,0.7 -11.52,2.2 -84,29.2 -167.97,58.6 -251.98,87.9 -20.65,7.2 -13.05,22.9 -9.94,35.9 15.68,65.8 31.02,131.7 48.89,196.9 6.71,24.5 1.5,38 -18.74,53.9 -53.56,42.1 -104.37,87.7 -160.26,135.4 -73.91,-27.3 -155.5,-57.4 -239.37,-88.3 -60.06,84.9 -102.59,177 -131.97,279 74.37,44.8 148.75,89.5 214.31,128.9 -2.69,81.3 -6.86,156.6 -6.64,231.9 0.05,21.7 -6.35,30.1 -24.42,38.1 -62.72,27.9 -124.55,57.8 -187.08,86.2 -13.51,6.1 -22.43,12 -19,29.1 17.3,86.8 41.68,171 84.26,249.5 6.83,12.5 14.1,17.1 24,17.1 3.84,0 8.07,-0.7 12.84,-1.8 68.59,-17.1 137.52,-32.8 206.05,-50.1 5.09,-1.3 9.5,-2.1 13.53,-2.1 9.1,0 16.28,3.9 25.03,14.1 43.8,51 89.88,100.2 137.1,148.1 12.06,12.3 11.63,20.8 6.67,34.3 -27.63,74.9 -54.71,150 -82.68,227 85.49,57.7 174.51,104.1 274.59,133.4 45.61,-75.9 90.92,-151.2 134.28,-223.4 84.92,4.9 167.13,9.6 255.11,14.7 25.89,55.4 55.27,119.4 85.71,183 16.11,33.5 17.27,45 32.16,45 8.21,0 20.6,-3.5 41.98,-8.7 3.37,-0.8 6.92,-0.9 10.49,-0.9 0.58,0 1.15,0 1.73,0 0.65,0 1.29,0 1.93,0 1.29,0 2.57,0 3.84,0 50.2,-18 100.4,-35.9 150.58,-53.8 10.42,-6 20.19,-13.8 31.35,-17.6 29.01,-9.9 38.31,-25 29.12,-57.1 -19.15,-66.9 -34.12,-135 -49.19,-202.9 -1.97,-9 2.64,-23.1 9.32,-29.5 43.6,-41.5 90.91,-79.4 132.16,-123 12.35,-13 22.56,-18.4 34.32,-18.4 7.46,0 15.55,2.1 25.2,5.9 70.49,27.5 142.13,52 220.46,80.3 45.18,-93 89.25,-183.7 133.82,-275.5 -16.39,-10.3 -25.73,-16.3 -35.26,-22.1 -58.82,-35.3 -117.34,-71.2 -176.77,-105.5 -16.88,-9.7 -19.63,-20.2 -18.41,-39.1 4.2,-65.1 4.22,-130.4 7.97,-195.6 0.58,-10 10.19,-23.9 19.39,-28.5 50.37,-25.2 102.11,-47.5 152.99,-71.7 41.16,-19.5 56.38,-26.9 59.12,-47.1 l -95.36,-267.2 c -4.59,-4.2 -9.64,-5.9 -16.45,-5.9 -9.44,0 -22.26,3.4 -41.88,8.5 -60.44,16 -120.9,31.9 -181.84,45.7 -1.36,0.3 -2.83,0.4 -4.38,0.4 -9.44,0 -21.77,-5.3 -27.75,-11.8 -41.41,-45 -80.1,-92.6 -121.95,-137.2 -12.97,-13.8 -17.43,-22.9 -10.12,-41.5 29.21,-74.3 56.36,-149.4 83.96,-223.4 -55.37,-47.3 -216.95,-126.2 -279.21,-135.6 -38.95,65.3 -79.76,131.5 -117.9,199.1 -9.75,17.3 -18.37,23.9 -35.12,23.9 -3.64,0 -7.66,-0.3 -12.17,-0.9 -58.49,-7.5 -117.86,-9.7 -176.93,-10.7 -23.92,-0.4 -38.82,-3.6 -49.37,-28.3 -27.35,-64 -58.59,-126.4 -87.03,-190 -5.8,-12.9 -12.74,-20.2 -23.57,-20.2 m 198.71,1467.6 c -188.61,0 -365.42,-117.2 -432.45,-305 v 0 c -85.24,-238.8 39.28,-501.5 278.11,-586.7 51,-18.2 103.09,-26.9 154.31,-26.9 188.62,0 365.43,117.1 432.46,305 85.24,238.8 -39.27,501.5 -278.1,586.8 -51.02,18.1 -103.09,26.8 -154.33,26.8"
         style="fill:#ebf3fe;fill-opacity:1;fill-rule:nonzero;stroke:none"
         id="path1027" /><path
         d="m 7420.34,1165.1 -151.12,0.6 c 19.95,659.4 37.51,1660.9 4.19,1717 0.09,-0.1 2.21,-3.6 10.05,-7.5 l 122.64,32 c 19.82,-10 31.78,-16 35.92,-296.4 2.13,-144.3 1.32,-343.6 -2.41,-592.3 -6.35,-423.4 -19.14,-849.1 -19.27,-853.4"
         style="fill:#355389;fill-opacity:1;fill-rule:nonzero;stroke:none"
         id="path1029" /><path
         d="M 7863.08,1173.2 H 6843.57 c -46.96,0 -85.03,-38.1 -85.03,-85.1 0,-8.2 6.66,-14.8 14.87,-14.8 h 1159.83 c 8.21,0 14.87,6.6 14.87,14.8 0,47 -38.07,85.1 -85.03,85.1"
         style="fill:#355389;fill-opacity:1;fill-rule:nonzero;stroke:none"
         id="path1031" /><path
         d="m 7403.84,1257 h -124.88 c -36.95,0 -66.9,-29.9 -66.9,-66.9 0,-36.9 29.95,-66.9 66.9,-66.9 h 124.88 c 36.95,0 66.91,30 66.91,66.9 0,37 -29.96,66.9 -66.91,66.9"
         style="fill:#355389;fill-opacity:1;fill-rule:nonzero;stroke:none"
         id="path1033" /><path
         d="m 3789.18,1075.2 v 3005.9 h -60.33 V 1075.2 h 60.33"
         style="fill:#13375b;fill-opacity:1;fill-rule:nonzero;stroke:none"
         id="path1035" /><path
         d="m 6829.58,5744.2 c -5.54,133.6 14.14,265.5 73.91,389.9 51.42,107 178.66,167.7 294.69,167.9 368.46,0.4 415.31,-486.4 649.85,-674.2 71.67,-57.3 151.77,-104.1 219.59,-165.9 250.4,-228.5 137.61,-651.5 -92.32,-851.8 -159.56,-139 -410.33,-218 -606.98,-109.3 -102.66,56.7 -180.59,151 -236.1,254.3 -78.8,146.6 -129.59,315.8 -185.63,472.1 -59.66,166.3 -109.64,339.4 -117.01,517"
         style="fill:#13375b;fill-opacity:1;fill-rule:nonzero;stroke:none"
         id="path1037" /><path
         d="m 5813.12,4344.4 801.77,223.6 c 0,0 168.93,226.9 386.25,531.3 71.06,-70.3 110.55,-178.4 182.11,-248 l -530.74,-587.1 c -19.15,-21.1 -46.32,-33.3 -74.86,-33.4 l -736.8,-2.4 -252.13,-20.1 v 161.4 l 224.4,-25.3"
         style="fill:#f48c7f;fill-opacity:1;fill-rule:nonzero;stroke:none"
         id="path1039" /><path
         d="m 6967.38,4514.6 c 0,0 275.17,282.2 345.98,404.8 70.81,122.6 -48.21,42.7 -169.8,75 -46.04,12.2 -34.39,282 -121.43,194.3 -142.79,-143.9 -322.32,-395.5 -322.32,-395.5 l 267.57,-278.6"
         style="fill:#96d9c9;fill-opacity:1;fill-rule:nonzero;stroke:none"
         id="path1041" /><path
         d="m 7358.61,5312.5 c 0,0 246.96,48.7 359.65,-45.4 112.69,-94.2 -24.14,-931.2 -24.03,-1070 0.12,-138.8 77.38,-530.8 77.38,-530.8 0,0 -748.48,-131 -867.37,77.3 0,0 -33.83,793.6 -28.79,893.4 5.03,99.8 116.01,508 146.68,551.7 30.68,43.7 336.48,123.8 336.48,123.8"
         style="fill:#50bfa5;fill-opacity:1;fill-rule:nonzero;stroke:none"
         id="path1043" /><path
         d="m 7360.17,5694.5 c 0,0 1.29,-7.4 3.63,-19.9 11.2,-60.3 54.33,-260.3 83.47,-315.2 35.21,-66.5 -120.55,-278.3 -270.47,-252.5 -44.63,7.7 37.72,194.7 33.77,214.5 -7.58,37.9 -17.86,89.6 -28.37,142.7 -5.93,29.9 -11.94,60.2 -17.58,88.7 -16.03,81 -29.11,147.3 -29.11,147.3 l 224.66,-5.6"
         style="fill:#f7a491;fill-opacity:1;fill-rule:nonzero;stroke:none"
         id="path1045" /><path
         d="m 7363.8,5674.6 c -2.34,12.5 -3.63,19.9 -3.63,19.9 l -224.66,5.6 c 0,0 13.08,-66.3 29.11,-147.3 5.61,-28.3 11.59,-58.5 17.48,-88.2 34.69,5 70.93,21.9 107.27,53.6 39.61,34.6 65.58,76.2 81.25,120.6 -2.77,14.2 -5.08,26.4 -6.82,35.8"
         style="fill:#f47458;fill-opacity:1;fill-rule:nonzero;stroke:none"
         id="path1047" /><path
         d="m 7208.96,6204.1 c 0,0 105.89,12.2 172.26,-73.4 66.38,-85.7 137.92,-350.7 -26.97,-494.7 -164.87,-144 -327.79,19 -351.95,191.9 -24.15,172.9 -33.54,382.5 206.66,376.2"
         style="fill:#f7a491;fill-opacity:1;fill-rule:nonzero;stroke:none"
         id="path1049" /><path
         d="m 6953.53,5830.4 c 19.68,-38.2 52.71,-59.3 73.78,-47.2 21.07,12.1 22.2,52.9 2.52,91.1 -19.68,38.1 -52.72,59.3 -73.79,47.2 -21.06,-12.1 -22.19,-52.9 -2.51,-91.1"
         style="fill:#f7a491;fill-opacity:1;fill-rule:nonzero;stroke:none"
         id="path1051" /><path
         d="m 7197.11,6232.4 c 0,0 141.47,-251.9 242.67,-263.5 101.2,-11.7 114.49,-145.6 114.49,-145.6 0,0 -36.18,308.5 -136.37,368 -100.19,59.5 -220.79,41.1 -220.79,41.1"
         style="fill:#13375b;fill-opacity:1;fill-rule:nonzero;stroke:none"
         id="path1053" /><path
         d="m 7413.24,5905.5 c -8.23,-44.7 8.33,-85.7 36.97,-91.6 28.66,-5.9 58.55,25.6 66.78,70.4 8.23,44.7 -8.32,85.7 -36.97,91.6 -28.65,5.9 -58.55,-25.6 -66.78,-70.4"
         style="fill:#f7a491;fill-opacity:1;fill-rule:nonzero;stroke:none"
         id="path1055" /><path
         d="m 6461.16,1756 c 0,0 227.19,-272.4 228.69,-296.1 1.51,-23.7 -9.02,-282.4 -36.04,-306.1 -27.02,-23.7 -106.4,-40.5 -80.88,-67.2 19.29,-20.1 167.67,-15.8 266,-10.4 28.71,1.6 64.7,230.6 76.07,264.3 16.52,48.9 56.67,159 41.66,193.1 -7.31,16.6 -42.31,50.7 -91.62,82.5 -51.87,33.5 -250.25,309.6 -250.25,309.6 L 6461.16,1756"
         style="fill:#f48c7f;fill-opacity:1;fill-rule:nonzero;stroke:none"
         id="path1057" /><path
         d="m 6861.83,1617.8 c 0,0 -152.56,-429.6 -212.27,-450.3 -15.85,-5.5 -91.94,-19.5 -106.29,-53.1 -4.32,-10.2 0,-44 0,-44 h 317.98 c 0,0 40.21,189.2 56.11,272.4 0,0 84.17,203.1 74.82,221.6 -9.35,18.5 -130.35,53.4 -130.35,53.4"
         style="fill:#b75742;fill-opacity:1;fill-rule:nonzero;stroke:none"
         id="path1059" /><path
         d="m 5100.31,1625.2 c 0,0 -185.53,-261.2 -169.21,-343.8 8.74,-44.3 47.66,-102.2 25.33,-143.8 -22.33,-41.7 -47.86,-52.1 -47.86,-52.1 l -578.74,-9.3 c -31.52,-0.5 -10.69,19.8 14.73,38.4 41.6,30.5 75.18,50.7 208.08,114.9 8.67,4.2 40.23,24.2 51.61,31.1 28.86,17.6 57.83,45.3 82.78,73 41.56,46.2 224.29,422.4 224.29,422.4 l 188.99,-130.8"
         style="fill:#f7a491;fill-opacity:1;fill-rule:nonzero;stroke:none"
         id="path1061" /><path
         d="m 4604.33,1260.7 c 153.06,-39.2 266.2,-12.6 329.49,12.9 16.32,-46.2 37.96,-104.1 26.48,-137.5 -14.05,-40.9 -34.05,-50.1 -51.73,-50.6 -139.8,-3.6 -512.11,-8.6 -618.71,-10 -14.88,-0.2 -23.1,17.2 -13.53,28.6 26.44,31.5 316.59,149.6 328,156.6"
         style="fill:#b75742;fill-opacity:1;fill-rule:nonzero;stroke:none"
         id="path1063" /><path
         d="m 5771.4,3236.6 c 0,0 229.73,-262.2 288.32,-303.7 58.6,-41.6 620.92,-1077.1 620.92,-1077.1 l -200.33,-146.2 c 0,0 -502.56,626.6 -738.58,961.8 -199.57,283.4 -126.06,265.4 -243.41,438 -64.61,94.9 -49.97,223.4 35.23,300.4 10.6,9.6 22.11,19.6 34.63,30 173.71,144.8 1364.44,307.7 1364.44,307.7 l 761.61,-74.5 c 0,0 -622.26,-436.4 -645.48,-448 -23.23,-11.6 -859.31,-133.6 -876.73,-133.6 -17.42,0 -400.62,145.2 -400.62,145.2"
         style="fill:#b75742;fill-opacity:1;fill-rule:nonzero;stroke:none"
         id="path1065" /><path
         d="m 7771.61,3666.3 c 0,0 130.64,-392 -65.32,-574.9 C 7510.34,2908.6 6346.2,2928.9 5963,2928.9 c 0,0 -156.77,-429.7 -174.19,-499.3 -17.41,-69.7 -778.02,-969.7 -778.02,-969.7 l -209.02,133.6 c 0,0 818.66,1590.8 882.53,1660.5 63.87,69.7 975.44,348.4 1201.88,412.3 226.43,63.8 885.43,0 885.43,0"
         style="fill:#f47458;fill-opacity:1;fill-rule:nonzero;stroke:none"
         id="path1067" /><path
         d="m 6256.87,4371.3 695.17,153.8 c 0,0 251.41,323.1 492.85,601.1 71.06,-70.4 110.55,-178.4 182.11,-248 l -530.74,-587.1 c -19.14,-21.2 -46.32,-33.3 -74.86,-33.4 l -736.8,-2.4 -252.13,-20.1 v 161.3 l 224.4,-25.2"
         style="fill:#f7a491;fill-opacity:1;fill-rule:nonzero;stroke:none"
         id="path1069" /><path
         d="m 7411.13,4541.5 c 0,0 275.17,282.2 345.98,404.7 70.81,122.6 18.3,328 -103.29,360.3 -121.58,32.2 -510.26,-486.4 -510.26,-486.4 l 267.57,-278.6"
         style="fill:#96d9c9;fill-opacity:1;fill-rule:nonzero;stroke:none"
         id="path1071" /><path
         d="m 4828.7,5162.7 h 1146.51 c 30.33,0 57.66,-18.4 69.17,-46.4 l 353.02,-861 h 632.07 c 17.68,0 32,-14.4 32,-32 0,-17.7 -14.32,-32 -32,-32 H 5230.53 c -49.46,0 -94.31,29 -114.57,74.2 l -355.46,791.8 c -22.2,49.5 13.98,105.4 68.2,105.4"
         style="fill:#b75742;fill-opacity:1;fill-rule:nonzero;stroke:none"
         id="path1073" /><path
         d="m 5445.98,4661.3 c 7.75,-38.7 41.48,-64.5 75.35,-57.8 33.87,6.8 55.04,43.6 47.3,82.3 -7.75,38.7 -41.48,64.6 -75.35,57.8 -33.87,-6.8 -55.04,-43.6 -47.3,-82.3"
         style="fill:#ffffff;fill-opacity:1;fill-rule:nonzero;stroke:none"
         id="path1075" /><path
         d="M 7150.29,4046.1 H 3724.97 c -40.1,0 -72.62,32.5 -72.62,72.6 0,40.1 32.52,72.6 72.62,72.6 h 3425.32 c 40.11,0 72.62,-32.5 72.62,-72.6 0,-40.1 -32.51,-72.6 -72.62,-72.6"
         style="fill:#184655;fill-opacity:1;fill-rule:nonzero;stroke:none"
         id="path1077" /><path
         d="m 7145.24,5731.2 155.34,8 c 0,0 -0.52,-59.2 -68.73,-64.7 -83.18,-6.7 -86.61,56.7 -86.61,56.7"
         style="fill:#ffffff;fill-opacity:1;fill-rule:nonzero;stroke:none"
         id="path1079" /><path
         d="m 6659.27,2888.7 70.15,292 c 49.05,204.2 229.91,352.8 439.79,361.3 l 888.5,35.9 27.42,90.5 -919.51,-37.2 c -249.6,-10.1 -464.66,-186.8 -523,-429.6 l -74.54,-310.3 c 25.24,-1.1 56.02,-2 91.19,-2.6"
         style="fill:#355389;fill-opacity:1;fill-rule:nonzero;stroke:none"
         id="path1081" /><path
         d="m 7851.03,3044.2 c 0,0 -1220.7,-20.9 -1347.96,0 -127.26,20.9 -182.34,-138.6 -144.35,-222.2 37.98,-83.6 142.45,-115.9 296.31,-123.5 153.85,-7.6 1434.06,-43.7 1470.15,-9.5 29.47,28 417.57,1354.8 558.78,1840 28.23,97 -27.44,198.3 -124.35,226.8 -96.47,28.3 -197.72,-26.5 -226.89,-122.7 L 7851.03,3044.2"
         style="fill:#184655;fill-opacity:1;fill-rule:nonzero;stroke:none"
         id="path1083" /><path
         d="m 7150.58,1075.2 v 3005.9 h -60.33 V 1075.2 h 60.33"
         style="fill:#13375b;fill-opacity:1;fill-rule:nonzero;stroke:none"
         id="path1085" /><path
         d="M 7135.51,3886.5 H 3728.85 v -32.3 h 3406.66 v 32.3"
         style="fill:#13375b;fill-opacity:1;fill-rule:nonzero;stroke:none"
         id="path1087" /><path
         d="m 16220.8,18544.8 c 0,0 442.6,-286.5 1533.4,-247.5 0,0 -1169.1,-441.6 -1626.3,-509.9 l -188.1,743.1 281,14.3"
         style="fill:#e25a44;fill-opacity:1;fill-rule:nonzero;stroke:none"
         id="path1089" /><path
         d="m 16429.4,18170.6 c 0,0 -89.3,-209.2 -301.5,-383.2 l -98,387.3 6.3,187.3 393.2,-191.4"
         style="fill:#b75742;fill-opacity:1;fill-rule:nonzero;stroke:none"
         id="path1091" /><path
         d="m 14747.2,18968.7 c 0,0 1278,86.3 1476.8,13.3 l 205.4,-811.4 c 0,0 -727.4,62.5 -1436.1,-173.9 l -246.1,972"
         style="fill:#f47458;fill-opacity:1;fill-rule:nonzero;stroke:none"
         id="path1093" /><path
         d="m 13977.3,9924.1 c 0,0 -61.5,-100.5 -56,-130.3 5.6,-29.7 79.6,-344.8 120.4,-365.6 40.8,-20.9 144.1,-16.8 120.9,-57.7 -17.5,-30.9 -202.1,-72 -325.3,-96.1 -36,-7 -152.1,264.7 -176.7,302.7 -35.7,55.2 -119.7,178.7 -111.8,225.5 3.8,22.8 36.4,75.9 87.3,130.7 53.6,57.6 91.6,165.3 91.6,165.3 l 249.6,-174.5"
         style="fill:#501c00;fill-opacity:1;fill-rule:nonzero;stroke:none"
         id="path1095" /><path
         d="m 14871.5,9952.8 -20.8,-225.9 c 2.8,-34.1 1.9,-120.4 9.4,-150.2 28.4,-111.9 480.5,222.7 354.9,243.6 -11.4,1.9 -52.6,29.6 -65.6,66.8 -20,57.4 9,143 9,143 l -286.9,-77.3"
         style="fill:#792b00;fill-opacity:1;fill-rule:nonzero;stroke:none"
         id="path1097" /><path
         d="m 14688.2,14002.8 c 0,0 130.6,-361.3 132,-366.9 151.8,-599.5 567.1,-1740.4 573,-1858.9 14.5,-288.8 -223.8,-1841.5 -223.8,-1841.5 l -330.5,-42.9 -7.2,1784.9 -324.9,636.9 -555.8,1280.9 737.2,407.5"
         style="fill:#3c8f7c;fill-opacity:1;fill-rule:nonzero;stroke:none"
         id="path1099" /><path
         d="m 13694.8,13402.4 28,-366.6 201.4,-1487.4 -269.3,-1571.6 c 0,0 140.3,-183.3 277.7,-179.2 l 630.7,1703.3 150,2013.1 -126.2,406.9 -892.3,-518.5"
         style="fill:#50bfa5;fill-opacity:1;fill-rule:nonzero;stroke:none"
         id="path1101" /><path
         d="m 13639.6,9936.3 c 0,0 322.8,-483 403.1,-489.9 21.3,-1.9 119.7,4.7 147.9,-32.4 8.5,-11.2 26.5,-67.1 26.5,-67.1 l -405,-116.5 c 0,0 -109.5,251 -155.1,348.8 0,0 -167.5,224.7 -161.8,250.4 5.8,25.7 144.4,106.7 144.4,106.7"
         style="fill:#13375b;fill-opacity:1;fill-rule:nonzero;stroke:none"
         id="path1103" /><path
         d="m 14840,9519.4 12.4,210.2 c 0,0 134.3,-20.6 192.8,3.3 58.5,24 168.2,88.2 168.2,88.2 262.3,-18.4 470.5,-6.9 450.6,-80.1 l -824,-221.6"
         style="fill:#13375b;fill-opacity:1;fill-rule:nonzero;stroke:none"
         id="path1105" /><path
         d="m 15466.8,15222.1 174.7,-134 c 33.6,25.9 107.2,135.2 154.9,169.2 l -159.6,174.1 c -13.1,9.6 -20.2,25.5 -18.6,41.7 1.1,11.4 2.7,22.3 4.4,26.8 4.9,13.8 9.4,30.2 14.4,44 4.9,13.7 -28,41.4 -45.3,46.3 -17.3,4.9 -23.1,-61.4 -30.6,-81.1 -22.6,-59.5 -49.8,-222.4 -55.1,-249.4 l -39.2,-37.6"
         style="fill:#501c00;fill-opacity:1;fill-rule:nonzero;stroke:none"
         id="path1107" /><path
         d="m 15660.4,15105.1 c -49.1,52.3 -118.3,81.7 -169.7,136.1 l -775.1,-533.7 c 0,0 -599.3,708.6 -924.7,457.5 142.4,-239.8 314.1,-469.6 402.5,-579.1 199,-246.4 502.9,-364 562.2,-336.7 66.8,30.6 887.3,834.8 904.8,855.9"
         style="fill:#13375b;fill-opacity:1;fill-rule:nonzero;stroke:none"
         id="path1109" /><path
         d="m 12270.1,16879 c 25.7,-68.3 70,-175.8 70,-175.8 1.2,-30.8 7.6,-159.1 15.7,-316.4 l 218.1,119.5 c 0,0 -33.5,253.7 -25.1,270.5 7.1,14.2 23.6,-0.4 81.7,108.6 16.7,31.5 14.2,83.8 14.2,83.8 0,0 -3.5,64.3 -18.5,68.5 -15.1,4.2 -30.4,-7.3 -34.2,-18.9 -3.9,-11.7 0.6,-37.2 -3.3,-48.9 -3.9,-11.6 -35.4,-28.9 -49.4,-29.9 -14.1,-1 -21.1,188.9 -21.1,188.9 0,0 1.3,54.3 3.1,72.3 1.6,15.2 9.9,60.5 9.9,60.5 0,0 8.2,65.2 -12,67.7 -12,1.4 -35.3,-53.6 -48.9,-110.6 -14.7,-61.4 -19.5,-125.2 -25.8,-125.2 -14.9,0.2 -19.6,104.3 -19.6,104.3 0,0 8.8,49 5.8,71.3 10.4,28.9 13.5,80.7 -11.3,82 -4.6,0.2 -28.7,-68 -28.7,-68 0,0 -7.1,-46.9 -11.9,-68.9 -8.4,-39 -3.2,-98.2 -6.8,-125 -3,-22.3 -9.1,-14.1 -11.3,-15.2 -1.7,-1 -2.2,29.3 -3.6,70.7 -0.7,20.9 -5.9,44.5 -3,68.7 2.7,22.4 2,54 1.1,73 -2.5,53.8 -35.4,44.3 -41.1,-5.9 -2.2,-19.1 -4.4,-39.9 -6.6,-61 -8.3,-82.2 1.5,-159.2 -7,-160.8 -11.1,-2.2 -20.7,138.9 -20.7,138.9 0,0 -26.6,75.6 -34.9,1.5 -9.7,-86 0.6,-154 1.2,-156.9 4.3,-20.2 -1.6,-95 24,-163.3"
         style="fill:#501c00;fill-opacity:1;fill-rule:nonzero;stroke:none"
         id="path1111" /><path
         d="m 13800.3,16226.3 c 0,0 -131.6,108.9 -207.3,-52.1 0,0 -77.2,31.8 -119.2,-46.6 0,0 -135.3,23.5 -143.4,-175.6 0,0 -68.7,4.5 -67.9,-76.4 0.8,-81 47.8,-129.3 47.8,-129.3 0,0 -34.3,-32.9 -8.3,-104.3 22.1,-60.6 75,-63.9 75,-63.9 0,0 26.6,-103.6 76.1,-129.7 49.5,-26.2 109.8,-3.5 109.8,-3.5 0,0 23.4,-55 76,-43.5 52.7,11.5 112.5,70.2 174.8,54.6 62.4,-15.6 214.2,27.2 214.2,27.2 0,0 164.3,98.3 90.8,269.6 0,0 81.4,93.4 -10.5,182.7 0,0 39.6,161.7 -86.8,239.1 -126.4,77.3 -221.1,51.7 -221.1,51.7"
         style="fill:#000000;fill-opacity:1;fill-rule:nonzero;stroke:none"
         id="path1113" /><path
         d="m 14172.5,15107.3 -267.7,137.6 c 0,0 -237.8,-34.6 -267.3,-38.2 -29.5,-3.6 -85,-1111.5 -89.7,-1526.5 -4.7,-415 46,-482.3 46,-482.3 0,0 387.5,-39.1 663.6,19.4 287.1,60.8 594.6,257 594.6,257 0,0 -343,754.9 -421.9,994 -78.8,239.1 -257.6,639 -257.6,639"
         style="fill:#f7cc7f;fill-opacity:1;fill-rule:nonzero;stroke:none"
         id="path1115" /><path
         d="m 13648.1,15209.4 -879.1,702.8 c 0,0 -200.3,740.9 -211.5,768.4 -11,27 -207.2,18.5 -286.5,16.7 -25.4,-0.6 110.4,-801.6 164.2,-932.1 63.6,-154.2 743.1,-809.5 743.1,-809.5 0,0 153.7,-380.9 163.1,-672.8 15.6,-484.8 -18.9,-1158.4 4.1,-1176.6 136.9,-64.8 626.1,-14.3 651,39.2 274.7,590.8 -348.4,2063.9 -348.4,2063.9"
         style="fill:#13375b;fill-opacity:1;fill-rule:nonzero;stroke:none"
         id="path1117" /><path
         d="m 13881.6,15388.9 40.1,-154.1 c 0,0 74.6,-220 19,-270.9 -55.6,-50.9 -292.2,244.3 -292.2,244.3 l -27.1,399.5 260.2,-218.8"
         style="fill:#792b00;fill-opacity:1;fill-rule:nonzero;stroke:none"
         id="path1119" /><path
         d="m 13630.2,15478.3 c 66.7,-129.3 196.5,-198.1 285.4,-220.1 l -34,130.7 -260.2,218.8 8.8,-129.4"
         style="fill:#501c00;fill-opacity:1;fill-rule:nonzero;stroke:none"
         id="path1121" /><path
         d="m 13264.9,15838.4 c 7.3,-60.5 47.6,-105.4 90,-100.2 42.4,5.1 70.9,58.3 63.6,118.7 -7.3,60.5 -47.7,105.4 -90.1,100.2 -42.4,-5.1 -70.8,-58.3 -63.5,-118.7"
         style="fill:#151515;fill-opacity:1;fill-rule:nonzero;stroke:none"
         id="path1123" /><path
         d="m 13466.8,16101.5 c 4.2,-34.7 49.5,-57.8 101.1,-51.6 51.6,6.3 90,39.5 85.8,74.3 -4.2,34.7 -49.5,57.8 -101.1,51.6 -51.6,-6.3 -90,-39.5 -85.8,-74.3"
         style="fill:#151515;fill-opacity:1;fill-rule:nonzero;stroke:none"
         id="path1125" /><path
         d="m 13711.6,16041.8 c 118.3,57.5 259.9,-8.6 294.2,-133.7 14.9,-54.3 30.7,-123 41.3,-198.9 25.4,-182.6 -47.7,-372.1 -130.8,-382.2 -83.1,-10 -327.1,80.6 -366.8,339.4 -24.6,159.8 37.9,315.1 162.1,375.4"
         style="fill:#792b00;fill-opacity:1;fill-rule:nonzero;stroke:none"
         id="path1127" /><path
         d="m 13613.2,15653.3 c 4.9,-40.4 -17.9,-76.4 -50.9,-80.4 -33,-4 -63.8,25.5 -68.6,65.9 -4.9,40.4 17.9,76.3 50.9,80.3 33,4 63.7,-25.5 68.6,-65.8"
         style="fill:#792b00;fill-opacity:1;fill-rule:nonzero;stroke:none"
         id="path1129" /><path
         d="m 14060.5,16176.4 c 94.1,-57.6 136.7,-157.2 95.1,-222.6 -41.5,-65.3 -151.4,-71.6 -245.5,-14 -94,57.6 -136.6,157.3 -95.1,222.6 41.6,65.4 151.5,71.6 245.5,14"
         style="fill:#151515;fill-opacity:1;fill-rule:nonzero;stroke:none"
         id="path1131" /><path
         d="m 13842.9,16093.5 c 3.6,-29.5 -29.2,-57.8 -73.2,-63.1 -44,-5.3 -82.6,14.3 -86.2,43.8 -3.6,29.6 29.2,57.9 73.2,63.2 44,5.3 82.6,-14.3 86.2,-43.9"
         style="fill:#151515;fill-opacity:1;fill-rule:nonzero;stroke:none"
         id="path1133" /><path
         d="m 14107.5,15894.8 c 4.6,-38 -22.1,-72.4 -59.7,-77 -37.5,-4.5 -71.7,22.6 -76.3,60.6 -4.6,38 22.1,72.4 59.7,77 37.5,4.5 71.7,-22.6 76.3,-60.6"
         style="fill:#151515;fill-opacity:1;fill-rule:nonzero;stroke:none"
         id="path1135" /><path
         d="m 14395.7,14942.5 c 0,0 371.6,-878.4 503.8,-1188 14.3,-33.5 86.2,-252.5 88.8,-274.3 5.9,-48.5 -197.8,-135.6 -223.3,-135 -22.8,0.5 -322,928.2 -495.8,1378.9 -59,152.7 -145.3,293.3 -254.9,414.9 l -84.5,69.7 -8.1,26.1 c 0,0 377.4,-33.6 474,-292.3"
         style="fill:#13375b;fill-opacity:1;fill-rule:nonzero;stroke:none"
         id="path1137" /><path
         d="m 16256.5,13147.3 -66.6,-16.8 -1514.8,5982.6 66.7,16.9 1514.7,-5982.7"
         style="fill:#13375b;fill-opacity:1;fill-rule:nonzero;stroke:none"
         id="path1139" /><path
         d="m 15829,15335.4 c -2.4,13.3 -6.7,26.8 -12.1,40.3 -6.2,14.4 -16.3,31.8 -23.1,36.9 -4.4,3.3 -7.6,13.8 -11.8,24.4 -1.3,3.4 -3,6.7 -5.2,9.7 l -0.1,0.2 c -6.3,8.7 -14.2,15.9 -22.9,22.1 -8.2,5.8 -15.4,13.6 -24.6,26.7 -7.2,10.2 -16.5,18.9 -27.7,24.4 -11,5.3 -19.5,5.5 -23.4,-1.3 -18.3,-31.4 -109.7,-131.6 -72.7,-180 31,-40.6 71.4,-82.8 79.7,-101.9 11.5,-26.3 51.7,-24.5 75.7,-15.4 45.2,17.3 80.7,45.8 68.2,113.9"
         style="fill:#792b00;fill-opacity:1;fill-rule:nonzero;stroke:none"
         id="path1141" /><path
         d="M 20989.5,1099 H 1530 v -69 h 19459.5 v 69"
         style="fill:#184655;fill-opacity:1;fill-rule:nonzero;stroke:none"
         id="path1143" /><path
         d="m 14465.6,16495.9 c 3.6,8.2 16.1,9.6 22.1,3.4 9.6,-10 19.4,-19.8 29.1,-29.7 21.5,-21.9 21.7,-23.4 24.9,-22.9 7.7,1.2 8,15.1 7.6,20.2 -0.9,11.4 -4.6,22.6 -3.2,34.1 2.9,22.4 23.5,33.9 42,18.9 16.9,-13.8 33.1,-28.6 49.2,-43.5 1.2,24.5 1.8,49 3.4,73.4 0.6,8.7 9.4,12.5 16.2,7.2 15,-11.8 59.6,-46.6 74.3,-58.1 3.8,-3 19.8,-18.9 24.5,-16 4.1,2.6 3.8,19.7 4.2,23.5 2.3,20.9 3.4,28.3 12.5,96.3 1.1,8.1 13.5,11.9 18.8,5.6 52.3,-62.6 60.2,-56.1 65,-74.8 1,-4.2 -2.4,-7 -6.3,-6.6 -10.1,1 -12.4,1.9 -38.5,27.2 -6.8,6.5 -13.4,13.2 -19.8,20 -9.4,-82.8 -9.8,-103.9 -30.5,-110.1 -14.4,-4.3 -16.8,0.2 -100.9,66.3 -0.1,-25.7 -1.6,-51.3 -2.7,-77 -0.4,-9.8 -10.9,-14.4 -18.4,-8.2 -60.3,49.6 -59.8,53.3 -66.3,56.3 -0.2,0 -0.1,4.5 -1.1,-1.9 -1.8,-10.9 8.5,-34.4 0.9,-54.1 -6.7,-17.4 -25.7,-30.7 -44.1,-21.6 -10.7,5.2 -13.6,10.5 -45.8,41.5 -9.6,-19.9 -21.5,-38.6 -36.5,-57.1 -6.5,-8 -11.8,-12.4 -21.5,-15.9 -8,-2.9 -17.4,5.6 -14.8,13.8 7.5,23.4 28.5,29 55.7,89.8"
         style="fill:#f47458;fill-opacity:1;fill-rule:nonzero;stroke:none"
         id="path1145" /><path
         d="m 14188.5,16799.6 c 22.7,-3.9 44.5,-6 68.4,-5.9 4.5,0 12.9,-1 15.9,3.6 7,10.8 -11.5,27.7 -19.7,70.2 -3.5,18.5 -12.6,56.3 12.3,63.8 12.7,3.9 28.5,0.9 41.6,0.5 9.9,-0.2 19.9,-0.1 29.8,-0.1 -17.7,69.1 -21.8,65.3 -14.7,80.7 1.9,4 8.1,6 11.8,3.5 13.9,-9.2 9.9,-7.3 33.1,-94.3 2.2,-7.9 -3.5,-17.5 -12.4,-17.3 -13.5,0.4 -74.3,5.3 -81.8,4.6 l -0.3,-4.7 c 0.4,-28.7 10.2,-53 20.3,-79.3 8.2,-21.5 7.7,-50.5 -19.7,-56.6 -14.8,-3.3 -45.3,-1.1 -68.7,1.6 12.4,-42.1 25,-84.2 37.1,-126.4 2.4,-8.3 -4,-19.9 -13.7,-19 -27.2,2.4 -54.4,3.9 -81.6,5.2 7.5,-24.7 18.8,-48.2 33.5,-69.7 10.8,-15.7 -11.4,-35 -35.9,6.6 -14.5,22.9 -24.9,47.9 -31.3,74.7 -2.1,8.8 3.8,19.2 13.8,19 27,-0.5 54,-2.2 80.9,-4.4 -11.8,42.1 -23.1,84.3 -35,126.4 -2.9,10.4 6.2,19 16.3,17.3"
         style="fill:#66ccb2;fill-opacity:1;fill-rule:nonzero;stroke:none"
         id="path1147" /><path
         d="m 13556.5,17034.3 c -7.9,0.2 -12.7,5.4 -13.8,12.9 -5.4,37.1 -7.5,73.6 -0.1,110.7 3.9,19.2 31.9,12 29.3,-6.9 -4.1,-29.5 -6.8,-60 -4,-89.9 21.9,0.5 43.5,3 64.9,8.2 8.1,2 18.7,-3.5 18.1,-13.1 -1.4,-23.8 -9.5,-113.9 -10.5,-114.7 0.2,0.1 0.8,0.2 2.3,-0.1 9.4,-1.9 41.7,4.8 56.4,3.9 16.4,-1.1 21.6,-23.3 22.5,-36.8 1.7,-27.3 -18.7,-57.4 -9.2,-84.1 9.2,-25.7 49.7,2.6 79.8,-18.4 23.3,-16.2 15.2,-43.4 5.7,-86.4 -2.4,-10.6 -4.8,-20.9 -15.3,-26.1 -2.5,-1.3 -6.3,-1.5 -8.4,0.9 -11.4,13.2 -5.5,28.7 2.2,68 0.9,5 4.1,13.5 0.6,18 -11.6,15 -45.8,-6.4 -73.4,11.6 -21.5,14 -24.6,41.5 -21.1,64.8 2.8,18.2 14,40.7 8.1,59.3 -15.6,-0.8 -31.4,-2.1 -47,-1.7 -17,0.4 -28.6,9.4 -29.4,26.8 -1,19.3 2.3,39.3 3.8,58.6 1,12.9 1.9,25.8 3.1,38.7 -21.4,-3.4 -42.9,-4.9 -64.6,-4.2"
         style="fill:#07345a;fill-opacity:1;fill-rule:nonzero;stroke:none"
         id="path1149" /><path
         d="m 14685.4,16088.6 c 65.1,-83.5 3.8,-123.9 -23.5,-99.7 -11.7,10.3 -12.2,28.3 1.5,37.1 6.3,4 16.3,-2.3 13.7,-10 -2.1,-6.3 5.1,-8 8.1,-1.3 3.9,9.1 -2.5,20.3 -6.4,28.3 -9.3,18.5 -21.1,42.8 -44,46.4 -34.1,5.4 -71.2,-28.8 -52.5,-81 27.1,-75.3 149.1,-74.4 171.2,4.4 12,42.9 -5.2,89.6 -39.9,116.8 -6.8,5.3 1.5,14.3 8.4,11.4 52,-22.3 70.4,-89.9 51.4,-140.5 -19.5,-51.8 -75,-76.7 -127.9,-67.7 -55.5,9.4 -100.7,58.1 -93.4,116.3 8,63.7 87.7,97.8 133.3,39.5"
         style="fill:#3c8f7c;fill-opacity:1;fill-rule:nonzero;stroke:none"
         id="path1151" /><path
         d="m 13340.8,16785.9 c 9.1,-13.6 14.2,-41.3 -4.2,-49.9 -8.6,-4 -18.9,-1.4 -21.9,8.5 -2.9,9.7 2.4,18.6 -6.3,26.2 -7.4,6.5 -18.5,2.9 -25.4,-2.7 -21.3,-17.3 -15.8,-55.3 -4.7,-76.7 17.5,-34.1 65.4,-41 89.3,-5.2 7.4,11.2 9.3,24.4 12.6,37.2 1.8,7 13.1,10.2 16.7,2.6 13.8,-29.1 -5.6,-64.3 -30.5,-80.8 -26,-17.4 -62.6,-15.9 -88.3,1.3 -28.8,19.2 -42.5,56.9 -41.3,90.6 2.4,70 74.9,92.9 104,48.9"
         style="fill:#f7cc7f;fill-opacity:1;fill-rule:nonzero;stroke:none"
         id="path1153" /><path
         d="m 10036.5,7016.5 c 0,0 31,-50.4 92.3,-20 74.7,37.2 44.9,93.3 44.9,93.3 l -137.2,-73.3"
         style="fill:#ffffff;fill-opacity:1;fill-rule:nonzero;stroke:none"
         id="path1155" /><path
         d="m 13819.7,15532.1 c 0,0 6.1,-58.9 74.5,-57.9 83.5,1.2 80.9,64.6 80.9,64.6 l -155.4,-6.7"
         style="fill:#ffffff;fill-opacity:1;fill-rule:nonzero;stroke:none"
         id="path1157" /></g></g></svg>
